<svg width="257" height="257" viewBox="0 0 257 257" fill="none" xmlns="http://www.w3.org/2000/svg">
<path d="M0 128.5C0 57.5314 57.5314 0 128.5 0V0C199.469 0 257 57.5314 257 128.5V128.5C257 199.469 199.469 257 128.5 257V257C57.5314 257 0 199.469 0 128.5V128.5Z" fill="#D8D8D8"/>
<path d="M128.685 134.699C140.872 134.549 152.508 129.602 161.073 120.931C169.637 112.261 174.44 100.564 174.44 88.3765C174.44 76.189 169.637 64.4924 161.073 55.8215C152.508 47.1507 140.872 42.2041 128.685 42.0538C122.554 41.9782 116.469 43.1205 110.782 45.4145C105.096 47.7085 99.9213 51.1086 95.5588 55.4176C91.1964 59.7265 87.7328 64.8587 85.3688 70.5164C83.0049 76.1741 81.7876 82.2448 81.7876 88.3765C81.7876 94.5082 83.0049 100.579 85.3688 106.237C87.7328 111.894 91.1964 117.026 95.5588 121.335C99.9213 125.644 105.096 129.044 110.782 131.338C116.469 133.632 122.554 134.775 128.685 134.699ZM104.606 64.3081C107.767 61.1465 111.519 58.6384 115.649 56.927C119.779 55.2156 124.206 54.3344 128.677 54.3337C133.147 54.3331 137.574 55.213 141.705 56.9232C145.835 58.6334 149.588 61.1404 152.75 64.3011C155.912 67.4618 158.42 71.2143 160.131 75.3443C161.842 79.4743 162.724 83.901 162.724 88.3715C162.725 92.8421 161.845 97.269 160.135 101.399C158.425 105.53 155.918 109.283 152.757 112.445C149.607 115.619 145.859 118.137 141.729 119.853C137.6 121.569 133.171 122.449 128.699 122.441C121.96 122.45 115.37 120.459 109.763 116.719C104.157 112.979 99.7869 107.66 97.2067 101.434C94.6265 95.2083 93.9523 88.3568 95.2696 81.7476C96.5868 75.1384 99.8363 69.0689 104.606 64.3081V64.3081Z" fill="white"/>
<path d="M187.359 199.659C187.408 198.011 188.409 158.891 163.808 136.362C162.746 135.392 161.376 134.827 159.939 134.765C158.501 134.703 157.088 135.149 155.946 136.024C155.679 136.228 128.472 156.672 103.181 136.066C102.06 135.157 100.654 134.671 99.2097 134.695C97.7658 134.718 96.3761 135.248 95.2841 136.193C94.2697 137.074 70.5923 158.124 70.0006 199.392C69.9894 200.204 70.1396 201.01 70.4425 201.764C70.7454 202.518 71.195 203.204 71.7651 203.783C72.3353 204.361 73.0147 204.821 73.7639 205.135C74.513 205.449 75.3171 205.611 76.1295 205.612V205.612H181.23C182.824 205.609 184.355 204.987 185.499 203.876C186.643 202.765 187.31 201.253 187.359 199.659ZM82.5473 193.354C84.4212 169.973 94.5867 155.235 99.99 148.937C122.096 163.625 145.823 156.686 158.87 148.81C171.339 162.9 174.249 183.33 174.918 193.333L82.5473 193.354Z" fill="white"/>
</svg>
