<svg width="785" height="520" viewBox="0 0 785 520" fill="none" xmlns="http://www.w3.org/2000/svg">
<path d="M170.453 436.977H113.27V459.024H170.453V436.977Z" stroke="black" stroke-width="1.35" stroke-linecap="round" stroke-linejoin="round"/>
<path d="M168.096 462.087H111.439C110.77 462.042 110.143 461.744 109.685 461.255C109.227 460.765 108.972 460.12 108.972 459.449C108.972 458.779 109.227 458.133 109.685 457.644C110.143 457.154 110.77 456.856 111.439 456.811H168.096C168.518 456.811 168.922 456.644 169.221 456.345C169.519 456.047 169.687 455.642 169.687 455.22V440.506C169.684 440.085 169.515 439.682 169.217 439.384C168.919 439.086 168.517 438.918 168.096 438.915H111.439C110.74 438.915 110.071 438.637 109.577 438.144C109.084 437.65 108.807 436.981 108.807 436.283C108.807 435.585 109.084 434.915 109.577 434.422C110.071 433.928 110.74 433.651 111.439 433.651H168.096C169.913 433.654 171.654 434.377 172.939 435.662C174.224 436.947 174.947 438.689 174.95 440.506V455.22C174.95 457.039 174.229 458.784 172.943 460.072C171.658 461.359 169.915 462.084 168.096 462.087Z" fill="#1F1F1F"/>
<path d="M168.096 462.087H111.439C110.77 462.042 110.143 461.744 109.685 461.255C109.227 460.765 108.972 460.12 108.972 459.449C108.972 458.779 109.227 458.133 109.685 457.644C110.143 457.154 110.77 456.856 111.439 456.811H168.096C168.518 456.811 168.922 456.644 169.221 456.345C169.519 456.047 169.687 455.642 169.687 455.22V440.506C169.684 440.085 169.515 439.682 169.217 439.384C168.919 439.086 168.517 438.918 168.096 438.915H111.439C110.74 438.915 110.071 438.637 109.577 438.144C109.084 437.65 108.807 436.981 108.807 436.283C108.807 435.585 109.084 434.915 109.577 434.422C110.071 433.928 110.74 433.651 111.439 433.651H168.096C169.913 433.654 171.654 434.377 172.939 435.662C174.224 436.947 174.947 438.689 174.95 440.506V455.22C174.95 457.039 174.229 458.784 172.943 460.072C171.658 461.359 169.915 462.084 168.096 462.087V462.087Z" stroke="black" stroke-width="1.35" stroke-linecap="round" stroke-linejoin="round"/>
<path d="M171.662 443.712H139.577" stroke="black" stroke-width="1.35" stroke-linecap="round" stroke-linejoin="round"/>
<path d="M171.661 450.423H135.521" stroke="black" stroke-width="1.35" stroke-linecap="round" stroke-linejoin="round"/>
<path d="M171.661 467.686H51.085V507.356H171.661V467.686Z" fill="white"/>
<path d="M171.661 467.686H51.085V507.356H171.661V467.686Z" stroke="black" stroke-width="1.35" stroke-linecap="round" stroke-linejoin="round"/>
<path d="M51.085 481.288H103.399" stroke="black" stroke-width="1.35" stroke-linecap="round" stroke-linejoin="round"/>
<path d="M51.085 493.79H117.982" stroke="black" stroke-width="1.35" stroke-linecap="round" stroke-linejoin="round"/>
<path d="M175.453 511.303H56.0978C53.7338 511.3 51.4667 510.363 49.7906 508.695C48.1145 507.028 47.1652 504.766 47.1494 502.402V471.825C47.1652 469.461 48.1145 467.199 49.7906 465.532C51.4667 463.865 53.7338 462.927 56.0978 462.924H175.453C176.497 462.924 177.498 463.339 178.236 464.077C178.974 464.815 179.389 465.816 179.389 466.86C179.389 467.904 178.974 468.905 178.236 469.643C177.498 470.381 176.497 470.796 175.453 470.796H56.0978C55.8122 470.796 55.5384 470.909 55.3365 471.111C55.1345 471.313 55.0211 471.587 55.0211 471.873V502.402C55.0211 502.688 55.1345 502.962 55.3365 503.164C55.5384 503.366 55.8122 503.479 56.0978 503.479H175.453C176.497 503.479 177.498 503.894 178.236 504.632C178.974 505.37 179.389 506.371 179.389 507.415C179.389 508.459 178.974 509.46 178.236 510.198C177.498 510.936 176.497 511.351 175.453 511.351V511.303Z" fill="#F94144"/>
<path d="M175.453 511.303H56.0978C53.7338 511.3 51.4667 510.363 49.7906 508.695C48.1145 507.028 47.1652 504.766 47.1494 502.402V471.825C47.1652 469.461 48.1145 467.199 49.7906 465.532C51.4667 463.865 53.7338 462.927 56.0978 462.924H175.453C176.497 462.924 177.498 463.339 178.236 464.077C178.974 464.815 179.389 465.816 179.389 466.86C179.389 467.904 178.974 468.905 178.236 469.643C177.498 470.381 176.497 470.796 175.453 470.796H56.0978C55.8122 470.796 55.5384 470.909 55.3365 471.111C55.1345 471.313 55.0211 471.587 55.0211 471.873V502.402C55.0211 502.688 55.1345 502.962 55.3365 503.164C55.5384 503.366 55.8122 503.479 56.0978 503.479H175.453C176.497 503.479 177.498 503.894 178.236 504.632C178.974 505.37 179.389 506.371 179.389 507.415C179.389 508.459 178.974 509.46 178.236 510.198C177.498 510.936 176.497 511.351 175.453 511.351V511.303Z" stroke="black" stroke-width="1.35" stroke-linecap="round" stroke-linejoin="round"/>
<path d="M662.637 512.093H479.244H451.082H427.755H423.149H26.3818" stroke="black" stroke-width="1.35" stroke-linecap="round" stroke-linejoin="round"/>
<path d="M218.186 377.137V381.575C218.185 383.727 217.422 385.808 216.032 387.449H168.359V377.185L218.186 377.137Z" fill="white"/>
<path d="M218.186 377.137V381.575C218.185 383.727 217.422 385.808 216.032 387.449H168.359V377.185L218.186 377.137Z" stroke="black" stroke-width="1.35" stroke-linecap="round" stroke-linejoin="round"/>
<path d="M474.47 512.092L347.949 508.755L221.439 512.092C201.305 477.902 218.377 429.894 256.443 390.955C275.751 371.204 299.905 362.925 319.01 359.563C328.558 357.871 338.256 357.174 347.949 357.482C356.617 357.2 365.292 357.733 373.861 359.073C393.396 362.076 419.105 370.139 439.442 390.955C477.532 429.894 494.604 477.902 474.47 512.092Z" fill="#F9C74F"/>
<path d="M474.47 512.092L347.949 508.755L221.439 512.092C201.305 477.902 218.377 429.894 256.443 390.955C275.751 371.204 299.905 362.925 319.01 359.563C328.558 357.871 338.256 357.174 347.949 357.482C356.617 357.2 365.292 357.733 373.861 359.073C393.396 362.076 419.105 370.139 439.442 390.955C477.532 429.894 494.604 477.902 474.47 512.092Z" stroke="black" stroke-width="1.35" stroke-linecap="round" stroke-linejoin="round"/>
<path d="M217.719 451.284C217.719 451.284 230.244 438.352 246.131 443.149C261.539 447.791 271.708 467.291 270.141 478.093C269.327 483.728 261.073 486.802 252.316 480.079C243.559 473.356 217.719 451.284 217.719 451.284Z" fill="#1F1F1F"/>
<path d="M217.719 451.284C217.719 451.284 230.244 438.352 246.131 443.149C261.539 447.791 271.708 467.291 270.141 478.093C269.327 483.728 261.073 486.802 252.316 480.079C243.559 473.356 217.719 451.284 217.719 451.284Z" stroke="black" stroke-width="1.35" stroke-linecap="round" stroke-linejoin="round"/>
<path d="M478.154 451.284C478.154 451.284 465.629 438.352 449.742 443.149C434.322 447.791 424.165 467.291 425.732 478.093C426.546 483.728 434.8 486.802 443.545 480.079C452.29 473.356 478.154 451.284 478.154 451.284Z" fill="#1F1F1F"/>
<path d="M478.154 451.284C478.154 451.284 465.629 438.352 449.742 443.149C434.322 447.791 424.165 467.291 425.732 478.093C426.546 483.728 434.8 486.802 443.545 480.079C452.29 473.356 478.154 451.284 478.154 451.284Z" stroke="black" stroke-width="1.35" stroke-linecap="round" stroke-linejoin="round"/>
<path d="M351.394 379.685C350.198 379.769 348.918 379.817 347.578 379.817C346.513 379.817 345.496 379.817 344.515 379.733C317.814 378.405 319.01 359.575 319.01 359.575C328.558 357.883 338.256 357.186 347.949 357.494C356.616 357.208 365.292 357.737 373.861 359.073C373.861 359.073 377.115 377.986 351.394 379.685Z" fill="#1F1F1F"/>
<path d="M363.093 345.782V365.617C363.093 365.617 358.428 372.041 346.572 372.041C334.717 372.041 330.027 365.617 330.027 365.617V345.782H363.093Z" fill="white"/>
<path d="M363.093 345.782V365.617C363.093 365.617 358.428 372.041 346.572 372.041C334.717 372.041 330.027 365.617 330.027 365.617V345.782H363.093Z" stroke="black" stroke-width="1.35" stroke-linecap="round" stroke-linejoin="round"/>
<path d="M378.981 314.81C378.981 338.329 364.087 356.19 345.724 356.19C327.361 356.19 312.467 338.329 312.467 314.81C312.467 291.29 327.361 268.572 345.724 268.572C364.087 268.572 378.981 291.29 378.981 314.81Z" fill="white"/>
<path d="M378.981 314.81C378.981 338.329 364.087 356.19 345.724 356.19C327.361 356.19 312.467 338.329 312.467 314.81C312.467 291.29 327.361 268.572 345.724 268.572C364.087 268.572 378.981 291.29 378.981 314.81Z" stroke="black" stroke-width="1.35" stroke-linecap="round" stroke-linejoin="round"/>
<path d="M385.513 305.706C385.297 306.304 385.082 306.902 384.867 307.38C384.356 308.631 383.731 309.833 383 310.969C382.681 311.483 382.313 311.963 381.9 312.405L381.11 312.776C380.692 312.979 380.273 313.158 379.914 313.338L379.017 313.697L378.215 314.008C347.111 325.576 324.968 288.239 324.968 288.239C324.8 305.131 316.701 314.965 313.663 318.075C313.348 318.407 313.016 318.722 312.67 319.02L312.514 319.164C311.916 318.446 311.318 317.74 310.815 317.035C310.696 316.867 310.576 316.712 310.456 316.568C309.81 315.683 309.188 314.809 308.614 313.936C307.7 312.556 306.858 311.131 306.09 309.665C305.432 308.385 304.894 307.117 304.331 305.849C302.779 302.069 301.835 298.068 301.532 293.994C299.917 270.989 320.422 251.788 339.551 249.922C365.415 247.398 370.475 260.425 370.475 260.425C373.873 259.504 387.941 263.105 388.336 284.351C388.515 294.508 387.08 301.327 385.513 305.706Z" fill="#485870"/>
<path d="M309.548 321.999L305.218 320.934L306.546 315.503C306.043 311.723 303.28 286.792 316.451 271.407C323.103 263.655 332.661 259.731 344.875 259.731C358.633 259.731 369.089 264.074 375.979 272.628C389.521 289.508 384.007 316.592 383.337 319.619L378.982 318.65C379.604 315.838 384.748 290.68 372.51 275.415C366.528 267.962 357.245 264.182 344.911 264.182C334.061 264.182 325.639 267.591 319.873 274.291C307.24 289.005 311.008 315.025 311.056 315.288V315.719L309.548 321.999Z" fill="white"/>
<path d="M309.548 321.999L305.218 320.934L306.546 315.503C306.043 311.723 303.28 286.792 316.451 271.407C323.103 263.655 332.661 259.731 344.875 259.731C358.633 259.731 369.089 264.074 375.979 272.628C389.521 289.508 384.007 316.592 383.337 319.619L378.982 318.65C379.604 315.838 384.748 290.68 372.51 275.415C366.528 267.962 357.245 264.182 344.911 264.182C334.061 264.182 325.639 267.591 319.873 274.291C307.24 289.005 311.008 315.025 311.056 315.288V315.719L309.548 321.999Z" stroke="black" stroke-width="1.35" stroke-linecap="round" stroke-linejoin="round"/>
<path d="M354.612 308.852C354.038 309.845 361.18 312.788 362.196 311.771C363.213 310.754 355.413 307.464 354.612 308.852Z" fill="black"/>
<path d="M356.622 322.681C356.276 322.681 355.945 322.544 355.7 322.299C355.456 322.055 355.318 321.723 355.318 321.377V318.171C355.318 317.825 355.456 317.494 355.7 317.249C355.945 317.005 356.276 316.867 356.622 316.867C356.795 316.866 356.965 316.898 357.125 316.963C357.285 317.028 357.43 317.124 357.552 317.245C357.674 317.366 357.772 317.51 357.838 317.669C357.904 317.828 357.938 317.999 357.938 318.171V321.389C357.937 321.561 357.901 321.73 357.834 321.887C357.767 322.045 357.67 322.188 357.548 322.308C357.426 322.428 357.281 322.523 357.122 322.587C356.963 322.651 356.794 322.683 356.622 322.681Z" fill="black"/>
<path d="M336.537 322.681C336.364 322.683 336.194 322.65 336.034 322.585C335.874 322.521 335.729 322.425 335.607 322.304C335.484 322.182 335.387 322.038 335.321 321.879C335.255 321.72 335.221 321.55 335.221 321.377V318.171C335.221 317.999 335.255 317.828 335.321 317.669C335.387 317.51 335.484 317.366 335.607 317.245C335.729 317.124 335.874 317.028 336.034 316.963C336.194 316.898 336.364 316.866 336.537 316.867C336.709 316.866 336.88 316.898 337.039 316.963C337.199 317.028 337.344 317.124 337.466 317.245C337.589 317.366 337.686 317.51 337.752 317.669C337.818 317.828 337.853 317.999 337.853 318.171V321.389C337.851 321.561 337.816 321.73 337.749 321.887C337.682 322.045 337.584 322.188 337.462 322.308C337.34 322.428 337.195 322.523 337.037 322.587C336.878 322.651 336.708 322.683 336.537 322.681Z" fill="black"/>
<path d="M354.815 322.681C355.348 322.329 355.972 322.142 356.61 322.142C357.248 322.142 357.872 322.329 358.404 322.681" stroke="black" stroke-width="1.35" stroke-linecap="round" stroke-linejoin="round"/>
<path d="M343.104 340.901C343.104 340.901 352.926 340.028 357.975 332.743" stroke="black" stroke-width="1.35" stroke-linecap="round" stroke-linejoin="round"/>
<path d="M338.545 308.852C339.119 309.845 331.989 312.788 330.96 311.771C329.932 310.754 337.743 307.464 338.545 308.852Z" fill="black"/>
<path d="M338.343 322.681C337.811 322.329 337.186 322.142 336.548 322.142C335.91 322.142 335.286 322.329 334.754 322.681" stroke="black" stroke-width="1.35" stroke-linecap="round" stroke-linejoin="round"/>
<path d="M343.486 324.153C343.486 324.153 342.721 328.053 346.513 327.658C350.305 327.263 350.389 323.184 347.709 323.088" stroke="black" stroke-width="1.35" stroke-linecap="round" stroke-linejoin="round"/>
<path d="M243.464 443.221C266.816 450.746 264.268 501.433 250.642 512.093H200.397C200.397 512.093 198.232 482.281 207.18 465.161C216.129 448.042 231.932 439.525 243.464 443.221Z" fill="white"/>
<path d="M243.464 443.221C266.816 450.746 264.268 501.433 250.642 512.093H200.397C200.397 512.093 198.232 482.281 207.18 465.161C216.129 448.042 231.932 439.525 243.464 443.221Z" stroke="black" stroke-width="1.35" stroke-linecap="round" stroke-linejoin="round"/>
<path d="M216.667 512.092H244.828C246.993 517.667 257.629 518.002 268.156 512.092L268.323 511.997C269.902 511.095 271.214 509.79 272.124 508.216C273.034 506.642 273.51 504.855 273.503 503.036V501.9C273.509 500.083 273.033 498.298 272.123 496.726C271.212 495.154 269.901 493.851 268.323 492.952H268.252C265.859 491.648 258.681 493.394 254.698 492.377C250.714 491.36 244.326 486.707 242.376 484.721L242.292 484.637C240.243 482.317 237.446 480.787 234.387 480.313C231.328 479.839 228.199 480.45 225.544 482.041C219.753 485.152 217.516 501.409 216.667 512.092Z" fill="white"/>
<path d="M216.667 512.092H244.828C246.993 517.667 257.629 518.002 268.156 512.092L268.323 511.997C269.902 511.095 271.214 509.79 272.124 508.216C273.034 506.642 273.51 504.855 273.503 503.036V501.9C273.509 500.083 273.033 498.298 272.123 496.726C271.212 495.154 269.901 493.851 268.323 492.952H268.252C265.859 491.648 258.681 493.394 254.698 492.377C250.714 491.36 244.326 486.707 242.376 484.721L242.292 484.637C240.243 482.317 237.446 480.787 234.387 480.313C231.328 479.839 228.199 480.45 225.544 482.041C219.753 485.152 217.516 501.409 216.667 512.092Z" stroke="black" stroke-width="1.35" stroke-linecap="round" stroke-linejoin="round"/>
<path d="M268.647 511.817L268.156 512.092C257.629 518.002 246.993 517.667 244.828 512.092C244.267 510.51 244.267 508.782 244.828 507.2C248.249 495.679 260.093 496.265 260.093 496.265" stroke="black" stroke-width="1.35" stroke-linecap="round" stroke-linejoin="round"/>
<path d="M452.494 443.221C429.13 450.746 431.69 501.433 445.316 512.093H495.489C495.489 512.093 497.655 482.281 488.706 465.161C479.758 448.042 463.967 439.525 452.494 443.221Z" fill="white"/>
<path d="M452.494 443.221C429.13 450.746 431.69 501.433 445.316 512.093H495.489C495.489 512.093 497.655 482.281 488.706 465.161C479.758 448.042 463.967 439.525 452.494 443.221Z" stroke="black" stroke-width="1.35" stroke-linecap="round" stroke-linejoin="round"/>
<path d="M479.243 512.093H451.082C448.905 517.668 438.281 518.003 427.754 512.093L427.587 511.997C426.006 511.096 424.693 509.792 423.781 508.218C422.869 506.644 422.39 504.856 422.395 503.037V501.9C422.391 500.083 422.87 498.297 423.782 496.725C424.694 495.153 426.007 493.851 427.587 492.952C429.979 491.648 437.217 493.395 441.153 492.378C445.088 491.361 451.525 486.707 453.475 484.721L453.558 484.638C455.605 482.313 458.402 480.78 461.462 480.306C464.523 479.832 467.652 480.446 470.307 482.042C476.157 485.152 478.394 501.41 479.243 512.093Z" fill="white"/>
<path d="M479.243 512.093H451.082C448.905 517.668 438.281 518.003 427.754 512.093L427.587 511.997C426.006 511.096 424.693 509.792 423.781 508.218C422.869 506.644 422.39 504.856 422.395 503.037V501.9C422.391 500.083 422.87 498.297 423.782 496.725C424.694 495.153 426.007 493.851 427.587 492.952V492.952C429.979 491.648 437.217 493.395 441.153 492.378C445.088 491.361 451.525 486.707 453.475 484.721L453.558 484.638C455.605 482.313 458.402 480.78 461.462 480.306C464.523 479.832 467.652 480.446 470.307 482.042C476.157 485.152 478.394 501.41 479.243 512.093Z" stroke="black" stroke-width="1.35" stroke-linecap="round" stroke-linejoin="round"/>
<path d="M435.817 496.265C435.817 496.265 447.661 495.679 451.082 507.2C451.631 508.784 451.631 510.508 451.082 512.092C448.905 517.667 438.282 518.002 427.754 512.092L427.264 511.817" stroke="black" stroke-width="1.35" stroke-linecap="round" stroke-linejoin="round"/>
<path d="M489.771 513.229C489.771 513.229 495.753 516.543 498.073 508.659C500.813 499.579 496.255 481.73 491.398 480.749C486.541 479.769 483.813 486.731 483.813 486.731L489.771 513.229Z" fill="white"/>
<path d="M489.771 513.229C489.771 513.229 495.753 516.543 498.073 508.659C500.813 499.579 496.255 481.73 491.398 480.749C486.541 479.769 483.813 486.731 483.813 486.731L489.771 513.229Z" stroke="black" stroke-width="1.35" stroke-linecap="round" stroke-linejoin="round"/>
<path d="M468.369 485.319C469.544 483.281 471.288 481.629 473.387 480.566C475.487 479.504 477.85 479.077 480.189 479.338C488.79 479.924 492.152 510.442 490.955 514.234C489.759 518.026 477.796 520.479 476.241 513.325C474.686 506.171 468.369 485.319 468.369 485.319Z" fill="white"/>
<path d="M468.369 485.319C469.544 483.281 471.288 481.629 473.387 480.566C475.487 479.504 477.85 479.077 480.189 479.338C488.79 479.924 492.152 510.442 490.955 514.234C489.759 518.026 477.796 520.479 476.241 513.325C474.686 506.171 468.369 485.319 468.369 485.319Z" stroke="black" stroke-width="1.35" stroke-linecap="round" stroke-linejoin="round"/>
<path d="M477.628 512.093C477.561 513.1 477.305 514.087 476.874 515C473.8 520.814 461.179 520.658 458.26 512.093C458.26 511.949 458.176 511.806 458.128 511.662C456.31 505.394 454.467 492.138 453.534 484.674L453.618 484.59C455.664 482.265 458.461 480.733 461.522 480.258C464.582 479.784 467.712 480.398 470.366 481.994C473.261 485.427 478.501 503.671 477.628 512.093Z" fill="white"/>
<path d="M453.534 484.674L453.618 484.59C455.664 482.265 458.461 480.733 461.522 480.258C464.582 479.784 467.712 480.398 470.366 481.994C473.273 485.427 478.513 503.671 477.64 512.093C477.573 513.1 477.317 514.087 476.886 515C473.812 520.814 461.191 520.658 458.272 512.093C458.272 511.949 458.188 511.806 458.14 511.662C456.669 505.752 455.547 499.76 454.778 493.718" stroke="black" stroke-width="1.35" stroke-linecap="round" stroke-linejoin="round"/>
<path d="M206.138 513.229C206.138 513.229 200.157 516.543 197.836 508.659C195.097 499.579 199.654 481.73 204.511 480.749C209.368 479.769 212.096 486.731 212.096 486.731L206.138 513.229Z" fill="white"/>
<path d="M206.138 513.229C206.138 513.229 200.157 516.543 197.836 508.659C195.097 499.579 199.654 481.73 204.511 480.749C209.368 479.769 212.096 486.731 212.096 486.731L206.138 513.229Z" stroke="black" stroke-width="1.35" stroke-linecap="round" stroke-linejoin="round"/>
<path d="M227.564 485.319C226.388 483.282 224.644 481.631 222.545 480.569C220.446 479.506 218.083 479.079 215.745 479.338C207.143 479.924 203.782 510.442 204.978 514.234C206.174 518.026 218.137 520.479 219.705 513.325C221.272 506.171 227.564 485.319 227.564 485.319Z" fill="white"/>
<path d="M227.564 485.319C226.388 483.282 224.644 481.631 222.545 480.569C220.446 479.506 218.083 479.079 215.745 479.338C207.143 479.924 203.782 510.442 204.978 514.234C206.174 518.026 218.137 520.479 219.705 513.325C221.272 506.171 227.564 485.319 227.564 485.319Z" stroke="black" stroke-width="1.35" stroke-linecap="round" stroke-linejoin="round"/>
<path d="M218.341 512.092C218.408 513.1 218.664 514.086 219.095 514.999C222.169 520.813 234.79 520.658 237.697 512.092L237.841 511.662C239.659 505.393 241.49 492.138 242.435 484.673L242.351 484.589C240.302 482.269 237.505 480.739 234.446 480.265C231.387 479.791 228.258 480.402 225.603 481.993C222.648 485.427 217.408 503.67 218.341 512.092Z" fill="white"/>
<path d="M242.376 484.673L242.292 484.589C240.243 482.269 237.446 480.739 234.387 480.265C231.328 479.791 228.2 480.402 225.544 481.993C222.649 485.427 217.409 503.67 218.282 512.092C218.35 513.1 218.605 514.086 219.036 514.999C222.111 520.813 234.732 520.658 237.639 512.092L237.782 511.662C239.154 506.204 240.212 500.672 240.952 495.093" stroke="black" stroke-width="1.35" stroke-linecap="round" stroke-linejoin="round"/>
<path d="M370.427 260.402C352.925 246.788 310.516 246.979 301.484 293.97C299.869 270.965 320.374 251.765 339.503 249.898C365.367 247.374 370.427 260.402 370.427 260.402Z" fill="white"/>
<path d="M385.513 305.706C385.297 306.304 385.082 306.902 384.867 307.38C384.356 308.631 383.731 309.833 383 310.969C382.681 311.483 382.313 311.963 381.9 312.405L381.11 312.776C380.692 312.979 380.273 313.158 379.914 313.338L379.017 313.697L378.215 314.008C347.111 325.576 324.968 288.239 324.968 288.239C324.8 305.131 316.701 314.965 313.663 318.075C313.348 318.407 313.016 318.722 312.67 319.02L312.514 319.164C311.916 318.446 311.318 317.74 310.815 317.035C310.696 316.867 310.576 316.712 310.456 316.568C309.81 315.683 309.188 314.809 308.614 313.936C307.7 312.556 306.858 311.131 306.09 309.665C305.432 308.385 304.894 307.117 304.331 305.849C302.779 302.069 301.835 298.068 301.532 293.994C299.917 270.989 320.422 251.788 339.551 249.922C365.415 247.398 370.475 260.425 370.475 260.425C373.873 259.504 387.941 263.105 388.336 284.351C388.515 294.508 387.08 301.327 385.513 305.706Z" stroke="black" stroke-width="1.35" stroke-linecap="round" stroke-linejoin="round"/>
<path d="M381.764 305.366L388.449 305.955C389.862 306.079 391.167 306.759 392.078 307.846C392.99 308.933 393.431 310.338 393.307 311.75L392.363 322.476C392.249 323.773 391.88 325.035 391.278 326.19C390.676 327.345 389.853 328.37 388.855 329.207C387.857 330.043 386.704 330.675 385.461 331.066C384.219 331.457 382.912 331.6 381.614 331.485L379.481 331.298L381.764 305.366Z" fill="white"/>
<path d="M381.613 331.522L379.843 331.331C379.183 331.265 378.572 330.955 378.129 330.461C377.686 329.967 377.444 329.326 377.45 328.663L377.51 319.631C377.546 314.56 379.018 309.603 381.757 305.335L383.886 305.526C382.301 314.099 381.54 322.804 381.613 331.522Z" fill="black"/>
<path d="M311.785 331.323L309.653 331.517C307.033 331.754 304.426 330.941 302.406 329.257C300.386 327.572 299.118 325.155 298.88 322.535L297.908 311.812C297.845 311.113 297.92 310.408 298.129 309.738C298.338 309.067 298.677 308.444 299.127 307.905C299.576 307.366 300.128 306.92 300.75 306.594C301.372 306.268 302.052 306.067 302.751 306.004L309.435 305.398L311.785 331.323Z" fill="white"/>
<path d="M381.764 305.366L388.449 305.955C389.862 306.079 391.167 306.759 392.078 307.846C392.99 308.933 393.431 310.338 393.307 311.75L392.363 322.476C392.249 323.773 391.88 325.035 391.278 326.19C390.676 327.345 389.853 328.37 388.855 329.207C387.857 330.043 386.704 330.675 385.461 331.066C384.219 331.457 382.912 331.6 381.614 331.485L379.481 331.298L381.764 305.366Z" stroke="black" stroke-width="1.35" stroke-linecap="round" stroke-linejoin="round"/>
<path d="M311.785 331.323L309.653 331.517C307.033 331.754 304.426 330.941 302.406 329.257C300.386 327.572 299.118 325.155 298.88 322.535L297.908 311.812C297.845 311.113 297.92 310.408 298.129 309.738C298.338 309.067 298.677 308.444 299.127 307.905C299.576 307.366 300.128 306.92 300.75 306.594C301.372 306.268 302.052 306.067 302.751 306.004L309.435 305.398L311.785 331.323Z" stroke="black" stroke-width="1.35" stroke-linecap="round" stroke-linejoin="round"/>
<path d="M309.619 331.51L311.33 331.355C311.991 331.286 312.602 330.974 313.045 330.478C313.487 329.982 313.729 329.34 313.723 328.675L313.639 319.643C313.594 314.576 312.108 309.626 309.356 305.371L307.227 305.563C308.853 314.115 309.654 322.804 309.619 331.51Z" fill="black"/>
<path d="M381.613 331.522L379.843 331.331C379.183 331.265 378.572 330.955 378.129 330.461C377.686 329.967 377.444 329.326 377.45 328.663L377.51 319.631C377.546 314.56 379.018 309.603 381.757 305.335L383.886 305.526C382.301 314.099 381.54 322.804 381.613 331.522V331.522Z" stroke="black" stroke-width="1.35" stroke-linecap="round" stroke-linejoin="round"/>
<path d="M309.619 331.51L311.33 331.355C311.991 331.286 312.602 330.974 313.045 330.478C313.487 329.982 313.729 329.34 313.723 328.675L313.639 319.643C313.594 314.576 312.108 309.626 309.356 305.371L307.227 305.563C308.853 314.115 309.654 322.804 309.619 331.51V331.51Z" stroke="black" stroke-width="1.35" stroke-linecap="round" stroke-linejoin="round"/>
<path d="M739.512 93.8281H471.037C464.232 93.8281 458.715 99.3448 458.715 106.15V384.447C458.715 391.252 464.232 396.769 471.037 396.769H739.512C746.317 396.769 751.834 391.252 751.834 384.447V106.15C751.834 99.3448 746.317 93.8281 739.512 93.8281Z" fill="white"/>
<path d="M559.085 396.769H471.037C467.769 396.769 464.635 395.471 462.324 393.16C460.013 390.849 458.715 387.715 458.715 384.447V217.491" stroke="black" stroke-width="1.35" stroke-linecap="round" stroke-linejoin="round"/>
<path d="M458.715 130.866V106.15C458.715 102.882 460.013 99.748 462.324 97.4372C464.635 95.1264 467.769 93.8282 471.037 93.8282H739.524C741.146 93.8219 742.753 94.136 744.254 94.7524C745.754 95.3688 747.118 96.2754 748.268 97.4203C749.417 98.5651 750.329 99.9256 750.951 101.424C751.573 102.922 751.894 104.528 751.894 106.15V361.621" stroke="black" stroke-width="1.35" stroke-linecap="round" stroke-linejoin="round"/>
<path d="M751.894 106.15V118.388H458.799V106.15C458.799 104.532 459.118 102.93 459.737 101.435C460.356 99.9398 461.264 98.5814 462.408 97.4372C463.552 96.293 464.91 95.3854 466.405 94.7662C467.9 94.1469 469.503 93.8282 471.121 93.8282H739.524C741.146 93.8219 742.754 94.136 744.254 94.7524C745.755 95.3688 747.119 96.2754 748.268 97.4203C749.417 98.5651 750.329 99.9256 750.951 101.424C751.574 102.922 751.894 104.528 751.894 106.15Z" fill="#1F1F1F"/>
<path d="M751.894 106.15V118.388H458.799V106.15C458.799 104.532 459.118 102.93 459.737 101.435C460.356 99.9398 461.264 98.5814 462.408 97.4372C463.552 96.293 464.91 95.3854 466.405 94.7662C467.9 94.1469 469.503 93.8282 471.121 93.8282H739.524C741.146 93.8219 742.754 94.136 744.254 94.7524C745.755 95.3688 747.119 96.2754 748.268 97.4203C749.417 98.5651 750.329 99.9256 750.951 101.424C751.574 102.922 751.894 104.528 751.894 106.15Z" stroke="black" stroke-width="1.35" stroke-linecap="round" stroke-linejoin="round"/>
<path d="M715.036 104.887C715.04 105.733 714.794 106.561 714.328 107.266C713.861 107.972 713.196 108.523 712.416 108.85C711.636 109.177 710.776 109.265 709.946 109.103C709.116 108.941 708.353 108.536 707.754 107.939C707.154 107.343 706.745 106.582 706.578 105.753C706.411 104.924 706.494 104.064 706.817 103.282C707.139 102.5 707.687 101.832 708.39 101.362C709.092 100.891 709.919 100.64 710.765 100.64C711.893 100.64 712.976 101.087 713.776 101.883C714.577 102.678 715.029 103.758 715.036 104.887Z" fill="white"/>
<path d="M741.724 104.887C741.729 105.733 741.482 106.561 741.016 107.266C740.55 107.972 739.884 108.523 739.104 108.85C738.324 109.177 737.465 109.265 736.635 109.103C735.805 108.941 735.042 108.536 734.442 107.939C733.842 107.343 733.433 106.582 733.266 105.753C733.1 104.924 733.183 104.064 733.505 103.282C733.828 102.5 734.375 101.832 735.078 101.362C735.781 100.891 736.608 100.64 737.453 100.64C738.582 100.64 739.665 101.087 740.465 101.883C741.265 102.678 741.718 103.758 741.724 104.887Z" fill="#E5E5E5"/>
<path d="M688.334 104.887C688.338 105.733 688.092 106.562 687.625 107.267C687.158 107.973 686.492 108.524 685.711 108.851C684.93 109.177 684.07 109.265 683.24 109.102C682.41 108.939 681.646 108.533 681.047 107.935C680.448 107.338 680.04 106.576 679.874 105.746C679.709 104.916 679.794 104.055 680.118 103.274C680.443 102.492 680.992 101.825 681.696 101.356C682.401 100.887 683.229 100.638 684.075 100.64C685.202 100.64 686.284 101.087 687.082 101.883C687.88 102.679 688.33 103.76 688.334 104.887Z" fill="white"/>
<path d="M419.045 505.741H276.098L264.506 418.661C264.436 418.132 264.48 417.593 264.635 417.082C264.79 416.57 265.052 416.098 265.405 415.696C265.757 415.294 266.191 414.971 266.677 414.751C267.164 414.53 267.692 414.415 268.226 414.415H426.916C427.451 414.415 427.979 414.53 428.465 414.751C428.952 414.971 429.386 415.294 429.738 415.696C430.09 416.098 430.353 416.57 430.508 417.082C430.663 417.593 430.707 418.132 430.637 418.661L419.045 505.741Z" fill="#1F1F1F"/>
<path d="M419.045 505.741H276.098L264.506 418.661C264.436 418.132 264.48 417.593 264.635 417.082C264.79 416.57 265.052 416.098 265.405 415.696C265.757 415.294 266.191 414.971 266.677 414.751C267.164 414.53 267.692 414.415 268.226 414.415H426.916C427.451 414.415 427.979 414.53 428.466 414.751C428.952 414.971 429.386 415.294 429.738 415.696C430.09 416.098 430.353 416.57 430.508 417.082C430.663 417.593 430.707 418.132 430.637 418.661L419.045 505.741Z" stroke="black" stroke-width="1.35" stroke-linecap="round" stroke-linejoin="round"/>
<path d="M419.044 502.821H276.098V512.093H419.044V502.821Z" fill="white"/>
<path d="M419.044 502.821H276.098V512.093H419.044V502.821Z" stroke="black" stroke-width="1.35" stroke-linecap="round" stroke-linejoin="round"/>
<path d="M344.515 476.599C353.051 476.599 359.971 469.679 359.971 461.142C359.971 452.606 353.051 445.686 344.515 445.686C335.979 445.686 329.059 452.606 329.059 461.142C329.059 469.679 335.979 476.599 344.515 476.599Z" fill="white"/>
<path d="M529.381 139.778H408.124C405.528 139.778 403.039 140.809 401.204 142.644C399.369 144.479 398.338 146.968 398.338 149.564V205.718C398.338 208.314 399.369 210.803 401.204 212.638C403.039 214.473 405.528 215.504 408.124 215.504H516.712L531.224 235.757C532.123 237.012 533.308 238.035 534.681 238.74C536.054 239.445 537.576 239.813 539.119 239.813V149.564C539.119 146.977 538.095 144.495 536.27 142.661C534.445 140.827 531.968 139.79 529.381 139.778ZM434.873 181.254C434.028 181.254 433.203 181.003 432.5 180.534C431.798 180.065 431.251 179.398 430.927 178.617C430.604 177.837 430.52 176.978 430.684 176.15C430.849 175.321 431.256 174.56 431.853 173.963C432.45 173.366 433.211 172.959 434.04 172.794C434.868 172.629 435.727 172.714 436.507 173.037C437.288 173.36 437.955 173.908 438.424 174.61C438.893 175.313 439.144 176.138 439.144 176.983C439.144 178.116 438.694 179.202 437.893 180.003C437.092 180.804 436.006 181.254 434.873 181.254ZM466.491 181.254C465.646 181.254 464.819 181.003 464.116 180.532C463.413 180.062 462.866 179.394 462.544 178.612C462.221 177.83 462.138 176.97 462.305 176.141C462.471 175.312 462.88 174.551 463.48 173.955C464.08 173.358 464.843 172.953 465.673 172.791C466.503 172.629 467.363 172.717 468.142 173.044C468.922 173.371 469.588 173.922 470.054 174.628C470.521 175.333 470.767 176.161 470.762 177.007C470.756 178.138 470.302 179.219 469.499 180.016C468.696 180.812 467.61 181.257 466.48 181.254H466.491ZM498.098 181.254C497.253 181.254 496.427 181.003 495.725 180.534C495.023 180.065 494.475 179.398 494.152 178.617C493.829 177.837 493.744 176.978 493.909 176.15C494.074 175.321 494.481 174.56 495.078 173.963C495.675 173.366 496.436 172.959 497.265 172.794C498.093 172.629 498.952 172.714 499.732 173.037C500.513 173.36 501.18 173.908 501.649 174.61C502.118 175.313 502.369 176.138 502.369 176.983C502.37 177.545 502.261 178.102 502.046 178.622C501.831 179.142 501.515 179.614 501.117 180.011C500.719 180.408 500.246 180.722 499.726 180.935C499.206 181.149 498.648 181.257 498.086 181.254H498.098Z" fill="#F9C74F"/>
<path d="M521.222 130.866H400.012C397.417 130.866 394.928 131.897 393.093 133.732C391.258 135.567 390.227 138.056 390.227 140.652V196.782C390.227 199.378 391.258 201.867 393.093 203.702C394.928 205.537 397.417 206.568 400.012 206.568H508.613L523.124 226.821C524.021 228.076 525.204 229.098 526.575 229.804C527.946 230.509 529.466 230.877 531.008 230.877V140.652C531.008 138.056 529.977 135.567 528.142 133.732C526.307 131.897 523.817 130.866 521.222 130.866ZM426.714 172.33C425.868 172.332 425.041 172.083 424.337 171.615C423.633 171.147 423.083 170.48 422.759 169.699C422.434 168.918 422.348 168.058 422.513 167.229C422.677 166.399 423.084 165.637 423.682 165.039C424.28 164.441 425.042 164.034 425.872 163.87C426.701 163.705 427.561 163.791 428.342 164.115C429.123 164.44 429.79 164.989 430.258 165.694C430.726 166.398 430.975 167.225 430.973 168.071C430.973 169.192 430.531 170.268 429.742 171.066C428.954 171.863 427.883 172.317 426.762 172.33H426.714ZM458.32 172.33C457.475 172.33 456.649 172.079 455.946 171.609C455.244 171.139 454.696 170.472 454.373 169.69C454.051 168.909 453.967 168.05 454.132 167.221C454.298 166.392 454.706 165.632 455.305 165.035C455.903 164.438 456.665 164.032 457.494 163.869C458.324 163.705 459.183 163.792 459.963 164.117C460.743 164.442 461.409 164.991 461.877 165.695C462.345 166.399 462.594 167.226 462.591 168.071C462.591 169.194 462.147 170.272 461.356 171.07C460.566 171.867 459.491 172.32 458.368 172.33H458.32ZM489.939 172.33C489.094 172.33 488.267 172.079 487.565 171.609C486.862 171.139 486.315 170.472 485.992 169.69C485.669 168.909 485.585 168.05 485.751 167.221C485.917 166.392 486.325 165.632 486.923 165.035C487.522 164.438 488.284 164.032 489.113 163.869C489.942 163.705 490.801 163.792 491.581 164.117C492.362 164.442 493.028 164.991 493.496 165.695C493.963 166.399 494.212 167.226 494.21 168.071C494.21 169.194 493.766 170.272 492.975 171.07C492.184 171.867 491.11 172.32 489.987 172.33H489.939Z" stroke="black" stroke-width="1.35" stroke-linecap="round" stroke-linejoin="round"/>
<path d="M562.518 78.0731C562.518 78.0731 518.721 20.2915 385.01 26.4406C251.298 32.5896 206.15 97.884 282.127 112.993C357.423 127.959 404.497 92.0699 336.655 77.1998C268.812 62.3297 183.037 99.0803 148.033 157.173" stroke="black" stroke-width="1.69" stroke-linecap="round" stroke-linejoin="round" stroke-dasharray="13.55 13.55"/>
<path d="M333.187 175.225H265.464C264.176 175.225 262.941 175.737 262.03 176.648C261.119 177.559 260.607 178.794 260.607 180.082V215.481C260.607 216.769 261.119 218.004 262.03 218.915C262.941 219.826 264.176 220.338 265.464 220.338H317.396L330.962 236.081C331.11 236.31 331.332 236.481 331.59 236.566C331.848 236.652 332.128 236.647 332.383 236.552C332.638 236.458 332.853 236.279 332.993 236.045C333.133 235.811 333.189 235.537 333.151 235.268V220.338C334.44 220.338 335.675 219.826 336.586 218.915C337.497 218.004 338.008 216.769 338.008 215.481V180.082C338.008 178.8 337.502 177.57 336.599 176.66C335.695 175.75 334.469 175.235 333.187 175.225ZM299.344 210.229C292.728 210.229 281.662 190.813 288.266 186.698C294.487 182.81 299.344 190.191 299.344 190.191C299.344 190.191 304.213 182.81 310.434 186.698C316.989 190.813 305.924 210.229 299.308 210.229H299.344Z" fill="#2575FC"/>
<path d="M326.667 180.082H259.015C257.726 180.082 256.49 180.593 255.577 181.503C254.664 182.414 254.15 183.649 254.146 184.939V220.337C254.146 221.629 254.659 222.867 255.573 223.78C256.486 224.693 257.724 225.206 259.015 225.206H310.935L324.501 240.95C324.649 241.178 324.871 241.349 325.129 241.435C325.387 241.521 325.667 241.516 325.922 241.421C326.177 241.326 326.392 241.147 326.532 240.913C326.672 240.68 326.728 240.406 326.691 240.136V225.206C327.329 225.206 327.962 225.08 328.552 224.835C329.142 224.591 329.678 224.232 330.129 223.779C330.58 223.327 330.938 222.79 331.181 222.2C331.425 221.609 331.549 220.976 331.548 220.337V184.939C331.548 184.299 331.421 183.665 331.176 183.074C330.93 182.484 330.57 181.947 330.116 181.496C329.663 181.044 329.125 180.687 328.533 180.444C327.941 180.202 327.306 180.078 326.667 180.082V180.082ZM292.823 215.086C286.219 215.086 275.154 195.681 281.745 191.554C287.966 187.666 292.823 195.059 292.823 195.059C292.823 195.059 297.692 187.666 303.913 191.554C310.457 195.681 299.439 215.086 292.823 215.086V215.086Z" stroke="black" stroke-width="1.35" stroke-linecap="round" stroke-linejoin="round"/>
<path d="M583.215 21.7679V24.6031L600.49 39.4732C600.887 39.8141 601.375 40.0338 601.894 40.1062C602.413 40.1785 602.942 40.1005 603.418 39.8814C603.894 39.6623 604.297 39.3113 604.579 38.87C604.862 38.4287 605.012 37.9156 605.012 37.3916V6.13216C605.009 5.60918 604.858 5.09772 604.574 4.65819C604.291 4.21867 603.888 3.86946 603.412 3.65182C602.937 3.43418 602.409 3.3572 601.891 3.42998C601.373 3.50276 600.887 3.72226 600.49 4.06255L583.215 18.9326V21.7679Z" fill="#003049"/>
<path d="M587.006 16.4438H579.278V27.079H587.006V16.4438Z" fill="black"/>
<path d="M582.341 19.2911V22.1264L599.615 36.9845C600.012 37.3285 600.5 37.5512 601.02 37.626C601.539 37.7009 602.07 37.6247 602.548 37.4066C603.025 37.1885 603.43 36.8377 603.714 36.3959C603.998 35.9542 604.149 35.4401 604.149 34.9149V3.73913C604.149 3.21393 603.998 2.69983 603.714 2.25805C603.43 1.81627 603.025 1.46545 602.548 1.24736C602.07 1.02927 601.539 0.953117 601.02 1.02796C600.5 1.10281 600.012 1.3255 599.615 1.66952L582.341 16.4918V19.2911Z" stroke="black" stroke-width="1.35" stroke-linecap="round" stroke-linejoin="round"/>
<path d="M586.206 14.0156H578.478V24.6508H586.206V14.0156Z" stroke="black" stroke-width="1.35" stroke-linecap="round" stroke-linejoin="round"/>
<path d="M574.134 7.39941H548.689C544.454 7.39941 541.021 10.8326 541.021 15.0677V28.4664C541.021 32.7015 544.454 36.1347 548.689 36.1347H574.134C578.369 36.1347 581.803 32.7015 581.803 28.4664V15.0677C581.803 10.8326 578.369 7.39941 574.134 7.39941Z" fill="#003049"/>
<path d="M566.718 21.7674C566.716 22.8174 566.402 23.8432 565.817 24.7151C565.232 25.587 564.402 26.266 563.431 26.6662C562.46 27.0663 561.392 27.1698 560.363 26.9635C559.333 26.7572 558.388 26.2504 557.646 25.5071C556.905 24.7638 556.4 23.8173 556.196 22.7873C555.992 21.7573 556.098 20.6899 556.5 19.72C556.903 18.7502 557.583 17.9213 558.457 17.3382C559.33 16.7551 560.356 16.4439 561.406 16.4438C562.105 16.4438 562.797 16.5816 563.442 16.8493C564.087 17.117 564.673 17.5093 565.166 18.0038C565.66 18.4983 566.051 19.0853 566.317 19.7311C566.583 20.3769 566.72 21.0689 566.718 21.7674Z" fill="white"/>
<path d="M573.321 4.97168H547.875C543.64 4.97168 540.207 8.4049 540.207 12.64V26.0386C540.207 30.2737 543.64 33.707 547.875 33.707H573.321C577.556 33.707 580.989 30.2737 580.989 26.0386V12.64C580.989 8.4049 577.556 4.97168 573.321 4.97168Z" stroke="black" stroke-width="1.35" stroke-linecap="round" stroke-linejoin="round"/>
<path d="M565.916 19.2911C565.918 20.3445 565.608 21.3749 565.024 22.252C564.441 23.129 563.61 23.8132 562.638 24.2179C561.665 24.6227 560.594 24.7298 559.561 24.5258C558.527 24.3217 557.578 23.8156 556.832 23.0716C556.086 22.3276 555.578 21.379 555.372 20.346C555.165 19.313 555.27 18.242 555.673 17.2686C556.075 16.2951 556.758 15.463 557.633 14.8775C558.509 14.292 559.539 13.9795 560.592 13.9795C562.002 13.9795 563.354 14.5387 564.352 15.5345C565.35 16.5303 565.912 17.8813 565.916 19.2911Z" stroke="black" stroke-width="1.35" stroke-linecap="round" stroke-linejoin="round"/>
<path d="M218.185 183.061V381.576C218.182 383.99 217.222 386.303 215.516 388.01C213.809 389.717 211.495 390.677 209.082 390.68H10.5785C8.164 390.68 5.84839 389.721 4.14108 388.013C2.43377 386.306 1.47461 383.991 1.47461 381.576V183.061C1.47461 181.865 1.71009 180.682 2.1676 179.577C2.62512 178.472 3.2957 177.469 4.14108 176.624C4.98645 175.778 5.99005 175.108 7.09459 174.65C8.19912 174.193 9.38296 173.957 10.5785 173.957H209.082C210.277 173.957 211.461 174.193 212.566 174.65C213.67 175.108 214.674 175.778 215.519 176.624C216.364 177.469 217.035 178.472 217.492 179.577C217.95 180.682 218.185 181.865 218.185 183.061V183.061Z" stroke="black" stroke-width="1.35" stroke-linecap="round" stroke-linejoin="round"/>
<path d="M218.185 183.061V199.809H1.47461V183.061C1.47461 181.865 1.71009 180.682 2.1676 179.577C2.62512 178.472 3.2957 177.469 4.14108 176.624C4.98645 175.778 5.99005 175.108 7.09459 174.65C8.19912 174.193 9.38296 173.957 10.5785 173.957H209.082C210.277 173.957 211.461 174.193 212.566 174.65C213.67 175.108 214.674 175.778 215.519 176.624C216.364 177.469 217.035 178.472 217.492 179.577C217.95 180.682 218.185 181.865 218.185 183.061Z" fill="#1F1F1F"/>
<path d="M158.178 187.284C158.178 188.129 157.928 188.955 157.458 189.657C156.988 190.36 156.32 190.907 155.539 191.23C154.758 191.553 153.899 191.637 153.07 191.471C152.241 191.306 151.48 190.898 150.883 190.299C150.287 189.701 149.881 188.939 149.717 188.109C149.554 187.28 149.64 186.421 149.965 185.641C150.29 184.861 150.84 184.194 151.544 183.727C152.247 183.259 153.074 183.01 153.919 183.013C154.48 183.013 155.035 183.123 155.552 183.338C156.07 183.553 156.54 183.868 156.935 184.264C157.331 184.661 157.644 185.132 157.858 185.65C158.071 186.168 158.18 186.723 158.178 187.284Z" fill="white"/>
<path d="M184.843 187.284C184.843 188.128 184.593 188.954 184.124 189.656C183.654 190.359 182.987 190.906 182.207 191.229C181.427 191.552 180.568 191.637 179.739 191.472C178.911 191.307 178.15 190.901 177.553 190.303C176.955 189.706 176.549 188.945 176.384 188.117C176.219 187.288 176.304 186.43 176.627 185.649C176.95 184.869 177.497 184.202 178.2 183.732C178.902 183.263 179.728 183.013 180.573 183.013C181.134 183.011 181.69 183.121 182.209 183.335C182.728 183.549 183.199 183.863 183.596 184.26C183.993 184.657 184.307 185.128 184.522 185.647C184.736 186.166 184.845 186.722 184.843 187.284Z" fill="white"/>
<path d="M211.571 187.284C211.571 188.128 211.32 188.954 210.851 189.656C210.382 190.359 209.715 190.906 208.934 191.229C208.154 191.552 207.295 191.637 206.467 191.472C205.638 191.307 204.877 190.901 204.28 190.303C203.683 189.706 203.276 188.945 203.111 188.117C202.947 187.288 203.031 186.43 203.354 185.649C203.678 184.869 204.225 184.202 204.927 183.732C205.63 183.263 206.455 183.013 207.3 183.013C207.861 183.011 208.417 183.121 208.936 183.335C209.455 183.549 209.927 183.863 210.324 184.26C210.72 184.657 211.035 185.128 211.249 185.647C211.463 186.166 211.572 186.722 211.571 187.284Z" fill="white"/>
<path d="M211.571 187.284C211.571 188.128 211.32 188.954 210.851 189.656C210.382 190.359 209.715 190.906 208.934 191.229C208.154 191.552 207.295 191.637 206.467 191.472C205.638 191.307 204.877 190.901 204.28 190.303C203.683 189.706 203.276 188.945 203.111 188.117C202.947 187.288 203.031 186.43 203.354 185.649C203.678 184.869 204.225 184.202 204.927 183.732C205.63 183.263 206.455 183.013 207.3 183.013C207.861 183.011 208.417 183.121 208.936 183.335C209.455 183.549 209.927 183.863 210.324 184.26C210.72 184.657 211.035 185.128 211.249 185.647C211.463 186.166 211.572 186.722 211.571 187.284Z" fill="#E5E5E5"/>
<path d="M218.185 183.061V199.809H1.47461V183.061C1.47461 181.865 1.71009 180.682 2.1676 179.577C2.62512 178.472 3.2957 177.469 4.14108 176.624C4.98645 175.778 5.99005 175.108 7.09459 174.65C8.19912 174.193 9.38296 173.957 10.5785 173.957H209.082C210.277 173.957 211.461 174.193 212.566 174.65C213.67 175.108 214.674 175.778 215.519 176.624C216.364 177.469 217.035 178.472 217.492 179.577C217.95 180.682 218.185 181.865 218.185 183.061V183.061Z" stroke="black" stroke-width="1.35" stroke-linecap="round" stroke-linejoin="round"/>
<path d="M130.353 114.033C129.723 114.438 129.068 114.801 128.391 115.122H107.863V105.372H112.648L100.912 91.9854L89.1885 105.372H93.9738V115.122H72.189C67.9978 110.463 65.829 104.329 66.1599 98.0711C66.4909 91.8128 69.2943 85.9423 73.9536 81.751C78.6128 77.5598 84.7462 75.391 91.0045 75.722C97.2628 76.0529 103.133 78.8563 107.325 83.5156C109.151 81.8789 111.523 80.983 113.976 81.0033C119.132 81.0033 123.319 84.7717 123.319 89.3775C128.535 88.6477 133.583 90.5738 136.251 94.6771C136.978 95.8024 137.493 97.0512 137.771 98.3618C138.979 103.96 136.144 110.325 130.353 114.033Z" fill="#1F1F1F"/>
<path d="M134.408 116.868C133.777 117.27 133.121 117.634 132.446 117.957H111.87V108.207H116.655L105.003 94.8205L93.2672 108.207H98.0524V117.957H76.2318C72.1179 113.286 70.0132 107.181 70.3749 100.967C70.7367 94.7535 73.5358 88.9335 78.164 84.7718C82.7922 80.61 88.8757 78.4426 95.0927 78.7405C101.31 79.0383 107.158 81.7774 111.367 86.3626C113.197 84.7231 115.574 83.827 118.031 83.8503C123.187 83.8503 127.374 87.6067 127.374 92.2245C132.59 91.4947 137.638 93.4208 140.306 97.5241C141.013 98.6845 141.511 99.9599 141.777 101.292C142.974 106.795 140.198 113.16 134.408 116.868Z" stroke="black" stroke-width="1.35" stroke-linecap="round" stroke-linejoin="round"/>
<path d="M242.268 23.2032L246.73 33.1205L277.559 3.95459L242.268 23.2032Z" fill="#F94144"/>
<path d="M242.268 23.2032L246.73 33.1205L277.559 3.95459L242.268 23.2032Z" stroke="black" stroke-width="1.02" stroke-linecap="round" stroke-linejoin="round"/>
<path d="M243.918 23.2747L246.729 33.1203L242.267 23.2029L241.776 22.9517L243.942 22.4492L243.918 23.2747Z" fill="black"/>
<path d="M277.559 3.95459L262.976 24.0765L243.919 23.2749L242.268 23.2032L241.778 22.9519L232.243 18.0471L277.559 3.95459Z" fill="#F94144"/>
<path d="M277.559 3.95459L262.976 24.0765L243.919 23.2749L242.268 23.2032L241.778 22.9519L232.243 18.0471L277.559 3.95459Z" stroke="black" stroke-width="1.02" stroke-linecap="round" stroke-linejoin="round"/>
<path d="M277.558 3.95459L243.918 23.2749L242.267 23.2032L241.776 22.9519L277.558 3.95459Z" fill="black"/>
<path d="M211.702 252.673H213.042C213.943 252.673 214.807 253.031 215.444 253.668C216.082 254.306 216.44 255.17 216.44 256.071V279.219H211.654V252.673H211.702Z" fill="white"/>
<path d="M187.417 256.417L168.551 279.662H179.437C179.379 277.315 180.02 275.004 181.279 273.022L187.417 263.452V256.417Z" fill="white"/>
<path d="M211.702 252.673H213.042C213.943 252.673 214.807 253.031 215.444 253.668C216.082 254.306 216.44 255.17 216.44 256.071V279.219H211.654V252.673H211.702Z" stroke="black" stroke-width="1.35" stroke-linecap="round" stroke-linejoin="round"/>
<path d="M187.417 256.417L168.551 279.662H179.437C179.379 277.315 180.02 275.004 181.279 273.022L187.417 263.452V256.417Z" stroke="black" stroke-width="1.35" stroke-linecap="round" stroke-linejoin="round"/>
<path d="M205.504 246.106H193.254V279.22H205.504V246.106Z" fill="#003049"/>
<path d="M205.504 246.106H193.254V279.22H205.504V246.106Z" stroke="black" stroke-width="1.35" stroke-linecap="round" stroke-linejoin="round"/>
<path d="M194.713 242.314H185.227V279.22H194.713V242.314Z" fill="#F9C74F"/>
<path d="M194.713 242.314H185.227V279.22H194.713V242.314Z" stroke="black" stroke-width="1.35" stroke-linecap="round" stroke-linejoin="round"/>
<path d="M213.388 242.314H203.901V279.22H213.388V242.314Z" fill="#F94144"/>
<path d="M213.388 242.314H203.901V279.22H213.388V242.314Z" stroke="black" stroke-width="1.35" stroke-linecap="round" stroke-linejoin="round"/>
<path d="M218.186 278.203H145.259V282.294H218.186V278.203Z" fill="white"/>
<path d="M218.186 278.203H145.259V282.294H218.186V278.203Z" stroke="black" stroke-width="1.35" stroke-linecap="round" stroke-linejoin="round"/>
<path d="M511.52 277.622C511.52 277.622 498.839 241.182 498.827 237.366C498.827 232.162 506.172 229.052 510.647 231.528C517.155 235.117 527.132 279.954 527.132 279.954L511.52 277.622Z" fill="white"/>
<path d="M511.52 277.622C511.52 277.622 498.839 241.182 498.827 237.366C498.827 232.162 506.172 229.052 510.647 231.528C517.155 235.117 527.132 279.954 527.132 279.954L511.52 277.622Z" stroke="black" stroke-width="1.35" stroke-linecap="round" stroke-linejoin="round"/>
<path d="M539.119 290.35C523.435 303.294 503.971 304.706 495.764 304.706C492.69 289.022 490.513 276.557 490.513 276.557L529.022 268.183C529.022 268.183 533.113 276.987 539.119 290.35Z" fill="white"/>
<path d="M539.119 290.35C523.435 303.294 503.971 304.706 495.764 304.706C492.69 289.022 490.513 276.557 490.513 276.557L529.022 268.183C529.022 268.183 533.113 276.987 539.119 290.35Z" stroke="black" stroke-width="1.35" stroke-linecap="round" stroke-linejoin="round"/>
<path d="M493.289 266.831C493.797 265.1 494.731 263.526 496.006 262.251C497.282 260.976 498.856 260.041 500.587 259.533C506.568 257.787 512.107 269.163 513.423 275.432C514.739 281.701 513.71 287.096 507.872 287.252C502.034 287.407 500.443 280.397 499.271 276.305C498.098 272.214 493.289 266.831 493.289 266.831Z" fill="white"/>
<path d="M493.289 266.831C493.797 265.1 494.731 263.526 496.006 262.251C497.282 260.976 498.856 260.041 500.587 259.533C506.568 257.787 512.107 269.163 513.423 275.432C514.739 281.701 513.71 287.096 507.872 287.252C502.034 287.407 500.443 280.397 499.271 276.305C498.098 272.214 493.289 266.831 493.289 266.831Z" stroke="black" stroke-width="1.35" stroke-linecap="round" stroke-linejoin="round"/>
<path d="M634.8 316.86L577.449 369.952L574.099 374.175C569.601 378.793 560.234 385.492 543.904 385.11C519.56 384.535 508.996 363.444 502.823 337.843L514.439 328.799C520.757 316.051 530.378 305.231 542.301 297.468C575.642 275.001 620.157 274.834 620.157 274.834L634.8 316.86Z" fill="#1F1F1F"/>
<path d="M634.8 316.86L577.449 369.952L574.099 374.175C569.601 378.793 560.234 385.492 543.904 385.11C519.56 384.535 508.996 363.444 502.823 337.843L514.439 328.799C520.757 316.051 530.378 305.231 542.301 297.468C575.642 275.001 620.157 274.834 620.157 274.834L634.8 316.86Z" stroke="black" stroke-width="1.35" stroke-linecap="round" stroke-linejoin="round"/>
<path d="M574.098 374.187C569.6 378.805 560.233 385.504 543.903 385.121C519.558 384.547 508.995 363.456 502.822 337.855C502.702 337.365 502.595 336.886 502.475 336.408C501.997 334.342 501.518 332.24 501.04 330.103C500.776 328.907 500.525 327.71 500.262 326.514C500.047 325.557 499.843 324.588 499.628 323.619C499.413 322.65 499.185 321.526 498.97 320.473C498.539 318.463 498.121 316.441 497.714 314.491C497.582 313.857 497.463 313.223 497.331 312.589C497.331 312.314 497.223 312.039 497.164 311.764L496.912 310.567C496.757 309.802 496.613 309.048 496.458 308.294C496.35 307.756 496.242 307.23 496.147 306.703C496.051 306.177 495.896 305.423 495.764 304.801L495.441 303.138C495.357 302.72 495.273 302.313 495.202 301.942L495.142 301.643C495.07 301.296 495.01 300.949 494.938 300.602C494.944 300.578 494.944 300.554 494.938 300.53C494.843 300.052 494.759 299.597 494.675 299.131C494.592 298.664 494.508 298.305 494.436 297.934C494.364 297.563 494.257 297.037 494.173 296.594C502.81 297.109 517.597 295.195 534.907 281.162L535.23 281.88C535.386 282.227 535.553 282.586 535.709 282.945C535.864 283.304 535.972 283.531 536.115 283.83L539.118 290.481L542.3 297.659C551.859 318.977 564.683 348.765 574.098 374.187Z" fill="#1F1F1F"/>
<path d="M574.098 374.187C569.6 378.805 560.233 385.504 543.904 385.121C519.559 384.547 508.995 363.456 502.822 337.855C502.703 337.365 502.595 336.886 502.475 336.408C501.997 334.342 501.518 332.241 501.04 330.103C500.777 328.907 500.525 327.711 500.262 326.514C500.047 325.557 499.844 324.588 499.628 323.619C499.413 322.65 499.186 321.526 498.97 320.473C498.54 318.463 498.121 316.441 497.714 314.491C497.583 313.857 497.463 313.223 497.331 312.589C497.331 312.314 497.224 312.039 497.164 311.764L496.913 310.568C496.757 309.802 496.614 309.048 496.458 308.295C496.35 307.756 496.243 307.23 496.147 306.703C496.051 306.177 495.896 305.423 495.764 304.801C495.202 301.906 494.664 299.131 494.161 296.511C502.798 297.025 517.585 295.111 534.907 281.079C536.977 285.637 539.501 291.223 542.3 297.528C545.542 304.813 549.155 313.08 552.876 321.741" stroke="black" stroke-width="1.35" stroke-linecap="round" stroke-linejoin="round"/>
<path d="M539.118 290.35C523.435 303.294 503.971 304.706 495.764 304.706L495.441 303.043C495.369 302.624 495.285 302.218 495.202 301.847L495.142 301.548C495.07 301.201 495.01 300.854 494.938 300.507C494.944 300.483 494.944 300.459 494.938 300.435C494.843 299.957 494.759 299.502 494.675 299.035C494.592 298.569 494.508 298.21 494.436 297.839C494.364 297.468 494.257 296.942 494.173 296.499C502.81 297.014 517.597 295.1 534.907 281.067C535.027 281.306 535.122 281.545 535.242 281.785C535.362 282.024 535.565 282.49 535.721 282.849C535.876 283.208 535.984 283.436 536.127 283.735L539.118 290.35Z" fill="#846BFA"/>
<path d="M539.118 290.35C523.435 303.294 503.971 304.706 495.764 304.706L495.441 303.043C495.369 302.624 495.285 302.218 495.202 301.847L495.142 301.548C495.07 301.201 495.01 300.854 494.938 300.507C494.944 300.483 494.944 300.459 494.938 300.435C494.843 299.957 494.759 299.502 494.675 299.035C494.592 298.569 494.508 298.21 494.436 297.839C494.364 297.468 494.257 296.942 494.173 296.499C502.81 297.014 517.597 295.1 534.907 281.067C535.027 281.306 535.122 281.545 535.242 281.785C535.362 282.024 535.565 282.49 535.721 282.849C535.876 283.208 535.984 283.436 536.127 283.735L539.118 290.35Z" stroke="black" stroke-width="1.35" stroke-linecap="round" stroke-linejoin="round"/>
<path d="M486.313 270.18C485.117 274.319 489.232 290.158 498.276 288.268C507.32 286.378 499.329 268.422 494.328 265.802C491.242 264.199 487.019 267.704 486.313 270.18Z" fill="white"/>
<path d="M486.313 270.18C485.117 274.319 489.232 290.158 498.276 288.268C507.32 286.378 499.329 268.422 494.328 265.802C491.242 264.199 487.019 267.704 486.313 270.18Z" stroke="black" stroke-width="1.35" stroke-linecap="round" stroke-linejoin="round"/>
<path d="M529.859 270.048C529.859 270.048 528.591 262.308 523.77 261.674C518.949 261.04 502.547 270.862 503.612 274.941C504.677 279.021 507.883 282.43 513.924 280.636C519.966 278.841 529.859 270.048 529.859 270.048Z" fill="white"/>
<path d="M529.859 270.048C529.859 270.048 528.591 262.308 523.77 261.674C518.949 261.04 502.547 270.862 503.612 274.941C504.677 279.021 507.883 282.43 513.924 280.636C516.879 279.751 520.755 277.19 523.949 274.798" stroke="black" stroke-width="1.35" stroke-linecap="round" stroke-linejoin="round"/>
<path d="M620.157 274.846C620.157 274.846 664.42 267.848 691.517 300.818C718.613 333.788 721.077 378.458 721.663 391.007H560.533C556.432 371.168 557.843 350.585 564.612 331.491C575.941 299.885 620.157 274.846 620.157 274.846Z" fill="#1F1F1F"/>
<path d="M620.157 274.846C620.157 274.846 664.42 267.848 691.517 300.818C718.613 333.788 721.077 378.458 721.663 391.007H560.533C556.432 371.168 557.843 350.585 564.612 331.491" stroke="black" stroke-width="1.35" stroke-linecap="round" stroke-linejoin="round"/>
<path d="M675.438 333.083C675.438 333.083 680.139 354.054 678.392 392.12" stroke="black" stroke-width="1.35" stroke-linecap="round" stroke-linejoin="round"/>
<path d="M634.799 258.133V280.157C634.799 280.157 630.815 287.263 620.718 287.263C610.622 287.263 606.626 280.145 606.626 280.145V258.133H634.799Z" fill="#846BFA"/>
<path d="M634.799 258.133V280.157C634.799 280.157 630.815 287.263 620.718 287.263C610.622 287.263 606.626 280.145 606.626 280.145V258.133H634.799Z" stroke="black" stroke-width="1.35" stroke-linecap="round" stroke-linejoin="round"/>
<path d="M632.645 255.908V274.559C632.645 274.559 629.271 280.54 620.682 280.54C612.092 280.54 608.719 274.559 608.719 274.559V255.908H632.645Z" fill="white"/>
<path d="M632.645 255.908V274.559C632.645 274.559 629.271 280.54 620.682 280.54C612.092 280.54 608.719 274.559 608.719 274.559V255.908H632.645Z" stroke="black" stroke-width="1.35" stroke-linecap="round" stroke-linejoin="round"/>
<path d="M671.741 292.443C661.824 303.725 640.231 304.119 632.156 288.364C624.081 272.609 632.706 235.858 632.706 235.858L601.53 236.05C601.53 236.05 618.446 258.995 608.852 282.335C601.542 300.112 585.548 306.153 575.247 299.43C571.685 296.993 569.027 293.448 567.687 289.345C560.688 269.905 579.159 261.148 585.966 253.958C592.773 246.768 589.28 231.587 588.885 218.751C588.49 205.915 596.697 182.084 618.554 181.019C638.687 180.05 654.036 198.964 651.907 226.144C649.777 253.324 658.51 257.846 663.953 262.117C669.397 266.388 681.599 281.174 671.741 292.443Z" fill="#1F1F1F"/>
<path d="M591.36 243.646C592.796 257.559 577.746 264.654 573.08 271.437C568.415 278.22 567.625 289.381 575.186 299.418C571.623 296.982 568.965 293.436 567.625 289.333C560.627 269.893 579.098 261.136 585.905 253.947C592.712 246.757 589.219 231.576 588.824 218.739C588.429 205.903 596.636 182.073 618.492 181.008C588.357 187.217 589.912 229.733 591.36 243.646Z" fill="white"/>
<path d="M618.493 181.008C596.636 182.061 588.442 205.903 588.825 218.739C589.207 231.576 592.713 246.745 585.906 253.947C579.099 261.148 560.628 269.893 567.662 289.333C574.696 308.773 599.22 305.675 608.827 282.335C618.433 258.995 601.505 236.05 601.505 236.05L632.681 235.858C632.681 235.858 624.068 272.609 632.143 288.364C640.218 304.12 661.799 303.725 671.717 292.444C681.634 281.163 669.324 266.388 663.929 262.105C658.533 257.823 649.741 253.36 651.882 226.133C654.023 198.905 638.627 180.039 618.493 181.008Z" stroke="black" stroke-width="1.35" stroke-linecap="round" stroke-linejoin="round"/>
<path d="M644.143 233.562C644.143 250.537 633.376 263.409 620.217 263.409C607.057 263.409 596.219 250.537 596.219 233.562C596.219 216.586 606.986 200.208 620.217 200.208C633.448 200.208 644.143 216.598 644.143 233.562Z" fill="white"/>
<path d="M644.143 233.562C644.143 250.537 633.376 263.409 620.217 263.409C607.057 263.409 596.219 250.537 596.219 233.562C596.219 216.586 606.986 200.208 620.217 200.208C633.448 200.208 644.143 216.598 644.143 233.562Z" stroke="black" stroke-width="1.35" stroke-linecap="round" stroke-linejoin="round"/>
<path d="M611.172 232.617H608.528V228.513C608.528 228.164 608.667 227.829 608.914 227.583C609.161 227.336 609.495 227.197 609.844 227.197C610.194 227.197 610.53 227.336 610.779 227.582C611.028 227.828 611.169 228.163 611.172 228.513V232.617Z" fill="#1F1F1F"/>
<path d="M626.15 221.658C626.27 223.154 634.082 224.051 634.309 222.352C634.536 220.653 625.971 219.553 626.15 221.658Z" fill="#1F1F1F"/>
<path d="M629.87 232.617H627.238V228.513C627.238 228.164 627.377 227.829 627.624 227.583C627.871 227.336 628.205 227.197 628.554 227.197C628.903 227.197 629.238 227.336 629.485 227.583C629.732 227.829 629.87 228.164 629.87 228.513V232.617Z" fill="#1F1F1F"/>
<path d="M626.844 232.617C627.344 232.285 627.931 232.108 628.531 232.108C629.131 232.108 629.717 232.285 630.217 232.617" stroke="black" stroke-width="1.35" stroke-linecap="round" stroke-linejoin="round"/>
<path d="M612.201 221.335C612.201 222.843 604.485 224.374 604.126 222.675C603.767 220.976 612.213 219.23 612.201 221.335Z" stroke="black" stroke-width="0.43" stroke-miterlimit="10"/>
<path d="M611.531 232.617C611.033 232.284 610.448 232.107 609.85 232.107C609.251 232.107 608.667 232.284 608.169 232.617" stroke="black" stroke-width="1.35" stroke-linecap="round" stroke-linejoin="round"/>
<path d="M618.133 240.333C618.133 240.333 617.583 243.144 620.311 242.857C623.038 242.57 623.11 239.627 621.148 239.567" stroke="black" stroke-width="1.35" stroke-linecap="round" stroke-linejoin="round"/>
<path d="M628.016 202.195C628.016 202.195 618.59 228.932 594.663 231.815C594.663 231.815 588.682 192.098 618.494 189.945C648.306 187.791 646.2 231.516 646.2 231.516C646.2 231.516 637.647 230.571 628.016 202.195Z" fill="#1F1F1F"/>
<path d="M628.016 202.195C628.016 202.195 618.59 228.932 594.663 231.815C594.663 231.815 588.682 192.098 618.494 189.945C648.306 187.791 646.2 231.516 646.2 231.516C646.2 231.516 637.647 230.571 628.016 202.195Z" stroke="black" stroke-width="1.35" stroke-linecap="round" stroke-linejoin="round"/>
<path d="M641.834 231.528C641.834 231.528 643.975 227.939 650.1 229.733C656.226 231.528 654.479 247.235 641.834 243.826V231.528Z" fill="white"/>
<path d="M643.437 230.081C644.705 229.327 646.847 228.741 650.125 229.734C656.106 231.54 654.575 246.542 642.684 244.09" stroke="black" stroke-width="1.35" stroke-linecap="round" stroke-linejoin="round"/>
<path d="M645.423 235.032C645.87 234.699 646.39 234.477 646.94 234.384C647.49 234.292 648.054 234.331 648.586 234.499C649.117 234.668 649.602 234.96 649.998 235.352C650.394 235.744 650.692 236.225 650.866 236.755" stroke="black" stroke-width="1.35" stroke-linecap="round" stroke-linejoin="round"/>
<path d="M647.564 238.861V234.327" stroke="black" stroke-width="1.35" stroke-linecap="round" stroke-linejoin="round"/>
<path d="M627.574 253.085C626.794 253.293 625.987 253.378 625.181 253.336C622.609 253.229 620.037 251.985 620.192 250.047C620.443 246.936 626.066 247.917 627.562 245.584C629.057 243.252 632.084 242.761 632.634 245.584C632.628 245.628 632.628 245.672 632.634 245.716C633.136 248.515 631.928 251.817 627.574 253.085Z" fill="#1F1F1F"/>
<path d="M627.574 253.085C626.794 253.293 625.987 253.378 625.181 253.336C622.609 253.229 620.037 251.985 620.192 250.047C620.443 246.936 626.066 247.917 627.562 245.584C629.057 243.252 632.084 242.761 632.634 245.584C632.628 245.628 632.628 245.672 632.634 245.716C633.136 248.515 631.928 251.817 627.574 253.085Z" stroke="black" stroke-width="1.35" stroke-linecap="round" stroke-linejoin="round"/>
<path d="M627.573 253.085C626.793 253.293 625.986 253.378 625.18 253.336C624.798 251.123 624.594 248.3 626.843 247.618C628.602 247.08 629.583 244.484 632.657 245.716C633.136 248.515 631.927 251.817 627.573 253.085Z" fill="white"/>
<path d="M598.181 231.528C598.181 231.528 596.051 227.939 589.914 229.733C583.777 231.528 585.548 247.235 598.181 243.826V231.528Z" fill="white"/>
<path d="M597.785 231.528C597.785 231.528 595.643 227.939 589.518 229.733C583.393 231.528 585.14 247.235 597.785 243.826" stroke="black" stroke-width="1.35" stroke-linecap="round" stroke-linejoin="round"/>
<path d="M594.615 235.032C594.168 234.699 593.648 234.477 593.098 234.384C592.548 234.292 591.984 234.331 591.452 234.499C590.92 234.668 590.436 234.96 590.04 235.352C589.643 235.744 589.346 236.225 589.172 236.755" stroke="black" stroke-width="1.35" stroke-linecap="round" stroke-linejoin="round"/>
<path d="M592.486 238.861V234.327" stroke="black" stroke-width="1.35" stroke-linecap="round" stroke-linejoin="round"/>
<path d="M117.852 322.538V387.402H13.3662V325.35C13.3789 321.822 14.7881 318.444 17.2857 315.953C19.7833 313.462 23.1657 312.062 26.6931 312.059H104.872C107.831 312.057 110.707 313.042 113.045 314.858C115.382 316.673 117.049 319.216 117.78 322.084C117.852 322.227 117.852 322.383 117.852 322.538Z" fill="#003049"/>
<path d="M117.851 322.538V387.401H12.9707V322.538C12.9739 319.007 14.3777 315.622 16.874 313.126C19.3704 310.63 22.7552 309.226 26.2856 309.223H104.464C107.918 309.221 111.238 310.561 113.722 312.96C116.206 315.36 117.661 318.631 117.779 322.083C117.851 322.227 117.851 322.382 117.851 322.538Z" stroke="black" stroke-width="1.35" stroke-linecap="round" stroke-linejoin="round"/>
<path d="M62.6294 387.402H12.9707V359.133C23.3427 331.14 45.4385 327.503 45.4385 327.503C47.9553 333.195 51.1701 338.551 55.0089 343.45C61.122 351.034 58.0475 359.396 61.1579 375.343C62.0228 379.308 62.5155 383.345 62.6294 387.402Z" fill="black"/>
<path d="M65.3815 312.059V325.948C57.2706 322.538 53.4903 317.131 51.8154 312.059H65.3815Z" fill="black"/>
<path d="M51.0851 349.479V387.401H39.0023C37.0451 387.414 35.1232 386.88 33.4533 385.859C31.7834 384.839 30.432 383.371 29.5515 381.623C28.6771 379.827 28.192 377.866 28.1279 375.869V349.479H51.0851Z" fill="white"/>
<path d="M51.0851 387.402H39.0024C37.0451 387.415 35.1232 386.881 33.4533 385.86C31.7834 384.839 30.432 383.372 29.5515 381.624C28.6771 379.827 28.192 377.867 28.1279 375.87V358.487" stroke="black" stroke-width="1.35" stroke-linecap="round" stroke-linejoin="round"/>
<path d="M52.3658 387.21H38.8954C37.1399 387.212 35.4117 386.775 33.8678 385.94C32.3239 385.104 31.0132 383.896 30.0547 382.425L29.9829 382.329C28.9219 380.675 28.3497 378.755 28.332 376.79V351.668L45.6426 351.812H51.6241L52.3658 387.21Z" fill="white"/>
<path d="M197.143 373.106C197.143 373.106 201.928 371.359 204.823 372.723C207.718 374.087 212.36 380.38 212.36 381.755C212.36 383.131 209.058 384.579 206.235 382.246C203.411 379.913 197.143 373.106 197.143 373.106Z" fill="white"/>
<path d="M197.143 373.106C197.143 373.106 201.928 371.359 204.823 372.723C207.718 374.087 212.36 380.38 212.36 381.755C212.36 383.131 209.058 384.579 206.235 382.246C203.411 379.913 197.143 373.106 197.143 373.106Z" stroke="black" stroke-width="1.35" stroke-linecap="round" stroke-linejoin="round"/>
<path d="M188.589 373.298C188.589 373.298 190.814 369.41 194.57 369.996C198.327 370.582 206.533 378.454 207.514 379.877C209.153 382.342 205.588 386.026 201.844 385.536C198.1 385.045 189.414 377.162 189.414 377.162L188.589 373.298Z" fill="white"/>
<path d="M188.589 373.298C188.589 373.298 190.814 369.41 194.57 369.996C198.327 370.582 206.533 378.454 207.514 379.877C209.153 382.342 205.588 386.026 201.844 385.536C198.1 385.045 189.414 377.162 189.414 377.162L188.589 373.298Z" stroke="black" stroke-width="1.35" stroke-linecap="round" stroke-linejoin="round"/>
<path d="M143.846 387.402H51.4676L50.8575 372.424C40.9401 359.205 25.1848 358.068 25.1848 358.068C24.9814 354.18 29.8504 336.678 44.0505 325.768C51.4318 320.109 63.4187 318.076 73.2165 317.394C78.6181 317.043 84.0368 317.043 89.4384 317.394C95.0189 317.963 100.529 319.085 105.888 320.743C153.417 335.709 143.846 387.402 143.846 387.402Z" fill="#F94144"/>
<path d="M143.846 387.402H51.4676L50.8575 372.424C40.9401 359.205 25.1848 358.068 25.1848 358.068C24.9814 354.18 29.8504 336.678 44.0505 325.768C51.4318 320.109 63.4187 318.076 73.2165 317.394C78.6181 317.043 84.0368 317.043 89.4384 317.394C95.0189 317.963 100.529 319.085 105.888 320.743C153.417 335.709 143.846 387.402 143.846 387.402Z" stroke="black" stroke-width="1.35" stroke-linecap="round" stroke-linejoin="round"/>
<path d="M117.852 375.343C117.852 375.343 116.105 385.261 116.105 387.402H168.743L184.845 379.423C184.845 379.423 193.004 384.878 195.923 385.655C195.923 385.655 201.905 386.624 200.589 380.403C200.589 380.403 186.101 369.027 183.182 367.854C180.263 366.682 170.741 369.709 164.616 373.393L143.226 366.885L117.852 375.343Z" fill="white"/>
<path d="M117.852 375.343C117.852 375.343 116.105 385.261 116.105 387.402H168.743L184.845 379.423C184.845 379.423 193.004 384.878 195.923 385.655C195.923 385.655 201.905 386.624 200.589 380.403C200.589 380.403 186.101 369.027 183.182 367.854C180.263 366.682 170.741 369.709 164.616 373.393L143.226 366.885L117.852 375.343Z" stroke="black" stroke-width="1.35" stroke-linecap="round" stroke-linejoin="round"/>
<path d="M116.044 358.619L117.791 375.343" stroke="black" stroke-width="1.35" stroke-linecap="round" stroke-linejoin="round"/>
<path d="M105.888 320.744V327.479C105.905 330.484 104.741 333.375 102.646 335.53C100.939 337.283 98.8904 338.666 96.6268 339.594C94.3631 340.522 91.9329 340.975 89.4869 340.925C82.5842 340.925 78.5287 338.377 76.1959 335.853C74.2892 333.742 73.2434 330.993 73.265 328.149V317.382C78.6666 317.031 84.0853 317.031 89.4869 317.382C95.0516 317.958 100.546 319.084 105.888 320.744Z" fill="black"/>
<path d="M159.017 382.641C159.017 382.641 165.441 388.251 170.98 389.448C176.519 390.644 182.249 386.696 181.878 383.897C181.507 381.097 166.41 378.071 166.41 378.071L159.017 382.641Z" fill="white"/>
<path d="M161.373 384.494C163.766 386.241 167.534 388.705 170.943 389.447C176.494 390.643 182.213 386.695 181.842 383.896C181.615 382.233 176.159 380.474 171.793 379.338" stroke="black" stroke-width="1.35" stroke-linecap="round" stroke-linejoin="round"/>
<path d="M100.002 309.223V326.031C99.9979 326.922 99.7782 327.798 99.3616 328.586C98.9449 329.374 98.3436 330.048 97.6092 330.553C94.427 332.766 88.2421 335.422 80.6097 330.469C79.8308 329.964 79.19 329.273 78.7451 328.459C78.3002 327.644 78.0653 326.732 78.0615 325.803V309.223H100.002Z" fill="white"/>
<path d="M100.002 309.223V326.031C99.9979 326.922 99.7782 327.798 99.3616 328.586C98.9449 329.374 98.3436 330.048 97.6092 330.553C94.427 332.766 88.2421 335.422 80.6097 330.469C79.8308 329.964 79.19 329.273 78.7451 328.459C78.3002 327.644 78.0653 326.732 78.0615 325.803V309.223H100.002Z" stroke="black" stroke-width="1.02" stroke-linecap="round" stroke-linejoin="round"/>
<path d="M107.526 292.463C107.526 306.053 98.9247 316.389 88.3135 316.389C77.7023 316.389 69.0889 306.065 69.0889 292.463C69.0889 278.861 77.7023 265.749 88.3135 265.749C98.9247 265.749 107.526 278.873 107.526 292.463Z" fill="white"/>
<path d="M107.526 292.463C107.526 306.053 98.9247 316.389 88.3135 316.389C77.7023 316.389 69.0889 306.065 69.0889 292.463C69.0889 278.861 77.7023 265.749 88.3135 265.749C98.9247 265.749 107.526 278.873 107.526 292.463Z" stroke="black" stroke-width="1.35" stroke-linecap="round" stroke-linejoin="round"/>
<path d="M93.9255 288.527C94.8347 289.305 99.7874 285.405 98.938 284.304C98.0886 283.204 92.6335 287.439 93.9255 288.527Z" fill="black"/>
<path d="M96.0791 294.951H93.9258V291.661C93.9258 291.379 94.038 291.108 94.2376 290.909C94.4373 290.709 94.7081 290.597 94.9905 290.597C95.1298 290.597 95.2676 290.624 95.3961 290.678C95.5247 290.732 95.6412 290.81 95.7392 290.909C95.8371 291.008 95.9144 291.126 95.9666 291.255C96.0188 291.384 96.0448 291.522 96.0432 291.661L96.0791 294.951Z" fill="black"/>
<path d="M81.1126 294.951H78.9951V291.661C78.9951 291.379 79.1073 291.108 79.307 290.909C79.5066 290.709 79.7775 290.597 80.0598 290.597C80.1991 290.597 80.337 290.624 80.4655 290.678C80.594 290.732 80.7106 290.81 80.8085 290.909C80.9064 291.008 80.9837 291.126 81.0359 291.255C81.0881 291.384 81.1142 291.522 81.1126 291.661V294.951Z" fill="black"/>
<path d="M93.6748 294.951C94.0717 294.681 94.5406 294.537 95.0206 294.537C95.5007 294.537 95.9696 294.681 96.3665 294.951" stroke="black" stroke-width="1.02" stroke-linecap="round" stroke-linejoin="round"/>
<path d="M81.3167 288.323C80.4673 289.173 75.2275 285.68 75.9931 284.507C76.7588 283.335 82.525 287.139 81.3167 288.323Z" fill="black"/>
<path d="M81.3997 294.951C81.0028 294.681 80.5339 294.537 80.0539 294.537C79.5738 294.537 79.1049 294.681 78.708 294.951" stroke="black" stroke-width="1.02" stroke-linecap="round" stroke-linejoin="round"/>
<path d="M86.7467 297.834C86.7467 297.834 86.304 300.083 88.4933 299.856C90.6825 299.629 90.7304 297.272 89.1632 297.224" stroke="black" stroke-width="1.02" stroke-linecap="round" stroke-linejoin="round"/>
<path d="M112.169 287.57C116.177 289.58 115.016 299.736 106.953 299.007" stroke="black" stroke-width="1.35" stroke-linecap="round" stroke-linejoin="round"/>
<path d="M107.754 293.946C108.012 293.659 108.336 293.438 108.698 293.304C109.06 293.169 109.449 293.123 109.832 293.172C110.215 293.22 110.581 293.36 110.898 293.58C111.216 293.801 111.475 294.095 111.654 294.437" stroke="black" stroke-width="1.35" stroke-linecap="round" stroke-linejoin="round"/>
<path d="M80.8615 301.614C81.7928 302.881 83.0143 303.906 84.4235 304.603C85.8326 305.301 87.3885 305.65 88.9605 305.622C88.9605 305.622 85.1682 310.072 81.3999 307.584C79.0192 306.017 80.8615 301.614 80.8615 301.614Z" fill="black"/>
<path d="M80.8615 301.614C81.7928 302.881 83.0143 303.906 84.4235 304.603C85.8326 305.301 87.3885 305.65 88.9605 305.622C88.9605 305.622 85.1682 310.072 81.3999 307.584C79.0192 306.017 80.8615 301.614 80.8615 301.614Z" stroke="black" stroke-width="1.35" stroke-linecap="round" stroke-linejoin="round"/>
<path d="M104.886 296.991C108.413 293.464 108.413 287.745 104.886 284.218C101.358 280.691 95.6395 280.691 92.1123 284.218C88.585 287.745 88.585 293.464 92.1123 296.991C95.6395 300.518 101.358 300.518 104.886 296.991Z" stroke="black" stroke-width="1.35" stroke-linecap="round" stroke-linejoin="round"/>
<path d="M87.0319 292.058C87.8312 287.134 84.4875 282.495 79.5637 281.695C74.6398 280.896 70.0003 284.24 69.2011 289.164C68.4018 294.088 71.7455 298.727 76.6693 299.526C81.5932 300.326 86.2327 296.982 87.0319 292.058Z" stroke="black" stroke-width="1.35" stroke-linecap="round" stroke-linejoin="round"/>
<path d="M81.4241 323.22C80.4551 330.996 74.6171 351.034 66.6378 368.536C58.6584 386.038 52.4496 387.21 52.4496 387.21H38.8954C37.1399 387.212 35.4117 386.775 33.8678 385.94C32.3239 385.104 31.0132 383.896 30.0547 382.425L29.9829 382.329C28.9219 380.675 28.3497 378.755 28.332 376.79V374.852C33.524 367.734 39.8644 359.36 45.6426 351.824C54.5192 340.207 62.0679 330.577 62.0679 330.577C62.0679 330.577 62.6541 321.342 62.0679 319.81C61.4817 318.279 56.0863 310.096 55.0097 307.764C53.933 305.431 53.0238 292.786 54.2919 290.154C54.4067 289.813 54.5929 289.501 54.8381 289.238C55.0833 288.975 55.3818 288.768 55.7137 288.63C56.0455 288.492 56.403 288.426 56.7623 288.437C57.1216 288.448 57.4744 288.536 57.7971 288.694L61.7808 295.705C61.7808 295.705 65.9678 290.549 67.7623 288.12C69.5567 285.692 73.1098 285.979 73.8874 290.154C74.665 294.329 71.3632 297.057 71.4948 298.42C71.6264 299.784 71.8776 302.703 76.28 307.656C80.6824 312.609 82.3931 315.444 81.4241 323.22Z" fill="white"/>
<path d="M33.0215 368.416C37.101 362.937 41.5153 357.123 45.6426 351.74C54.5192 340.123 62.0679 330.493 62.0679 330.493C62.0679 330.493 62.6541 321.258 62.0679 319.726C61.4817 318.195 56.0863 310.012 55.0097 307.68C53.933 305.347 53.0238 292.702 54.2919 290.07C54.4067 289.729 54.5929 289.417 54.8381 289.154C55.0833 288.891 55.3818 288.684 55.7137 288.546C56.0455 288.408 56.4031 288.342 56.7624 288.353C57.1217 288.364 57.4744 288.452 57.7971 288.611L61.7808 295.621C61.7808 295.621 65.9678 290.465 67.7623 288.036C69.5567 285.608 73.1098 285.895 73.8874 290.07C74.665 294.245 71.3632 296.973 71.4948 298.336C71.6264 299.7 71.8776 302.619 76.28 307.572C80.6824 312.525 82.4051 315.456 81.4361 323.232C80.4671 331.008 74.6291 351.046 66.6497 368.548C58.6704 386.05 52.4615 387.222 52.4615 387.222H38.8954C37.1399 387.224 35.4117 386.787 33.8678 385.951C32.3239 385.116 31.0132 383.908 30.0547 382.437L29.9829 382.341C28.9198 380.684 28.3474 378.759 28.332 376.79V374.852" stroke="black" stroke-width="1.35" stroke-linecap="round" stroke-linejoin="round"/>
<path d="M108.795 292.642L107.778 288.85C99.4037 283.885 98.004 278.49 98.004 278.49C98.004 278.49 93.9127 286.218 88.6728 286.218C83.433 286.218 82.9784 282.294 82.9784 282.294C72.4749 289.843 61.0262 288.778 58.3106 282.15C57.8059 280.845 57.6173 279.439 57.7603 278.047C58.6336 267.986 68.2639 266.969 68.2639 266.969C68.2639 266.969 64.8544 263.189 64.5792 259.349C64.3998 256.956 65.4765 254.492 69.4243 252.961C79.5091 249.073 89.4504 255.856 89.7017 256.023C89.6299 255.784 88.3498 251.334 92.178 250.484C96.0062 249.635 100.062 259.349 100.062 259.349C100.062 259.349 103.411 254.564 105.313 255.15C107.216 255.736 103.555 260.115 103.555 260.115C110.553 259.086 113.915 261.574 115.231 274.698C116.547 287.821 108.795 292.642 108.795 292.642Z" fill="black"/>
<path d="M89.6899 256.023C72.188 250.927 64.5675 259.349 64.5675 259.349C64.3881 256.956 65.4647 254.492 69.4125 252.961C79.4974 249.073 89.4387 255.856 89.6899 256.023Z" fill="white"/>
<path d="M58.3106 282.151C57.8059 280.846 57.6173 279.44 57.7603 278.048C58.6336 267.987 68.2639 266.97 68.2639 266.97L69.1013 267.4C57.545 270.618 58.3106 282.151 58.3106 282.151Z" fill="white"/>
<path d="M108.795 292.642C108.795 292.642 116.523 287.857 115.219 274.697C113.915 261.538 110.541 259.145 103.543 260.114C103.543 260.114 107.192 255.736 105.302 255.15C103.411 254.564 100.05 259.349 100.05 259.349C100.05 259.349 96.102 249.611 92.1661 250.484C88.2303 251.357 89.6898 256.023 89.6898 256.023C89.6898 256.023 79.6288 249.025 69.4124 252.96C59.1959 256.896 68.2161 266.969 68.2161 266.969C68.2161 266.969 58.5858 267.986 57.7125 278.047C56.8392 288.108 70.5489 291.206 82.9426 282.294C82.9426 282.294 83.3852 286.218 88.637 286.218C93.8888 286.218 97.9682 278.49 97.9682 278.49C97.9682 278.49 99.4277 283.885 107.742 288.85L108.795 292.642Z" stroke="black" stroke-width="1.35" stroke-linecap="round" stroke-linejoin="round"/>
<path d="M60.8222 306.005C60.8222 306.005 57.7118 301.531 57.317 298.421C56.9222 295.311 57.1974 286.147 58.0707 284.257C58.8363 282.606 61.6596 281.134 63.6694 283.06C63.9367 283.337 64.1446 283.666 64.2804 284.026C64.4162 284.386 64.4769 284.77 64.4589 285.154C64.3632 288.228 64.0642 298.002 64.4589 299.51C64.9603 300.77 65.7856 301.876 66.8515 302.716L60.8222 306.005Z" fill="white"/>
<path d="M60.8222 306.005C60.8222 306.005 57.7118 301.531 57.317 298.421C56.9222 295.311 57.1974 286.147 58.0707 284.257C58.8363 282.606 61.6596 281.134 63.6694 283.06C63.9367 283.337 64.1446 283.666 64.2804 284.026C64.4162 284.386 64.4769 284.77 64.4589 285.154C64.3632 288.228 64.0642 298.002 64.4589 299.51C64.9603 300.77 65.7856 301.876 66.8515 302.716" stroke="black" stroke-width="1.35" stroke-linecap="round" stroke-linejoin="round"/>
<path d="M52.3658 387.211H38.8954C37.1399 387.212 35.4117 386.776 33.8678 385.94C32.3239 385.104 31.0132 383.896 30.0547 382.425L29.9829 382.33C28.9219 380.676 28.3497 378.756 28.332 376.791V358.487" stroke="black" stroke-width="1.35" stroke-linecap="round" stroke-linejoin="round"/>
<path d="M776.311 365.885H577.222C572.577 365.885 568.812 369.651 568.812 374.295V476.938C568.812 481.583 572.577 485.348 577.222 485.348H776.311C780.956 485.348 784.721 481.583 784.721 476.938V374.295C784.721 369.651 780.956 365.885 776.311 365.885Z" fill="#003049"/>
<path d="M766.596 480.073H567.494C565.273 480.073 563.143 479.19 561.573 477.62C560.002 476.05 559.12 473.92 559.12 471.699V369.02C559.12 366.799 560.002 364.669 561.573 363.098C563.143 361.528 565.273 360.646 567.494 360.646H766.596C768.816 360.646 770.947 361.528 772.517 363.098C774.087 364.669 774.97 366.799 774.97 369.02V471.675C774.973 472.776 774.759 473.868 774.339 474.887C773.92 475.905 773.303 476.831 772.525 477.612C771.748 478.392 770.823 479.011 769.806 479.433C768.788 479.855 767.697 480.073 766.596 480.073V480.073Z" stroke="black" stroke-width="1.35" stroke-linecap="round" stroke-linejoin="round"/>
<path d="M612.751 398.628H740.959" stroke="white" stroke-width="1.35" stroke-linecap="round" stroke-linejoin="round"/>
<path d="M612.751 428.368H740.959" stroke="white" stroke-width="1.35" stroke-linecap="round" stroke-linejoin="round"/>
<path d="M612.751 458.097H740.959" stroke="white" stroke-width="1.35" stroke-linecap="round" stroke-linejoin="round"/>
</svg>
