<svg width="850" height="631" viewBox="0 0 850 631" fill="none" xmlns="http://www.w3.org/2000/svg">
<path d="M407.212 477.849L307.233 518.019L183.463 209.855L267.995 175.894C276.533 172.479 286.236 176.593 289.69 185.17L407.212 477.849Z" fill="#FC9234"/>
<path d="M371.219 197.203L179.806 231.146L227.533 500.287L418.946 466.344L371.219 197.203Z" fill="#ADCFD8"/>
<path d="M322.886 233.307L237.401 248.467L237.74 250.377L323.224 235.218L322.886 233.307Z" fill="#55769F"/>
<path d="M339.995 225.268L218.589 246.797L218.928 248.708L340.334 227.179L339.995 225.268Z" fill="#55769F"/>
<path d="M357.332 247.975L210.056 274.092L210.394 276.002L357.671 249.886L357.332 247.975Z" fill="#55769F"/>
<path d="M359.002 257.206L211.725 283.323L212.064 285.233L359.34 259.117L359.002 257.206Z" fill="#55769F"/>
<path d="M362.265 275.681L214.989 301.798L215.328 303.708L362.604 277.592L362.265 275.681Z" fill="#55769F"/>
<path d="M363.897 284.918L216.621 311.035L216.959 312.946L364.236 286.829L363.897 284.918Z" fill="#55769F"/>
<path d="M365.529 294.156L218.252 320.273L218.591 322.183L365.868 296.067L365.529 294.156Z" fill="#55769F"/>
<path d="M372.748 334.747L225.472 360.864L225.811 362.774L373.087 336.658L372.748 334.747Z" fill="#55769F"/>
<path d="M374.413 344.301L227.136 370.417L227.475 372.328L374.752 346.211L374.413 344.301Z" fill="#55769F"/>
<path d="M376.125 353.882L228.848 379.999L229.187 381.909L376.464 355.793L376.125 353.882Z" fill="#55769F"/>
<path d="M377.833 363.469L230.557 389.585L230.895 391.496L378.172 365.379L377.833 363.469Z" fill="#55769F"/>
<path d="M379.538 373.012L232.261 399.129L232.6 401.04L379.877 374.923L379.538 373.012Z" fill="#55769F"/>
<path d="M381.209 382.604L233.932 408.721L234.271 410.632L381.548 384.515L381.209 382.604Z" fill="#55769F"/>
<path d="M382.92 392.187L235.644 418.304L235.982 420.215L383.259 394.098L382.92 392.187Z" fill="#55769F"/>
<path d="M343.661 190.52L155.65 239.997L225.218 504.354L413.229 454.878L343.661 190.52Z" fill="#DAEEF7"/>
<path d="M298.426 230.484L214.46 252.58L214.954 254.457L298.92 232.361L298.426 230.484Z" fill="#55769F"/>
<path d="M314.826 221.062L195.578 252.443L196.072 254.32L315.32 222.939L314.826 221.062Z" fill="#55769F"/>
<path d="M333.993 242.289L189.334 280.357L189.828 282.234L334.487 244.166L333.993 242.289Z" fill="#55769F"/>
<path d="M336.355 251.337L191.696 289.405L192.19 291.282L336.849 253.214L336.355 251.337Z" fill="#55769F"/>
<path d="M341.137 269.499L196.479 307.568L196.972 309.444L341.631 271.376L341.137 269.499Z" fill="#55769F"/>
<path d="M343.537 278.54L198.878 316.608L199.372 318.485L344.031 280.417L343.537 278.54Z" fill="#55769F"/>
<path d="M345.908 287.626L201.25 325.694L201.743 327.571L346.402 289.503L345.908 287.626Z" fill="#55769F"/>
<path d="M356.382 327.494L211.723 365.562L212.217 367.439L356.876 329.37L356.382 327.494Z" fill="#55769F"/>
<path d="M358.866 336.882L214.207 374.95L214.701 376.827L359.36 338.759L358.866 336.882Z" fill="#55769F"/>
<path d="M361.357 346.31L216.698 384.378L217.192 386.255L361.851 348.187L361.357 346.31Z" fill="#55769F"/>
<path d="M363.838 355.701L219.179 393.769L219.673 395.646L364.332 357.577L363.838 355.701Z" fill="#55769F"/>
<path d="M366.282 365.101L221.623 403.169L222.117 405.046L366.776 366.978L366.282 365.101Z" fill="#55769F"/>
<path d="M368.762 374.492L224.103 412.561L224.597 414.437L369.256 376.369L368.762 374.492Z" fill="#55769F"/>
<path d="M371.254 383.919L226.595 421.987L227.089 423.864L371.748 385.796L371.254 383.919Z" fill="#55769F"/>
<path d="M369.254 493.102L167.977 573.947L50.5713 281.617L219.713 177.291C229.221 171.431 241.719 175.545 245.872 185.908L369.254 493.102Z" fill="#FFA554"/>
<path d="M103.006 526.635L74.2853 526.131C64.3108 508.045 57.0142 492.365 57.0142 492.365C89.4607 484.874 116.823 487.94 139.605 496.712L152.18 527.256L154.858 503.736C211.368 534.242 234.655 598.786 234.655 598.786C234.655 598.786 134.793 588.152 113.602 578.294C105.412 574.49 95.1272 560.828 85.5407 545.459C93.2254 538.162 103.006 526.635 103.006 526.635Z" fill="#94C83F"/>
<path d="M57.0146 492.326C57.0146 492.326 185.248 546.274 234.694 598.748C234.694 598.748 134.832 588.113 113.641 578.255C105.452 574.452 95.1665 560.79 85.58 545.42C93.2259 538.124 103.006 526.597 103.006 526.597L74.2858 526.092C64.3501 508.045 57.0146 492.326 57.0146 492.326Z" fill="#7DA834"/>
<path d="M61.0898 578.565C78.361 568.047 95.7875 562.42 112.632 560.169C117.561 566.301 123.654 573.52 123.654 573.52L124.275 559.121C188.935 556.171 242.534 599.524 242.534 599.524C205.081 623.121 173.1 629.641 146.941 627.546C145.389 622.5 143.177 615.009 143.177 615.009L138.558 626.575C126.022 624.596 114.922 620.715 105.374 615.902C107.819 609.886 110.419 603.055 110.419 603.055L96.4861 610.973C73.1603 596.69 61.0898 578.565 61.0898 578.565Z" fill="#94C83F"/>
<path d="M146.98 627.546C145.427 622.5 143.215 615.01 143.215 615.01L138.597 626.575C126.06 624.596 114.96 620.715 105.413 615.902C107.858 609.886 110.458 603.056 110.458 603.056L96.5247 610.973C73.16 596.691 61.1284 578.565 61.1284 578.565C136.501 569.872 242.573 599.524 242.573 599.524C205.12 623.16 173.139 629.68 146.98 627.546Z" fill="#7DA834"/>
<path d="M438.495 190.061L461.626 173.061C459.336 152.569 456.231 135.492 456.231 135.492C425.415 148.105 404.845 166.425 391.3 186.723L398.674 218.898L382.916 201.239C354.351 258.758 372.631 324.931 372.631 324.931C372.631 324.931 448.042 258.602 459.647 238.343C464.11 230.503 464.654 213.387 463.606 195.339C453.127 193.826 438.495 190.061 438.495 190.061Z" fill="#94C83F"/>
<path d="M456.27 135.492C456.27 135.492 382.722 253.557 372.631 324.97C372.631 324.97 448.042 258.641 459.647 238.381C464.11 230.541 464.653 213.425 463.605 195.378C453.165 193.864 438.533 190.1 438.533 190.1L461.665 173.1C459.375 152.53 456.27 135.492 456.27 135.492Z" fill="#7DA834"/>
<path d="M502.727 208.263C482.545 209.661 465.08 215.094 450.021 223.012C449.516 230.891 448.74 240.283 448.74 240.283L439.891 228.911C385.361 263.842 366.615 330.171 366.615 330.171C410.821 327.842 440.667 314.685 460.849 297.88C459.219 292.873 456.658 285.46 456.658 285.46L467.098 292.252C476.219 283.403 483.011 273.816 488.056 264.385C482.584 260.892 476.529 256.778 476.529 256.778L492.481 255.187C503.348 230.037 502.727 208.263 502.727 208.263Z" fill="#94C83F"/>
<path d="M460.849 297.841C459.219 292.834 456.658 285.421 456.658 285.421L467.098 292.213C476.219 283.364 483.011 273.778 488.056 264.346C482.584 260.853 476.529 256.739 476.529 256.739L492.481 255.148C503.309 229.998 502.688 208.263 502.688 208.263C436.126 244.669 366.615 330.132 366.615 330.132C410.86 327.803 440.706 314.685 460.849 297.841Z" fill="#7DA834"/>
<path d="M687.742 292.408H701.521C699.27 290.855 696.436 289.962 693.37 289.962H348.529C330.481 289.962 315.849 302.926 315.849 318.916V337.313C315.849 353.303 330.481 366.266 348.529 366.266L689.489 366.15L687.742 292.408Z" fill="#E03268"/>
<path d="M344.804 337.274V318.877C344.804 302.886 359.436 289.923 377.483 289.923H370.07C352.023 289.923 337.391 302.886 337.391 318.877V337.274C337.391 353.264 352.023 366.227 370.07 366.227H377.367C359.397 366.188 344.804 353.264 344.804 337.274Z" fill="#FEB546"/>
<path d="M425.57 337.274V318.877C425.57 302.886 440.202 289.923 458.249 289.923H450.836C432.789 289.923 418.157 302.886 418.157 318.877V337.274C418.157 353.264 432.789 366.227 450.836 366.227H458.133C440.124 366.188 425.57 353.264 425.57 337.274Z" fill="#FEB546"/>
<path d="M491.977 290.001C474.706 290.001 460.733 302.382 460.733 317.713V338.516C460.733 353.807 474.706 366.227 491.977 366.227H706.644V361.57H705.751L651.182 356.99L640.16 318.644C640.16 318.644 661.467 297.453 662.826 296.91C664.223 296.366 705.751 294.697 705.751 294.697H706.644V290.079H491.977V290.001Z" fill="#FF5B7E"/>
<path d="M692.711 327.959C692.711 305.526 705.79 294.658 705.79 294.658H496.362C480.527 294.658 467.681 306.03 467.681 320.08V336.07C467.681 350.12 480.527 361.492 496.362 361.492H705.79C705.79 361.531 692.711 356.175 692.711 327.959Z" fill="#DAEEF7"/>
<path d="M467.681 320.08V336.07C467.681 338.166 467.991 340.223 468.535 342.164C475.598 326.833 489.143 312.085 514.914 307.35C575.073 296.289 705.829 294.62 705.829 294.62H496.401C480.527 294.658 467.681 306.03 467.681 320.08Z" fill="#DAEEF7"/>
<path d="M681.912 445.066H697.476C694.914 443.126 691.732 442 688.277 442H297.988C277.573 442 261 458.223 261 478.25V501.265C261 521.292 277.534 537.516 297.988 537.516L683.892 537.399L681.912 445.066Z" fill="#284C7A"/>
<path d="M460.336 442.039C440.814 442.039 424.979 457.563 424.979 476.698V502.701C424.979 521.836 440.814 537.36 460.336 537.36H703.297V531.538H702.288L640.539 525.794L628.042 477.784C628.042 477.784 652.144 451.237 653.696 450.577C655.249 449.879 702.288 447.822 702.288 447.822H703.297V442.039H460.336Z" fill="#55769F"/>
<path d="M687.54 489.545C687.54 461.484 702.327 447.861 702.327 447.861H465.304C447.373 447.861 432.819 462.105 432.819 479.686V499.713C432.819 517.295 447.373 531.539 465.304 531.539H702.327C702.327 531.578 687.54 524.902 687.54 489.545Z" fill="#DAEEF7"/>
<path d="M432.819 479.725V499.752C432.819 502.391 433.168 504.952 433.75 507.397C441.746 488.225 457.076 469.75 486.224 463.812C554.338 449.956 702.288 447.899 702.288 447.899H465.265C447.373 447.86 432.819 462.143 432.819 479.725Z" fill="#DAEEF7"/>
<path d="M248.318 368.478H232.716C235.277 366.964 238.46 366.033 241.914 366.033H632.359C652.774 366.033 669.347 378.918 669.347 394.792V413.072C669.347 428.946 652.774 441.832 632.359 441.832L246.3 441.715L248.318 368.478Z" fill="#02CCC0"/>
<path d="M469.971 366.111C489.493 366.111 505.328 378.415 505.328 393.629V414.277C505.328 429.452 489.493 441.794 469.971 441.794H226.932V437.175H227.941L289.729 432.635L302.227 394.521C302.227 394.521 278.125 373.486 276.533 372.942C274.942 372.399 227.941 370.769 227.941 370.769H226.932V366.189H469.971V366.111Z" fill="#06BFAD"/>
<path d="M242.69 403.796C242.69 381.519 227.903 370.729 227.903 370.729H465.042C482.973 370.729 497.527 382.023 497.527 395.995V411.869C497.527 425.803 482.973 437.136 465.042 437.136H227.903C227.903 437.136 242.69 431.857 242.69 403.796Z" fill="#DAEEF7"/>
<path d="M497.489 395.995V411.869C497.489 413.965 497.139 415.983 496.557 417.924C488.562 402.71 473.231 388.039 444.045 383.343C375.93 372.359 227.903 370.729 227.903 370.729H465.042C482.934 370.729 497.489 382.062 497.489 395.995Z" fill="#DAEEF7"/>
<path opacity="0.5" d="M597.855 413.072V394.792C597.855 378.918 581.283 366.033 560.868 366.033H597.933C618.348 366.033 634.92 378.918 634.92 394.792V413.072C634.92 428.946 618.348 441.832 597.933 441.832H561.333C581.554 441.638 597.855 428.83 597.855 413.072Z" fill="#55769F"/>
<path d="M218.859 540.297H202.053C204.809 538.589 208.224 537.58 211.989 537.58H632.901C654.908 537.58 672.761 551.979 672.761 569.716V590.131C672.761 607.868 654.908 622.267 632.901 622.267L216.724 622.151L218.859 540.297Z" fill="#F2A2BF"/>
<path d="M457.823 537.619C478.898 537.619 495.936 551.359 495.936 568.358V591.412C495.936 608.373 478.859 622.151 457.823 622.151H195.767V616.989H196.853L263.454 611.905L276.922 569.328C276.922 569.328 250.918 545.809 249.249 545.188C247.541 544.567 196.853 542.742 196.853 542.742H195.767V537.619H457.823Z" fill="#E47EA3"/>
<path d="M212.765 579.73C212.765 554.851 196.813 542.781 196.813 542.781H452.427C471.755 542.781 487.435 555.434 487.435 570.997V588.734C487.435 604.336 471.755 616.95 452.427 616.95H196.813C196.813 616.989 212.765 611.09 212.765 579.73Z" fill="#DAEEF7"/>
<path d="M487.475 570.997V588.734C487.475 591.063 487.125 593.353 486.466 595.487C477.849 578.488 461.316 562.109 429.878 556.831C356.447 544.528 196.853 542.703 196.853 542.703H452.467C471.795 542.781 487.475 555.434 487.475 570.997Z" fill="#DAEEF7"/>
<path d="M804.255 631H94.39C92.2941 631 90.5864 629.292 90.5864 627.196V625.45C90.5864 623.354 92.2941 621.646 94.39 621.646H804.255C806.351 621.646 808.059 623.354 808.059 625.45V627.196C808.059 629.292 806.351 631 804.255 631Z" fill="#C4DFE8"/>
<path d="M86.2397 313.87L223.284 235.509L241.797 272.186L101.57 346.355L86.2397 313.87Z" fill="#FC9234"/>
<path d="M344.492 90.5864C344.492 90.5864 343.406 101.26 334.983 101.997C343.406 102.734 344.492 113.408 344.492 113.408C344.492 113.408 345.579 102.734 354.001 101.997C345.579 101.26 344.492 90.5864 344.492 90.5864Z" fill="#495AFF"/>
<path d="M199.181 8.73267C199.181 8.73267 197.745 22.9377 186.528 23.908C197.745 24.8783 199.181 39.0834 199.181 39.0834C199.181 39.0834 200.617 24.8783 211.834 23.908C200.617 22.9377 199.181 8.73267 199.181 8.73267Z" fill="#FEB546"/>
<path d="M140.459 135.686C140.459 135.686 139.489 145.233 131.959 145.893C139.489 146.553 140.459 156.1 140.459 156.1C140.459 156.1 141.43 146.553 148.959 145.893C141.43 145.233 140.459 135.686 140.459 135.686Z" fill="#FF5B7E"/>
<path d="M807.049 363.161C807.049 363.161 805.613 377.366 794.396 378.336C805.613 379.306 807.049 393.511 807.049 393.511C807.049 393.511 808.485 379.306 819.702 378.336C808.485 377.366 807.049 363.161 807.049 363.161Z" fill="#FF5B7E"/>
<path d="M12.6526 238.148C12.6526 238.148 11.2166 252.354 0 253.324C11.2166 254.294 12.6526 268.499 12.6526 268.499C12.6526 268.499 14.0886 254.294 25.3052 253.324C14.0886 252.354 12.6526 238.148 12.6526 238.148Z" fill="#02CCC0"/>
<path d="M836.974 222.973C836.974 222.973 835.538 237.178 824.321 238.148C835.538 239.119 836.974 253.324 836.974 253.324C836.974 253.324 838.41 239.119 849.626 238.148C838.41 237.178 836.974 222.973 836.974 222.973Z" fill="#003049"/>
<path d="M487.475 0C487.475 0 486.039 14.2051 474.822 15.1754C486.039 16.1456 487.475 30.3507 487.475 30.3507C487.475 30.3507 488.911 16.1456 500.127 15.1754C488.911 14.2051 487.475 0 487.475 0Z" fill="#FF5B7E"/>
<path d="M727.486 118.57C727.486 118.57 726.71 127.535 720.616 128.156C726.71 128.777 727.486 137.743 727.486 137.743C727.486 137.743 728.262 128.777 734.355 128.156C728.262 127.535 727.486 118.57 727.486 118.57Z" fill="#FEB546"/>
<path d="M235.859 555.434L216.919 556.404L214.512 612.526L204.848 617.183L205.314 619.24L208.923 620.094C208.923 620.094 220.567 619.9 220.916 619.9C221.265 619.9 223.672 617.261 223.672 617.261L223.323 616.795L225.263 615.475L235.859 555.434Z" fill="#FFC0BB"/>
<path d="M287.128 617.183C287.128 617.183 277.697 612.448 277.464 612.526L279.598 555.356L256.156 555.434L266.791 615.437L267.955 616.213C267.683 617.222 267.45 618.076 267.373 618.348C267.218 619.085 271.37 619.163 272.806 619.395C274.242 619.628 278.434 620.094 281.151 620.831C283.829 621.569 287.244 619.395 287.244 619.395L287.128 617.183Z" fill="#FFC0BB"/>
<path d="M287.75 401.158C285.033 394.055 282.355 396.85 277.426 388.272C276.65 386.914 276.068 385.129 275.679 383.499C274.515 378.647 271.954 374.184 268.15 370.924C256.584 360.949 243.505 365.374 243.505 365.374C243.505 365.374 246.881 384.663 247.541 388.583C244.669 392.503 241.758 396.539 241.758 396.539C241.758 396.539 235.665 428.248 245.212 430.926C254.76 433.604 256.507 429.296 261.164 427.084C265.821 424.833 270.362 430.965 277.348 426.696C282.666 423.436 279.949 415.363 282.782 413.849C285.576 412.297 290.7 408.843 287.75 401.158Z" fill="#835138"/>
<path d="M238.575 381.363C238.42 381.286 234.034 378.841 229.92 376.512L255.381 348.18C255.381 348.18 247.657 346.666 247.191 346.627C246.726 346.588 235.664 350.004 235.664 350.004L224.254 353.109C215.56 384.857 204.732 390.601 204.732 390.601C203.412 391.454 202.17 392.619 200.928 394.637C196.62 401.623 200.967 406.009 203.451 408.027C205.935 410.045 201.782 417.497 206.4 421.65C212.455 427.122 218.044 421.96 222.236 425.027C226.388 428.093 227.32 432.634 237.178 431.78C247.036 430.926 246.959 398.635 246.959 398.635C246.959 398.635 238.886 381.519 238.575 381.363Z" fill="#835138"/>
<path d="M281.772 439.271C281.772 439.271 290.156 479.363 287.749 483.71C285.304 488.057 253.323 489.415 253.323 489.415L251.965 437.951L264.152 419.515L281.772 439.271Z" fill="#FF5B7E"/>
<path d="M271.643 485.689L265.666 469.311C265.666 469.311 245.988 462.131 244.746 462.053C243.504 461.975 226.854 469.311 226.854 469.311C226.854 469.311 221.77 479.596 220.76 481.459C220.217 482.468 221.498 488.794 222.74 494.189L215.676 494.538L210.98 598.01C210.98 598.01 221.149 603.483 232.055 598.786L241.02 508.394L248.821 507.23L260.542 596.846C260.542 596.846 269.896 603.871 283.208 598.01L274.398 498.303C274.049 493.995 273.117 489.726 271.643 485.689Z" fill="#7A7A91"/>
<path d="M233.375 407.328C233.375 407.328 242.107 405.504 258.33 406.669C274.554 407.833 250.84 416.954 250.84 416.954C250.84 416.954 242.495 416.682 242.146 416.604C241.797 416.527 233.375 407.328 233.375 407.328Z" fill="#FFC0BB"/>
<path d="M254.022 398.13H239.623V423.435H254.022V398.13Z" fill="#FFC0BB"/>
<path d="M254.022 402.477V393.861H239.623V401.196C242.728 402.826 247.308 403.796 254.022 402.477Z" fill="#F99893"/>
<path d="M274.205 369.992C272.847 369.293 271.216 369.448 269.78 370.186C270.285 357.145 259.651 346.2 246.261 346.666C232.871 346.2 222.236 357.145 222.741 370.186C221.305 369.448 219.713 369.332 218.316 369.992C215.677 371.311 214.862 375.037 216.492 378.336C218.122 381.635 221.576 383.265 224.216 381.946C224.565 381.752 224.914 381.519 225.225 381.247C226.738 392.037 235.743 400.109 246.261 399.954C256.817 400.109 265.783 392.037 267.296 381.247C267.607 381.519 267.917 381.752 268.306 381.946C270.945 383.265 274.399 381.635 276.029 378.336C277.659 375.037 276.844 371.311 274.205 369.992Z" fill="#FFC0BB"/>
<path d="M240.322 374.804C240.4 375.891 239.546 376.823 238.459 376.9C237.372 376.978 236.441 376.124 236.363 375.037C236.286 373.951 237.14 373.019 238.226 372.941C239.313 372.864 240.244 373.718 240.322 374.804Z" fill="#333333"/>
<path d="M257.36 374.998C257.438 376.085 256.584 377.017 255.497 377.094C254.41 377.172 253.479 376.318 253.401 375.231C253.324 374.145 254.178 373.213 255.264 373.136C256.351 373.058 257.283 373.912 257.36 374.998Z" fill="#333333"/>
<path d="M242.495 370.768C241.486 370.419 240.554 370.147 239.623 369.992C238.691 369.837 237.76 369.798 236.867 369.875C235.975 369.992 235.082 370.186 234.189 370.574L233.84 370.691C233.723 370.729 233.646 370.807 233.529 370.846L232.87 371.156C232.443 371.389 232.016 371.661 231.511 371.894C231.783 371.467 232.093 371.001 232.443 370.613C232.831 370.264 233.18 369.837 233.646 369.565C234.539 368.944 235.625 368.556 236.712 368.439C237.799 368.323 238.924 368.478 239.933 368.905C240.942 369.293 241.835 369.914 242.495 370.768Z" fill="#835138"/>
<path d="M250.452 370.729C251.111 369.876 252.004 369.255 252.974 368.866C253.984 368.439 255.109 368.284 256.196 368.362C257.283 368.478 258.369 368.828 259.262 369.449C259.728 369.72 260.077 370.147 260.504 370.497C260.853 370.885 261.164 371.312 261.435 371.777C260.931 371.544 260.543 371.273 260.077 371.079L259.417 370.768C259.301 370.729 259.223 370.652 259.107 370.613L258.757 370.497C257.904 370.108 256.972 369.953 256.079 369.837C255.187 369.759 254.255 369.798 253.324 369.953C252.392 370.108 251.461 370.38 250.452 370.729Z" fill="#835138"/>
<path d="M247.23 372.088C247.114 373.136 247.191 374.183 247.385 375.193C247.502 375.697 247.618 376.202 247.812 376.745C248.006 377.25 248.278 377.754 248.744 378.181C249.287 378.569 249.481 378.724 249.636 379.074C249.792 379.384 249.714 379.811 249.559 380.199C249.171 381.014 248.356 381.596 247.424 382.023C248.433 381.985 249.559 381.558 250.257 380.549C250.568 380.083 250.762 379.384 250.568 378.724C250.335 378.065 249.986 377.832 249.559 377.482C249.171 377.172 248.938 376.784 248.705 376.318C248.472 375.891 248.317 375.425 248.161 374.96C247.812 374.067 247.54 373.097 247.23 372.088Z" fill="#F99893"/>
<path d="M240.749 384.507C241.292 384.895 241.874 385.245 242.456 385.516C243.038 385.827 243.659 386.099 244.242 386.293C245.484 386.72 246.764 386.991 248.045 386.991C249.326 386.991 250.607 386.72 251.849 386.254C253.052 385.749 254.177 385.051 255.186 384.197C254.721 384.663 254.216 385.128 253.712 385.516C253.168 385.904 252.586 386.254 252.004 386.564C251.383 386.836 250.762 387.069 250.102 387.224C249.442 387.379 248.744 387.457 248.084 387.457C246.726 387.457 245.367 387.146 244.125 386.642C242.883 386.099 241.719 385.4 240.749 384.507Z" fill="#F99893"/>
<path d="M274.825 412.374C267.024 404.806 256.235 406.397 256.235 406.397C255.031 407.6 253.828 408.532 252.625 409.191C250.917 410.045 248.783 410.822 246.376 410.86C246.338 410.86 246.299 410.86 246.26 410.86C246.221 410.86 246.182 410.86 246.144 410.86C243.737 410.783 241.603 410.045 239.895 409.191C238.692 408.493 237.489 407.6 236.285 406.397C236.285 406.397 225.496 404.806 217.695 412.374C209.893 419.942 202.092 436.67 202.092 436.67C202.092 436.67 211.95 445.674 221.382 446.839C221.382 446.839 225.961 467.952 226.893 469.35C226.893 469.35 231.628 471.562 238.536 472.726C241.059 473.192 243.504 473.386 245.872 473.425C246.027 473.425 246.182 473.425 246.299 473.425C246.454 473.425 246.609 473.425 246.726 473.425C249.093 473.425 251.538 473.231 254.061 472.726C260.97 471.562 265.705 469.35 265.705 469.35C266.636 467.991 271.216 446.839 271.216 446.839C280.647 445.674 290.505 436.67 290.505 436.67C290.505 436.67 282.665 419.942 274.825 412.374Z" fill="#02CCC0"/>
<path d="M247.114 463.605C247.114 463.605 250.025 463.139 251.616 465.235L251.5 470.708L247.968 472.377C247.968 472.377 243.582 468.651 243.893 468.534C244.203 468.457 247.114 463.605 247.114 463.605Z" fill="#003049"/>
<path d="M256.118 499.428L209.428 512.935L204.926 478.78L251.616 465.274L256.118 499.428Z" fill="#003049"/>
<path d="M205.585 507.462L209.661 510.917L254.372 498.109L250.335 465.895L247.192 464.575L205.585 507.462Z" fill="#DAEEF7"/>
<path d="M254.373 498.109L251.19 495.314L245.33 488.91L245.718 471.29L247.193 464.575L250.375 465.856L254.373 498.109Z" fill="#DAEEF7"/>
<path d="M251.189 495.315L204.499 508.821L200.424 477.112L247.114 463.606L251.189 495.315Z" fill="#003049"/>
<path d="M228.251 428.481C227.164 429.8 226.194 431.159 225.262 432.595C224.37 434.031 223.555 435.506 222.895 437.019C222.235 438.533 221.731 440.163 221.459 441.793C221.187 443.423 221.148 445.131 221.342 446.839C220.799 445.209 220.644 443.462 220.838 441.716C220.993 439.969 221.498 438.3 222.157 436.709C222.856 435.118 223.71 433.604 224.758 432.246C225.806 430.848 226.931 429.568 228.251 428.481Z" fill="#DAEEF7"/>
<path d="M218.587 486.116C210.359 472.183 214.163 455.261 217.423 445.907C210.98 443.812 205.003 439.115 202.868 437.369C189.75 466.982 211.95 492.326 211.95 492.326L211.989 492.287C212.416 493.258 212.727 494.112 212.727 494.112C217.966 503.582 218.199 503.426 218.587 503.31C218.975 503.193 217.927 498.653 218.393 498.691C218.859 498.691 222.158 504.125 222.391 503.62C222.623 503.116 220.178 497.721 220.528 497.643C220.877 497.566 223.982 502.844 224.681 502.378C225.379 501.913 221.77 496.246 222.468 496.091C223.167 495.936 226.699 501.874 227.281 501.331C227.747 500.904 223.943 494.189 222.701 492.055C222.546 491.783 222.74 491.434 223.089 491.472C227.941 491.744 228.329 491.511 228.251 490.968C228.174 490.58 222.352 487.863 218.587 486.116Z" fill="#FFC0BB"/>
<path d="M273.583 407.872C263.492 444.122 275.679 454.834 275.718 455.106L273.894 463.528C273.894 463.528 249.093 447.382 264.812 404.418C265.239 403.215 266.559 402.594 267.723 403.137L272.419 405.31C273.428 405.776 273.855 406.863 273.583 407.872Z" fill="#E03268"/>
<path d="M295.589 496.44C295.589 496.44 295.279 495.625 294.968 494.694L294.503 491.162C294.192 483.206 292.872 454.912 288.526 438.301C285.227 440.94 278.163 445.908 271.332 446.8C275.601 455.766 284.567 476.375 286.119 495.16C284.528 498.73 282.393 503.698 282.587 503.97C282.859 504.397 283.325 504.358 286.585 501.098C286.779 500.904 287.167 500.981 287.206 501.292C287.672 503.582 289.185 510.723 289.806 510.723C290.544 510.723 289.341 504.319 289.923 503.97C290.505 503.621 291.514 509.908 292.29 509.83C293.067 509.714 291.941 504.009 292.251 503.853C292.562 503.698 294.192 509.054 294.697 509.248C295.201 509.442 294.114 503.543 294.464 503.232C294.774 502.922 296.87 506.764 297.219 506.648C297.569 506.493 297.802 506.454 295.589 496.44Z" fill="#FFC0BB"/>
<path d="M218.587 369.875C218.587 369.875 217.112 342.901 247.191 341.116C247.191 341.116 246.26 367.585 222.74 370.186L220.916 366.654L218.587 369.875Z" fill="#835138"/>
<path d="M247.192 341.116C247.192 341.116 271.565 339.758 272.846 369.604C272.846 369.604 271.061 369.487 269.741 370.186C269.741 370.186 250.452 365.373 245.639 346.666L247.192 341.116Z" fill="#835138"/>
<path d="M213.076 619.24C208.186 619.745 205.857 618.658 204.887 617.183L201.549 619.357C200.229 620.211 200.811 622.229 202.403 622.229H223.982C224.758 622.229 225.34 621.608 225.34 620.871V615.049C223.943 616.446 220.683 618.464 213.076 619.24Z" fill="#07085B"/>
<path d="M278.901 619.24C283.791 619.745 286.12 618.658 287.09 617.183L290.428 619.357C291.747 620.211 291.165 622.229 289.574 622.229H267.995C267.218 622.229 266.636 621.608 266.636 620.871V615.049C268.033 616.446 271.294 618.464 278.901 619.24Z" fill="#07085B"/>
<path d="M729.97 426.229L754.887 428.248L746.853 448.391L734.278 447.382L729.039 464.187C727.758 463.605 726.827 463.178 726.633 463.023C726.244 462.751 724.847 454.446 723.644 446.567L729.97 426.229Z" fill="#DAEEF7"/>
<path d="M744.175 611.555V620.327C744.175 621.064 744.758 621.646 745.495 621.646H765.987C767.462 621.646 768.044 619.706 766.803 618.891L755.314 611.555C755.275 611.555 750.773 614.854 744.175 611.555Z" fill="#E03268"/>
<path d="M703.928 239.274C703.617 239.39 703.307 239.119 703.385 238.808C703.889 236.363 705.48 228.678 704.859 228.407C704.161 228.096 702.608 234.927 701.871 235.005C701.172 235.082 702.841 228.445 702.065 228.251C701.25 228.018 699.93 234.112 699.542 234.151C699.154 234.189 699.853 228.212 699.426 227.786C699.038 227.359 697.563 233.646 697.097 233.801C696.67 233.957 696.243 229.26 695.816 229.26C695.428 229.26 695.156 229.183 693.061 239.972C693.061 239.972 692.944 243.931 692.246 244.863L693.798 248.045L698.65 248.201C698.65 248.201 709.167 238.692 709.09 238.109C709.012 237.605 708.546 237.488 703.928 239.274Z" fill="#FFC0BB"/>
<path d="M753.723 241.68C753.917 241.913 754.344 241.836 754.422 241.525C755.082 239.119 757.178 231.551 757.837 231.589C758.614 231.628 756.906 238.42 757.488 238.808C758.07 239.196 759.584 232.521 760.399 232.715C761.214 232.87 759.623 238.925 759.972 239.119C760.282 239.313 762.417 233.685 762.961 233.491C763.504 233.297 761.951 239.585 762.262 239.934C762.572 240.283 765.095 236.286 765.444 236.48C765.794 236.674 766.065 236.713 762.999 247.269C762.999 247.269 761.292 250.84 761.486 252.004L758.652 254.139L754.267 252.082C754.267 252.082 749.26 238.847 749.571 238.343C749.959 237.877 750.424 237.954 753.723 241.68Z" fill="#FFC0BB"/>
<path d="M715.261 328.269L715.339 346.782L697.408 343.988L700.396 323.223L715.261 328.269Z" fill="#FFC0BB"/>
<path opacity="0.6" d="M698.999 332.771L700.396 323.184L715.3 330.015V333.664C711.729 334.556 704.976 335.332 698.999 332.771Z" fill="#FC8D84"/>
<path d="M682.814 610.585V620.21C682.814 620.986 682.154 621.646 681.378 621.646H658.828C657.198 621.646 656.577 619.512 657.936 618.619L670.588 610.546C670.588 610.585 675.556 614.194 682.814 610.585Z" fill="#E03268"/>
<path d="M662.244 446.916C662.283 444.859 656.927 450.914 657.043 449.284C659.139 415.091 725.973 443.773 725.973 443.773L742.274 455.727L760.709 614.233C760.709 614.233 750.696 617.144 744.137 614.777L703.346 478.936L698.339 476.995C698.3 476.995 675.983 461.432 662.244 446.916Z" fill="#07085B"/>
<path d="M656.927 450.681C656.927 451.069 656.888 451.496 656.888 451.923C656.888 451.496 656.927 451.069 656.927 450.681Z" fill="#06BFAD"/>
<path d="M656.887 451.923C656.887 452.35 656.849 452.777 656.849 453.243C656.849 452.816 656.849 452.35 656.887 451.923Z" fill="#06BFAD"/>
<path d="M656.811 453.437C656.811 453.903 656.772 454.369 656.772 454.873C656.811 454.369 656.811 453.903 656.811 453.437Z" fill="#06BFAD"/>
<path d="M657.005 449.284C656.966 449.672 656.966 450.022 656.927 450.449C656.966 450.022 657.005 449.672 657.005 449.284Z" fill="#06BFAD"/>
<path d="M657.004 441.522C670.782 456.037 698.299 477.034 698.299 477.034L703.306 478.975L698.299 477.034L682.775 614.272C682.775 614.272 671.713 616.368 665.426 612.953C665.426 612.953 656.111 482.313 657.004 441.522Z" fill="#07085B"/>
<path d="M760.669 614.272C760.669 614.272 756.361 615.514 751.548 615.708C756.361 615.514 760.669 614.272 760.669 614.272Z" fill="#06BFAD"/>
<path d="M746.039 615.32C746.466 615.398 746.932 615.475 747.397 615.553C746.932 615.475 746.466 615.398 746.039 615.32Z" fill="#06BFAD"/>
<path d="M751.551 615.67C750.386 615.708 749.222 615.708 748.058 615.592C749.222 615.708 750.386 615.747 751.551 615.67Z" fill="#06BFAD"/>
<path d="M742.274 455.726L744.913 478.354C737.966 481.032 721.005 483.942 708.236 455.998C704.2 447.188 703.191 440.862 703.928 436.282C716.154 439.542 725.973 443.772 725.973 443.772L742.274 455.726Z" fill="#050645"/>
<path d="M680.951 363.393C681.727 363.393 693.293 337.157 693.293 337.157C703.19 344.104 716.619 339.291 716.619 339.291C716.619 339.291 770.684 438.261 734.434 453.669C698.183 469.116 663.952 450.332 663.952 450.332C663.952 450.332 656.228 430.266 656.228 429.49C656.228 428.713 680.175 363.393 680.951 363.393Z" fill="#FDC33E"/>
<path d="M751.434 252.276C751.434 252.276 753.762 299.238 749.377 307.815C734.783 336.381 716.658 339.253 716.658 339.253C716.658 339.253 710.41 439.115 715.572 463.023C715.572 463.023 732.688 468.301 757.876 456.464C757.876 456.464 738.587 379.035 739.596 369.254C739.596 369.254 770.451 341.737 771.499 309.329C772.547 276.921 764.047 248.123 764.047 248.123L751.434 252.276Z" fill="#CC0909"/>
<path d="M668.221 459.452C668.221 459.452 670.162 422.271 678.623 387.03C687.123 351.789 693.294 337.118 693.294 337.118C681.922 324.582 683.785 313.249 684.794 298.539C685.958 281.578 702.531 247.618 702.531 247.618L691.353 240.283C637.715 304.71 667.445 356.019 667.445 356.019C667.445 356.019 647.379 427.006 644.663 448.624C644.663 448.662 655.336 454.834 668.221 459.452Z" fill="#CC0909"/>
<path d="M739.053 369.176C738.393 368.711 737.655 368.012 736.879 367.119C734.589 364.364 733.425 361.297 732.61 357.843C733.114 359.318 734.434 363.587 737.19 366.848C738.431 368.284 739.091 368.749 739.712 369.137C739.635 369.215 739.557 369.293 739.557 369.293C739.557 369.37 739.557 369.409 739.557 369.487C738.858 369.642 737.578 369.681 735.482 368.516C734.162 367.818 733.153 366.964 732.066 366.071C732.765 366.576 734.24 367.624 735.637 368.284C736.569 368.788 738.005 369.254 739.053 369.176Z" fill="white"/>
<path d="M667.833 355.825C668.765 355.243 669.541 354.389 670.278 353.574C672.568 350.896 673.81 347.753 674.858 344.57C674.043 348.024 672.879 351.09 670.589 353.846C669.851 354.739 669.075 355.437 668.415 355.903C668.92 355.942 669.541 355.825 669.929 355.709C670.589 355.554 671.249 355.282 671.87 354.972C673.15 354.351 674.431 353.458 675.44 352.759C674.47 353.574 673.383 354.506 672.025 355.204C671.404 355.554 670.744 355.825 670.045 356.02C669.347 356.214 668.648 356.33 667.833 356.136L667.406 356.02L667.833 355.825Z" fill="white"/>
<path d="M689.529 290.544L688.442 303.235L690.421 304.516L694.147 289.03L689.529 290.544Z" fill="#07085B"/>
<path d="M692.207 301.916C692.75 304.788 691.353 307.466 689.024 307.932C686.734 308.359 684.406 306.418 683.862 303.507C683.319 300.635 684.716 297.957 687.045 297.491C689.335 297.064 691.663 299.044 692.207 301.916Z" fill="#F99893"/>
<path d="M688.908 313.637C688.326 309.95 688.404 306.224 688.714 302.964C688.792 302.265 688.831 301.567 688.831 300.868C688.908 298.074 689.49 295.201 690.732 292.368C694.691 283.247 704.355 277.736 714.213 278.939C727.487 280.569 736.258 293.067 733.697 305.836C735.249 305.331 736.841 305.487 738.083 306.379C740.489 308.087 740.683 311.89 738.587 314.879C736.453 317.867 732.804 318.915 730.398 317.208C730.049 316.975 729.777 316.703 729.544 316.393C726.245 327.027 715.688 333.664 705.015 331.335C696.904 329.627 690.228 322.952 688.908 313.637Z" fill="#FFC0BB"/>
<path d="M713.475 303.507C712.971 304.827 713.902 306.224 715.338 306.224C716.115 306.224 716.852 305.719 717.124 304.982C717.667 303.662 716.697 302.265 715.261 302.265C714.484 302.265 713.747 302.77 713.475 303.507Z" fill="#333333"/>
<path d="M696.67 300.984C696.166 302.304 697.097 303.701 698.533 303.701C699.309 303.701 700.047 303.197 700.318 302.459C700.823 301.14 699.892 299.742 698.456 299.742C697.679 299.781 696.942 300.247 696.67 300.984Z" fill="#333333"/>
<path d="M710.836 317.324C709.788 317.829 708.624 318.217 707.654 318.411C706.567 318.605 705.441 318.683 704.355 318.527C703.268 318.372 702.22 317.984 701.25 317.441C700.279 316.858 699.426 316.121 698.649 315.306C699.426 316.432 700.163 317.053 701.056 317.712C702.026 318.333 703.035 318.76 704.277 318.916C705.441 319.071 706.606 318.993 707.693 318.683C708.857 318.411 709.905 317.984 710.836 317.324Z" fill="#F99893"/>
<path d="M711.884 299.51C712.932 299.316 713.903 299.199 714.834 299.199C715.765 299.199 716.697 299.277 717.59 299.51C718.443 299.742 719.336 300.092 720.112 300.596C721.199 301.217 721.975 301.955 722.519 302.343C722.169 301.45 721.587 300.363 720.772 299.704C719.996 298.927 718.987 298.423 717.939 298.112C716.852 297.841 715.727 297.802 714.679 298.074C713.631 298.306 712.661 298.772 711.884 299.51Z" fill="#07085B"/>
<path d="M704.005 298.19C703.501 297.258 702.725 296.521 701.793 295.939C700.862 295.357 699.814 295.007 698.688 294.93C697.601 294.852 696.437 295.046 695.467 295.512C694.497 295.861 693.604 296.715 692.983 297.452C693.682 297.258 694.574 296.831 695.816 296.599C696.748 296.366 697.64 296.327 698.572 296.366C699.464 296.404 700.396 296.599 701.289 296.948C702.22 297.297 703.113 297.685 704.005 298.19Z" fill="#07085B"/>
<path d="M707.46 300.713C706.529 301.567 705.675 302.537 704.899 303.507C704.084 304.478 703.346 305.525 702.686 306.612C702.298 307.272 701.832 308.165 701.716 308.902C701.638 309.329 701.677 309.717 702.376 310.416C702.842 310.881 703.346 311.308 703.851 311.658C704.394 312.007 704.937 312.356 705.52 312.589C704.549 311.774 703.579 310.959 702.842 309.989C702.725 309.834 702.492 309.523 702.415 309.329C702.376 309.174 702.453 308.863 702.531 308.63C702.725 308.087 703.036 307.544 703.346 307C703.967 305.952 704.666 304.904 705.364 303.857C706.063 302.809 706.762 301.761 707.46 300.713Z" fill="#F99893"/>
<path d="M691.857 276.999C691.857 276.999 685.182 275.718 693.41 271.681C701.638 267.645 721.742 265.316 732.26 274.321C732.26 274.321 735.792 269.78 738.975 271.759C742.157 273.738 735.676 275.951 735.676 275.951C735.676 275.951 740.1 276.804 740.993 279.288C741.614 281.113 738.897 280.569 737.461 280.181C739.867 281.19 746.97 287.866 737.772 306.185C736.141 305.409 725.585 290.35 725.585 290.35C725.585 290.35 704.355 297.336 708.236 291.553C708.236 291.553 683.513 297.763 689.49 286.546C689.451 286.585 680.369 285.227 691.857 276.999Z" fill="#07085B"/>
<path d="M737.733 306.224C737.733 306.224 736.141 304.982 733.696 305.913C731.251 306.806 729.699 312.317 729.699 312.317C729.699 312.317 721.703 318.876 725.585 290.311C729.427 262.25 734.744 294.968 734.744 294.968L737.733 306.224Z" fill="#07085B"/>
<path d="M682.892 217.501L679.438 217.152C680.059 216.802 680.758 216.647 681.534 216.725L768.278 225.263C772.819 225.729 776.157 229.339 775.769 233.375L775.303 237.994C774.915 242.03 770.917 244.902 766.376 244.475L680.602 236.014L682.892 217.501Z" fill="#FEB546"/>
<path d="M768.045 237.256L768.51 232.637C768.898 228.601 765.561 224.991 761.02 224.526L762.883 224.72C767.424 225.185 770.761 228.795 770.373 232.831L769.908 237.45C769.519 241.486 765.522 244.358 760.981 243.931L759.157 243.737C763.698 244.164 767.656 241.292 768.045 237.256Z" fill="#FEB546"/>
<path d="M747.746 235.277L748.212 230.658C748.6 226.622 745.262 223.012 740.721 222.546L742.584 222.74C747.125 223.167 750.463 226.816 750.074 230.852L749.609 235.471C749.221 239.507 745.223 242.379 740.682 241.952L738.858 241.758C743.36 242.185 747.358 239.274 747.746 235.277Z" fill="#FEB546"/>
<path d="M732.222 221.731C736.568 222.158 739.79 225.612 739.402 229.455L738.897 234.694C738.509 238.537 734.706 241.331 730.359 240.904L676.372 235.587L676.488 234.423L676.721 234.461L690.577 234.655L694.303 225.263C694.303 225.263 689.49 219.402 689.141 219.247C688.791 219.092 678.39 217.617 678.39 217.617L678.157 217.578L678.273 216.414L732.222 221.731Z" fill="#FEB546"/>
<path d="M680.757 226.311C681.3 220.684 678.273 217.618 678.273 217.618L730.94 222.779C734.938 223.168 737.887 226.35 737.538 229.882L737.15 233.918C736.801 237.45 733.308 240.012 729.31 239.624L676.643 234.462C676.643 234.423 680.058 233.414 680.757 226.311Z" fill="#DAEEF7"/>
<path d="M737.577 229.882L737.189 233.918C737.15 234.462 736.995 234.966 736.84 235.432C735.443 231.396 732.415 227.359 726.05 225.535C711.185 221.266 678.351 217.618 678.351 217.618L731.018 222.779C734.977 223.168 737.926 226.35 737.577 229.882Z" fill="#DAEEF7"/>
<path d="M577.711 350.702L574.14 358.697C573.83 359.357 574.14 360.133 574.8 360.444L593.468 368.827C594.827 369.448 596.108 367.896 595.331 366.654L588.112 355.398C588.073 355.359 582.368 356.407 577.711 350.702Z" fill="#55769F"/>
<path d="M553.958 350.702L550.388 358.697C550.077 359.357 550.388 360.133 551.047 360.444L569.716 368.827C571.074 369.448 572.355 367.896 571.579 366.654L564.36 355.398C564.321 355.359 558.616 356.407 553.958 350.702Z" fill="#55769F"/>
<path d="M513.594 130.678L511.615 143.137L507.423 126.526C507.423 126.526 513.322 123.654 513.555 124.701C513.827 125.749 513.594 130.678 513.594 130.678Z" fill="#07085B"/>
<path d="M480.216 157.498L478.392 179.038L497.41 178.146L495.198 159.05L480.216 157.498Z" fill="#FFC0BB"/>
<path d="M496.245 168.132L495.197 159.05L480.177 157.498L479.556 164.95C482.545 167.938 487.901 171.004 496.245 168.132Z" fill="#F99893"/>
<path d="M507.889 142.982C506.763 145.35 507.346 147.989 509.247 148.92C511.149 149.852 513.594 148.649 514.759 146.281C515.884 143.914 515.302 141.274 513.4 140.343C511.498 139.45 509.053 140.615 507.889 142.982Z" fill="#F99893"/>
<path d="M510.645 144.729C510.761 144.108 510.877 143.487 511.033 142.904C511.615 140.459 511.77 137.82 511.382 135.103C510.062 126.293 502.96 119.268 494.15 118.026C482.273 116.396 471.794 125.206 471.018 136.85C469.776 136.074 468.379 135.802 467.098 136.307C464.614 137.238 463.566 140.498 464.692 143.564C465.856 146.669 468.767 148.416 471.251 147.484C471.6 147.368 471.911 147.174 472.182 146.98C472.57 156.954 480.216 165.144 489.958 165.609C494.732 165.842 499.156 164.173 502.611 161.262C507.346 157.769 509.713 150.473 510.645 144.729Z" fill="#FFC0BB"/>
<path d="M495.858 138.208C495.897 139.373 495.897 140.498 495.975 141.624C496.052 142.71 496.169 143.875 496.596 144.651C497.023 145.272 497.372 145.66 497.411 146.436C497.449 147.213 497.023 147.911 496.518 148.299C495.47 149.153 494.15 149.27 493.025 148.998C494.15 148.804 495.237 148.416 495.897 147.678C496.207 147.29 496.402 146.902 496.324 146.514C496.285 146.087 496.13 146.009 495.625 145.272C495.276 144.651 495.16 144.03 495.082 143.409C495.043 142.788 495.043 142.206 495.082 141.624C495.16 140.421 495.431 139.295 495.858 138.208Z" fill="#F99893"/>
<path d="M489.104 139.45C489.221 140.653 488.173 141.624 486.97 141.391C486.232 141.236 485.65 140.615 485.572 139.838C485.456 138.635 486.504 137.665 487.707 137.898C488.444 138.092 489.027 138.713 489.104 139.45Z" fill="#333333"/>
<path d="M504.28 141.197C504.396 142.4 503.348 143.371 502.145 143.138C501.408 142.982 500.826 142.361 500.748 141.585C500.632 140.382 501.68 139.412 502.883 139.645C503.62 139.8 504.202 140.421 504.28 141.197Z" fill="#333333"/>
<path d="M486.155 151.753C486.621 152.142 487.126 152.53 487.63 152.879C488.135 153.228 488.678 153.539 489.221 153.81C490.308 154.354 491.472 154.742 492.676 154.858C493.879 155.014 495.082 154.897 496.246 154.587C497.411 154.276 498.536 153.733 499.584 153.073C498.459 154.043 497.488 154.509 496.363 154.936C495.16 155.324 493.956 155.479 492.637 155.324C491.395 155.169 490.153 154.742 489.105 154.121C487.941 153.461 486.932 152.685 486.155 151.753Z" fill="#F99893"/>
<path d="M491.356 135.763C490.463 135.492 489.609 135.259 488.755 135.142C487.901 135.026 487.086 134.987 486.31 135.103C485.495 135.22 484.719 135.375 483.942 135.724C483.36 135.918 481.924 136.734 481.536 136.928C481.963 136.113 482.623 135.259 483.399 134.793C484.175 134.211 485.146 133.861 486.155 133.745C487.164 133.629 488.173 133.784 489.066 134.133C489.919 134.444 490.773 134.987 491.356 135.763Z" fill="#07085B"/>
<path d="M499.157 136.617C499.855 135.996 500.787 135.608 501.718 135.414C502.689 135.22 503.698 135.297 504.668 135.608C505.599 135.918 506.492 136.462 507.152 137.16C507.812 137.781 508.277 138.751 508.549 139.644C508.2 139.411 506.958 138.325 506.414 138.014C505.716 137.509 504.978 137.199 504.202 136.927C503.426 136.694 502.611 136.539 501.757 136.5C500.981 136.5 500.088 136.539 499.157 136.617Z" fill="#07085B"/>
<path d="M490.657 258.563C490.657 258.563 486.698 285.459 512.663 290.156C538.628 294.852 570.958 293.455 570.958 293.455L575.46 355.243L589.044 355.941C589.044 355.941 623.975 270.129 575.615 256.7L532.185 256.855L514.293 255.574C514.293 255.574 496.207 251.111 495.974 251.965C495.78 252.819 491.084 258.99 490.657 258.563Z" fill="#070852"/>
<path d="M466.787 258.718C466.787 258.718 462.829 285.615 488.794 290.311C514.759 295.007 547.089 293.61 547.089 293.61L551.591 355.398L565.175 356.097C565.175 356.097 600.106 270.284 551.746 256.855L508.316 257.049L490.424 255.769C490.424 255.769 472.338 251.305 472.105 252.159C471.911 252.974 467.214 259.145 466.787 258.718Z" fill="#10116B"/>
<path d="M499.506 170.461C499.506 170.461 517.398 172.751 521.939 176.438C526.48 180.125 548.331 234.384 548.331 234.384L530.167 255.691L491.549 255.963C491.549 255.963 462.596 271.565 444.393 256.817C426.19 242.068 435.583 190.643 446.101 179.582C456.619 168.52 475.365 168.792 475.365 168.792C475.365 168.792 492.403 180.668 499.506 170.461Z" fill="#7B4084"/>
<path d="M464.885 197.435C465.506 200.385 465.933 203.373 466.205 206.4C466.36 207.914 466.438 209.428 466.515 210.941C466.554 212.455 466.593 213.969 466.593 215.482C466.515 218.51 466.36 221.537 465.855 224.564C465.351 227.553 464.614 230.541 463.216 233.258C464.148 230.386 464.614 227.436 464.963 224.448C465.273 221.459 465.39 218.471 465.429 215.482C465.506 212.494 465.429 209.505 465.312 206.478C465.157 203.451 465.04 200.462 464.885 197.435Z" fill="white"/>
<path d="M518.406 195.455C519.221 199.841 520.075 204.227 520.968 208.612C521.86 212.998 522.792 217.345 523.84 221.692C524.888 226.039 526.052 230.308 527.449 234.539C528.148 236.634 528.924 238.73 529.856 240.748C530.748 242.767 531.835 244.746 533.271 246.454C531.641 244.901 530.399 242.961 529.312 241.02C528.264 239.041 527.333 236.984 526.557 234.849C525.742 232.753 525.082 230.619 524.422 228.445C523.801 226.31 523.219 224.137 522.676 221.964C522.171 219.79 521.666 217.578 521.24 215.404C520.813 213.192 520.386 211.019 520.036 208.806C519.338 204.343 518.756 199.919 518.406 195.455Z" fill="white"/>
<path d="M557.14 205.274C553.841 200.151 526.75 191.38 526.75 191.38C526.75 199.724 526.75 200.074 526.75 200.074L554.307 209.699L557.14 205.274Z" fill="#EDEDED"/>
<path d="M555.199 204.925L523.762 190.409V196.037L554.423 207.098L555.199 204.925Z" fill="white"/>
<path d="M553.453 204.925L520.269 192.35V202.053L553.104 207.098L553.453 204.925Z" fill="#EDEDED"/>
<path d="M557.14 203.916C557.14 203.916 563.544 188.973 566.144 185.868C566.144 195.727 562.186 208.069 562.186 208.069L557.14 203.916Z" fill="white"/>
<path d="M559.935 204.576L567.697 184.976V194.329L562.38 207.098L559.935 204.576Z" fill="#EDEDED"/>
<path d="M562.38 204.925L570.802 185.868V192.66L562.38 204.925Z" fill="white"/>
<path d="M562.38 263.647L573.014 245.289V186.567L562.38 204.925V263.647Z" fill="#26426E"/>
<path d="M513.244 254.759L551.008 263.647V204.925L513.244 196.037V254.759Z" fill="#55769F"/>
<path d="M551.008 204.925C554.346 203.334 561.293 203.877 562.38 204.925C561.797 208.263 551.823 208.923 551.008 204.925Z" fill="#E0E0E0"/>
<path d="M551.008 263.647C551.008 265.083 562.418 265.083 562.418 263.647V204.925C561.254 206.633 552.289 206.594 551.008 204.925V263.647Z" fill="#3A5782"/>
<path d="M527.411 243.388C527.295 242.495 520.464 241.486 517.98 241.369C516.078 241.253 503.464 240.865 499.195 240.671L499.506 241.757L499.428 246.609L498.729 249.83C502.494 250.063 511.693 250.413 513.594 250.801C516.156 251.305 520.58 253.246 520.58 253.246C520.58 253.246 522.443 252.819 520.076 251.81C518.213 250.995 516.855 249.753 516.311 249.132C516.001 248.782 516.35 248.123 516.583 248.2C522.948 249.869 523.608 250.141 523.608 250.141C523.608 250.141 531.098 250.102 523.647 248.394C519.183 247.385 517.592 246.803 517.165 246.298C517.01 246.104 517.281 245.367 517.553 245.328C521.434 245.095 528.382 246.454 526.48 245.561C524.927 244.824 520.037 244.009 518.135 243.737C518.019 243.737 517.825 242.999 518.368 242.961C522.055 242.65 527.489 244.203 527.411 243.388Z" fill="#FFC0BB"/>
<path d="M460.5 232.482C462.052 232.87 463.604 233.297 465.196 233.646C466.748 234.034 468.339 234.306 469.931 234.616C473.113 235.199 476.257 235.703 479.44 236.13C482.622 236.557 485.805 236.945 489.026 237.256C492.209 237.566 495.469 237.838 498.613 238.032L499.039 238.071L499.117 238.42C499.389 239.507 499.583 240.516 499.699 241.602C499.816 242.65 499.893 243.737 499.893 244.824C499.893 245.911 499.777 246.958 499.622 248.045C499.428 249.093 499.117 250.141 498.69 251.15L498.651 251.228L498.574 251.267L495.081 253.634C493.916 254.41 492.752 255.187 491.549 255.963C492.636 255.07 493.761 254.216 494.887 253.362L498.224 250.801L498.108 250.917C498.457 249.947 498.69 248.938 498.845 247.929C498.962 246.92 499.039 245.872 499.001 244.824C498.962 243.776 498.845 242.767 498.729 241.719C498.574 240.71 498.38 239.662 498.108 238.692L498.613 239.08C496.944 239.041 495.352 238.924 493.722 238.808C492.092 238.692 490.501 238.575 488.871 238.381C485.649 238.032 482.428 237.644 479.246 237.139C476.063 236.635 472.88 236.014 469.737 235.237C468.184 234.849 466.593 234.461 465.04 233.957C463.566 233.568 462.013 233.025 460.5 232.482Z" fill="white"/>
<path d="M513.983 118.919C513.983 118.919 519.96 119.113 513.672 114.067C507.424 109.022 490.618 103.122 479.829 108.789C479.829 108.789 477.694 104.209 474.55 105.296C471.445 106.383 476.568 109.526 476.568 109.526C476.568 109.526 472.61 109.41 471.368 111.351C470.475 112.787 472.92 112.864 474.24 112.787C471.989 113.175 463.295 118.647 467.642 136.151C469.194 135.802 478.004 123.033 478.004 123.033C478.004 123.033 498.186 134.249 496.168 125.323C496.168 125.323 517.049 138.363 514.099 127.574C514.177 127.613 522.25 128.195 513.983 118.919Z" fill="#07085B"/>
<path d="M467.68 136.268C467.68 136.268 469.349 135.686 471.134 137.122C472.92 138.558 472.726 143.564 472.726 143.564C472.726 143.564 481.303 149.076 480.41 125.711C479.44 100.833 473.269 127.69 473.269 127.69L467.68 136.268Z" fill="#07085B"/>
<path d="M374.611 602.939L378.182 610.934C378.492 611.594 378.182 612.37 377.522 612.681L358.854 621.064C357.495 621.685 356.176 620.132 356.991 618.89L364.21 607.635C364.21 607.596 369.954 608.644 374.611 602.939Z" fill="#07085B"/>
<path d="M398.829 602.007L402.4 610.003C402.71 610.662 402.4 611.439 401.74 611.749L383.072 620.132C381.713 620.753 380.433 619.201 381.209 617.959L388.428 606.704C388.428 606.665 394.172 607.674 398.829 602.007Z" fill="#07085B"/>
<path d="M420.642 343.599C420.642 343.599 400.265 340.184 393.435 362.928L401.857 375.541C401.857 375.541 419.555 368.749 419.632 368.09C419.71 367.391 420.642 343.599 420.642 343.599Z" fill="#835138"/>
<path d="M453.437 353.846C453.437 353.846 459.375 362.772 462.403 366.304C470.01 375.231 471.019 372.437 475.754 380.082C480.877 388.349 475.676 393.55 472.765 395.918C469.816 398.285 474.745 407.134 469.272 412.063C462.092 418.545 455.455 412.451 450.526 416.061C445.597 419.67 444.51 425.065 432.828 424.056C421.146 423.047 421.262 384.817 421.262 384.817C421.262 384.817 430.849 364.558 431.198 364.364C431.547 364.209 453.437 353.846 453.437 353.846Z" fill="#835138"/>
<path d="M393.473 362.889C393.473 362.889 392.774 369.914 390.446 373.95C384.624 384.119 381.48 380.781 378.22 389.203C374.727 398.285 380.782 402.399 384.119 404.223C387.457 406.009 384.236 415.595 390.562 419.438C398.79 424.483 404.185 417.225 409.735 419.903C415.246 422.542 417.303 427.627 428.598 424.483C439.892 421.3 432.712 383.77 432.712 383.77C432.712 383.77 419.554 365.606 419.127 365.528C418.701 365.373 393.473 362.889 393.473 362.889Z" fill="#835138"/>
<path d="M423.009 408.182C423.009 408.182 442.531 404.573 451.496 404.883C460.462 405.194 446.063 428.52 446.063 428.52L431.392 428.83C431.392 428.83 422.388 418.778 423.009 417.613C423.591 416.449 422.97 408.803 422.97 408.803L423.009 408.182Z" fill="#FFC0BB"/>
<path d="M440.397 389.552L445.559 405.193C445.559 405.193 441.096 414.469 427.356 410.472C427.356 410.472 428.909 407.25 426.813 400.575C424.678 393.744 440.397 389.552 440.397 389.552Z" fill="#FFC0BB"/>
<path opacity="0.6" d="M440.397 389.552L442.803 396.849C441.367 402.166 436.71 405.814 427.9 406.94C427.9 405.348 427.667 403.214 426.813 400.536C424.678 393.744 440.397 389.552 440.397 389.552Z" fill="#FC8D84"/>
<path d="M408.998 378.141C410.124 380.664 409.387 383.458 407.33 384.351C405.311 385.244 402.75 383.924 401.624 381.363C400.499 378.84 401.236 376.045 403.293 375.153C405.35 374.26 407.912 375.58 408.998 378.141Z" fill="#F99893"/>
<path d="M408.455 389.63C407.135 386.37 406.436 382.877 406.048 379.81C405.971 379.151 405.854 378.491 405.699 377.87C405.156 375.269 405.117 372.475 405.66 369.603C407.407 360.366 415.13 353.224 424.523 352.293C437.136 351.012 447.848 360.715 448.159 373.057C449.478 372.281 450.992 372.048 452.312 372.63C454.873 373.717 455.882 377.171 454.563 380.393C453.243 383.614 450.061 385.36 447.499 384.274C447.15 384.118 446.801 383.924 446.529 383.692C445.753 394.21 437.369 402.554 427.045 402.632C419.244 402.709 411.637 398.013 408.455 389.63Z" fill="#FFC0BB"/>
<path d="M421.884 373.562C422.272 374.726 422.505 375.929 422.583 377.171C422.621 377.792 422.583 378.413 422.505 379.073C422.388 379.694 422.272 380.354 421.845 381.014C421.379 381.635 421.146 381.829 421.069 382.294C420.991 382.721 421.185 383.148 421.496 383.575C422.156 384.39 423.281 384.817 424.484 385.089C423.281 385.322 421.884 385.166 420.836 384.235C420.331 383.769 419.943 383.032 419.982 382.256C420.021 381.441 420.409 381.052 420.914 380.431C421.185 380.043 421.341 379.5 421.457 378.957C421.573 378.413 421.612 377.831 421.69 377.249C421.768 375.968 421.845 374.765 421.884 373.562Z" fill="#F99893"/>
<path d="M428.947 375.153C428.753 376.434 429.84 377.482 431.121 377.288C431.897 377.171 432.557 376.511 432.634 375.735C432.829 374.454 431.742 373.406 430.461 373.6C429.724 373.678 429.064 374.338 428.947 375.153Z" fill="#333333"/>
<path d="M412.919 376.356C412.724 377.637 413.811 378.685 415.092 378.491C415.868 378.374 416.528 377.715 416.645 376.938C416.839 375.658 415.752 374.61 414.471 374.804C413.656 374.92 413.035 375.58 412.919 376.356Z" fill="#333333"/>
<path opacity="0.3" d="M429.258 389.668C429.258 389.668 426.58 388.698 424.057 390.367C424.057 390.367 421.34 388.659 419.206 390.289C419.206 390.289 420.215 394.326 424.678 394.054C429.141 393.782 429.258 389.668 429.258 389.668Z" fill="#F99893"/>
<path d="M431.626 388.194C431.121 388.621 430.578 388.97 430.035 389.319C429.491 389.669 428.909 389.979 428.327 390.212C427.163 390.717 425.921 391.105 424.64 391.182C423.359 391.299 422.117 391.144 420.875 390.755C419.672 390.367 418.508 389.746 417.421 389.048C417.887 389.475 418.43 389.902 418.973 390.251C419.517 390.6 420.138 390.872 420.759 391.144C421.38 391.376 422.039 391.532 422.699 391.648C423.359 391.726 424.019 391.765 424.679 391.687C425.998 391.57 427.318 391.182 428.482 390.561C429.647 389.94 430.733 389.164 431.626 388.194Z" fill="#F99893"/>
<path d="M426.774 371.116C427.744 370.845 428.637 370.651 429.53 370.573C430.422 370.457 431.276 370.495 432.13 370.612C432.984 370.767 433.799 370.961 434.614 371.349C435.235 371.582 436.71 372.514 437.098 372.708C436.671 371.854 436.011 370.922 435.235 370.379C434.42 369.719 433.411 369.331 432.363 369.176C431.315 369.021 430.228 369.137 429.258 369.486C428.288 369.797 427.395 370.34 426.774 371.116Z" fill="#835138"/>
<path d="M418.468 371.738C417.731 371.039 416.799 370.612 415.79 370.379C414.781 370.146 413.694 370.185 412.685 370.457C411.676 370.767 410.706 371.272 410.007 372.009C409.27 372.63 408.765 373.64 408.416 374.571C408.765 374.338 410.124 373.213 410.706 372.941C411.443 372.436 412.258 372.126 413.073 371.893C413.888 371.66 414.742 371.544 415.635 371.544C416.566 371.544 417.498 371.621 418.468 371.738Z" fill="#835138"/>
<path d="M456.969 503.659C456.969 503.659 462.713 530.749 436.593 537.192C410.473 543.635 377.522 544.294 377.522 544.294L376.901 607.402L363.162 608.993C363.162 608.993 322.138 523.957 370.419 507.229L414.626 504.668L432.751 502.222C432.751 502.222 450.876 496.517 451.148 497.371C451.38 498.147 456.542 504.124 456.969 503.659Z" fill="#FFC0BB"/>
<path d="M481.226 502.261C481.226 502.261 486.97 529.352 460.85 535.795C434.73 542.237 401.779 542.897 401.779 542.897L401.158 606.005L387.418 607.596C387.418 607.596 346.394 522.56 394.676 505.832L438.883 503.27L457.008 500.825C457.008 500.825 475.133 495.12 475.404 495.974C475.676 496.75 480.838 502.727 481.226 502.261Z" fill="#FFC0BB"/>
<path d="M387.341 498.947C365.335 499.297 345.23 511.91 338.089 536.478C330.948 561.046 314.647 586.351 316.199 586.118C350.742 605.446 361.609 586.041 385.478 591.785C409.347 597.529 417.808 594.929 417.808 594.929C410.9 560.27 401.818 542.727 401.818 542.727C403.836 543.076 462.403 543.969 476.88 527.901C480.955 523.399 484.06 517.732 483.439 503.915C482.274 478.183 393.745 498.831 387.341 498.947Z" fill="#3996FF"/>
<path d="M393.9 544.682C394.638 544.527 395.414 544.411 396.151 544.255C396.889 544.1 397.626 543.867 398.364 543.673C398.713 543.557 399.101 543.44 399.45 543.285C399.062 543.207 398.713 543.091 398.364 542.975C397.665 542.703 396.966 542.354 396.345 541.927C395.724 541.461 395.142 540.995 394.676 540.452C394.172 539.908 393.745 539.287 393.357 538.667L394.094 539.482C394.366 539.714 394.599 539.986 394.909 540.219C395.453 540.724 396.035 541.112 396.656 541.5C397.277 541.888 397.937 542.16 398.596 542.392C399.256 542.625 399.994 542.781 400.653 542.819L401.857 542.858L400.77 543.363C400.033 543.712 399.295 543.945 398.558 544.139C397.82 544.333 397.044 544.488 396.268 544.644C395.492 544.76 394.754 544.876 393.978 544.915C393.202 544.954 392.425 544.993 391.688 544.993C392.387 544.915 393.163 544.838 393.9 544.682Z" fill="#DAEEF7"/>
<path d="M400.809 446.217C400.809 446.217 399.024 490.463 394.056 497.41L421.418 491.2V443.035L400.809 446.217Z" fill="#FFC0BB"/>
<path d="M411.87 452.272C411.87 452.272 416.294 463.411 416.993 469.311C418.7 484.02 416.838 494.383 413.81 502.727C409.541 514.448 442.57 509.985 443.346 510.024C478.238 510.839 477.888 509.442 477.888 509.442L483.438 504.978C482.662 490.657 480.683 478.237 480.993 465.468L481.304 452.272L479.712 438.96L430.344 435.079L411.87 452.272Z" fill="#3996FF"/>
<path d="M394.987 462.091C398.015 457.395 422.699 449.438 422.699 449.438C422.699 457.045 422.699 457.395 422.699 457.395L397.549 466.166L394.987 462.091Z" fill="#EDEDED"/>
<path d="M394.987 462.091C398.015 457.395 422.699 449.438 422.699 449.438C422.699 457.045 422.699 457.395 422.699 457.395L397.549 466.166L394.987 462.091Z" fill="#EDEDED"/>
<path d="M396.772 461.781L425.454 448.546V453.669L397.471 463.76L396.772 461.781Z" fill="white"/>
<path d="M398.364 461.78L428.637 450.331V459.18L398.674 463.76L398.364 461.78Z" fill="#EDEDED"/>
<path d="M394.987 460.888C394.987 460.888 389.165 447.226 386.759 444.393C386.759 453.358 390.407 464.653 390.407 464.653L394.987 460.888Z" fill="white"/>
<path d="M392.426 461.47L385.362 443.578V452.116L390.213 463.76L392.426 461.47Z" fill="#EDEDED"/>
<path d="M390.213 461.78L382.49 444.393V450.603L390.213 461.78Z" fill="white"/>
<path d="M390.213 515.34L383.149 499.078V445.479L390.213 461.78V515.34Z" fill="#F5577A"/>
<path d="M435.04 507.268L400.576 515.341V461.78L435.04 453.669V507.268Z" fill="#FF5B7E"/>
<path d="M400.577 461.78C397.549 460.344 391.184 460.849 390.214 461.78C390.757 464.847 399.8 465.429 400.577 461.78Z" fill="#E0E0E0"/>
<path d="M400.576 515.34C400.576 516.66 390.174 516.66 390.174 515.34V461.78C391.222 463.333 399.412 463.294 400.576 461.78V515.34Z" fill="#DE4B6C"/>
<path d="M491.667 440.861L468.224 451.729C468.224 451.729 466.4 481.73 465.275 483.05C463.218 485.456 442.453 492.326 431.509 494.344C429.762 494.654 427.938 494.538 426.23 493.917C420.797 492.015 411.21 488.561 409.658 488.017C407.29 487.202 400.576 485.611 400.11 486.426C399.722 487.164 405.35 487.707 408.649 489.376C409.114 489.609 408.687 490.191 408.571 490.152C406.708 489.725 401.857 488.677 400.149 488.794C398.053 488.91 405 490.23 408.532 491.86C408.765 491.976 408.804 492.753 408.571 492.908C408.028 493.218 406.32 493.179 401.779 492.481C394.211 491.278 401.197 494.111 401.197 494.111C401.197 494.111 401.895 494.111 408.454 494.887C408.687 494.926 408.765 495.625 408.338 495.857C407.601 496.246 405.893 496.905 403.836 496.983C401.274 497.061 402.827 498.147 402.827 498.147C402.827 498.147 407.678 497.992 410.24 498.458C412.142 498.807 420.835 501.873 424.406 503.038L424.833 502.494C429.801 503.659 475.599 506.996 481.149 493.412C491.434 468.418 491.667 440.861 491.667 440.861Z" fill="#FFC0BB"/>
<path d="M423.008 408.182C423.008 408.182 436.282 423.668 451.496 404.883C451.496 404.883 468.146 403.525 480.411 412.219C492.675 420.912 500.011 440.473 500.011 440.473C500.011 440.473 482.39 452.195 468.224 452.195L434.962 440.279L411.908 452.195C411.908 452.195 401.196 451.496 392.153 446.877C392.114 446.916 393.667 415.828 423.008 408.182Z" fill="#3996FF"/>
<path d="M464.149 434.613C464.731 436.515 465.236 438.455 465.74 440.396C466.711 444.199 467.565 447.809 468.224 451.729C469.427 451.768 470.786 451.612 471.989 451.418C478.393 450.293 482.585 448.469 488.29 446.14C496.829 442.259 495.664 442.608 499.972 440.512C494.966 443.695 492.288 445.092 488.639 446.916C483.633 449.245 478.859 451.379 472.144 452.544C469.195 452.932 468.38 452.854 467.254 452.738C466.827 449.866 466.323 446.955 464.964 440.551L463.683 434.69L462.364 428.83C463.024 430.77 463.606 432.672 464.149 434.613Z" fill="#07085B"/>
<path d="M411.443 438.222C411.055 440.24 410.784 442.879 410.9 445.325C410.939 446.489 411.793 449.671 412.763 452.97C412.569 453.048 412.414 453.126 412.22 453.165C411.094 449.866 410.124 446.605 409.969 445.402C409.658 442.918 409.891 440.434 410.279 438.028C410.745 435.583 411.366 433.293 412.297 430.964C413.19 428.674 414.199 426.462 415.519 424.405C414.665 426.695 413.85 428.946 413.151 431.275C412.453 433.526 411.832 435.855 411.443 438.222Z" fill="#07085B"/>
<path d="M448.12 373.057C448.12 373.057 425.338 367.546 414.432 352.06C414.432 352.06 414.238 337.972 435.157 341.154C455.533 344.298 460.268 364.053 448.12 373.057Z" fill="#835138"/>
</svg>
