<svg width="850" height="631" viewBox="0 0 850 631" fill="none" xmlns="http://www.w3.org/2000/svg">
<path d="M407.212 477.849L307.233 518.019L183.463 209.855L267.995 175.894C276.533 172.479 286.236 176.593 289.69 185.17L407.212 477.849Z" fill="#F4A640"/>
<path d="M371.219 197.203L179.806 231.146L227.533 500.287L418.946 466.344L371.219 197.203Z" fill="#ADCFD8"/>
<path d="M322.886 233.308L237.401 248.467L237.74 250.377L323.225 235.218L322.886 233.308Z" fill="#55769F"/>
<path d="M339.996 225.269L218.59 246.798L218.929 248.709L340.334 227.18L339.996 225.269Z" fill="#55769F"/>
<path d="M357.332 247.975L210.056 274.092L210.394 276.002L357.671 249.886L357.332 247.975Z" fill="#55769F"/>
<path d="M359.001 257.206L211.725 283.323L212.063 285.233L359.34 259.117L359.001 257.206Z" fill="#55769F"/>
<path d="M362.265 275.681L214.988 301.798L215.327 303.709L362.604 277.592L362.265 275.681Z" fill="#55769F"/>
<path d="M363.897 284.918L216.62 311.035L216.959 312.946L364.236 286.829L363.897 284.918Z" fill="#55769F"/>
<path d="M365.529 294.156L218.252 320.273L218.591 322.184L365.867 296.067L365.529 294.156Z" fill="#55769F"/>
<path d="M372.748 334.747L225.472 360.864L225.811 362.774L373.087 336.658L372.748 334.747Z" fill="#55769F"/>
<path d="M374.412 344.301L227.136 370.417L227.475 372.328L374.751 346.211L374.412 344.301Z" fill="#55769F"/>
<path d="M376.125 353.882L228.849 379.999L229.187 381.909L376.464 355.793L376.125 353.882Z" fill="#55769F"/>
<path d="M377.833 363.469L230.557 389.585L230.895 391.496L378.172 365.379L377.833 363.469Z" fill="#55769F"/>
<path d="M379.538 373.013L232.262 399.129L232.601 401.04L379.877 374.923L379.538 373.013Z" fill="#55769F"/>
<path d="M381.209 382.604L233.933 408.721L234.271 410.632L381.548 384.515L381.209 382.604Z" fill="#55769F"/>
<path d="M382.92 392.188L235.644 418.304L235.982 420.215L383.259 394.098L382.92 392.188Z" fill="#55769F"/>
<path d="M343.661 190.52L155.649 239.997L225.217 504.354L413.229 454.878L343.661 190.52Z" fill="#DAEEF7"/>
<path d="M298.425 230.484L214.46 252.58L214.954 254.457L298.919 232.361L298.425 230.484Z" fill="#55769F"/>
<path d="M314.826 221.062L195.578 252.443L196.072 254.32L315.32 222.939L314.826 221.062Z" fill="#55769F"/>
<path d="M333.993 242.289L189.334 280.357L189.828 282.234L334.487 244.166L333.993 242.289Z" fill="#55769F"/>
<path d="M336.355 251.337L191.696 289.405L192.19 291.282L336.849 253.214L336.355 251.337Z" fill="#55769F"/>
<path d="M341.137 269.499L196.479 307.567L196.972 309.444L341.631 271.376L341.137 269.499Z" fill="#55769F"/>
<path d="M343.536 278.54L198.877 316.608L199.371 318.485L344.03 280.417L343.536 278.54Z" fill="#55769F"/>
<path d="M345.908 287.626L201.249 325.694L201.743 327.571L346.402 289.502L345.908 287.626Z" fill="#55769F"/>
<path d="M356.382 327.493L211.723 365.562L212.217 367.438L356.875 329.37L356.382 327.493Z" fill="#55769F"/>
<path d="M358.865 336.882L214.206 374.95L214.7 376.827L359.359 338.759L358.865 336.882Z" fill="#55769F"/>
<path d="M361.357 346.31L216.698 384.378L217.192 386.255L361.851 348.187L361.357 346.31Z" fill="#55769F"/>
<path d="M363.838 355.7L219.179 393.769L219.673 395.645L364.332 357.577L363.838 355.7Z" fill="#55769F"/>
<path d="M366.281 365.101L221.622 403.169L222.116 405.046L366.775 366.978L366.281 365.101Z" fill="#55769F"/>
<path d="M368.761 374.492L224.103 412.561L224.596 414.437L369.255 376.369L368.761 374.492Z" fill="#55769F"/>
<path d="M371.254 383.919L226.595 421.987L227.089 423.864L371.748 385.796L371.254 383.919Z" fill="#55769F"/>
<path d="M369.254 493.102L167.977 573.947L50.5713 281.617L219.713 177.292C229.221 171.431 241.719 175.545 245.872 185.908L369.254 493.102Z" fill="#FEB546"/>
<path d="M103.005 526.635L74.2849 526.131C64.3103 508.045 57.0137 492.365 57.0137 492.365C89.4602 484.874 116.822 487.94 139.605 496.712L152.18 527.256L154.858 503.736C211.368 534.242 234.655 598.786 234.655 598.786C234.655 598.786 134.792 588.152 113.601 578.294C105.412 574.49 95.1267 560.828 85.5402 545.459C93.2249 538.162 103.005 526.635 103.005 526.635Z" fill="#FF5B7E"/>
<path d="M57.0137 492.326C57.0137 492.326 185.247 546.274 234.693 598.748C234.693 598.748 134.831 588.113 113.64 578.255C105.451 574.452 95.1655 560.79 85.579 545.421C93.2249 538.124 103.005 526.597 103.005 526.597L74.2849 526.092C64.3491 508.045 57.0137 492.326 57.0137 492.326Z" fill="#E03268"/>
<path d="M61.0898 578.565C78.361 568.047 95.7875 562.42 112.632 560.168C117.561 566.301 123.654 573.52 123.654 573.52L124.275 559.121C188.935 556.171 242.534 599.523 242.534 599.523C205.081 623.121 173.1 629.641 146.941 627.545C145.389 622.5 143.177 615.009 143.177 615.009L138.558 626.575C126.022 624.596 114.922 620.715 105.374 615.902C107.819 609.886 110.419 603.055 110.419 603.055L96.4861 610.973C73.1603 596.69 61.0898 578.565 61.0898 578.565Z" fill="#FF5B7E"/>
<path d="M146.979 627.546C145.427 622.5 143.215 615.01 143.215 615.01L138.596 626.575C126.06 624.596 114.96 620.715 105.412 615.902C107.857 609.886 110.458 603.056 110.458 603.056L96.5242 610.973C73.1595 596.691 61.1279 578.565 61.1279 578.565C136.5 569.872 242.572 599.524 242.572 599.524C205.119 623.16 173.138 629.68 146.979 627.546Z" fill="#E03268"/>
<path d="M438.495 190.061L461.626 173.061C459.336 152.569 456.231 135.492 456.231 135.492C425.415 148.105 404.845 166.425 391.3 186.723L398.674 218.898L382.916 201.239C354.351 258.758 372.631 324.931 372.631 324.931C372.631 324.931 448.042 258.602 459.647 238.343C464.11 230.503 464.654 213.387 463.606 195.339C453.127 193.826 438.495 190.061 438.495 190.061Z" fill="#02CCC0"/>
<path d="M456.27 135.492C456.27 135.492 382.722 253.557 372.631 324.97C372.631 324.97 448.042 258.641 459.647 238.381C464.11 230.541 464.653 213.425 463.605 195.378C453.165 193.864 438.533 190.1 438.533 190.1L461.665 173.1C459.375 152.53 456.27 135.492 456.27 135.492Z" fill="#06BFAD"/>
<path d="M502.728 208.264C482.546 209.661 465.08 215.095 450.021 223.012C449.517 230.891 448.741 240.283 448.741 240.283L439.892 228.911C385.361 263.842 366.615 330.171 366.615 330.171C410.822 327.842 440.668 314.685 460.85 297.88C459.22 292.873 456.658 285.46 456.658 285.46L467.099 292.252C476.219 283.403 483.011 273.817 488.057 264.385C482.584 260.892 476.53 256.778 476.53 256.778L492.481 255.187C503.349 230.037 502.728 208.264 502.728 208.264Z" fill="#02CCC0"/>
<path d="M460.85 297.841C459.22 292.834 456.658 285.421 456.658 285.421L467.099 292.213C476.219 283.364 483.011 273.778 488.057 264.347C482.584 260.853 476.53 256.739 476.53 256.739L492.481 255.148C503.31 229.998 502.689 208.264 502.689 208.264C436.127 244.669 366.615 330.132 366.615 330.132C410.861 327.804 440.707 314.685 460.85 297.841Z" fill="#06BFAD"/>
<path d="M687.742 292.408H701.52C699.269 290.855 696.436 289.962 693.37 289.962H348.528C330.481 289.962 315.849 302.926 315.849 318.916V337.313C315.849 353.303 330.481 366.266 348.528 366.266L689.489 366.15L687.742 292.408Z" fill="#E03268"/>
<path d="M344.803 337.274V318.877C344.803 302.886 359.435 289.923 377.482 289.923H370.069C352.022 289.923 337.39 302.886 337.39 318.877V337.274C337.39 353.264 352.022 366.227 370.069 366.227H377.366C359.396 366.188 344.803 353.264 344.803 337.274Z" fill="#FEB546"/>
<path d="M425.569 337.274V318.877C425.569 302.886 440.201 289.923 458.249 289.923H450.836C432.788 289.923 418.156 302.886 418.156 318.877V337.274C418.156 353.264 432.788 366.227 450.836 366.227H458.132C440.124 366.188 425.569 353.264 425.569 337.274Z" fill="#FEB546"/>
<path d="M491.976 290.001C474.705 290.001 460.732 302.382 460.732 317.713V338.516C460.732 353.807 474.705 366.227 491.976 366.227H706.643V361.57H705.75L651.181 356.99L640.159 318.644C640.159 318.644 661.466 297.453 662.825 296.909C664.222 296.366 705.75 294.697 705.75 294.697H706.643V290.079H491.976V290.001Z" fill="#FF5B7E"/>
<path d="M692.71 327.959C692.71 305.526 705.789 294.659 705.789 294.659H496.361C480.526 294.659 467.68 306.031 467.68 320.08V336.071C467.68 350.121 480.526 361.492 496.361 361.492H705.789C705.789 361.531 692.71 356.175 692.71 327.959Z" fill="#DAEEF7"/>
<path d="M467.68 320.08V336.07C467.68 338.166 467.99 340.223 468.534 342.164C475.597 326.833 489.143 312.085 514.913 307.35C575.072 296.289 705.828 294.62 705.828 294.62H496.4C480.526 294.658 467.68 306.03 467.68 320.08Z" fill="#DAEEF7"/>
<path d="M682.076 444.937H697.64C695.078 442.996 691.896 441.871 688.442 441.871H298.152C277.737 441.871 261.164 458.094 261.164 478.121V501.136C261.164 521.163 277.698 537.386 298.152 537.386L684.056 537.27L682.076 444.937Z" fill="#284C7A"/>
<path d="M460.5 441.909C440.978 441.909 425.143 457.434 425.143 476.568V502.572C425.143 521.706 440.978 537.231 460.5 537.231H703.461V531.409H702.452L640.703 525.665L628.205 477.655C628.205 477.655 652.307 451.108 653.86 450.448C655.412 449.749 702.452 447.692 702.452 447.692H703.461V441.909H460.5Z" fill="#55769F"/>
<path d="M687.703 489.415C687.703 461.354 702.491 447.731 702.491 447.731H465.468C447.537 447.731 432.982 461.975 432.982 479.557V499.584C432.982 517.165 447.537 531.409 465.468 531.409H702.491C702.491 531.448 687.703 524.773 687.703 489.415Z" fill="#DAEEF7"/>
<path d="M432.982 479.596V499.622C432.982 502.262 433.332 504.823 433.914 507.268C441.909 488.095 457.24 469.621 486.387 463.683C554.502 449.827 702.452 447.77 702.452 447.77H465.429C447.537 447.731 432.982 462.014 432.982 479.596Z" fill="#DAEEF7"/>
<path d="M248.317 368.478H232.715C235.276 366.964 238.459 366.033 241.913 366.033H632.358C652.773 366.033 669.346 378.918 669.346 394.792V413.072C669.346 428.946 652.773 441.832 632.358 441.832L246.299 441.715L248.317 368.478Z" fill="#02CCC0"/>
<path d="M469.97 366.111C489.492 366.111 505.328 378.415 505.328 393.629V414.277C505.328 429.452 489.492 441.794 469.97 441.794H226.932V437.175H227.941L289.729 432.635L302.226 394.521C302.226 394.521 278.124 373.486 276.533 372.942C274.942 372.399 227.941 370.769 227.941 370.769H226.932V366.189H469.97V366.111Z" fill="#06BFAD"/>
<path d="M242.69 403.797C242.69 381.519 227.902 370.729 227.902 370.729H465.042C482.973 370.729 497.527 382.023 497.527 395.995V411.869C497.527 425.803 482.973 437.136 465.042 437.136H227.902C227.902 437.136 242.69 431.857 242.69 403.797Z" fill="#DAEEF7"/>
<path d="M497.488 395.995V411.869C497.488 413.965 497.139 415.983 496.557 417.924C488.561 402.71 473.231 388.039 444.044 383.343C375.93 372.359 227.902 370.729 227.902 370.729H465.042C482.934 370.729 497.488 382.062 497.488 395.995Z" fill="#DAEEF7"/>
<path opacity="0.5" d="M597.855 413.072V394.792C597.855 378.918 581.282 366.033 560.867 366.033H597.932C618.347 366.033 634.92 378.918 634.92 394.792V413.072C634.92 428.946 618.347 441.832 597.932 441.832H561.333C581.554 441.638 597.855 428.83 597.855 413.072Z" fill="#55769F"/>
<path d="M218.858 540.297H202.053C204.808 538.59 208.224 537.581 211.989 537.581H632.901C654.907 537.581 672.76 551.98 672.76 569.717V590.132C672.76 607.868 654.907 622.268 632.901 622.268L216.724 622.151L218.858 540.297Z" fill="#FEB546"/>
<path d="M457.823 537.619C478.898 537.619 495.936 551.358 495.936 568.358V591.412C495.936 608.373 478.859 622.151 457.823 622.151H195.767V616.989H196.853L263.454 611.905L276.922 569.328C276.922 569.328 250.918 545.808 249.249 545.187C247.541 544.566 196.853 542.742 196.853 542.742H195.767V537.619H457.823Z" fill="#F4A640"/>
<path d="M212.765 579.73C212.765 554.852 196.813 542.781 196.813 542.781H452.427C471.755 542.781 487.435 555.434 487.435 570.997V588.734C487.435 604.337 471.755 616.95 452.427 616.95H196.813C196.813 616.989 212.765 611.09 212.765 579.73Z" fill="#DAEEF7"/>
<path d="M487.474 570.997V588.734C487.474 591.063 487.125 593.353 486.465 595.487C477.849 578.488 461.315 562.109 429.878 556.831C356.446 544.528 196.853 542.704 196.853 542.704H452.466C471.794 542.781 487.474 555.434 487.474 570.997Z" fill="#DAEEF7"/>
<path d="M804.255 631H94.3895C92.2936 631 90.5859 629.292 90.5859 627.197V625.45C90.5859 623.354 92.2936 621.646 94.3895 621.646H804.255C806.351 621.646 808.058 623.354 808.058 625.45V627.197C808.058 629.292 806.351 631 804.255 631Z" fill="#C4DFE8"/>
<path d="M86.2393 313.87L223.283 235.509L241.796 272.186L101.57 346.355L86.2393 313.87Z" fill="#F4A640"/>
<path d="M344.492 90.5864C344.492 90.5864 343.406 101.26 334.983 101.997C343.406 102.734 344.492 113.408 344.492 113.408C344.492 113.408 345.579 102.734 354.001 101.997C345.579 101.26 344.492 90.5864 344.492 90.5864Z" fill="#02CCC0"/>
<path d="M199.181 8.73291C199.181 8.73291 197.745 22.938 186.528 23.9083C197.745 24.8786 199.181 39.0836 199.181 39.0836C199.181 39.0836 200.617 24.8786 211.834 23.9083C200.617 22.938 199.181 8.73291 199.181 8.73291Z" fill="#FEB546"/>
<path d="M140.46 135.686C140.46 135.686 139.489 145.233 131.96 145.893C139.489 146.553 140.46 156.1 140.46 156.1C140.46 156.1 141.43 146.553 148.959 145.893C141.43 145.233 140.46 135.686 140.46 135.686Z" fill="#FF5B7E"/>
<path d="M807.049 363.161C807.049 363.161 805.613 377.366 794.396 378.336C805.613 379.306 807.049 393.511 807.049 393.511C807.049 393.511 808.485 379.306 819.702 378.336C808.485 377.366 807.049 363.161 807.049 363.161Z" fill="#FF5B7E"/>
<path d="M12.6526 238.148C12.6526 238.148 11.2166 252.354 0 253.324C11.2166 254.294 12.6526 268.499 12.6526 268.499C12.6526 268.499 14.0886 254.294 25.3052 253.324C14.0886 252.354 12.6526 238.148 12.6526 238.148Z" fill="#02CCC0"/>
<path d="M836.974 222.973C836.974 222.973 835.538 237.178 824.321 238.148C835.538 239.119 836.974 253.324 836.974 253.324C836.974 253.324 838.41 239.119 849.626 238.148C838.41 237.178 836.974 222.973 836.974 222.973Z" fill="#02CCC0"/>
<path d="M487.475 0C487.475 0 486.039 14.2051 474.822 15.1754C486.039 16.1456 487.475 30.3507 487.475 30.3507C487.475 30.3507 488.911 16.1456 500.127 15.1754C488.911 14.2051 487.475 0 487.475 0Z" fill="#FF5B7E"/>
<path d="M727.486 118.57C727.486 118.57 726.71 127.535 720.616 128.156C726.71 128.777 727.486 137.743 727.486 137.743C727.486 137.743 728.262 128.777 734.355 128.156C728.262 127.535 727.486 118.57 727.486 118.57Z" fill="#FEB546"/>
<path d="M235.858 555.434L216.918 556.404L214.512 612.526L204.848 617.183L205.313 619.24L208.923 620.094C208.923 620.094 220.566 619.9 220.916 619.9C221.265 619.9 223.671 617.261 223.671 617.261L223.322 616.795L225.263 615.476L235.858 555.434Z" fill="#FFC0BB"/>
<path d="M287.128 617.183C287.128 617.183 277.697 612.448 277.464 612.526L279.598 555.356L256.156 555.434L266.791 615.437L267.955 616.213C267.683 617.222 267.45 618.076 267.373 618.348C267.218 619.085 271.37 619.163 272.806 619.396C274.242 619.629 278.434 620.094 281.151 620.832C283.829 621.569 287.244 619.396 287.244 619.396L287.128 617.183Z" fill="#FFC0BB"/>
<path d="M287.749 401.158C285.033 394.055 282.355 396.85 277.425 388.272C276.649 386.914 276.067 385.128 275.679 383.498C274.515 378.647 271.953 374.184 268.15 370.923C256.584 360.949 243.504 365.373 243.504 365.373C243.504 365.373 246.881 384.663 247.541 388.583C244.668 392.503 241.758 396.539 241.758 396.539C241.758 396.539 235.664 428.248 245.212 430.926C254.759 433.604 256.506 429.296 261.163 427.084C265.821 424.833 270.362 430.965 277.348 426.696C282.665 423.436 279.948 415.363 282.782 413.849C285.576 412.297 290.699 408.842 287.749 401.158Z" fill="#FF5500"/>
<path d="M238.576 381.364C238.421 381.286 234.035 378.841 229.921 376.512L255.381 348.18C255.381 348.18 247.658 346.666 247.192 346.627C246.726 346.588 235.665 350.004 235.665 350.004L224.254 353.109C215.56 384.857 204.732 390.601 204.732 390.601C203.412 391.455 202.17 392.619 200.928 394.637C196.62 401.623 200.967 406.009 203.451 408.027C205.935 410.046 201.782 417.497 206.401 421.65C212.456 427.123 218.044 421.961 222.236 425.027C226.389 428.093 227.32 432.634 237.179 431.78C247.037 430.926 246.959 398.635 246.959 398.635C246.959 398.635 238.886 381.519 238.576 381.364Z" fill="#FF5500"/>
<path d="M281.772 439.271C281.772 439.271 290.156 479.363 287.749 483.71C285.304 488.057 253.323 489.415 253.323 489.415L251.965 437.951L264.152 419.516L281.772 439.271Z" fill="#FF5B7E"/>
<path d="M271.643 485.689L265.666 469.311C265.666 469.311 245.989 462.13 244.747 462.053C243.505 461.975 226.854 469.311 226.854 469.311C226.854 469.311 221.77 479.596 220.761 481.459C220.218 482.468 221.498 488.794 222.74 494.189L215.677 494.538L210.98 598.01C210.98 598.01 221.149 603.483 232.055 598.786L241.021 508.394L248.822 507.23L260.543 596.846C260.543 596.846 269.897 603.871 283.209 598.01L274.399 498.303C274.049 493.995 273.118 489.726 271.643 485.689Z" fill="#07085B"/>
<path d="M233.375 407.329C233.375 407.329 242.108 405.504 258.331 406.669C274.554 407.833 250.84 416.954 250.84 416.954C250.84 416.954 242.496 416.682 242.146 416.605C241.797 416.527 233.375 407.329 233.375 407.329Z" fill="#FFC0BB"/>
<path d="M254.022 398.13H239.623V423.436H254.022V398.13Z" fill="#FFC0BB"/>
<path d="M254.022 402.477V393.861H239.623V401.196C242.728 402.826 247.308 403.797 254.022 402.477Z" fill="#F99893"/>
<path d="M274.205 369.992C272.847 369.293 271.216 369.448 269.78 370.186C270.285 357.145 259.651 346.2 246.261 346.666C232.871 346.2 222.236 357.145 222.741 370.186C221.305 369.448 219.713 369.332 218.316 369.992C215.677 371.311 214.862 375.037 216.492 378.336C218.122 381.635 221.576 383.265 224.216 381.946C224.565 381.751 224.914 381.519 225.225 381.247C226.738 392.037 235.743 400.109 246.261 399.954C256.817 400.109 265.783 392.037 267.296 381.247C267.607 381.519 267.917 381.751 268.306 381.946C270.945 383.265 274.399 381.635 276.029 378.336C277.659 375.037 276.844 371.311 274.205 369.992Z" fill="#FFC0BB"/>
<path d="M240.322 374.804C240.4 375.891 239.546 376.823 238.459 376.9C237.372 376.978 236.441 376.124 236.363 375.037C236.286 373.951 237.14 373.019 238.226 372.941C239.313 372.864 240.244 373.718 240.322 374.804Z" fill="#333333"/>
<path d="M257.36 374.999C257.438 376.085 256.584 377.017 255.497 377.095C254.41 377.172 253.479 376.318 253.401 375.232C253.324 374.145 254.178 373.213 255.264 373.136C256.351 373.058 257.283 373.912 257.36 374.999Z" fill="#333333"/>
<path d="M242.495 370.768C241.486 370.419 240.555 370.147 239.623 369.992C238.692 369.837 237.76 369.798 236.868 369.875C235.975 369.992 235.082 370.186 234.19 370.574L233.84 370.69C233.724 370.729 233.646 370.807 233.53 370.846L232.87 371.156C232.443 371.389 232.016 371.661 231.512 371.894C231.783 371.467 232.094 371.001 232.443 370.613C232.831 370.263 233.181 369.837 233.646 369.565C234.539 368.944 235.626 368.556 236.712 368.439C237.799 368.323 238.925 368.478 239.934 368.905C240.943 369.293 241.836 369.914 242.495 370.768Z" fill="#FF5500"/>
<path d="M250.452 370.73C251.112 369.876 252.005 369.255 252.975 368.867C253.984 368.44 255.11 368.284 256.196 368.362C257.283 368.478 258.37 368.828 259.262 369.449C259.728 369.72 260.077 370.147 260.504 370.497C260.854 370.885 261.164 371.312 261.436 371.777C260.931 371.545 260.543 371.273 260.077 371.079L259.418 370.768C259.301 370.729 259.224 370.652 259.107 370.613L258.758 370.497C257.904 370.109 256.973 369.953 256.08 369.837C255.187 369.759 254.256 369.798 253.324 369.953C252.393 370.109 251.461 370.38 250.452 370.73Z" fill="#FF5500"/>
<path d="M247.23 372.088C247.114 373.136 247.192 374.184 247.386 375.193C247.502 375.697 247.619 376.202 247.813 376.745C248.007 377.25 248.278 377.754 248.744 378.181C249.288 378.569 249.482 378.725 249.637 379.074C249.792 379.384 249.714 379.811 249.559 380.2C249.171 381.015 248.356 381.597 247.425 382.024C248.434 381.985 249.559 381.558 250.258 380.549C250.568 380.083 250.762 379.384 250.568 378.725C250.335 378.065 249.986 377.832 249.559 377.483C249.171 377.172 248.938 376.784 248.705 376.318C248.472 375.891 248.317 375.426 248.162 374.96C247.813 374.067 247.541 373.097 247.23 372.088Z" fill="#F99893"/>
<path d="M240.749 384.507C241.292 384.895 241.875 385.245 242.457 385.516C243.039 385.827 243.66 386.099 244.242 386.293C245.484 386.72 246.765 386.991 248.046 386.991C249.326 386.991 250.607 386.72 251.849 386.254C253.052 385.749 254.178 385.051 255.187 384.197C254.721 384.663 254.217 385.128 253.712 385.516C253.169 385.904 252.587 386.254 252.004 386.564C251.383 386.836 250.762 387.069 250.103 387.224C249.443 387.379 248.744 387.457 248.084 387.457C246.726 387.457 245.368 387.146 244.126 386.642C242.884 386.099 241.719 385.4 240.749 384.507Z" fill="#F99893"/>
<path d="M274.825 412.374C267.024 404.805 256.234 406.397 256.234 406.397C255.031 407.6 253.828 408.531 252.625 409.191C250.917 410.045 248.782 410.821 246.376 410.86C246.337 410.86 246.298 410.86 246.259 410.86C246.221 410.86 246.182 410.86 246.143 410.86C243.737 410.782 241.602 410.045 239.894 409.191C238.691 408.493 237.488 407.6 236.285 406.397C236.285 406.397 225.495 404.805 217.694 412.374C209.893 419.942 202.092 436.67 202.092 436.67C202.092 436.67 211.95 445.674 221.381 446.839C221.381 446.839 225.961 467.952 226.892 469.349C226.892 469.349 231.627 471.562 238.536 472.726C241.059 473.192 243.504 473.386 245.871 473.424C246.027 473.424 246.182 473.424 246.298 473.424C246.454 473.424 246.609 473.424 246.725 473.424C249.093 473.424 251.538 473.23 254.061 472.726C260.969 471.562 265.704 469.349 265.704 469.349C266.636 467.991 271.215 446.839 271.215 446.839C280.647 445.674 290.505 436.67 290.505 436.67C290.505 436.67 282.665 419.942 274.825 412.374Z" fill="#02CCC0"/>
<path d="M247.114 463.605C247.114 463.605 250.025 463.139 251.616 465.235L251.5 470.708L247.968 472.377C247.968 472.377 243.582 468.651 243.893 468.534C244.203 468.457 247.114 463.605 247.114 463.605Z" fill="#E03268"/>
<path d="M256.118 499.428L209.428 512.935L204.926 478.78L251.616 465.274L256.118 499.428Z" fill="#E03268"/>
<path d="M205.586 507.462L209.661 510.916L254.372 498.108L250.336 465.895L247.192 464.575L205.586 507.462Z" fill="#DAEEF7"/>
<path d="M254.372 498.108L251.19 495.314L245.329 488.91L245.717 471.29L247.192 464.575L250.375 465.856L254.372 498.108Z" fill="#DAEEF7"/>
<path d="M251.189 495.315L204.499 508.822L200.424 477.112L247.114 463.606L251.189 495.315Z" fill="#FF5B7E"/>
<path d="M228.251 428.481C227.164 429.801 226.194 431.159 225.262 432.595C224.37 434.031 223.555 435.506 222.895 437.02C222.235 438.533 221.731 440.163 221.459 441.793C221.187 443.423 221.148 445.131 221.342 446.839C220.799 445.209 220.644 443.462 220.838 441.716C220.993 439.969 221.498 438.3 222.157 436.709C222.856 435.118 223.71 433.604 224.758 432.246C225.806 430.848 226.931 429.568 228.251 428.481Z" fill="#DAEEF7"/>
<path d="M218.587 486.117C210.359 472.183 214.163 455.261 217.423 445.908C210.98 443.812 205.003 439.116 202.868 437.369C189.75 466.982 211.95 492.326 211.95 492.326L211.989 492.288C212.416 493.258 212.727 494.112 212.727 494.112C217.966 503.582 218.199 503.427 218.587 503.31C218.975 503.194 217.927 498.653 218.393 498.692C218.859 498.692 222.158 504.125 222.391 503.621C222.623 503.116 220.178 497.721 220.528 497.644C220.877 497.566 223.982 502.844 224.681 502.379C225.379 501.913 221.77 496.246 222.468 496.091C223.167 495.936 226.699 501.874 227.281 501.331C227.747 500.904 223.943 494.189 222.701 492.055C222.546 491.783 222.74 491.434 223.089 491.473C227.941 491.744 228.329 491.511 228.251 490.968C228.174 490.58 222.352 487.863 218.587 486.117Z" fill="#FFC0BB"/>
<path d="M273.584 407.872C263.493 444.122 275.68 454.834 275.719 455.106L273.894 463.528C273.894 463.528 249.094 447.383 264.812 404.418C265.239 403.215 266.559 402.594 267.723 403.137L272.42 405.311C273.429 405.776 273.856 406.863 273.584 407.872Z" fill="#E03268"/>
<path d="M295.589 496.44C295.589 496.44 295.279 495.625 294.968 494.694L294.503 491.162C294.192 483.205 292.872 454.912 288.526 438.3C285.227 440.939 278.163 445.907 271.332 446.8C275.601 455.766 284.567 476.375 286.119 495.159C284.528 498.73 282.393 503.698 282.587 503.97C282.859 504.397 283.325 504.358 286.585 501.098C286.779 500.904 287.167 500.981 287.206 501.292C287.672 503.582 289.185 510.723 289.806 510.723C290.544 510.723 289.341 504.319 289.923 503.97C290.505 503.62 291.514 509.908 292.29 509.83C293.067 509.714 291.941 504.008 292.251 503.853C292.562 503.698 294.192 509.054 294.697 509.248C295.201 509.442 294.114 503.543 294.464 503.232C294.774 502.922 296.87 506.764 297.219 506.648C297.569 506.492 297.802 506.454 295.589 496.44Z" fill="#FFC0BB"/>
<path d="M218.587 369.875C218.587 369.875 217.112 342.901 247.191 341.116C247.191 341.116 246.26 367.585 222.74 370.186L220.916 366.654L218.587 369.875Z" fill="#FF5500"/>
<path d="M247.191 341.116C247.191 341.116 271.565 339.758 272.846 369.604C272.846 369.604 271.06 369.487 269.741 370.186C269.741 370.186 250.451 365.373 245.639 346.666L247.191 341.116Z" fill="#FF5500"/>
<path d="M213.076 619.24C208.186 619.745 205.857 618.658 204.887 617.183L201.549 619.357C200.229 620.211 200.811 622.229 202.403 622.229H223.982C224.758 622.229 225.34 621.608 225.34 620.871V615.049C223.943 616.446 220.683 618.464 213.076 619.24Z" fill="#07085B"/>
<path d="M278.901 619.24C283.791 619.745 286.12 618.658 287.09 617.183L290.428 619.357C291.748 620.211 291.166 622.229 289.574 622.229H267.995C267.219 622.229 266.637 621.608 266.637 620.871V615.049C268.034 616.446 271.294 618.464 278.901 619.24Z" fill="#07085B"/>
<path d="M729.97 426.229L754.887 428.248L746.853 448.391L734.278 447.382L729.038 464.187C727.758 463.605 726.826 463.178 726.632 463.023C726.244 462.751 724.847 454.446 723.644 446.567L729.97 426.229Z" fill="#DAEEF7"/>
<path d="M744.175 611.555V620.327C744.175 621.064 744.757 621.646 745.494 621.646H765.987C767.462 621.646 768.044 619.706 766.802 618.891L755.314 611.555C755.275 611.555 750.773 614.854 744.175 611.555Z" fill="#E03268"/>
<path d="M703.927 239.274C703.617 239.39 703.306 239.118 703.384 238.808C703.889 236.363 705.48 228.678 704.859 228.406C704.16 228.096 702.608 234.927 701.87 235.004C701.172 235.082 702.841 228.445 702.064 228.251C701.249 228.018 699.93 234.112 699.542 234.151C699.154 234.189 699.852 228.212 699.425 227.785C699.037 227.359 697.562 233.646 697.097 233.801C696.67 233.956 696.243 229.26 695.816 229.26C695.428 229.26 695.156 229.183 693.06 239.972C693.06 239.972 692.944 243.931 692.245 244.863L693.798 248.045L698.649 248.2C698.649 248.2 709.167 238.692 709.089 238.109C709.012 237.605 708.546 237.488 703.927 239.274Z" fill="#FFC0BB"/>
<path d="M753.723 241.68C753.917 241.913 754.344 241.835 754.422 241.525C755.082 239.118 757.178 231.55 757.837 231.589C758.614 231.628 756.906 238.42 757.488 238.808C758.07 239.196 759.584 232.52 760.399 232.715C761.214 232.87 759.623 238.924 759.972 239.118C760.282 239.313 762.417 233.685 762.961 233.491C763.504 233.297 761.951 239.584 762.262 239.934C762.572 240.283 765.095 236.285 765.444 236.479C765.794 236.673 766.065 236.712 762.999 247.269C762.999 247.269 761.292 250.84 761.486 252.004L758.652 254.139L754.267 252.082C754.267 252.082 749.26 238.847 749.571 238.342C749.959 237.876 750.424 237.954 753.723 241.68Z" fill="#FFC0BB"/>
<path d="M715.261 328.269L715.338 346.782L697.407 343.987L700.396 323.223L715.261 328.269Z" fill="#FFC0BB"/>
<path opacity="0.6" d="M698.999 332.771L700.396 323.184L715.3 330.015V333.663C711.729 334.556 704.976 335.332 698.999 332.771Z" fill="#FC8D84"/>
<path d="M682.814 610.585V620.21C682.814 620.986 682.154 621.646 681.378 621.646H658.828C657.198 621.646 656.577 619.511 657.936 618.619L670.588 610.546C670.588 610.585 675.556 614.194 682.814 610.585Z" fill="#E03268"/>
<path d="M662.244 446.916C662.282 444.859 656.926 450.914 657.043 449.284C659.139 415.091 725.972 443.773 725.972 443.773L742.273 455.727L760.709 614.233C760.709 614.233 750.695 617.144 744.136 614.777L703.345 478.936L698.339 476.995C698.3 476.995 675.983 461.432 662.244 446.916Z" fill="#07085B"/>
<path d="M656.926 450.681C656.926 451.069 656.888 451.496 656.888 451.923C656.888 451.496 656.926 451.069 656.926 450.681Z" fill="#06BFAD"/>
<path d="M656.887 451.923C656.887 452.35 656.848 452.777 656.848 453.242C656.848 452.816 656.848 452.35 656.887 451.923Z" fill="#06BFAD"/>
<path d="M656.81 453.437C656.81 453.903 656.771 454.368 656.771 454.873C656.81 454.368 656.81 453.903 656.81 453.437Z" fill="#06BFAD"/>
<path d="M657.004 449.284C656.966 449.672 656.966 450.021 656.927 450.448C656.966 450.021 657.004 449.672 657.004 449.284Z" fill="#06BFAD"/>
<path d="M657.004 441.521C670.782 456.037 698.299 477.034 698.299 477.034L703.306 478.975L698.299 477.034L682.775 614.272C682.775 614.272 671.713 616.368 665.426 612.953C665.426 612.953 656.111 482.313 657.004 441.521Z" fill="#07085B"/>
<path d="M760.669 614.272C760.669 614.272 756.36 615.514 751.548 615.708C756.36 615.514 760.669 614.272 760.669 614.272Z" fill="#06BFAD"/>
<path d="M746.038 615.32C746.465 615.397 746.931 615.475 747.396 615.553C746.931 615.475 746.465 615.397 746.038 615.32Z" fill="#06BFAD"/>
<path d="M751.55 615.669C750.385 615.708 749.221 615.708 748.057 615.592C749.221 615.708 750.385 615.747 751.55 615.669Z" fill="#06BFAD"/>
<path d="M742.274 455.726L744.913 478.354C737.966 481.032 721.005 483.942 708.236 455.998C704.199 447.188 703.19 440.862 703.928 436.282C716.153 439.542 725.973 443.772 725.973 443.772L742.274 455.726Z" fill="#050645"/>
<path d="M680.951 363.393C681.727 363.393 693.293 337.157 693.293 337.157C703.19 344.104 716.618 339.291 716.618 339.291C716.618 339.291 770.683 438.261 734.433 453.669C698.183 469.116 663.951 450.332 663.951 450.332C663.951 450.332 656.228 430.266 656.228 429.49C656.228 428.713 680.174 363.393 680.951 363.393Z" fill="#DAEEF7"/>
<path d="M751.433 252.275C751.433 252.275 753.762 299.238 749.376 307.815C734.783 336.38 716.658 339.252 716.658 339.252C716.658 339.252 710.409 439.115 715.571 463.023C715.571 463.023 732.687 468.301 757.876 456.464C757.876 456.464 738.586 379.034 739.595 369.254C739.595 369.254 770.451 341.736 771.499 309.329C772.547 276.921 764.047 248.123 764.047 248.123L751.433 252.275Z" fill="#55769F"/>
<path d="M668.221 459.452C668.221 459.452 670.161 422.271 678.622 387.03C687.122 351.789 693.293 337.118 693.293 337.118C681.921 324.582 683.784 313.249 684.793 298.539C685.958 281.578 702.53 247.618 702.53 247.618L691.353 240.283C637.715 304.71 667.445 356.019 667.445 356.019C667.445 356.019 647.379 427.006 644.662 448.624C644.662 448.662 655.335 454.834 668.221 459.452Z" fill="#55769F"/>
<path d="M739.052 369.176C738.392 368.711 737.654 368.012 736.878 367.119C734.588 364.364 733.424 361.297 732.609 357.843C733.113 359.318 734.433 363.587 737.189 366.848C738.431 368.284 739.09 368.749 739.711 369.137C739.634 369.215 739.556 369.293 739.556 369.293C739.556 369.37 739.556 369.409 739.556 369.487C738.857 369.642 737.577 369.681 735.481 368.516C734.161 367.818 733.152 366.964 732.065 366.071C732.764 366.576 734.239 367.624 735.636 368.284C736.568 368.788 738.004 369.254 739.052 369.176Z" fill="white"/>
<path d="M667.832 355.825C668.764 355.243 669.54 354.389 670.277 353.574C672.567 350.896 673.809 347.752 674.857 344.57C674.042 348.024 672.878 351.09 670.588 353.846C669.85 354.738 669.074 355.437 668.414 355.903C668.919 355.942 669.54 355.825 669.928 355.709C670.588 355.554 671.248 355.282 671.869 354.971C673.149 354.35 674.43 353.458 675.439 352.759C674.469 353.574 673.382 354.506 672.024 355.204C671.403 355.554 670.743 355.825 670.044 356.019C669.346 356.213 668.647 356.33 667.832 356.136L667.405 356.019L667.832 355.825Z" fill="white"/>
<path d="M689.528 290.544L688.441 303.235L690.421 304.516L694.147 289.03L689.528 290.544Z" fill="#07085B"/>
<path d="M692.206 301.916C692.749 304.788 691.352 307.466 689.023 307.931C686.733 308.358 684.405 306.418 683.861 303.507C683.318 300.635 684.715 297.957 687.044 297.491C689.334 297.064 691.662 299.043 692.206 301.916Z" fill="#F99893"/>
<path d="M688.908 313.637C688.326 309.95 688.403 306.224 688.714 302.964C688.791 302.265 688.83 301.567 688.83 300.868C688.908 298.074 689.49 295.201 690.732 292.368C694.691 283.247 704.355 277.736 714.213 278.939C727.487 280.569 736.258 293.067 733.696 305.836C735.249 305.331 736.84 305.487 738.082 306.379C740.489 308.087 740.683 311.89 738.587 314.879C736.452 317.867 732.804 318.915 730.397 317.208C730.048 316.975 729.776 316.703 729.544 316.393C726.245 327.027 715.688 333.664 705.015 331.335C696.903 329.627 690.227 322.952 688.908 313.637Z" fill="#FFC0BB"/>
<path d="M713.474 303.507C712.97 304.827 713.901 306.224 715.337 306.224C716.114 306.224 716.851 305.719 717.123 304.982C717.666 303.662 716.696 302.265 715.26 302.265C714.483 302.265 713.746 302.77 713.474 303.507Z" fill="#333333"/>
<path d="M696.67 300.984C696.165 302.304 697.097 303.701 698.533 303.701C699.309 303.701 700.046 303.196 700.318 302.459C700.823 301.139 699.891 299.742 698.455 299.742C697.679 299.781 696.941 300.247 696.67 300.984Z" fill="#333333"/>
<path d="M710.835 317.324C709.787 317.828 708.623 318.217 707.653 318.411C706.566 318.605 705.44 318.682 704.354 318.527C703.267 318.372 702.219 317.984 701.249 317.44C700.279 316.858 699.425 316.121 698.648 315.306C699.425 316.431 700.162 317.052 701.055 317.712C702.025 318.333 703.034 318.76 704.276 318.915C705.44 319.07 706.605 318.993 707.692 318.682C708.856 318.411 709.904 317.984 710.835 317.324Z" fill="#F99893"/>
<path d="M711.884 299.51C712.932 299.316 713.902 299.199 714.834 299.199C715.765 299.199 716.696 299.277 717.589 299.51C718.443 299.742 719.336 300.092 720.112 300.596C721.199 301.217 721.975 301.955 722.518 302.343C722.169 301.45 721.587 300.363 720.772 299.704C719.995 298.927 718.986 298.423 717.938 298.112C716.852 297.841 715.726 297.802 714.678 298.074C713.63 298.306 712.66 298.772 711.884 299.51Z" fill="#07085B"/>
<path d="M704.005 298.19C703.5 297.258 702.724 296.521 701.793 295.939C700.861 295.357 699.813 295.007 698.688 294.93C697.601 294.852 696.437 295.046 695.466 295.512C694.496 295.861 693.603 296.715 692.982 297.452C693.681 297.258 694.574 296.832 695.816 296.599C696.747 296.366 697.64 296.327 698.571 296.366C699.464 296.405 700.395 296.599 701.288 296.948C702.22 297.297 703.112 297.685 704.005 298.19Z" fill="#07085B"/>
<path d="M707.46 300.713C706.529 301.567 705.675 302.537 704.899 303.507C704.084 304.478 703.346 305.526 702.686 306.612C702.298 307.272 701.832 308.165 701.716 308.902C701.638 309.329 701.677 309.717 702.376 310.416C702.842 310.882 703.346 311.308 703.851 311.658C704.394 312.007 704.937 312.356 705.52 312.589C704.549 311.774 703.579 310.959 702.842 309.989C702.725 309.834 702.492 309.523 702.415 309.329C702.376 309.174 702.453 308.863 702.531 308.63C702.725 308.087 703.036 307.544 703.346 307C703.967 305.952 704.666 304.905 705.364 303.857C706.063 302.809 706.762 301.761 707.46 300.713Z" fill="#F99893"/>
<path d="M691.857 276.998C691.857 276.998 685.181 275.718 693.409 271.681C701.637 267.645 721.742 265.316 732.26 274.32C732.26 274.32 735.792 269.779 738.974 271.759C742.157 273.738 735.675 275.951 735.675 275.951C735.675 275.951 740.1 276.804 740.992 279.288C741.613 281.112 738.897 280.569 737.461 280.181C739.867 281.19 746.969 287.866 737.771 306.185C736.141 305.409 725.584 290.35 725.584 290.35C725.584 290.35 704.354 297.336 708.235 291.553C708.235 291.553 683.512 297.763 689.489 286.546C689.451 286.585 680.369 285.227 691.857 276.998Z" fill="#07085B"/>
<path d="M737.733 306.224C737.733 306.224 736.141 304.982 733.696 305.914C731.251 306.806 729.699 312.317 729.699 312.317C729.699 312.317 721.703 318.877 725.585 290.311C729.427 262.25 734.744 294.969 734.744 294.969L737.733 306.224Z" fill="#07085B"/>
<path d="M682.892 217.501L679.438 217.152C680.058 216.802 680.757 216.647 681.533 216.725L768.277 225.263C772.818 225.729 776.156 229.338 775.768 233.375L775.302 237.993C774.914 242.03 770.917 244.902 766.376 244.475L680.602 236.014L682.892 217.501Z" fill="#E03268"/>
<path d="M768.044 237.256L768.51 232.638C768.898 228.601 765.56 224.992 761.019 224.526L762.882 224.72C767.423 225.186 770.761 228.795 770.373 232.832L769.907 237.45C769.519 241.487 765.521 244.359 760.98 243.932L759.156 243.738C763.697 244.165 767.656 241.293 768.044 237.256Z" fill="#FEB546"/>
<path d="M747.745 235.277L748.211 230.658C748.599 226.622 745.261 223.012 740.72 222.546L742.583 222.74C747.124 223.167 750.462 226.816 750.074 230.852L749.608 235.471C749.22 239.507 745.223 242.379 740.682 241.952L738.857 241.758C743.36 242.185 747.357 239.274 747.745 235.277Z" fill="#FEB546"/>
<path d="M732.221 221.731C736.568 222.158 739.789 225.612 739.401 229.455L738.897 234.694C738.509 238.537 734.705 241.331 730.358 240.904L676.371 235.587L676.488 234.423L676.72 234.461L690.576 234.656L694.302 225.263C694.302 225.263 689.489 219.403 689.14 219.247C688.791 219.092 678.389 217.617 678.389 217.617L678.156 217.578L678.273 216.414L732.221 221.731Z" fill="#FF5B7E"/>
<path d="M680.757 226.311C681.3 220.684 678.273 217.618 678.273 217.618L730.94 222.78C734.938 223.168 737.887 226.35 737.538 229.882L737.15 233.919C736.801 237.45 733.308 240.012 729.31 239.624L676.643 234.462C676.643 234.423 680.058 233.414 680.757 226.311Z" fill="#DAEEF7"/>
<path d="M737.576 229.882L737.188 233.919C737.149 234.462 736.994 234.966 736.839 235.432C735.442 231.396 732.414 227.359 726.049 225.535C711.184 221.266 678.35 217.618 678.35 217.618L731.017 222.78C734.976 223.168 737.925 226.35 737.576 229.882Z" fill="#DAEEF7"/>
<path d="M577.711 350.702L574.141 358.697C573.83 359.357 574.141 360.133 574.8 360.443L593.469 368.827C594.827 369.448 596.108 367.895 595.332 366.653L588.113 355.398C588.074 355.359 582.369 356.407 577.711 350.702Z" fill="#55769F"/>
<path d="M553.958 350.702L550.388 358.697C550.077 359.357 550.388 360.133 551.047 360.443L569.716 368.827C571.074 369.448 572.355 367.895 571.579 366.653L564.36 355.398C564.321 355.359 558.616 356.407 553.958 350.702Z" fill="#55769F"/>
<path d="M513.594 130.678L511.615 143.137L507.423 126.525C507.423 126.525 513.322 123.653 513.555 124.701C513.827 125.749 513.594 130.678 513.594 130.678Z" fill="#07085B"/>
<path d="M480.216 157.498L478.392 179.038L497.409 178.145L495.197 159.05L480.216 157.498Z" fill="#FFC0BB"/>
<path d="M496.246 168.132L495.198 159.05L480.178 157.498L479.557 164.949C482.545 167.938 487.901 171.004 496.246 168.132Z" fill="#F99893"/>
<path d="M507.888 142.982C506.763 145.349 507.345 147.988 509.247 148.92C511.149 149.851 513.594 148.648 514.758 146.281C515.884 143.913 515.301 141.274 513.4 140.342C511.498 139.45 509.053 140.614 507.888 142.982Z" fill="#F99893"/>
<path d="M510.644 144.728C510.761 144.107 510.877 143.486 511.032 142.904C511.614 140.459 511.77 137.82 511.382 135.103C510.062 126.293 502.959 119.268 494.149 118.026C482.273 116.396 471.794 125.206 471.017 136.849C469.775 136.073 468.378 135.801 467.097 136.306C464.614 137.238 463.566 140.498 464.691 143.564C465.855 146.669 468.766 148.415 471.25 147.484C471.6 147.367 471.91 147.173 472.182 146.979C472.57 156.954 480.216 165.143 489.957 165.609C494.731 165.842 499.156 164.173 502.61 161.262C507.345 157.769 509.713 150.472 510.644 144.728Z" fill="#FFC0BB"/>
<path d="M495.858 138.208C495.896 139.372 495.896 140.498 495.974 141.623C496.052 142.71 496.168 143.875 496.595 144.651C497.022 145.272 497.371 145.66 497.41 146.436C497.449 147.212 497.022 147.911 496.517 148.299C495.47 149.153 494.15 149.269 493.024 148.998C494.15 148.804 495.237 148.415 495.896 147.678C496.207 147.29 496.401 146.902 496.323 146.514C496.285 146.087 496.129 146.009 495.625 145.272C495.276 144.651 495.159 144.03 495.081 143.409C495.043 142.788 495.043 142.206 495.081 141.623C495.159 140.42 495.431 139.295 495.858 138.208Z" fill="#F99893"/>
<path d="M489.104 139.45C489.221 140.653 488.173 141.623 486.97 141.391C486.232 141.235 485.65 140.614 485.572 139.838C485.456 138.635 486.504 137.665 487.707 137.898C488.444 138.092 489.027 138.713 489.104 139.45Z" fill="#333333"/>
<path d="M504.279 141.197C504.395 142.4 503.348 143.37 502.144 143.137C501.407 142.982 500.825 142.361 500.747 141.585C500.631 140.382 501.679 139.411 502.882 139.644C503.619 139.799 504.201 140.42 504.279 141.197Z" fill="#333333"/>
<path d="M486.154 151.753C486.62 152.141 487.125 152.529 487.629 152.878C488.134 153.228 488.677 153.538 489.22 153.81C490.307 154.353 491.471 154.741 492.675 154.858C493.878 155.013 495.081 154.897 496.245 154.586C497.41 154.276 498.535 153.732 499.583 153.073C498.458 154.043 497.487 154.509 496.362 154.935C495.159 155.324 493.955 155.479 492.636 155.324C491.394 155.168 490.152 154.741 489.104 154.12C487.94 153.461 486.931 152.684 486.154 151.753Z" fill="#F99893"/>
<path d="M491.355 135.762C490.462 135.491 489.608 135.258 488.754 135.142C487.9 135.025 487.085 134.986 486.309 135.103C485.494 135.219 484.718 135.374 483.941 135.724C483.359 135.918 481.923 136.733 481.535 136.927C481.962 136.112 482.622 135.258 483.398 134.792C484.174 134.21 485.145 133.861 486.154 133.744C487.163 133.628 488.172 133.783 489.065 134.132C489.918 134.443 490.772 134.986 491.355 135.762Z" fill="#07085B"/>
<path d="M499.156 136.616C499.855 135.995 500.786 135.607 501.718 135.413C502.688 135.219 503.697 135.296 504.667 135.607C505.599 135.917 506.492 136.461 507.151 137.159C507.811 137.78 508.277 138.751 508.549 139.643C508.199 139.411 506.957 138.324 506.414 138.013C505.715 137.509 504.978 137.198 504.202 136.927C503.426 136.694 502.61 136.538 501.757 136.5C500.98 136.5 500.088 136.538 499.156 136.616Z" fill="#07085B"/>
<path d="M490.657 258.563C490.657 258.563 486.698 285.459 512.663 290.156C538.628 294.852 570.958 293.455 570.958 293.455L575.46 355.243L589.044 355.941C589.044 355.941 623.975 270.129 575.615 256.7L532.185 256.855L514.293 255.574C514.293 255.574 496.207 251.111 495.974 251.965C495.78 252.819 491.084 258.99 490.657 258.563Z" fill="#070852"/>
<path d="M466.787 258.718C466.787 258.718 462.829 285.614 488.794 290.311C514.759 295.007 547.089 293.61 547.089 293.61L551.591 355.398L565.175 356.096C565.175 356.096 600.106 270.284 551.746 256.855L508.316 257.049L490.424 255.768C490.424 255.768 472.338 251.305 472.105 252.159C471.911 252.974 467.214 259.145 466.787 258.718Z" fill="#10116B"/>
<path d="M499.506 170.461C499.506 170.461 517.398 172.75 521.939 176.438C526.48 180.125 548.331 234.383 548.331 234.383L530.167 255.691L491.549 255.963C491.549 255.963 462.596 271.565 444.393 256.816C426.19 242.068 435.583 190.643 446.101 179.581C456.619 168.52 475.365 168.792 475.365 168.792C475.365 168.792 492.403 180.668 499.506 170.461Z" fill="#FF5B7E"/>
<path d="M464.886 197.435C465.507 200.384 465.934 203.373 466.205 206.4C466.361 207.914 466.438 209.427 466.516 210.941C466.555 212.455 466.593 213.968 466.593 215.482C466.516 218.509 466.361 221.537 465.856 224.564C465.351 227.552 464.614 230.541 463.217 233.258C464.148 230.386 464.614 227.436 464.963 224.447C465.274 221.459 465.39 218.47 465.429 215.482C465.507 212.493 465.429 209.505 465.313 206.478C465.157 203.45 465.041 200.462 464.886 197.435Z" fill="white"/>
<path d="M518.406 195.455C519.221 199.841 520.075 204.227 520.968 208.612C521.86 212.998 522.792 217.345 523.84 221.692C524.888 226.039 526.052 230.308 527.449 234.538C528.148 236.634 528.924 238.73 529.856 240.748C530.748 242.766 531.835 244.746 533.271 246.454C531.641 244.901 530.399 242.961 529.312 241.02C528.264 239.041 527.333 236.984 526.557 234.849C525.742 232.753 525.082 230.618 524.422 228.445C523.801 226.31 523.219 224.137 522.676 221.963C522.171 219.79 521.666 217.578 521.24 215.404C520.813 213.192 520.386 211.019 520.036 208.806C519.338 204.343 518.756 199.918 518.406 195.455Z" fill="white"/>
<path d="M557.14 205.274C553.841 200.151 526.75 191.38 526.75 191.38C526.75 199.724 526.75 200.074 526.75 200.074L554.306 209.699L557.14 205.274Z" fill="#EDEDED"/>
<path d="M555.199 204.925L523.762 190.409V196.037L554.423 207.098L555.199 204.925Z" fill="white"/>
<path d="M553.453 204.925L520.27 192.35V202.053L553.104 207.098L553.453 204.925Z" fill="#EDEDED"/>
<path d="M557.141 203.916C557.141 203.916 563.545 188.973 566.145 185.868C566.145 195.726 562.186 208.068 562.186 208.068L557.141 203.916Z" fill="white"/>
<path d="M559.935 204.575L567.697 184.976V194.329L562.38 207.098L559.935 204.575Z" fill="#EDEDED"/>
<path d="M562.38 204.925L570.802 185.868V192.66L562.38 204.925Z" fill="white"/>
<path d="M562.38 263.647L573.014 245.289V186.567L562.38 204.925V263.647Z" fill="#26426E"/>
<path d="M513.244 254.759L551.008 263.647V204.925L513.244 196.037V254.759Z" fill="#55769F"/>
<path d="M551.008 204.925C554.346 203.333 561.293 203.877 562.38 204.925C561.797 208.263 551.823 208.922 551.008 204.925Z" fill="#E0E0E0"/>
<path d="M551.008 263.647C551.008 265.083 562.418 265.083 562.418 263.647V204.925C561.254 206.633 552.289 206.594 551.008 204.925V263.647Z" fill="#3A5782"/>
<path d="M527.411 243.387C527.295 242.495 520.464 241.485 517.98 241.369C516.078 241.253 503.464 240.864 499.195 240.67L499.506 241.757L499.428 246.609L498.729 249.83C502.494 250.063 511.693 250.412 513.594 250.8C516.156 251.305 520.58 253.245 520.58 253.245C520.58 253.245 522.443 252.818 520.076 251.809C518.213 250.994 516.855 249.752 516.311 249.131C516.001 248.782 516.35 248.122 516.583 248.2C522.948 249.869 523.608 250.14 523.608 250.14C523.608 250.14 531.098 250.102 523.647 248.394C519.183 247.385 517.592 246.803 517.165 246.298C517.01 246.104 517.281 245.367 517.553 245.328C521.434 245.095 528.382 246.453 526.48 245.561C524.927 244.823 520.037 244.008 518.135 243.737C518.019 243.737 517.825 242.999 518.368 242.96C522.055 242.65 527.489 244.202 527.411 243.387Z" fill="#FFC0BB"/>
<path d="M460.5 232.481C462.052 232.87 463.605 233.296 465.196 233.646C466.749 234.034 468.34 234.306 469.931 234.616C473.114 235.198 476.258 235.703 479.44 236.13C482.623 236.557 485.805 236.945 489.027 237.255C492.209 237.566 495.469 237.837 498.613 238.032L499.04 238.07L499.118 238.42C499.389 239.506 499.583 240.515 499.7 241.602C499.816 242.65 499.894 243.737 499.894 244.824C499.894 245.91 499.777 246.958 499.622 248.045C499.428 249.093 499.118 250.141 498.691 251.15L498.652 251.227L498.574 251.266L495.081 253.634C493.917 254.41 492.752 255.186 491.549 255.962C492.636 255.07 493.762 254.216 494.887 253.362L498.225 250.801L498.108 250.917C498.458 249.947 498.691 248.938 498.846 247.928C498.962 246.919 499.04 245.871 499.001 244.824C498.962 243.776 498.846 242.767 498.729 241.719C498.574 240.71 498.38 239.662 498.108 238.691L498.613 239.079C496.944 239.041 495.353 238.924 493.723 238.808C492.093 238.691 490.501 238.575 488.871 238.381C485.65 238.032 482.429 237.643 479.246 237.139C476.063 236.634 472.881 236.013 469.737 235.237C468.185 234.849 466.593 234.461 465.041 233.956C463.566 233.568 462.014 233.025 460.5 232.481Z" fill="white"/>
<path d="M513.982 118.919C513.982 118.919 519.959 119.113 513.672 114.067C507.423 109.022 490.618 103.122 479.828 108.789C479.828 108.789 477.693 104.209 474.55 105.296C471.445 106.382 476.568 109.526 476.568 109.526C476.568 109.526 472.609 109.41 471.367 111.35C470.474 112.786 472.92 112.864 474.239 112.786C471.988 113.174 463.294 118.647 467.641 136.151C469.194 135.802 478.004 123.033 478.004 123.033C478.004 123.033 498.186 134.249 496.168 125.322C496.168 125.322 517.048 138.363 514.099 127.574C514.176 127.612 522.249 128.195 513.982 118.919Z" fill="#07085B"/>
<path d="M467.68 136.267C467.68 136.267 469.349 135.685 471.134 137.121C472.919 138.557 472.725 143.564 472.725 143.564C472.725 143.564 481.303 149.075 480.41 125.711C479.44 100.832 473.269 127.69 473.269 127.69L467.68 136.267Z" fill="#07085B"/>
<path d="M374.611 602.939L378.182 610.934C378.492 611.594 378.182 612.37 377.522 612.681L358.854 621.064C357.495 621.685 356.176 620.133 356.991 618.891L364.21 607.635C364.21 607.596 369.954 608.644 374.611 602.939Z" fill="#07085B"/>
<path d="M398.829 602.007L402.4 610.003C402.71 610.662 402.4 611.439 401.74 611.749L383.072 620.132C381.713 620.753 380.433 619.201 381.209 617.959L388.428 606.704C388.428 606.665 394.172 607.674 398.829 602.007Z" fill="#07085B"/>
<path d="M420.642 343.599C420.642 343.599 400.265 340.184 393.435 362.927L401.857 375.541C401.857 375.541 419.555 368.749 419.632 368.089C419.71 367.391 420.642 343.599 420.642 343.599Z" fill="#FF5500"/>
<path d="M453.437 353.846C453.437 353.846 459.375 362.772 462.402 366.304C470.009 375.231 471.018 372.436 475.753 380.082C480.876 388.349 475.676 393.55 472.765 395.918C469.815 398.285 474.744 407.134 469.272 412.063C462.092 418.545 455.455 412.451 450.526 416.061C445.597 419.67 444.51 425.065 432.828 424.056C421.145 423.047 421.262 384.817 421.262 384.817C421.262 384.817 430.848 364.558 431.198 364.364C431.547 364.208 453.437 353.846 453.437 353.846Z" fill="#FF5500"/>
<path d="M393.473 362.889C393.473 362.889 392.774 369.914 390.446 373.95C384.624 384.119 381.48 380.781 378.22 389.203C374.727 398.285 380.782 402.399 384.119 404.223C387.457 406.008 384.236 415.595 390.562 419.437C398.79 424.483 404.185 417.225 409.735 419.903C415.246 422.542 417.303 427.627 428.598 424.483C439.892 421.3 432.712 383.769 432.712 383.769C432.712 383.769 419.554 365.606 419.127 365.528C418.701 365.373 393.473 362.889 393.473 362.889Z" fill="#FF5500"/>
<path d="M423.009 408.182C423.009 408.182 442.531 404.573 451.496 404.883C460.462 405.194 446.063 428.52 446.063 428.52L431.392 428.83C431.392 428.83 422.388 418.778 423.009 417.613C423.591 416.449 422.97 408.803 422.97 408.803L423.009 408.182Z" fill="#FFC0BB"/>
<path d="M440.397 389.552L445.559 405.193C445.559 405.193 441.095 414.469 427.356 410.472C427.356 410.472 428.908 407.25 426.813 400.575C424.678 393.744 440.397 389.552 440.397 389.552Z" fill="#FFC0BB"/>
<path opacity="0.6" d="M440.397 389.552L442.803 396.849C441.367 402.166 436.71 405.814 427.899 406.94C427.899 405.349 427.666 403.214 426.813 400.536C424.678 393.744 440.397 389.552 440.397 389.552Z" fill="#FC8D84"/>
<path d="M408.998 378.141C410.123 380.664 409.386 383.458 407.329 384.351C405.311 385.244 402.749 383.924 401.624 381.363C400.498 378.84 401.236 376.045 403.293 375.153C405.35 374.26 407.911 375.58 408.998 378.141Z" fill="#F99893"/>
<path d="M408.455 389.63C407.135 386.37 406.436 382.877 406.048 379.81C405.971 379.151 405.854 378.491 405.699 377.87C405.156 375.269 405.117 372.475 405.66 369.603C407.407 360.366 415.13 353.224 424.523 352.293C437.136 351.012 447.848 360.715 448.159 373.057C449.478 372.281 450.992 372.048 452.312 372.63C454.873 373.717 455.882 377.171 454.563 380.393C453.243 383.614 450.061 385.36 447.499 384.274C447.15 384.118 446.801 383.924 446.529 383.692C445.753 394.21 437.369 402.554 427.045 402.632C419.244 402.709 411.637 398.013 408.455 389.63Z" fill="#FFC0BB"/>
<path d="M421.884 373.562C422.272 374.726 422.505 375.93 422.583 377.172C422.621 377.793 422.583 378.413 422.505 379.073C422.388 379.694 422.272 380.354 421.845 381.014C421.379 381.635 421.146 381.829 421.069 382.295C420.991 382.722 421.185 383.149 421.496 383.575C422.156 384.39 423.281 384.817 424.484 385.089C423.281 385.322 421.884 385.167 420.836 384.235C420.331 383.769 419.943 383.032 419.982 382.256C420.021 381.441 420.409 381.053 420.914 380.432C421.185 380.044 421.341 379.5 421.457 378.957C421.573 378.413 421.612 377.831 421.69 377.249C421.768 375.968 421.845 374.765 421.884 373.562Z" fill="#F99893"/>
<path d="M428.947 375.153C428.753 376.434 429.84 377.482 431.121 377.288C431.897 377.171 432.557 376.511 432.634 375.735C432.829 374.454 431.742 373.406 430.461 373.6C429.724 373.678 429.064 374.338 428.947 375.153Z" fill="#333333"/>
<path d="M412.918 376.356C412.724 377.637 413.811 378.685 415.092 378.491C415.868 378.375 416.528 377.715 416.644 376.939C416.838 375.658 415.751 374.61 414.471 374.804C413.655 374.92 413.034 375.58 412.918 376.356Z" fill="#333333"/>
<path opacity="0.3" d="M429.257 389.668C429.257 389.668 426.579 388.698 424.057 390.367C424.057 390.367 421.34 388.659 419.205 390.289C419.205 390.289 420.214 394.326 424.678 394.054C429.141 393.782 429.257 389.668 429.257 389.668Z" fill="#F99893"/>
<path d="M431.626 388.194C431.121 388.621 430.578 388.97 430.035 389.319C429.491 389.669 428.909 389.979 428.327 390.212C427.163 390.717 425.921 391.105 424.64 391.182C423.359 391.299 422.117 391.144 420.875 390.755C419.672 390.367 418.508 389.746 417.421 389.048C417.887 389.475 418.43 389.902 418.973 390.251C419.517 390.6 420.138 390.872 420.759 391.144C421.38 391.376 422.039 391.532 422.699 391.648C423.359 391.726 424.019 391.765 424.679 391.687C425.998 391.57 427.318 391.182 428.482 390.561C429.647 389.94 430.733 389.164 431.626 388.194Z" fill="#F99893"/>
<path d="M426.773 371.116C427.744 370.845 428.636 370.651 429.529 370.573C430.422 370.457 431.276 370.495 432.129 370.612C432.983 370.767 433.798 370.961 434.613 371.349C435.234 371.582 436.709 372.514 437.097 372.708C436.67 371.854 436.011 370.922 435.234 370.379C434.419 369.719 433.41 369.331 432.362 369.176C431.314 369.021 430.228 369.137 429.257 369.486C428.287 369.797 427.394 370.34 426.773 371.116Z" fill="#FF5500"/>
<path d="M418.467 371.738C417.73 371.039 416.798 370.612 415.789 370.379C414.78 370.147 413.693 370.185 412.684 370.457C411.675 370.768 410.705 371.272 410.006 372.01C409.269 372.631 408.764 373.64 408.415 374.571C408.764 374.338 410.123 373.213 410.705 372.941C411.442 372.436 412.257 372.126 413.072 371.893C413.887 371.66 414.741 371.544 415.634 371.544C416.565 371.544 417.497 371.621 418.467 371.738Z" fill="#FF5500"/>
<path d="M456.969 503.658C456.969 503.658 462.713 530.749 436.593 537.192C410.472 543.634 377.521 544.294 377.521 544.294L376.9 607.402L363.161 608.993C363.161 608.993 322.137 523.957 370.419 507.229L414.625 504.667L432.75 502.222C432.75 502.222 450.875 496.517 451.147 497.371C451.38 498.147 456.542 504.124 456.969 503.658Z" fill="#FFC0BB"/>
<path d="M481.226 502.261C481.226 502.261 486.97 529.352 460.85 535.795C434.729 542.237 401.778 542.897 401.778 542.897L401.157 606.005L387.418 607.596C387.418 607.596 346.394 522.56 394.676 505.832L438.882 503.27L457.007 500.825C457.007 500.825 475.132 495.12 475.404 495.974C475.676 496.75 480.838 502.727 481.226 502.261Z" fill="#FFC0BB"/>
<path d="M387.341 499.079C365.335 499.428 345.23 512.042 338.089 536.61C330.948 561.178 314.647 586.483 316.199 586.25C350.742 605.578 361.609 586.172 385.478 591.917C409.347 597.661 417.808 595.06 417.808 595.06C410.9 560.402 401.818 542.859 401.818 542.859C403.836 543.208 462.403 544.101 476.88 528.033C480.955 523.53 484.06 517.864 483.439 504.047C482.274 478.315 393.745 498.963 387.341 499.079Z" fill="#FEB546"/>
<path d="M393.901 544.682C394.638 544.527 395.414 544.411 396.152 544.255C396.889 544.1 397.627 543.867 398.364 543.673C398.713 543.557 399.102 543.44 399.451 543.285C399.063 543.207 398.713 543.091 398.364 542.975C397.665 542.703 396.967 542.354 396.346 541.927C395.725 541.461 395.143 540.995 394.677 540.452C394.172 539.908 393.746 539.287 393.357 538.667L394.095 539.482C394.366 539.714 394.599 539.986 394.91 540.219C395.453 540.724 396.035 541.112 396.656 541.5C397.277 541.888 397.937 542.16 398.597 542.392C399.257 542.625 399.994 542.781 400.654 542.819L401.857 542.858L400.77 543.363C400.033 543.712 399.296 543.945 398.558 544.139C397.821 544.333 397.045 544.488 396.268 544.644C395.492 544.76 394.755 544.876 393.978 544.915C393.202 544.954 392.426 544.993 391.688 544.993C392.387 544.915 393.163 544.838 393.901 544.682Z" fill="#DAEEF7"/>
<path d="M400.809 446.217C400.809 446.217 399.024 490.463 394.056 497.41L421.418 491.2V443.035L400.809 446.217Z" fill="#FFC0BB"/>
<path d="M411.869 452.272C411.869 452.272 416.294 463.411 416.992 469.311C418.7 484.02 416.837 494.383 413.81 502.727C409.54 514.448 442.569 509.985 443.345 510.024C478.237 510.839 477.888 509.442 477.888 509.442L483.438 504.978C482.662 490.657 480.682 478.237 480.993 465.468L481.303 452.272L479.712 438.96L430.343 435.079L411.869 452.272Z" fill="#FEB546"/>
<path d="M394.986 462.091C398.014 457.394 422.698 449.438 422.698 449.438C422.698 457.045 422.698 457.394 422.698 457.394L397.548 466.166L394.986 462.091Z" fill="#EDEDED"/>
<path d="M394.986 462.091C398.014 457.394 422.698 449.438 422.698 449.438C422.698 457.045 422.698 457.394 422.698 457.394L397.548 466.166L394.986 462.091Z" fill="#EDEDED"/>
<path d="M396.772 461.781L425.454 448.546V453.669L397.471 463.76L396.772 461.781Z" fill="white"/>
<path d="M398.363 461.78L428.636 450.331V459.18L398.674 463.759L398.363 461.78Z" fill="#EDEDED"/>
<path d="M394.987 460.888C394.987 460.888 389.165 447.226 386.759 444.393C386.759 453.358 390.407 464.652 390.407 464.652L394.987 460.888Z" fill="white"/>
<path d="M392.425 461.47L385.361 443.578V452.116L390.213 463.76L392.425 461.47Z" fill="#EDEDED"/>
<path d="M390.213 461.78L382.489 444.393V450.602L390.213 461.78Z" fill="white"/>
<path d="M390.213 515.34L383.149 499.078V445.479L390.213 461.78V515.34Z" fill="#F5577A"/>
<path d="M435.04 507.268L400.575 515.341V461.781L435.04 453.669V507.268Z" fill="#FF5B7E"/>
<path d="M400.576 461.78C397.548 460.344 391.183 460.849 390.213 461.78C390.756 464.847 399.799 465.429 400.576 461.78Z" fill="#E0E0E0"/>
<path d="M400.575 515.34C400.575 516.66 390.174 516.66 390.174 515.34V461.78C391.222 463.333 399.411 463.294 400.575 461.78V515.34Z" fill="#DE4B6C"/>
<path d="M491.667 440.861L468.225 451.729C468.225 451.729 466.401 481.73 465.275 483.05C463.218 485.456 442.454 492.326 431.509 494.344C429.763 494.654 427.938 494.538 426.231 493.917C420.797 492.015 411.211 488.561 409.658 488.017C407.291 487.202 400.576 485.611 400.11 486.426C399.722 487.164 405.35 487.707 408.649 489.376C409.115 489.609 408.688 490.191 408.571 490.152C406.708 489.725 401.857 488.677 400.149 488.794C398.053 488.91 405.001 490.23 408.533 491.86C408.765 491.976 408.804 492.753 408.571 492.908C408.028 493.218 406.32 493.179 401.779 492.481C394.211 491.278 401.197 494.111 401.197 494.111C401.197 494.111 401.896 494.111 408.455 494.887C408.688 494.926 408.765 495.625 408.339 495.857C407.601 496.246 405.893 496.905 403.836 496.983C401.275 497.061 402.827 498.147 402.827 498.147C402.827 498.147 407.679 497.992 410.24 498.458C412.142 498.807 420.836 501.873 424.407 503.038L424.833 502.494C429.801 503.659 475.599 506.996 481.149 493.412C491.434 468.418 491.667 440.861 491.667 440.861Z" fill="#FFC0BB"/>
<path d="M423.008 408.182C423.008 408.182 436.282 423.668 451.496 404.883C451.496 404.883 468.146 403.525 480.411 412.219C492.675 420.912 500.011 440.473 500.011 440.473C500.011 440.473 482.39 452.195 468.224 452.195L434.962 440.279L411.908 452.195C411.908 452.195 401.196 451.496 392.153 446.877C392.114 446.916 393.667 415.828 423.008 408.182Z" fill="#FEB546"/>
<path d="M464.15 434.613C464.732 436.515 465.236 438.455 465.741 440.396C466.711 444.2 467.565 447.809 468.225 451.729C469.428 451.768 470.786 451.613 471.99 451.418C478.393 450.293 482.585 448.469 488.29 446.14C496.829 442.259 495.665 442.608 499.973 440.512C494.966 443.695 492.288 445.092 488.64 446.916C483.633 449.245 478.859 451.38 472.145 452.544C469.195 452.932 468.38 452.854 467.255 452.738C466.828 449.866 466.323 446.955 464.965 440.551L463.684 434.691L462.364 428.83C463.024 430.771 463.606 432.672 464.15 434.613Z" fill="#07085B"/>
<path d="M411.443 438.222C411.055 440.24 410.783 442.879 410.9 445.324C410.938 446.489 411.792 449.671 412.763 452.97C412.569 453.048 412.413 453.125 412.219 453.164C411.094 449.865 410.123 446.605 409.968 445.402C409.658 442.918 409.89 440.434 410.279 438.028C410.744 435.583 411.365 433.293 412.297 430.964C413.189 428.674 414.199 426.462 415.518 424.405C414.664 426.695 413.849 428.946 413.151 431.274C412.452 433.526 411.831 435.854 411.443 438.222Z" fill="#07085B"/>
<path d="M448.12 373.057C448.12 373.057 425.338 367.546 414.432 352.06C414.432 352.06 414.238 337.972 435.157 341.154C455.533 344.298 460.268 364.053 448.12 373.057Z" fill="#FF5500"/>
</svg>
