<svg width="347" height="240" viewBox="0 0 347 240" fill="none" xmlns="http://www.w3.org/2000/svg">
<g clip-path="url(#clip0_1311_6498)">
<path d="M346.999 145.635C346.998 133.301 342.304 121.429 333.871 112.433C325.438 103.438 313.898 97.9926 301.598 97.205C302.009 94.354 302.216 91.4772 302.217 88.5967C302.222 77.8827 299.301 67.3712 293.77 58.1978C288.239 49.0243 280.309 41.5376 270.835 36.5466C261.362 31.5556 250.706 29.25 240.018 29.8788C229.331 30.5077 219.018 34.0471 210.195 40.1147C201.818 25.0741 188.725 13.2123 172.939 6.36162C157.153 -0.489057 139.553 -1.94744 122.856 2.21175C106.159 6.37093 91.2953 15.9163 80.5606 29.3733C69.8259 42.8303 63.8175 59.4501 63.4635 76.6656C61.9152 76.5451 60.3497 76.459 58.7497 76.459C43.3191 76.5747 28.5531 82.7593 17.6402 93.6774C6.72737 104.596 0.543368 119.371 0.423646 134.813C0.303924 150.255 6.25808 165.125 17.0003 176.211C27.7426 187.297 42.4109 193.711 57.8379 194.066H303.147V193.842C315.131 192.688 326.259 187.114 334.364 178.204C342.469 169.294 346.973 157.685 346.999 145.635Z" fill="#EFEFEF"/>
<path d="M208.216 123.34H138.781V240H208.216V123.34Z" fill="#FEFEFE"/>
<path d="M173.501 65.7847L229.017 145.911H173.501H117.984L173.501 65.7847Z" fill="#FEFEFE"/>
</g>
<defs>
<clipPath id="clip0_1311_6498">
<rect width="347" height="240" fill="white"/>
</clipPath>
</defs>
</svg>
