<svg width="550" height="516" viewBox="0 0 550 516" fill="none" xmlns="http://www.w3.org/2000/svg">
<g clip-path="url(#clip0_1019_31)">
<g opacity="0.12">
<path opacity="0.12" d="M449.034 502.537L165.561 498.691C116.525 498.691 68.297 463.131 38.8594 408.069C9.42175 353.007 -1.18494 280.138 8.43915 213.402C18.0632 146.666 47.272 86.6816 86.8856 47.1403C111.303 22.77 139.865 5.75649 169.855 1.19714C199.844 -3.36221 231.287 5.01678 257.01 27.5176C301.819 66.6958 326.088 143.949 374.114 174.775C396.472 189.139 421.602 191.681 445.333 200.571C492.067 218.055 536.485 268.275 542.677 334.958C547.24 383.9 535.839 420.308 512.284 458.813C492.807 490.648 477.368 506.196 449.021 502.537" fill="#A694EA"/>
</g>
<path d="M501.651 505.093C501.651 511.118 404.441 516 284.523 516C164.606 516 67.3955 511.077 67.3955 505.093C67.3955 499.108 164.606 494.185 284.523 494.185C404.441 494.185 501.651 499.067 501.651 505.093Z" fill="#CFC9F2"/>
<path d="M241.086 6.49609H227.814V500.977H241.086V6.49609Z" fill="#352E73"/>
<path d="M241.073 6.50952C241.073 7.76032 240.992 500.789 240.992 500.789H363.898V33.7715L241.073 6.50952Z" fill="#7271B3"/>
<path d="M340.006 62.5265L271.803 48.0415C271.811 49.8883 271.404 51.7133 270.611 53.3818C269.819 55.0503 268.662 56.5198 267.225 57.6816C265.788 58.8435 264.109 59.6681 262.311 60.0946C260.512 60.5212 258.641 60.5387 256.835 60.146L256.216 196.779C259.229 197.147 262.002 198.608 264.009 200.884C266.016 203.159 267.118 206.092 267.105 209.125L335.308 217.517C335.323 214.246 336.631 211.113 338.949 208.803C341.266 206.492 344.404 205.191 347.678 205.184C348.196 205.183 348.713 205.214 349.226 205.279L349.832 74.7386C347.038 74.1442 344.534 72.6046 342.744 70.3798C340.954 68.155 339.987 65.3811 340.006 62.5265V62.5265ZM344.475 200.679C341.468 201.266 338.672 202.641 336.372 204.665C334.073 206.688 332.354 209.285 331.391 212.192L271.345 204.808C270.67 202.177 269.382 199.743 267.585 197.704C265.788 195.666 263.535 194.081 261.008 193.08L261.573 65.0147C264.725 64.6087 267.703 63.3381 270.176 61.3439C272.65 59.3497 274.522 56.7098 275.585 53.7172L335.685 66.4806C336.284 68.9865 337.434 71.3275 339.052 73.3331C340.671 75.3386 342.716 76.9583 345.04 78.074L344.475 200.679Z" fill="#ADEFF7"/>
<path d="M338.283 300.204L320.179 298.658C320.179 301.938 318.877 305.085 316.558 307.407C314.239 309.729 311.092 311.038 307.809 311.045C307.446 311.045 307.082 311.045 306.719 311.045V468.04C310.003 468.047 313.151 469.354 315.472 471.676C317.793 473.998 319.099 477.145 319.102 480.426H336.924C336.931 477.145 338.24 474 340.563 471.68C342.887 469.361 346.036 468.057 349.32 468.053V468.053L349.603 312.484C346.524 312.215 343.656 310.807 341.562 308.536C339.468 306.264 338.298 303.293 338.283 300.204V300.204ZM344.582 464.005C341.798 464.807 339.26 466.299 337.206 468.342C335.152 470.385 333.647 472.913 332.832 475.692H323.194C322.387 472.912 320.891 470.381 318.844 468.333C316.796 466.285 314.265 464.787 311.484 463.978V315.402C314.433 314.749 317.157 313.331 319.383 311.291C321.609 309.251 323.258 306.661 324.163 303.782L334.097 304.629C334.827 307.3 336.185 309.757 338.058 311.797C339.931 313.837 342.265 315.401 344.865 316.357L344.582 464.005Z" fill="#ADEFF7"/>
<path d="M287.443 295.887L271.655 294.542C271.667 296.176 271.356 297.795 270.739 299.308C270.123 300.821 269.213 302.197 268.062 303.357C266.911 304.517 265.542 305.438 264.033 306.068C262.524 306.697 260.906 307.022 259.271 307.023C258.912 307.043 258.553 307.043 258.194 307.023L259.419 468.228C262.688 468.231 265.824 469.525 268.143 471.827C270.463 474.13 271.778 477.254 271.803 480.521H286.353C286.341 478.88 286.654 477.254 287.276 475.736C287.898 474.218 288.815 472.838 289.974 471.677C291.134 470.516 292.513 469.596 294.031 468.972C295.549 468.348 297.176 468.031 298.817 468.04V308.18C295.727 307.921 292.846 306.516 290.741 304.241C288.636 301.966 287.46 298.986 287.443 295.887V295.887ZM294.012 464.005C291.226 464.813 288.688 466.31 286.634 468.358C284.581 470.405 283.076 472.937 282.261 475.719H275.935C275.104 472.962 273.598 470.455 271.554 468.426C269.509 466.397 266.99 464.91 264.225 464.099L263.053 311.394C266.014 310.73 268.746 309.297 270.975 307.24C273.203 305.184 274.849 302.576 275.747 299.68L283.311 300.339C284.013 303.021 285.361 305.491 287.238 307.533C289.115 309.575 291.464 311.127 294.079 312.053L294.012 464.005Z" fill="#ADEFF7"/>
<path d="M218.85 502.82C220.42 494.965 222.404 487.129 224.8 479.31C227.195 471.491 229.982 463.7 233.158 455.935C236.308 448.269 239.826 440.674 243.711 433.152C247.597 425.629 251.909 418.138 256.647 410.678C261.304 403.325 266.311 396.099 271.668 388.997L273.687 386.307C273.795 386.17 273.868 386.007 273.9 385.835C273.931 385.662 273.919 385.485 273.866 385.318C273.813 385.151 273.72 384.999 273.595 384.876C273.47 384.754 273.317 384.663 273.149 384.613C272.368 384.33 271.614 385.595 271.13 386.227C265.651 393.341 260.362 399.676 255.556 407.06C250.751 414.444 246.43 421.854 242.419 429.372C238.408 436.891 234.639 444.759 231.328 452.559C228.017 460.36 225.163 468.08 222.673 475.907C220.183 483.735 218.083 491.616 216.4 499.498C216.185 500.466 215.983 501.434 215.795 502.416C215.745 502.585 215.735 502.763 215.765 502.936C215.796 503.11 215.866 503.274 215.97 503.416C216.074 503.557 216.21 503.673 216.366 503.754C216.522 503.835 216.695 503.879 216.871 503.882C217.612 503.976 218.716 503.492 218.85 502.779V502.82Z" fill="#5595F2"/>
<path d="M269.986 389.011C271.925 384.357 273.58 379.986 276.999 376.301C278.696 374.733 280.712 373.55 282.908 372.831C283.797 372.535 285.102 372.643 285.277 373.558C285.32 373.869 285.274 374.186 285.143 374.472C284.129 377.279 282.549 379.847 280.499 382.017C277.322 385.151 273.54 386.294 269.986 389.011" fill="#5595F2"/>
<path d="M266.096 394.068C263.7 389.495 261.345 385.326 260.712 380.215C260.588 377.851 260.978 375.487 261.856 373.288C262.206 372.401 263.202 371.446 263.969 371.943C264.243 372.117 264.462 372.364 264.602 372.656C266.156 375.289 267.146 378.216 267.509 381.25C267.9 385.81 266.325 389.535 266.163 394.108" fill="#5595F2"/>
<path d="M265.503 394.35C270.309 392.494 274.724 390.611 279.879 390.517C282.234 390.67 284.529 391.326 286.609 392.44C287.457 392.884 288.305 393.92 287.753 394.7C287.547 394.947 287.277 395.133 286.973 395.238C284.182 396.488 281.161 397.143 278.102 397.161C273.526 397.04 270.026 395.05 265.477 394.35" fill="#5595F2"/>
<path d="M256.19 408.001C253.605 403.052 251.048 398.587 250.321 393.005C250.181 390.452 250.604 387.9 251.559 385.527C251.936 384.559 252.905 383.523 253.847 384.021C254.143 384.209 254.38 384.474 254.534 384.788C256.218 387.638 257.286 390.808 257.67 394.095C258.101 399.031 256.324 403.052 256.19 408.001" fill="#5595F2"/>
<path d="M255.584 407.786C260.793 405.769 265.571 403.751 271.144 403.644C273.703 403.791 276.198 404.498 278.453 405.715C279.382 406.199 280.284 407.315 279.691 408.163C279.471 408.431 279.183 408.636 278.857 408.755C275.833 410.106 272.559 410.812 269.246 410.826C264.293 410.705 260.484 408.553 255.584 407.786" fill="#5595F2"/>
<path d="M245.34 425.781C242.029 419.46 238.758 413.677 237.829 406.616C237.65 403.346 238.193 400.077 239.418 397.04C239.889 395.803 241.181 394.485 242.352 395.117C242.72 395.364 243.017 395.702 243.213 396.099C245.368 399.745 246.743 403.798 247.251 408.001C247.79 414.309 245.609 419.447 245.354 425.781" fill="#5595F2"/>
<path d="M245.112 426.44C251.761 423.858 257.872 421.262 265.006 421.141C268.279 421.348 271.467 422.266 274.347 423.831C275.532 424.45 276.689 425.876 275.936 426.965C275.648 427.305 275.277 427.565 274.859 427.718C270.991 429.45 266.808 430.366 262.57 430.408C256.243 430.247 251.371 427.489 245.071 426.521" fill="#5595F2"/>
<path d="M236.712 443.104C232.876 437.079 229.134 431.605 227.599 424.638C227.154 421.397 227.416 418.098 228.367 414.968C228.743 413.623 229.915 412.278 231.126 412.803C231.521 413.016 231.851 413.332 232.082 413.717C234.533 417.167 236.243 421.087 237.102 425.23C238.179 431.457 236.429 436.783 236.712 443.104Z" fill="#5595F2"/>
<path d="M236.537 443.831C242.958 440.71 248.813 437.603 255.92 436.877C259.193 436.791 262.445 437.42 265.45 438.72C266.675 439.231 267.953 440.562 267.294 441.706C267.04 442.074 266.691 442.367 266.284 442.553C262.58 444.596 258.492 445.851 254.278 446.238C247.951 446.601 242.85 444.274 236.537 443.831" fill="#5595F2"/>
<path d="M229.147 461.059C225.755 456.366 222.417 452.102 220.869 446.521C220.351 443.913 220.406 441.224 221.031 438.639C221.273 437.59 222.148 436.38 223.158 436.756C223.488 436.907 223.772 437.144 223.979 437.442C226.134 440.119 227.707 443.215 228.596 446.534C229.78 451.537 228.596 455.949 229.147 461.059" fill="#5595F2"/>
<path d="M229.04 461.611C234.101 458.773 238.705 455.962 244.439 455.034C247.09 454.808 249.758 455.162 252.259 456.07C253.269 456.433 254.372 457.415 253.888 458.396C253.702 458.707 253.438 458.962 253.12 459.136C250.21 460.971 246.952 462.184 243.55 462.7C238.435 463.305 234.195 461.665 229.04 461.611Z" fill="#5595F2"/>
<path d="M223.776 476.782C220.654 473.083 217.639 469.761 215.969 465.215C215.373 463.08 215.244 460.841 215.593 458.652C215.727 457.751 216.387 456.688 217.248 456.944C217.531 457.047 217.782 457.224 217.975 457.455C219.931 459.554 221.438 462.03 222.403 464.731C223.749 468.766 223.009 472.559 223.749 476.836" fill="#5595F2"/>
<path d="M223.723 477.252C227.761 474.563 231.408 471.873 236.106 470.797C238.301 470.44 240.546 470.564 242.688 471.16C243.55 471.389 244.532 472.169 244.196 473.002C244.053 473.266 243.844 473.489 243.59 473.648C241.292 475.366 238.661 476.584 235.864 477.226C231.651 478.059 228.016 476.97 223.75 477.226" fill="#5595F2"/>
<path d="M219.698 489.949C216.858 487.178 214.125 484.69 212.416 481.099C211.764 479.384 211.488 477.55 211.608 475.719C211.608 474.993 212.106 474.065 212.833 474.199C213.072 474.272 213.289 474.401 213.466 474.576C215.225 476.136 216.646 478.04 217.639 480.171C218.985 483.426 218.742 486.519 219.698 489.908" fill="#5595F2"/>
<path d="M219.685 490.339C222.767 487.837 225.554 485.416 229.309 484.125C231.067 483.663 232.905 483.594 234.693 483.923C235.42 484.044 236.281 484.596 236.039 485.268C235.947 485.498 235.793 485.698 235.595 485.847C233.851 487.423 231.797 488.618 229.565 489.357C226.173 490.352 223.131 489.747 219.645 490.298" fill="#5595F2"/>
<path d="M127.375 500.318C123.166 490.33 118.397 480.467 113.066 470.73C107.736 460.992 101.903 451.416 95.568 442.002C89.2866 432.695 82.5564 423.585 75.3776 414.672C68.1988 405.76 60.4995 397.013 52.2798 388.433C44.1229 379.951 35.5218 371.733 26.4765 363.78C25.3593 362.785 24.2421 361.803 23.1114 360.834C22.929 360.681 22.7869 360.485 22.6973 360.264C22.6077 360.043 22.5733 359.804 22.5972 359.567C22.6211 359.33 22.7024 359.102 22.8343 358.903C22.9661 358.705 23.1444 358.541 23.3537 358.427C24.3094 357.849 25.6419 359.315 26.463 360.027C35.6564 367.963 44.419 374.929 52.7509 383.416C61.0828 391.903 68.9032 400.524 76.2256 409.414C83.548 418.304 90.6954 427.691 97.2102 437.106C103.725 446.521 109.594 455.935 115.018 465.699C120.443 475.464 125.369 485.255 129.73 495.288C130.282 496.512 130.807 497.749 131.332 498.987C131.443 499.198 131.505 499.431 131.511 499.669C131.518 499.907 131.471 500.144 131.372 500.361C131.273 500.577 131.126 500.769 130.942 500.92C130.757 501.071 130.541 501.178 130.309 501.233C129.784 501.396 129.221 501.395 128.696 501.229C128.171 501.063 127.71 500.741 127.375 500.305V500.318Z" fill="#88B4FF"/>
<path d="M28.724 363.349C24.9013 357.754 21.5362 352.375 15.9771 348.407C13.3034 346.787 10.3086 345.768 7.20102 345.421C5.94921 345.273 4.25322 345.757 4.26668 347.022C4.30197 347.448 4.45069 347.856 4.69741 348.205C6.80434 351.644 9.59417 354.615 12.8947 356.934C17.9692 360.229 23.286 360.713 28.724 363.349" fill="#88B4FF"/>
<path d="M35.2387 368.944C37.177 362.22 39.1691 356.073 38.6711 349.12C38.1955 345.959 37.0381 342.94 35.2791 340.27C34.5792 339.181 33.0851 338.172 32.089 339.006C31.7771 339.311 31.5577 339.698 31.4564 340.122C30.1091 344.03 29.5911 348.175 29.9354 352.294C30.6488 358.44 33.7581 362.946 35.2387 368.958" fill="#88B4FF"/>
<path d="M36.1142 369.213C29.236 368.057 22.8828 366.765 16.018 368.043C12.9292 368.875 10.0556 370.362 7.59192 372.401C6.5824 373.221 5.74786 374.822 6.69008 375.709C7.03279 375.981 7.44149 376.158 7.87458 376.22C11.9124 377.116 16.0921 377.167 20.1504 376.368C26.1806 375.023 30.3129 371.379 36.1142 369.213Z" fill="#88B4FF"/>
<path d="M52.1716 384.774C54.2579 377.525 56.4116 370.854 55.8731 363.323C55.3595 359.893 54.1057 356.617 52.1985 353.72C51.4447 352.536 49.8295 351.447 48.7527 352.375C48.4179 352.708 48.1805 353.127 48.0662 353.585C46.6134 357.818 46.0498 362.305 46.4106 366.766C47.1913 373.423 50.5563 378.292 52.1716 384.788" fill="#88B4FF"/>
<path d="M52.9124 384.331C45.4688 383.08 38.5906 381.641 31.1606 383.066C27.8139 383.965 24.7009 385.575 22.0345 387.787C20.9442 388.675 20.0424 390.396 21.0654 391.365C21.4512 391.675 21.9188 391.866 22.4114 391.916C26.7817 392.884 31.3058 392.935 35.6967 392.064C42.2249 390.544 46.6937 386.684 52.9797 384.331" fill="#88B4FF"/>
<path d="M71.3394 405.392C74.0314 396.112 76.7235 387.585 76.0774 377.955C75.7947 374.122 73.4661 368.944 71.3797 365.703C70.4106 364.197 68.3512 362.798 66.9648 363.955C66.5396 364.377 66.2372 364.907 66.0899 365.488C64.2304 370.899 63.5154 376.638 63.9901 382.34C64.9727 390.853 69.2665 397.134 71.3394 405.392" fill="#88B4FF"/>
<path d="M71.8506 406.172C62.3342 404.558 53.5447 402.769 44.0417 404.545C40.2594 405.244 35.3733 408.149 32.3851 410.584C31.0391 411.713 29.8411 413.919 31.1468 415.156C31.6145 415.538 32.1777 415.784 32.7755 415.869C38.3642 417.101 44.1476 417.165 49.7623 416.057C58.1077 414.107 63.8283 409.144 71.8506 406.172" fill="#88B4FF"/>
<path d="M87.4915 426.01C90.9374 416.999 94.4236 408.728 94.5447 399.111C94.5447 395.251 92.7007 389.898 90.9104 386.496C90.0624 384.909 88.1242 383.349 86.657 384.384C86.1973 384.77 85.8488 385.271 85.6475 385.837C83.3372 391.062 82.132 396.707 82.1074 402.42C82.3766 410.987 86.1455 417.55 87.4915 426.01Z" fill="#88B4FF"/>
<path d="M87.9222 426.871C78.5673 424.45 69.9527 421.935 60.3421 422.836C56.5059 423.226 51.4045 425.701 48.2278 427.866C46.7472 428.888 45.4146 430.986 46.5991 432.331C47.0366 432.742 47.5754 433.03 48.1605 433.165C53.6274 434.869 59.3883 435.423 65.0801 434.792C73.5601 433.569 79.671 429.103 87.9625 426.817" fill="#88B4FF"/>
<path d="M102.392 447.758C105.623 440.603 108.84 434.066 109.419 426.239C109.4 422.64 108.601 419.089 107.077 415.829C106.471 414.484 104.977 413.139 103.725 413.906C103.337 414.2 103.031 414.589 102.837 415.035C100.712 419.174 99.4653 423.707 99.1754 428.35C98.9869 435.304 101.706 440.818 102.392 447.744" fill="#88B4FF"/>
<path d="M102.688 448.471C95.2174 446.063 88.3527 443.602 80.5053 443.911C76.9302 444.33 73.4895 445.523 70.4236 447.408C69.1718 448.161 67.9873 449.789 68.8891 450.945C69.2252 451.298 69.6473 451.558 70.114 451.698C74.4678 453.342 79.1143 454.07 83.7627 453.837C90.6947 453.245 95.8769 449.923 102.688 448.457" fill="#88B4FF"/>
<path d="M113.78 467.125C116.916 461.396 120.012 456.164 120.994 449.641C121.194 446.641 120.734 443.635 119.648 440.831C119.231 439.688 118.074 438.464 116.956 439.016C116.607 439.232 116.324 439.539 116.135 439.903C114.103 443.21 112.779 446.901 112.245 450.744C111.64 456.514 113.591 461.275 113.686 467.071" fill="#88B4FF"/>
<path d="M113.968 467.744C107.911 465.269 102.365 462.781 95.8099 462.539C92.8117 462.663 89.8766 463.439 87.2088 464.812C86.1185 465.35 85.0282 466.641 85.7012 467.65C85.9566 467.967 86.2907 468.213 86.6704 468.362C90.1832 470.019 94 470.935 97.8828 471.052C103.698 471.052 108.22 468.564 114.035 467.784" fill="#88B4FF"/>
<path d="M122.771 483.479C125.786 479.028 128.707 474.993 129.999 469.774C130.405 467.346 130.276 464.858 129.622 462.485C129.366 461.516 128.518 460.427 127.589 460.804C127.294 460.956 127.043 461.183 126.863 461.463C124.941 464.005 123.566 466.917 122.825 470.016C121.882 474.697 123.08 478.732 122.744 483.466" fill="#88B4FF"/>
<path d="M122.892 483.99C118.128 481.502 113.78 479.055 108.45 478.355C105.991 478.228 103.534 478.636 101.248 479.552C100.306 479.915 99.3236 480.897 99.7947 481.758C99.9806 482.038 100.236 482.265 100.535 482.417C103.284 484.027 106.336 485.053 109.5 485.43C114.251 485.833 118.128 484.192 122.96 483.99" fill="#88B4FF"/>
<path d="M107.467 499.498C102.567 495.104 97.4074 490.913 91.9874 486.923C86.5674 482.933 80.8917 479.162 74.9602 475.612C69.1185 472.097 63.0613 468.82 56.7888 465.78C50.5164 462.741 43.9881 459.907 37.2042 457.28C30.474 454.725 23.6497 452.411 16.6369 450.367L14.0121 449.627C13.8804 449.585 13.7601 449.514 13.6606 449.418C13.561 449.322 13.4849 449.204 13.4381 449.074C13.3912 448.944 13.3749 448.805 13.3905 448.668C13.406 448.531 13.4529 448.399 13.5275 448.282C13.9044 447.704 15.0216 448.175 15.6543 448.35C22.7748 450.34 29.3972 451.914 36.1677 454.442C42.9382 456.971 49.453 459.701 55.8062 462.7C62.1595 465.699 68.5127 469.021 74.5295 472.532C80.5462 476.042 86.2265 479.741 91.7317 483.681C97.237 487.622 102.5 491.751 107.467 496.149L109.297 497.776C109.412 497.864 109.505 497.977 109.568 498.107C109.632 498.236 109.665 498.378 109.665 498.523C109.665 498.667 109.632 498.809 109.568 498.939C109.505 499.068 109.412 499.181 109.297 499.269C109.058 499.504 108.748 499.654 108.416 499.698C108.083 499.741 107.745 499.676 107.453 499.511L107.467 499.498Z" fill="#5595F2"/>
<path d="M17.754 449.587C14.2004 447.475 10.9431 445.404 6.87806 444.651C4.98877 444.453 3.07899 444.664 1.27859 445.27C0.551737 445.512 -0.255879 446.225 0.0806273 446.911C0.210093 447.134 0.3957 447.319 0.619038 447.449C2.65573 448.794 4.94591 449.709 7.34917 450.138C10.9834 450.65 14.0793 449.547 17.7136 449.587" fill="#5595F2"/>
<path d="M22.7877 450.972C22.1147 446.789 21.6301 442.902 19.5572 439.177C18.4744 437.551 17.0563 436.176 15.398 435.142C14.725 434.725 13.6482 434.55 13.3117 435.263C13.2221 435.513 13.1989 435.782 13.2444 436.043C13.5202 438.544 14.3083 440.961 15.5595 443.145C17.5517 446.346 20.4187 448.013 22.7877 450.932" fill="#5595F2"/>
<path d="M23.3396 450.905C19.3016 452.035 15.425 452.976 11.9792 455.451C10.4988 456.69 9.30091 458.23 8.46605 459.97C8.12954 460.683 8.0757 461.772 8.82948 462.028C9.08536 462.095 9.35429 462.095 9.61017 462.028C12.065 461.475 14.3792 460.422 16.4076 458.934C19.3554 456.608 20.7014 453.555 23.3396 450.865" fill="#5595F2"/>
<path d="M36.1943 455.33C35.481 450.797 34.9425 446.561 32.6947 442.566C31.5469 440.822 30.0365 439.345 28.2662 438.236C27.5394 437.778 26.3684 437.59 26.0049 438.37C25.9083 438.637 25.885 438.925 25.9376 439.204C26.2332 441.909 27.0856 444.524 28.4412 446.884C30.5949 450.354 33.7042 452.169 36.2616 455.33" fill="#5595F2"/>
<path d="M36.5039 454.886C32.0754 456.123 27.9297 457.132 24.1877 459.808C22.5813 461.167 21.2866 462.855 20.3919 464.758C20.0285 465.524 19.9747 466.708 20.7823 466.977C21.0601 467.051 21.3524 467.051 21.6303 466.977C24.2838 466.376 26.7853 465.236 28.9796 463.628C32.1831 461.1 33.6368 457.805 36.5039 454.899" fill="#5595F2"/>
<path d="M52.1047 461.718C51.149 455.935 50.4894 450.555 47.6224 445.391C46.1303 443.149 44.1636 441.262 41.8614 439.863C40.9461 439.285 39.452 439.043 38.9944 440.038C38.8615 440.38 38.8288 440.754 38.9001 441.114C39.2745 444.573 40.3655 447.917 42.1037 450.932C44.7957 455.357 48.8338 457.657 52.1047 461.691" fill="#5595F2"/>
<path d="M52.5759 462.041C46.9226 463.615 41.6192 464.906 36.8543 468.322C34.7911 470.054 33.1326 472.216 31.9951 474.657C31.524 475.638 31.4567 477.158 32.4931 477.494C32.845 477.595 33.2181 477.595 33.57 477.494C36.9717 476.731 40.1792 475.275 42.9922 473.217C47.0302 469.99 48.9416 465.78 52.5893 462.068" fill="#5595F2"/>
<path d="M66.3188 468.9C65.8746 463.05 65.6592 457.603 63.2364 452.263C61.9385 449.902 60.1427 447.851 57.9734 446.251C57.0985 445.606 55.6179 445.243 55.0795 446.184C54.9272 446.516 54.8667 446.883 54.9045 447.247C54.9939 450.717 55.7957 454.132 57.26 457.28C59.6156 461.92 63.3845 464.57 66.3188 468.873" fill="#5595F2"/>
<path d="M66.7628 469.263C60.9883 470.353 55.6042 471.187 50.6105 474.199C48.4111 475.751 46.5743 477.761 45.2264 480.09C44.6745 481.032 44.4726 482.538 45.4821 482.968C45.834 483.069 46.2071 483.069 46.5589 482.968C50.0089 482.5 53.3232 481.318 56.2907 479.498C60.6384 476.634 62.8459 472.599 66.8032 469.209" fill="#5595F2"/>
<path d="M80.1285 477.024C80.0612 472.263 80.1285 467.824 78.4325 463.373C77.4738 461.392 76.096 459.644 74.3944 458.248C73.7214 457.683 72.5504 457.32 72.0658 458.06C71.9233 458.319 71.8536 458.612 71.8639 458.907C71.7661 461.733 72.2518 464.549 73.2907 467.179C74.9867 471.066 77.9075 473.392 80.0208 477.024" fill="#5595F2"/>
<path d="M80.4785 477.346C75.7405 477.952 71.3256 478.369 67.0856 480.561C65.2301 481.716 63.6461 483.257 62.4418 485.08C61.9438 485.82 61.7149 487.03 62.4418 487.433C62.7206 487.539 63.0218 487.571 63.3167 487.528C66.1413 487.311 68.8907 486.515 71.3929 485.187C75.0541 483.076 77.0462 479.902 80.4247 477.346" fill="#5595F2"/>
<path d="M91.4086 484.757C91.6509 480.79 92.0008 477.104 90.8702 473.285C90.2127 471.584 89.1931 470.047 87.882 468.779C87.357 468.255 86.4013 467.878 85.9437 468.47C85.8086 468.679 85.734 468.921 85.7283 469.169C85.4611 471.512 85.6857 473.885 86.3879 476.136C87.5455 479.471 89.8337 481.596 91.4086 484.757Z" fill="#5595F2"/>
<path d="M91.6641 485.04C87.6934 485.241 83.9918 485.309 80.3306 486.869C78.7083 487.709 77.2889 488.894 76.1714 490.339C75.7137 490.917 75.4445 491.899 76.0906 492.289C76.3116 492.398 76.5584 492.445 76.804 492.423C79.1628 492.422 81.4958 491.932 83.6553 490.984C86.8454 489.464 88.7029 486.949 91.6641 485.04Z" fill="#5595F2"/>
<path d="M100.575 491.428C101.294 488.343 101.444 485.153 101.019 482.013C100.616 480.573 99.904 479.238 98.9328 478.1C98.5425 477.629 97.7887 477.252 97.3714 477.696C97.247 477.856 97.168 478.047 97.1426 478.248C96.7454 480.141 96.7454 482.097 97.1426 483.99C97.8291 486.801 99.5385 488.711 100.575 491.415" fill="#5595F2"/>
<path d="M100.777 491.684C97.624 491.326 94.4329 491.536 91.3543 492.302C89.9697 492.872 88.7252 493.734 87.7066 494.831C87.2759 495.261 86.9932 496.055 87.4778 496.418C87.6515 496.525 87.8522 496.581 88.0566 496.579C89.9831 496.757 91.9258 496.538 93.7637 495.934C96.4558 494.925 98.1921 493.029 100.763 491.684" fill="#5595F2"/>
<path d="M166.975 407.087C167.082 406.939 167.177 406.777 167.284 406.616C164.091 396.675 159.788 387.124 154.457 378.144C144.631 361.493 131.776 346.78 117.67 333.559C105.646 322.275 92.6966 312.017 78.958 302.894C82.7403 315.348 84.3421 322.436 87.0342 332.268C88.3448 337.384 89.245 342.596 89.7262 347.856C95.3903 349.342 101.133 350.51 106.928 351.352L90.1839 353.316C91.0857 367.425 90.1839 381.802 91.1396 395.978C92.7548 396.112 94.3835 396.22 96.0122 396.274C100.346 396.435 104.815 396.341 108.84 397.928C103.688 401.851 98.2931 405.444 92.6875 408.687C98.7984 442.445 122.3 477.131 150.876 495.14C162.317 487.676 168.159 473.998 170.757 460.589C172.534 451.404 173.086 442.024 172.399 432.695C172.042 427.977 171.385 423.288 170.434 418.653C166.261 420.931 162.066 423.145 157.849 425.297C160.277 418.939 163.334 412.839 166.975 407.087Z" fill="#A694EA"/>
<path d="M117.67 333.546C106.664 323.244 94.8831 313.801 82.4307 305.302C87.8821 310.56 91.8529 317.097 95.6217 323.66C99.9425 331.246 104.452 338.71 109.082 346.134C124.75 371.446 134.401 400.524 142.167 429.386C148.023 451.174 151.024 474.132 148.521 493.674C149.328 494.212 150.136 494.737 150.943 495.248C162.385 487.783 168.226 474.105 170.824 460.696C172.601 451.511 173.153 442.132 172.466 432.802C172.109 428.085 171.452 423.395 170.501 418.761C166.329 421.038 162.133 423.253 157.916 425.405C160.332 419.029 163.381 412.911 167.015 407.141C167.123 406.993 167.217 406.831 167.325 406.67C164.131 396.729 159.828 387.178 154.497 378.198C144.631 361.493 131.776 346.78 117.67 333.546Z" fill="#8969E2"/>
<path d="M150.755 485.524C150.037 475.598 148.902 465.735 147.349 455.935C145.797 446.135 143.814 436.357 141.4 426.602C139.004 416.918 136.2 407.347 132.987 397.887C129.775 388.428 126.185 379.152 122.219 370.061C118.226 360.915 113.838 351.949 109.055 343.162C108.462 342.072 107.87 340.983 107.264 339.907C106.888 339.221 105.811 339.813 106.201 340.485C111.038 349.174 115.525 358.05 119.661 367.115C123.798 376.18 127.486 385.393 130.726 394.754C134.028 404.132 136.922 413.637 139.408 423.266C141.893 432.896 143.966 442.575 145.626 452.304C147.277 462.077 148.52 471.918 149.355 481.825L149.637 485.537C149.637 486.304 150.903 486.331 150.849 485.537L150.755 485.524Z" fill="white"/>
<path d="M147.767 460.225C141.898 454.103 135.303 448.719 128.129 444.194C126.127 442.93 124.081 441.737 121.991 440.616C121.304 440.24 120.645 441.289 121.371 441.652C128.746 445.622 135.608 450.477 141.804 456.11C143.599 457.706 145.295 459.36 146.892 461.073C147.431 461.638 148.305 460.79 147.767 460.225V460.225Z" fill="white"/>
<path d="M131.911 394.915C126.788 388.198 120.862 382.132 114.264 376.852C112.38 375.346 110.455 373.894 108.476 372.522C107.83 372.078 107.211 373.127 107.857 373.571C114.737 378.364 121.007 383.978 126.527 390.288C128.088 392.064 129.569 393.893 130.995 395.762C131.052 395.819 131.119 395.864 131.193 395.895C131.267 395.926 131.346 395.942 131.426 395.942C131.506 395.942 131.586 395.926 131.66 395.895C131.734 395.864 131.801 395.819 131.857 395.762C131.966 395.645 132.026 395.492 132.026 395.332C132.026 395.172 131.966 395.019 131.857 394.902L131.911 394.915Z" fill="white"/>
<path d="M142.477 431.444C144.456 426.696 146.232 421.854 147.861 416.959C149.49 412.063 150.796 407.046 151.899 402.016C152.545 399.192 153.115 396.35 153.609 393.489C153.65 393.336 153.63 393.173 153.552 393.034C153.474 392.896 153.344 392.794 153.191 392.75C153.036 392.708 152.871 392.728 152.73 392.806C152.589 392.883 152.485 393.013 152.438 393.167C151.54 398.242 150.432 403.263 149.113 408.23C147.794 413.197 146.25 418.129 144.483 423.024C143.5 425.714 142.45 428.404 141.333 431.094C141.291 431.249 141.311 431.414 141.389 431.555C141.467 431.696 141.596 431.8 141.75 431.847C141.905 431.886 142.069 431.864 142.209 431.787C142.349 431.709 142.454 431.582 142.504 431.43L142.477 431.444Z" fill="white"/>
<path d="M493.373 180.02C494.611 162.24 482.605 150.095 463.168 148.751C447.244 147.648 433.932 153.834 423.756 165.213C422.115 167.09 419.808 168.257 417.322 168.468C414.836 168.679 412.365 167.917 410.431 166.342L390.523 149.948C388.621 148.392 387.392 146.163 387.094 143.726C386.796 141.288 387.45 138.829 388.921 136.861C407.294 112.8 434.901 99.0146 471.54 101.557C516.296 104.663 545.639 131.145 542.664 173.955C538.922 227.9 495.015 234.369 486.643 265.855C486.078 268.004 484.782 269.891 482.976 271.189C481.171 272.488 478.969 273.117 476.749 272.969L450.542 271.154C449.18 271.063 447.854 270.682 446.652 270.035C445.45 269.389 444.401 268.492 443.576 267.406C442.751 266.32 442.168 265.07 441.867 263.739C441.567 262.409 441.555 261.03 441.833 259.695C450.704 218.284 491.3 209.233 493.373 180.02ZM430.338 328.166C431.684 309.659 444.216 300.971 460.92 302.128C477.624 303.284 488.904 313.627 487.625 332.133C486.36 350.29 473.667 360.377 456.963 359.193C440.259 358.01 429.073 346.255 430.338 328.166Z" fill="#8969E2"/>
<path d="M499.376 180.222C500.614 162.442 488.608 150.297 469.171 148.952C453.248 147.849 439.935 154.036 429.746 165.414C428.107 167.291 425.802 168.458 423.318 168.668C420.835 168.879 418.366 168.117 416.434 166.544L396.513 150.149C394.612 148.592 393.387 146.362 393.091 143.924C392.795 141.487 393.452 139.029 394.924 137.063C413.298 113.002 440.905 99.2163 477.543 101.758C522.299 104.865 551.642 131.347 548.667 174.156C544.925 228.102 501.018 234.571 492.646 266.056C492.081 268.206 490.785 270.092 488.979 271.391C487.174 272.689 484.972 273.319 482.753 273.171L456.532 271.355C455.171 271.262 453.846 270.88 452.645 270.233C451.444 269.585 450.396 268.689 449.571 267.603C448.746 266.518 448.163 265.268 447.862 263.939C447.56 262.61 447.547 261.231 447.823 259.896C456.761 218.539 497.411 209.488 499.376 180.222ZM436.382 328.354C437.728 309.847 450.273 301.159 466.977 302.316C483.681 303.472 494.961 313.815 493.682 332.321C492.417 350.478 479.724 360.565 463.02 359.382C446.316 358.198 435.13 346.511 436.382 328.354Z" fill="#A694EA"/>
<path d="M171.685 82.9291C172.049 77.8452 168.603 74.3753 163.044 73.9987C160.928 73.831 158.802 74.1693 156.843 74.9855C154.884 75.8018 153.148 77.0725 151.778 78.6926C151.551 78.9659 151.272 79.1916 150.957 79.3566C150.642 79.5216 150.297 79.6227 149.943 79.6539C149.589 79.6852 149.232 79.6461 148.893 79.5388C148.554 79.4315 148.24 79.2581 147.968 79.0288L142.275 74.3349C141.724 73.8957 141.367 73.258 141.282 72.5589C141.196 71.8598 141.388 71.155 141.817 70.596C147.067 63.7099 154.968 59.7692 165.44 60.4955C178.241 61.3832 186.64 68.9552 185.792 81.1941C184.715 96.6206 172.157 98.4766 169.761 107.488C169.606 108.106 169.238 108.649 168.72 109.021C168.202 109.393 167.57 109.569 166.934 109.519L159.437 108.94C159.046 108.92 158.664 108.815 158.318 108.633C157.972 108.45 157.67 108.194 157.433 107.883C157.196 107.572 157.029 107.213 156.945 106.831C156.861 106.449 156.862 106.054 156.946 105.672C159.49 93.8769 171.107 91.2812 171.685 82.9291ZM153.662 125.281C154.026 119.982 157.7 117.508 162.411 117.83C167.122 118.153 170.407 121.125 170.043 126.411C169.983 127.496 169.707 128.558 169.232 129.535C168.758 130.512 168.093 131.386 167.278 132.105C166.463 132.824 165.513 133.374 164.483 133.723C163.453 134.072 162.365 134.213 161.28 134.138C160.195 134.063 159.136 133.774 158.164 133.287C157.192 132.8 156.327 132.125 155.618 131.301C154.91 130.477 154.372 129.52 154.036 128.487C153.7 127.454 153.573 126.364 153.662 125.281V125.281Z" fill="#8969E2"/>
<path d="M173.422 83.0098C173.772 77.9259 170.326 74.4559 164.781 74.0659C162.664 73.9075 160.54 74.2514 158.582 75.0695C156.624 75.8876 154.888 77.1567 153.514 78.7732C153.044 79.308 152.385 79.6403 151.675 79.7005C150.965 79.7607 150.259 79.5441 149.705 79.096L144.025 74.4021C143.474 73.9629 143.117 73.3252 143.032 72.6261C142.946 71.927 143.138 71.2222 143.567 70.6632C148.817 63.7771 156.718 59.9037 167.19 60.5627C179.991 61.4504 188.376 69.0224 187.528 81.2748C186.465 96.7013 173.907 98.5573 171.511 107.555C171.356 108.173 170.988 108.716 170.47 109.088C169.952 109.46 169.32 109.637 168.684 109.586L161.187 109.061C160.796 109.041 160.414 108.936 160.068 108.754C159.722 108.571 159.42 108.315 159.183 108.004C158.946 107.693 158.779 107.334 158.695 106.952C158.611 106.57 158.612 106.175 158.696 105.793C161.214 93.9441 172.843 91.3618 173.422 83.0098ZM155.399 125.348C155.762 120.063 159.356 117.575 164.134 117.911C168.913 118.247 172.211 121.193 171.78 126.492C171.713 127.572 171.432 128.629 170.954 129.6C170.476 130.572 169.811 131.44 168.996 132.153C168.181 132.867 167.233 133.412 166.206 133.757C165.179 134.103 164.094 134.242 163.013 134.167C161.932 134.091 160.877 133.803 159.908 133.318C158.939 132.833 158.076 132.161 157.368 131.342C156.66 130.522 156.122 129.57 155.784 128.542C155.446 127.513 155.315 126.428 155.399 125.348Z" fill="#A694EA"/>
<path d="M65.2954 196.362C63.8687 192.878 60.4498 191.722 56.6674 193.282C55.2233 193.858 53.9363 194.768 52.9116 195.937C51.887 197.106 51.1537 198.5 50.7718 200.006C50.6412 200.517 50.3161 200.956 49.8659 201.23C49.4156 201.503 48.8761 201.591 48.3624 201.472L43.0725 200.275C42.5705 200.153 42.1339 199.845 41.8514 199.413C41.5688 198.98 41.4616 198.457 41.5515 197.949C42.763 191.681 46.6799 186.503 53.8273 183.544C62.563 179.94 70.5853 182.199 74.0177 190.551C78.3654 201.096 70.693 206.422 72.066 213.146C72.1608 213.607 72.0916 214.086 71.8704 214.501C71.6492 214.916 71.2899 215.241 70.8545 215.419L65.7396 217.531C65.4754 217.633 65.1926 217.679 64.9095 217.666C64.6263 217.653 64.3491 217.581 64.0956 217.454C63.8421 217.327 63.6179 217.149 63.4374 216.931C63.2569 216.712 63.1241 216.459 63.0476 216.186C60.8266 207.538 67.651 202.024 65.2954 196.362ZM67.301 230.173C65.8069 226.555 67.301 223.731 70.6257 222.386C73.9504 221.041 76.9924 221.942 78.4865 225.56C78.8344 226.302 79.0282 227.106 79.056 227.924C79.0839 228.742 78.9453 229.558 78.6487 230.321C78.352 231.084 77.9035 231.779 77.3302 232.364C76.7569 232.949 76.0708 233.412 75.3134 233.724C74.556 234.037 73.743 234.192 72.9237 234.181C72.1043 234.171 71.2957 233.994 70.5466 233.662C69.7976 233.33 69.1237 232.85 68.5659 232.25C68.008 231.651 67.5777 230.944 67.301 230.173V230.173Z" fill="#8969E2"/>
<path d="M66.4672 195.797C65.0269 192.327 61.6215 191.157 57.8257 192.73C56.3816 193.307 55.0946 194.217 54.0699 195.385C53.0452 196.554 52.3119 197.949 51.9301 199.455C51.7964 199.963 51.4707 200.4 51.0213 200.674C50.572 200.947 50.0341 201.036 49.5207 200.921L44.2308 199.684C43.7257 199.57 43.2839 199.266 42.9979 198.835C42.7119 198.404 42.6039 197.879 42.6963 197.37C43.9077 191.103 47.8247 185.911 54.9855 182.966C63.7213 179.361 71.7436 181.621 75.1759 189.973C79.5236 200.504 71.8378 205.83 73.2107 212.568C73.3112 213.025 73.2459 213.504 73.0265 213.917C72.8072 214.331 72.4479 214.654 72.0128 214.828L66.8979 216.939C66.634 217.046 66.3504 217.095 66.0659 217.084C65.7814 217.073 65.5025 217.001 65.2478 216.874C64.9932 216.747 64.7685 216.567 64.5889 216.346C64.4092 216.126 64.2786 215.869 64.2058 215.594C61.9983 207.013 68.8227 201.499 66.4672 195.797ZM68.4458 229.649C66.9517 226.031 68.5266 223.22 71.784 221.875C75.0413 220.53 78.1372 221.418 79.6313 225.036C79.9792 225.777 80.1729 226.581 80.2008 227.399C80.2287 228.218 80.0901 229.033 79.7935 229.796C79.4968 230.559 79.0483 231.255 78.475 231.84C77.9017 232.425 77.2156 232.887 76.4582 233.2C75.7008 233.512 74.8878 233.668 74.0684 233.657C73.2491 233.646 72.4404 233.47 71.6914 233.138C70.9424 232.806 70.2685 232.325 69.7107 231.726C69.1528 231.126 68.7225 230.419 68.4458 229.649V229.649Z" fill="#A694EA"/>
<path d="M355.701 498.516C356.051 487.694 356.948 476.795 358.393 465.82C359.833 454.832 361.812 443.79 364.315 432.762C366.819 421.733 369.78 410.893 373.307 400.012C376.833 389.132 380.925 378.036 385.502 367.169C390.078 356.302 395.139 345.542 400.698 334.89C401.385 333.545 402.044 332.2 402.785 330.923C402.898 330.714 402.959 330.481 402.962 330.244C402.966 330.007 402.912 329.773 402.804 329.561C402.697 329.349 402.54 329.167 402.347 329.029C402.154 328.892 401.93 328.803 401.694 328.771C400.591 328.569 399.877 330.425 399.366 331.38C393.645 342.14 387.965 351.729 383.214 362.65C378.462 373.571 374.343 384.398 370.682 395.345C367.021 406.293 363.75 417.604 361.071 428.754C358.393 439.903 356.32 450.838 354.745 461.839C353.17 472.841 352.134 483.816 351.649 494.696C351.649 496.041 351.542 497.386 351.501 498.731C351.472 498.968 351.497 499.208 351.576 499.433C351.655 499.658 351.785 499.862 351.955 500.029C352.126 500.196 352.333 500.321 352.56 500.394C352.787 500.468 353.028 500.488 353.264 500.453C354.274 500.453 355.62 499.511 355.66 498.543L355.701 498.516Z" fill="#88B4FF"/>
<path d="M398.424 335.267C399.972 328.637 401.21 322.436 404.938 316.747C406.851 314.275 409.281 312.251 412.059 310.816C413.176 310.211 414.926 310.063 415.37 311.246C415.484 311.656 415.484 312.088 415.37 312.497C414.656 316.467 413.125 320.245 410.874 323.593C407.334 328.489 402.542 330.856 398.41 335.267" fill="#88B4FF"/>
<path d="M394.386 342.826C390.173 337.271 386.081 332.227 384.048 325.557C383.355 322.434 383.355 319.197 384.048 316.075C384.317 314.81 385.394 313.385 386.565 313.748C386.966 313.918 387.311 314.198 387.561 314.555C390.218 317.702 392.193 321.366 393.363 325.314C394.911 331.313 393.632 336.625 394.413 342.799" fill="#88B4FF"/>
<path d="M393.659 343.404C399.662 339.84 405.127 336.356 411.991 335.079C415.171 334.737 418.387 335.095 421.414 336.128C422.652 336.531 423.998 337.715 423.446 338.885C423.227 339.261 422.911 339.572 422.531 339.786C419.082 342.074 415.195 343.622 411.116 344.332C404.992 345.193 399.837 343.323 393.618 343.404" fill="#88B4FF"/>
<path d="M384.291 363.686C379.728 357.674 375.313 352.213 373.105 345.004C372.365 341.619 372.365 338.114 373.105 334.729C373.401 333.384 374.451 331.757 375.797 332.214C376.228 332.403 376.601 332.705 376.874 333.088C379.753 336.52 381.893 340.507 383.16 344.803C384.829 351.285 383.443 357.042 384.277 363.632" fill="#88B4FF"/>
<path d="M383.429 363.537C389.93 359.691 395.853 355.912 403.283 354.54C406.725 354.169 410.207 354.555 413.485 355.67C414.832 356.1 416.285 357.391 415.68 358.655C415.449 359.063 415.108 359.399 414.697 359.624C410.963 362.101 406.756 363.777 402.34 364.546C395.704 365.474 390.145 363.457 383.429 363.537" fill="#88B4FF"/>
<path d="M373.791 389.818C367.963 382.125 362.31 375.158 359.496 365.932C358.366 362.247 358.689 356.584 359.496 352.805C359.86 351.057 361.287 349.012 362.983 349.591C363.519 349.842 363.983 350.226 364.329 350.707C368.028 355.085 370.778 360.182 372.405 365.676C374.545 373.974 372.782 381.331 373.845 389.818" fill="#88B4FF"/>
<path d="M373.63 390.759C381.935 385.837 389.5 381.008 399.003 379.247C402.785 378.547 408.425 379.502 412.059 380.699C413.755 381.251 415.626 382.891 414.859 384.519C414.558 385.039 414.12 385.467 413.594 385.756C408.821 388.917 403.445 391.055 397.805 392.037C389.325 393.234 382.204 390.692 373.576 390.759" fill="#88B4FF"/>
<path d="M366.119 414.861C359.658 407.692 353.439 401.223 349.845 392.266C348.405 388.688 348.244 383.012 348.701 379.193C348.917 377.417 350.168 375.252 351.905 375.696C352.476 375.887 352.983 376.231 353.372 376.691C357.412 380.742 360.565 385.588 362.633 390.921C365.473 398.99 364.342 406.482 366.119 414.861" fill="#88B4FF"/>
<path d="M366.119 415.802C373.98 410.194 381.114 404.747 390.348 402.191C394.076 401.169 399.77 401.64 403.485 402.527C405.235 402.944 407.24 404.424 406.608 406.105C406.345 406.646 405.946 407.109 405.45 407.45C400.988 410.986 395.848 413.572 390.348 415.049C381.989 416.945 374.68 414.982 366.119 415.802Z" fill="#88B4FF"/>
<path d="M360.103 440.495C354.503 434.994 349.146 430.045 345.808 423.011C344.522 419.652 343.989 416.053 344.246 412.467C344.327 411.001 345.229 409.198 346.669 409.467C347.142 409.597 347.57 409.852 347.908 410.207C351.383 413.299 354.179 417.077 356.118 421.303C358.811 427.718 358.245 433.838 360.157 440.549" fill="#88B4FF"/>
<path d="M360.076 441.262C366.187 436.339 371.706 431.578 379.136 429.05C382.621 428.156 386.259 428.032 389.796 428.687C391.237 428.929 392.932 430.032 392.488 431.377C392.306 431.83 392.004 432.225 391.613 432.52C388.153 435.626 384.082 437.976 379.661 439.419C372.931 441.369 366.941 440.132 360.062 441.208" fill="#88B4FF"/>
<path d="M356.455 462.66C351.448 458.437 346.683 454.657 343.439 448.968C342.159 446.254 341.488 443.294 341.474 440.293C341.474 439.083 342.093 437.523 343.304 437.604C343.704 437.678 344.076 437.859 344.381 438.128C347.466 440.481 350.028 443.449 351.905 446.843C354.597 452.008 354.476 457.146 356.455 462.606" fill="#88B4FF"/>
<path d="M356.481 463.305C361.246 458.827 365.54 454.509 371.557 451.927C374.399 450.966 377.417 450.636 380.4 450.959C381.612 451.066 383.092 451.873 382.823 453.07C382.705 453.46 382.481 453.809 382.177 454.079C379.489 456.873 376.254 459.084 372.674 460.575C367.29 462.619 362.135 461.92 356.522 463.265" fill="#88B4FF"/>
<path d="M354.005 481.153C349.603 478.086 345.417 475.369 342.335 470.972C341.072 468.855 340.295 466.485 340.06 464.032C339.952 463.036 340.356 461.718 341.406 461.732C341.736 461.767 342.052 461.887 342.321 462.081C345.026 463.768 347.35 465.999 349.146 468.631C351.703 472.666 352.039 476.849 354.059 481.153" fill="#88B4FF"/>
<path d="M354.005 481.677C357.558 477.642 360.735 473.796 365.446 471.227C367.698 470.223 370.141 469.718 372.607 469.748C373.603 469.748 374.882 470.299 374.747 471.294C374.683 471.624 374.524 471.928 374.29 472.168C372.312 474.664 369.837 476.72 367.021 478.207C362.727 480.292 358.528 480.157 354.005 481.677" fill="#88B4FF"/>
<path d="M421.764 410.637C421.764 410.449 421.764 410.261 421.764 410.073C429.478 403.035 437.963 396.89 447.056 391.754C463.868 382.192 482.349 375.817 501.166 371.352C517.216 367.546 533.555 365.085 550.014 363.995C540.592 372.925 535.571 378.251 528.397 385.514C524.693 389.27 521.299 393.318 518.247 397.618C512.594 396.093 507.031 394.252 501.584 392.104L515.125 402.137C507.331 413.933 500.965 426.857 493.063 438.666C491.583 437.98 490.129 437.321 488.675 436.501C484.839 434.497 481.016 432.197 476.723 431.565C479.241 437.545 482.131 443.362 485.378 448.982C463.262 475.221 425.654 493.661 391.856 495.059C385.637 482.955 387.387 468.161 391.856 455.195C394.89 446.345 399.081 437.933 404.32 430.179C406.973 426.261 409.877 422.519 413.015 418.976C415.492 423.02 418.027 427.028 420.62 431C421.68 424.267 422.063 417.446 421.764 410.637V410.637Z" fill="#A694EA"/>
<path d="M501.153 371.352C515.839 367.875 530.77 365.523 545.814 364.318C538.465 366.174 531.748 369.845 525.233 373.732C517.709 378.157 510.077 382.394 502.351 386.563C476.157 400.739 453.302 421.168 432.21 442.338C416.273 458.329 402.247 476.755 394.682 494.952L391.802 495.113C385.583 483.009 387.333 468.214 391.802 455.249C394.836 446.398 399.027 437.987 404.266 430.233C406.919 426.315 409.823 422.572 412.961 419.03C415.438 423.074 417.973 427.082 420.566 431.054C421.64 424.323 422.037 417.501 421.751 410.691C421.751 410.503 421.751 410.315 421.751 410.126C429.465 403.089 437.949 396.944 447.043 391.808C463.855 382.192 482.336 375.817 501.153 371.352Z" fill="#8969E2"/>
<path d="M396.727 486.761C402.282 478.503 408.187 470.492 414.441 462.727C420.696 454.962 427.278 447.471 434.187 440.253C441.088 433.08 448.289 426.171 455.791 419.527C463.293 412.883 471.033 406.607 479.01 400.698C487.032 394.754 495.297 389.163 503.804 383.927L506.981 381.99C507.654 381.587 508.327 382.622 507.627 383.026C499.093 388.145 490.797 393.624 482.739 399.461C474.68 405.298 466.896 411.458 459.385 417.94C451.865 424.441 444.624 431.278 437.66 438.451C430.697 445.624 424.083 452.976 417.82 460.508C411.493 468.174 405.513 476.096 399.877 484.273L397.791 487.339C397.36 487.985 396.283 487.339 396.727 486.761V486.761Z" fill="white"/>
<path d="M411.979 466.278C420.119 463.88 428.522 462.489 437.001 462.135C439.37 462.028 441.739 462.014 444.108 462.135C444.889 462.135 444.916 463.373 444.108 463.346C435.733 463.12 427.361 463.92 419.18 465.726C416.865 466.237 414.567 466.829 412.288 467.501C412.211 467.524 412.131 467.53 412.051 467.521C411.972 467.512 411.895 467.488 411.825 467.449C411.755 467.41 411.693 467.358 411.643 467.296C411.594 467.233 411.557 467.161 411.534 467.085C411.512 467.008 411.506 466.927 411.515 466.848C411.524 466.768 411.548 466.692 411.587 466.622C411.626 466.552 411.678 466.49 411.74 466.44C411.803 466.39 411.875 466.353 411.952 466.331L411.979 466.278Z" fill="white"/>
<path d="M458.281 417.524C466.045 414.237 474.181 411.911 482.51 410.597C484.879 410.234 487.275 409.938 489.671 409.723C490.451 409.656 490.478 410.879 489.671 410.947C481.309 411.677 473.068 413.43 465.133 416.165C462.898 416.927 460.7 417.77 458.537 418.694C458.382 418.736 458.216 418.715 458.076 418.638C457.935 418.56 457.83 418.43 457.783 418.277C457.761 418.2 457.754 418.119 457.762 418.04C457.771 417.96 457.796 417.883 457.835 417.813C457.873 417.743 457.926 417.681 457.989 417.632C458.051 417.582 458.123 417.545 458.201 417.524H458.281Z" fill="white"/>
<path d="M430.904 443.938C431.55 438.828 432.416 433.757 433.502 428.727C434.587 423.697 435.889 418.703 437.405 413.744C438.253 410.974 439.182 408.217 440.164 405.5C440.206 405.347 440.304 405.216 440.439 405.133C440.575 405.051 440.736 405.023 440.891 405.056C440.969 405.075 441.043 405.109 441.108 405.157C441.172 405.204 441.227 405.264 441.268 405.333C441.31 405.402 441.337 405.478 441.348 405.558C441.36 405.637 441.356 405.718 441.335 405.796C439.599 410.638 438.051 415.547 436.732 420.509C435.413 425.472 434.282 430.556 433.38 435.64C432.878 438.491 432.429 441.356 432.034 444.234C431.99 444.388 431.889 444.52 431.752 444.602C431.614 444.684 431.451 444.711 431.294 444.678C431.14 444.634 431.009 444.533 430.926 444.396C430.844 444.258 430.816 444.095 430.85 443.938H430.904Z" fill="white"/>
<path d="M419.274 497.48C424.335 493.248 429.638 489.236 435.184 485.443C440.729 481.65 446.531 478.064 452.588 474.684C458.546 471.384 464.716 468.318 471.096 465.484C477.53 462.646 484.152 460.037 490.95 457.71C497.747 455.384 504.666 453.312 511.759 451.51L514.451 450.851C514.588 450.815 514.714 450.748 514.819 450.655C514.925 450.562 515.007 450.445 515.06 450.314C515.112 450.184 515.133 450.042 515.121 449.902C515.109 449.762 515.064 449.626 514.99 449.506C514.64 448.928 513.496 449.358 512.863 449.506C505.689 451.255 499.012 452.6 492.148 454.886C485.283 457.172 478.687 459.674 472.226 462.458C465.766 465.242 459.332 468.335 453.18 471.644C447.029 474.953 441.241 478.436 435.615 482.188C429.988 485.941 424.591 489.908 419.462 494.091L417.564 495.665C417.45 495.753 417.357 495.866 417.293 495.995C417.229 496.124 417.196 496.267 417.196 496.411C417.196 496.555 417.229 496.698 417.293 496.827C417.357 496.957 417.45 497.07 417.564 497.158C417.796 497.398 418.099 497.558 418.429 497.614C418.758 497.669 419.097 497.618 419.395 497.467L419.274 497.48Z" fill="#5595F2"/>
<path d="M510.669 450.703C514.303 448.713 517.614 446.763 521.706 446.144C523.602 446.006 525.504 446.286 527.279 446.964C528.006 447.22 528.786 447.96 528.423 448.645C528.288 448.862 528.097 449.038 527.871 449.157C525.776 450.436 523.439 451.27 521.006 451.604C517.345 451.994 514.344 450.784 510.669 450.703" fill="#5595F2"/>
<path d="M505.581 451.9C506.402 447.744 507.035 443.831 509.229 440.226C510.364 438.644 511.829 437.327 513.523 436.366C514.209 435.976 515.3 435.842 515.596 436.568C515.673 436.822 515.673 437.094 515.596 437.348C515.241 439.836 514.37 442.223 513.038 444.355C510.952 447.489 508.018 449.062 505.541 451.9" fill="#5595F2"/>
<path d="M505.029 451.82C509.067 453.097 512.877 454.16 516.242 456.755C517.676 458.062 518.81 459.664 519.566 461.449C519.889 462.176 519.903 463.265 519.136 463.494C518.88 463.56 518.611 463.56 518.355 463.494C515.907 462.86 513.616 461.729 511.625 460.172C508.744 457.737 507.506 454.657 504.962 451.873" fill="#5595F2"/>
<path d="M492.026 455.801C492.915 451.295 493.601 447.085 495.984 443.158C497.212 441.449 498.796 440.027 500.627 438.989C501.368 438.559 502.539 438.424 502.875 439.204C502.95 439.482 502.95 439.774 502.875 440.051C502.483 442.744 501.539 445.326 500.103 447.637C497.841 451.026 494.718 452.734 492.026 455.801Z" fill="#5595F2"/>
<path d="M491.758 455.357C496.132 456.702 500.238 457.885 503.872 460.736C505.439 462.147 506.679 463.882 507.506 465.82C507.843 466.6 507.856 467.784 507.035 468.026C506.757 468.099 506.465 468.099 506.187 468.026C503.556 467.332 501.096 466.105 498.959 464.422C495.85 461.732 494.504 458.45 491.758 455.451" fill="#5595F2"/>
<path d="M475.914 461.638C477.045 455.881 477.92 450.488 480.962 445.498C482.525 443.29 484.556 441.453 486.911 440.119C487.853 439.567 489.348 439.392 489.778 440.388C489.872 440.74 489.872 441.111 489.778 441.464C489.275 444.908 488.07 448.213 486.238 451.174C483.344 455.505 479.293 457.684 475.86 461.611" fill="#5595F2"/>
<path d="M475.43 461.947C481.029 463.709 486.279 465.175 490.936 468.766C492.929 470.573 494.508 472.789 495.566 475.262C495.997 476.271 496.01 477.777 494.974 478.086C494.615 478.158 494.244 478.135 493.897 478.019C490.525 477.136 487.372 475.565 484.637 473.406C480.666 470.044 478.956 465.78 475.43 461.947Z" fill="#5595F2"/>
<path d="M461.472 468.322C462.104 462.485 462.522 457.051 465.119 451.793C466.504 449.483 468.373 447.501 470.598 445.982C471.486 445.35 472.967 445.041 473.478 445.982C473.616 446.323 473.666 446.693 473.626 447.058C473.421 450.529 472.504 453.921 470.934 457.024C468.404 461.57 464.554 464.099 461.512 468.295" fill="#5595F2"/>
<path d="M461.001 468.672C466.735 470.017 472.092 470.971 477.032 474.159C479.177 475.786 480.941 477.86 482.201 480.238C482.712 481.207 482.86 482.713 481.838 483.103C481.485 483.197 481.113 483.197 480.761 483.103C477.332 482.514 474.063 481.218 471.164 479.297C466.91 476.284 464.837 472.169 461.001 468.645" fill="#5595F2"/>
<path d="M447.379 475.961C447.608 471.2 447.689 466.775 449.546 462.377C450.555 460.437 451.974 458.739 453.705 457.401C454.392 456.85 455.59 456.527 456.047 457.28C456.176 457.548 456.231 457.845 456.209 458.141C456.214 460.969 455.632 463.767 454.499 466.358C452.682 470.178 449.667 472.411 447.379 475.961Z" fill="#5595F2"/>
<path d="M447.029 476.271C451.727 477.037 456.128 477.615 460.288 479.942C462.102 481.167 463.63 482.768 464.77 484.636C465.241 485.389 465.429 486.6 464.622 486.963C464.343 487.071 464.04 487.099 463.747 487.044C460.938 486.728 458.225 485.835 455.778 484.421C452.185 482.175 450.3 478.947 447.029 476.271" fill="#5595F2"/>
<path d="M435.843 483.291C435.736 479.324 435.507 475.625 436.772 471.859C437.489 470.178 438.564 468.672 439.922 467.448C440.46 466.95 441.429 466.6 441.86 467.206C441.986 467.417 442.051 467.659 442.048 467.905C442.23 470.26 441.923 472.627 441.147 474.858C439.881 478.14 437.526 480.238 435.843 483.291" fill="#5595F2"/>
<path d="M435.56 483.573C439.598 483.91 443.233 484.098 446.84 485.793C448.435 486.683 449.814 487.914 450.878 489.397C451.322 489.989 451.551 490.998 450.878 491.347C450.652 491.454 450.4 491.496 450.151 491.468C447.793 491.386 445.478 490.813 443.354 489.787C440.218 488.16 438.454 485.591 435.547 483.573" fill="#5595F2"/>
<path d="M426.435 489.653C426.045 486.411 425.573 483.412 426.327 480.238C426.78 478.81 427.538 477.498 428.548 476.392C428.965 475.934 429.719 475.585 430.123 476.042C430.241 476.209 430.316 476.403 430.338 476.607C430.662 478.515 430.594 480.469 430.136 482.35C429.342 485.134 427.579 486.99 426.435 489.653" fill="#5595F2"/>
<path d="M426.232 489.895C429.405 489.637 432.598 489.961 435.655 490.85C437.025 491.476 438.243 492.394 439.222 493.54C439.625 493.997 439.895 494.79 439.383 495.14C439.206 495.237 439.007 495.288 438.804 495.288C436.873 495.4 434.939 495.112 433.124 494.441C430.432 493.338 428.79 491.374 426.273 489.949" fill="#5595F2"/>
<path d="M274.145 253.911C274.145 259.291 271.911 263.608 269.138 263.608C266.365 263.608 264.131 259.264 264.131 253.911C264.131 248.559 266.379 244.201 269.138 244.201C271.897 244.201 274.145 248.545 274.145 253.911Z" fill="#FFA42F"/>
<path d="M278.843 250.495V258.135H268.344C268.017 256.774 267.854 255.378 267.86 253.979C267.858 252.809 267.97 251.643 268.196 250.495H278.843Z" fill="#FF7A03"/>
<path d="M286.071 253.912C286.071 261.981 282.693 268.531 278.52 268.531C274.347 268.531 270.969 261.981 270.969 253.912C270.969 245.842 274.347 239.279 278.52 239.279C282.693 239.279 286.071 245.828 286.071 253.912Z" fill="#FCC13F"/>
<path d="M288.05 253.912C288.05 261.981 284.671 268.531 280.499 268.531C276.326 268.531 272.961 261.981 272.961 253.912C272.961 245.842 276.339 239.279 280.499 239.279C284.658 239.279 288.05 245.828 288.05 253.912Z" fill="#FEE2BF"/>
</g>
<defs>
<clipPath id="clip0_1019_31">
<rect width="550" height="516" fill="white"/>
</clipPath>
</defs>
</svg>
