<svg width="166" height="166" viewBox="0 0 166 166" fill="none" xmlns="http://www.w3.org/2000/svg">
<path d="M165.644 82.9049C165.644 128.406 128.758 165.291 83.2574 165.291C37.7567 165.291 0.871094 128.406 0.871094 82.9049C0.871094 37.4042 37.7567 0.518555 83.2574 0.518555C128.758 0.518555 165.644 37.4042 165.644 82.9049Z" fill="#B6D2F2"/>
<path d="M77.465 22.9636L73.4219 22.9917L73.4532 27.0251L77.4963 26.9971L77.465 22.9636Z" fill="black"/>
<path d="M81.5066 22.9358L77.4648 22.9639L77.4962 26.9973L81.538 26.9692L81.5066 22.9358Z" fill="black"/>
<path d="M85.5496 22.907L81.5078 22.9351L81.5392 26.9685L85.5809 26.9404L85.5496 22.907Z" fill="black"/>
<path d="M89.5938 22.8787L85.5508 22.9067L85.5821 26.9402L89.6252 26.9121L89.5938 22.8787Z" fill="black"/>
<path d="M93.6356 22.8508L89.5938 22.8789L89.6251 26.9124L93.6669 26.8843L93.6356 22.8508Z" fill="black"/>
<path d="M73.4559 27.0256L69.4141 27.0537L69.4454 31.0859L73.4872 31.0578L73.4559 27.0256Z" fill="black"/>
<path d="M77.4962 26.9978L73.4531 27.0259L73.4845 31.058L77.5276 31.03L77.4962 26.9978Z" fill="#B6D2F2"/>
<path d="M97.7059 26.8582L93.6641 26.8862L93.6954 30.9184L97.7372 30.8903L97.7059 26.8582Z" fill="black"/>
<path d="M73.4871 31.0579L69.4453 31.0859L69.4767 35.1181L73.5185 35.09L73.4871 31.0579Z" fill="black"/>
<path d="M77.5274 31.0276L73.4844 31.0557L73.5157 35.0878L77.5588 35.0597L77.5274 31.0276Z" fill="#B6D2F2"/>
<path d="M97.7371 30.8899L93.6953 30.918L93.7267 34.9501L97.7685 34.9221L97.7371 30.8899Z" fill="black"/>
<path d="M77.5587 35.0618L73.5156 35.0898L73.547 39.1233L77.59 39.0952L77.5587 35.0618Z" fill="black"/>
<path d="M81.6004 35.0335L77.5586 35.0615L77.5899 39.095L81.6317 39.0669L81.6004 35.0335Z" fill="#B6D2F2"/>
<path d="M85.6433 35.0056L81.6016 35.0337L81.6329 39.0671L85.6747 39.0391L85.6433 35.0056Z" fill="#B6D2F2"/>
<path d="M93.7293 34.949L89.6875 34.9771L89.7189 39.0105L93.7607 38.9824L93.7293 34.949Z" fill="black"/>
<path d="M77.5899 39.0945L73.5469 39.1226L73.5782 43.1547L77.6213 43.1267L77.5899 39.0945Z" fill="black"/>
<path d="M93.7605 38.9827L89.7188 39.0107L89.7501 43.0429L93.7919 43.0148L93.7605 38.9827Z" fill="black"/>
<path d="M73.5808 43.1555L69.5391 43.1836L69.5704 47.2158L73.6122 47.1877L73.5808 43.1555Z" fill="black"/>
<path d="M77.6212 43.1287L73.5781 43.1567L73.6095 47.1889L77.6525 47.1608L77.6212 43.1287Z" fill="#ABCFED"/>
<path d="M81.6629 43.0989L77.6211 43.127L77.6524 47.1591L81.6942 47.1311L81.6629 43.0989Z" fill="#ABCFED"/>
<path d="M85.7058 43.0706L81.6641 43.0986L81.6954 47.1308L85.7372 47.1027L85.7058 43.0706Z" fill="#ABCFED"/>
<path d="M89.7501 43.0437L85.707 43.0718L85.7384 47.1039L89.7815 47.0759L89.7501 43.0437Z" fill="#ABCFED"/>
<path d="M97.8347 42.9856L93.793 43.0137L93.8243 47.0458L97.8661 47.0178L97.8347 42.9856Z" fill="black"/>
<path d="M45.3191 47.3831L41.2773 47.4111L41.3087 51.4433L45.3505 51.4152L45.3191 47.3831Z" fill="black"/>
<path d="M49.3595 47.3562L45.3164 47.3843L45.3478 51.4164L49.3908 51.3883L49.3595 47.3562Z" fill="black"/>
<path d="M53.4011 47.3274L49.3594 47.3555L49.3907 51.3876L53.4325 51.3596L53.4011 47.3274Z" fill="black"/>
<path d="M57.4441 47.2991L53.4023 47.3271L53.4337 51.3593L57.4755 51.3312L57.4441 47.2991Z" fill="black"/>
<path d="M61.4845 47.2722L57.4414 47.3003L57.4728 51.3324L61.5158 51.3044L61.4845 47.2722Z" fill="black"/>
<path d="M65.5262 47.2424L61.4844 47.2705L61.5157 51.3027L65.5575 51.2746L65.5262 47.2424Z" fill="black"/>
<path d="M69.5691 47.2146L65.5273 47.2427L65.5587 51.2748L69.6005 51.2468L69.5691 47.2146Z" fill="black"/>
<path d="M73.6121 47.1873L69.5703 47.2153L69.6017 51.2475L73.6434 51.2194L73.6121 47.1873Z" fill="#B6D2F2"/>
<path d="M101.906 46.9914L97.8633 47.0195L97.8946 51.0517L101.938 51.0236L101.906 46.9914Z" fill="black"/>
<path d="M105.948 46.9612L101.906 46.9893L101.938 51.0214L105.979 50.9934L105.948 46.9612Z" fill="black"/>
<path d="M109.991 46.9338L105.949 46.9619L105.981 50.9941L110.022 50.966L109.991 46.9338Z" fill="black"/>
<path d="M114.034 46.907L109.992 46.9351L110.024 50.9672L114.065 50.9392L114.034 46.907Z" fill="black"/>
<path d="M118.074 46.8777L114.031 46.9058L114.063 50.9379L118.106 50.9098L118.074 46.8777Z" fill="black"/>
<path d="M122.116 46.8508L118.074 46.8789L118.106 50.9111L122.147 50.883L122.116 46.8508Z" fill="black"/>
<path d="M126.159 46.822L122.117 46.8501L122.149 50.8823L126.19 50.8542L126.159 46.822Z" fill="black"/>
<path d="M41.3074 51.4451L37.2656 51.4731L37.297 55.5066L41.3388 55.4785L41.3074 51.4451Z" fill="black"/>
<path d="M45.3465 51.4163L41.3047 51.4443L41.336 55.4778L45.3778 55.4497L45.3465 51.4163Z" fill="#B6D2F2"/>
<path d="M49.3907 51.3879L45.3477 51.416L45.379 55.4495L49.4221 55.4214L49.3907 51.3879Z" fill="#B6D2F2"/>
<path d="M53.4324 51.3601L49.3906 51.3882L49.422 55.4216L53.4638 55.3936L53.4324 51.3601Z" fill="#B6D2F2"/>
<path d="M57.4754 51.3333L53.4336 51.3613L53.4649 55.3948L57.5067 55.3667L57.4754 51.3333Z" fill="#B6D2F2"/>
<path d="M61.5197 51.3035L57.4766 51.3315L57.5079 55.365L61.551 55.3369L61.5197 51.3035Z" fill="#B6D2F2"/>
<path d="M65.5574 51.2761L61.5156 51.3042L61.547 55.3376L65.5888 55.3096L65.5574 51.2761Z" fill="#B6D2F2"/>
<path d="M69.6004 51.2473L65.5586 51.2754L65.5899 55.3088L69.6317 55.2808L69.6004 51.2473Z" fill="#B6D2F2"/>
<path d="M130.235 50.8264L126.191 50.8545L126.223 54.8879L130.266 54.8599L130.235 50.8264Z" fill="black"/>
<path d="M37.297 55.5061L33.2539 55.5342L33.2853 59.5663L37.3283 59.5383L37.297 55.5061Z" fill="black"/>
<path d="M41.3387 55.4763L37.2969 55.5044L37.3282 59.5365L41.37 59.5085L41.3387 55.4763Z" fill="#B6D2F2"/>
<path d="M134.303 54.8308L130.262 54.8589L130.293 58.891L134.335 58.863L134.303 54.8308Z" fill="black"/>
<path d="M33.284 59.5671L29.2422 59.5952L29.2735 63.6274L33.3153 63.5993L33.284 59.5671Z" fill="black"/>
<path d="M37.3282 59.5378L33.2852 59.5659L33.3165 63.5981L37.3596 63.57L37.3282 59.5378Z" fill="#B6D2F2"/>
<path d="M114.128 59.0046L110.086 59.0327L110.117 63.0649L114.159 63.0368L114.128 59.0046Z" fill="#B6D2F2"/>
<path d="M118.168 58.9753L114.125 59.0034L114.156 63.0356L118.199 63.0075L118.168 58.9753Z" fill="#B6D2F2"/>
<path d="M122.21 58.9485L118.168 58.9766L118.199 63.0087L122.241 62.9806L122.21 58.9485Z" fill="#B6D2F2"/>
<path d="M138.378 58.8367L134.336 58.8647L134.367 62.8969L138.409 62.8688L138.378 58.8367Z" fill="black"/>
<path d="M29.2761 63.6257L25.2344 63.6538L25.2657 67.6873L29.3075 67.6592L29.2761 63.6257Z" fill="black"/>
<path d="M33.3152 63.5989L29.2734 63.627L29.3048 67.6604L33.3466 67.6323L33.3152 63.5989Z" fill="#B6D2F2"/>
<path d="M122.241 62.9802L118.199 63.0083L118.231 67.0417L122.272 67.0137L122.241 62.9802Z" fill="#B6D2F2"/>
<path d="M126.284 62.9529L122.242 62.981L122.274 67.0144L126.315 66.9863L126.284 62.9529Z" fill="#B6D2F2"/>
<path d="M142.453 62.8406L138.41 62.8687L138.442 66.9021L142.485 66.874L142.453 62.8406Z" fill="black"/>
<path d="M29.3035 67.6599L25.2617 67.688L25.2931 71.7201L29.3348 71.6921L29.3035 67.6599Z" fill="black"/>
<path d="M33.3465 67.6296L29.3047 67.6577L29.336 71.6899L33.3778 71.6618L33.3465 67.6296Z" fill="#B6D2F2"/>
<path d="M126.315 66.9856L122.273 67.0137L122.305 71.0458L126.347 71.0178L126.315 66.9856Z" fill="#B6D2F2"/>
<path d="M138.44 66.9016L134.398 66.9297L134.43 70.9619L138.472 70.9338L138.44 66.9016Z" fill="#E52C2C"/>
<path d="M142.485 66.8723L138.441 66.9004L138.473 70.9326L142.516 70.9045L142.485 66.8723Z" fill="black"/>
<path d="M29.3347 71.6921L25.293 71.7202L25.3243 75.7524L29.3661 75.7243L29.3347 71.6921Z" fill="black"/>
<path d="M33.3777 71.6638L29.3359 71.6919L29.3673 75.7241L33.4091 75.696L33.3777 71.6638Z" fill="#B6D2F2"/>
<path d="M69.7566 71.4109L65.7148 71.439L65.7462 75.4711L69.788 75.443L69.7566 71.4109Z" fill="#AA0F0F"/>
<path d="M73.7957 71.3806L69.7539 71.4087L69.7852 75.4409L73.827 75.4128L73.7957 71.3806Z" fill="#AA0F0F"/>
<path d="M77.8439 71.3562L73.8008 71.3843L73.8321 75.4164L77.8752 75.3884L77.8439 71.3562Z" fill="#AA0F0F"/>
<path d="M81.8816 71.3274L77.8398 71.3555L77.8712 75.3876L81.913 75.3596L81.8816 71.3274Z" fill="#AA0F0F"/>
<path d="M85.9246 71.2971L81.8828 71.3252L81.9142 75.3573L85.9559 75.3293L85.9246 71.2971Z" fill="#AA0F0F"/>
<path d="M89.9688 71.2703L85.9258 71.2983L85.9571 75.3305L90.0002 75.3024L89.9688 71.2703Z" fill="#AA0F0F"/>
<path d="M94.0105 71.2434L89.9688 71.2715L90.0001 75.3036L94.0419 75.2756L94.0105 71.2434Z" fill="#AA0F0F"/>
<path d="M98.0535 71.2131L94.0117 71.2412L94.0431 75.2734L98.0849 75.2453L98.0535 71.2131Z" fill="#AA0F0F"/>
<path d="M102.094 71.1853L98.0508 71.2134L98.0821 75.2455L102.125 75.2175L102.094 71.1853Z" fill="#AA0F0F"/>
<path d="M126.346 71.0183L122.305 71.0464L122.336 75.0786L126.378 75.0505L126.346 71.0183Z" fill="#B6D2F2"/>
<path d="M130.391 70.9895L126.348 71.0176L126.379 75.0497L130.422 75.0217L130.391 70.9895Z" fill="#B6D2F2"/>
<path d="M134.432 70.9617L130.391 70.9897L130.422 75.0219L134.464 74.9938L134.432 70.9617Z" fill="#E52C2C"/>
<path d="M138.471 70.9334L134.43 70.9614L134.461 74.9936L138.503 74.9655L138.471 70.9334Z" fill="#E52C2C"/>
<path d="M142.516 70.9045L138.473 70.9326L138.504 74.9648L142.547 74.9367L142.516 70.9045Z" fill="black"/>
<path d="M29.366 75.7224L25.3242 75.7505L25.3556 79.7839L29.3973 79.7558L29.366 75.7224Z" fill="black"/>
<path d="M33.409 75.6956L29.3672 75.7236L29.3985 79.7571L33.4403 79.729L33.409 75.6956Z" fill="#B6D2F2"/>
<path d="M37.4532 75.6653L33.4102 75.6934L33.4415 79.7268L37.4846 79.6987L37.4532 75.6653Z" fill="#E52C2C"/>
<path d="M41.4949 75.6384L37.4531 75.6665L37.4845 79.6999L41.5262 79.6719L41.4949 75.6384Z" fill="#E52C2C"/>
<path d="M53.6199 75.5549L49.5781 75.583L49.6095 79.6165L53.6513 79.5884L53.6199 75.5549Z" fill="#AA0F0F"/>
<path d="M57.6629 75.5271L53.6211 75.5552L53.6524 79.5886L57.6942 79.5606L57.6629 75.5271Z" fill="#AA0F0F"/>
<path d="M61.7032 75.4988L57.6602 75.5269L57.6915 79.5603L61.7346 79.5322L61.7032 75.4988Z" fill="#AA0F0F"/>
<path d="M65.7488 75.4695L61.707 75.4976L61.7384 79.531L65.7802 79.5029L65.7488 75.4695Z" fill="#AA0F0F"/>
<path d="M69.7879 75.4431L65.7461 75.4712L65.7775 79.5046L69.8192 79.4765L69.7879 75.4431Z" fill="#AA0F0F"/>
<path d="M73.8309 75.4148L69.7891 75.4429L69.8204 79.4763L73.8622 79.4482L73.8309 75.4148Z" fill="#AA0F0F"/>
<path d="M77.8751 75.385L73.832 75.4131L73.8634 79.4465L77.9065 79.4185L77.8751 75.385Z" fill="#AA0F0F"/>
<path d="M81.9168 75.3601L77.875 75.3882L77.9064 79.4216L81.9482 79.3936L81.9168 75.3601Z" fill="#AA0F0F"/>
<path d="M85.9558 75.3303L81.9141 75.3584L81.9454 79.3919L85.9872 79.3638L85.9558 75.3303Z" fill="#AA0F0F"/>
<path d="M90.0001 75.301L85.957 75.3291L85.9884 79.3626L90.0314 79.3345L90.0001 75.301Z" fill="#AA0F0F"/>
<path d="M94.0418 75.2752L90 75.3032L90.0314 79.3367L94.0731 79.3086L94.0418 75.2752Z" fill="#AA0F0F"/>
<path d="M98.0848 75.2459L94.043 75.2739L94.0743 79.3074L98.1161 79.2793L98.0848 75.2459Z" fill="#AA0F0F"/>
<path d="M102.125 75.219L98.082 75.2471L98.1134 79.2805L102.156 79.2524L102.125 75.219Z" fill="#AA0F0F"/>
<path d="M106.167 75.1902L102.125 75.2183L102.156 79.2517L106.198 79.2236L106.167 75.1902Z" fill="#AA0F0F"/>
<path d="M110.21 75.1614L106.168 75.1895L106.199 79.2229L110.241 79.1948L110.21 75.1614Z" fill="#AA0F0F"/>
<path d="M114.253 75.134L110.211 75.1621L110.242 79.1956L114.284 79.1675L114.253 75.134Z" fill="#AA0F0F"/>
<path d="M118.293 75.1062L114.25 75.1343L114.281 79.1677L118.324 79.1396L118.293 75.1062Z" fill="#AA0F0F"/>
<path d="M122.335 75.0769L118.293 75.105L118.324 79.1384L122.366 79.1104L122.335 75.0769Z" fill="#AA0F0F"/>
<path d="M126.378 75.0505L122.336 75.0786L122.367 79.1121L126.409 79.084L126.378 75.0505Z" fill="#AA0F0F"/>
<path d="M130.422 75.0222L126.379 75.0503L126.41 79.0837L130.453 79.0556L130.422 75.0222Z" fill="#B6D2F2"/>
<path d="M134.46 74.9924L130.418 75.0205L130.449 79.0539L134.491 79.0259L134.46 74.9924Z" fill="#E52C2C"/>
<path d="M138.507 74.9656L134.465 74.9937L134.496 79.0271L138.538 78.999L138.507 74.9656Z" fill="#CC0909"/>
<path d="M142.547 74.9373L138.504 74.9653L138.535 78.9988L142.578 78.9707L142.547 74.9373Z" fill="black"/>
<path d="M29.4012 79.7566L25.3594 79.7847L25.3907 83.8168L29.4325 83.7888L29.4012 79.7566Z" fill="black"/>
<path d="M33.4402 79.7288L29.3984 79.7568L29.4298 83.789L33.4716 83.7609L33.4402 79.7288Z" fill="#B6D2F2"/>
<path d="M37.4845 79.6999L33.4414 79.728L33.4728 83.7602L37.5158 83.7321L37.4845 79.6999Z" fill="#CC0909"/>
<path d="M41.5261 79.6726L37.4844 79.7007L37.5157 83.7328L41.5575 83.7048L41.5261 79.6726Z" fill="#E52C2C"/>
<path d="M45.5691 79.6448L41.5273 79.6729L41.5587 83.705L45.6005 83.6769L45.5691 79.6448Z" fill="#E52C2C"/>
<path d="M49.6095 79.6169L45.5664 79.645L45.5978 83.6772L49.6408 83.6491L49.6095 79.6169Z" fill="#E52C2C"/>
<path d="M53.6512 79.5881L49.6094 79.6162L49.6407 83.6483L53.6825 83.6203L53.6512 79.5881Z" fill="#E52C2C"/>
<path d="M57.6941 79.5588L53.6523 79.5869L53.6837 83.6191L57.7255 83.591L57.6941 79.5588Z" fill="#AA0F0F"/>
<path d="M61.7345 79.5305L57.6914 79.5586L57.7227 83.5908L61.7658 83.5627L61.7345 79.5305Z" fill="#AA0F0F"/>
<path d="M65.7801 79.5042L61.7383 79.5322L61.7696 83.5644L65.8114 83.5363L65.7801 79.5042Z" fill="#AA0F0F"/>
<path d="M69.8191 79.4773L65.7773 79.5054L65.8087 83.5375L69.8505 83.5094L69.8191 79.4773Z" fill="#E52C2C"/>
<path d="M73.8621 79.447L69.8203 79.4751L69.8517 83.5072L73.8934 83.4792L73.8621 79.447Z" fill="#E52C2C"/>
<path d="M77.9025 79.4192L73.8594 79.4473L73.8907 83.4794L77.9338 83.4513L77.9025 79.4192Z" fill="#E52C2C"/>
<path d="M81.948 79.3918L77.9062 79.4199L77.9376 83.4521L81.9794 83.424L81.948 79.3918Z" fill="#E52C2C"/>
<path d="M85.9871 79.3621L81.9453 79.3901L81.9767 83.4223L86.0184 83.3942L85.9871 79.3621Z" fill="#E52C2C"/>
<path d="M90.0313 79.3352L85.9883 79.3633L86.0196 83.3954L90.0627 83.3674L90.0313 79.3352Z" fill="#E52C2C"/>
<path d="M94.0731 79.3069L90.0312 79.335L90.0626 83.3671L94.1044 83.339L94.0731 79.3069Z" fill="#E52C2C"/>
<path d="M98.1121 79.2781L94.0703 79.3062L94.1017 83.3383L98.1435 83.3102L98.1121 79.2781Z" fill="#E52C2C"/>
<path d="M102.16 79.2502L98.1172 79.2783L98.1485 83.3105L102.192 83.2824L102.16 79.2502Z" fill="#E52C2C"/>
<path d="M106.198 79.2219L102.156 79.25L102.188 83.2821L106.229 83.2541L106.198 79.2219Z" fill="#AA0F0F"/>
<path d="M110.241 79.1951L106.199 79.2231L106.231 83.2553L110.272 83.2272L110.241 79.1951Z" fill="#AA0F0F"/>
<path d="M114.284 79.1672L110.242 79.1953L110.274 83.2275L114.315 83.1994L114.284 79.1672Z" fill="#AA0F0F"/>
<path d="M118.324 79.1384L114.281 79.1665L114.313 83.1987L118.356 83.1706L118.324 79.1384Z" fill="#AA0F0F"/>
<path d="M122.37 79.1111L118.328 79.1392L118.359 83.1713L122.401 83.1433L122.37 79.1111Z" fill="#AA0F0F"/>
<path d="M126.409 79.0823L122.367 79.1104L122.399 83.1425L126.44 83.1144L126.409 79.0823Z" fill="#AA0F0F"/>
<path d="M130.453 79.0535L126.41 79.0815L126.442 83.1137L130.485 83.0856L130.453 79.0535Z" fill="#B6D2F2"/>
<path d="M134.495 79.0266L130.453 79.0547L130.484 83.0868L134.526 83.0588L134.495 79.0266Z" fill="#E52C2C"/>
<path d="M138.538 78.9983L134.496 79.0264L134.527 83.0585L138.569 83.0305L138.538 78.9983Z" fill="#CC0909"/>
<path d="M142.578 78.9695L138.535 78.9976L138.566 83.0297L142.61 83.0016L142.578 78.9695Z" fill="black"/>
<path d="M29.4285 83.7874L25.3867 83.8154L25.4181 87.8476L29.4599 87.8195L29.4285 83.7874Z" fill="black"/>
<path d="M33.4715 83.7615L29.4297 83.7896L29.461 87.8217L33.5028 87.7936L33.4715 83.7615Z" fill="#B6D2F2"/>
<path d="M37.5157 83.7336L33.4727 83.7617L33.504 87.7939L37.5471 87.7658L37.5157 83.7336Z" fill="#CC0909"/>
<path d="M41.5574 83.7039L37.5156 83.7319L37.547 87.7641L41.5887 87.736L41.5574 83.7039Z" fill="#CC0909"/>
<path d="M45.5965 83.6765L41.5547 83.7046L41.586 87.7367L45.6278 87.7087L45.5965 83.6765Z" fill="#CC0909"/>
<path d="M49.6407 83.6487L45.5977 83.6768L45.629 87.7089L49.6721 87.6808L49.6407 83.6487Z" fill="#CC0909"/>
<path d="M53.6824 83.6194L49.6406 83.6475L49.672 87.6796L53.7138 87.6515L53.6824 83.6194Z" fill="#E52C2C"/>
<path d="M57.7254 83.5916L53.6836 83.6196L53.7149 87.6518L57.7567 87.6237L57.7254 83.5916Z" fill="#E52C2C"/>
<path d="M61.7696 83.5637L57.7266 83.5918L57.7579 87.6239L61.801 87.5959L61.7696 83.5637Z" fill="#E52C2C"/>
<path d="M65.8074 83.5349L61.7656 83.563L61.797 87.5952L65.8387 87.5671L65.8074 83.5349Z" fill="#E52C2C"/>
<path d="M69.8504 83.5076L65.8086 83.5356L65.8399 87.5678L69.8817 87.5398L69.8504 83.5076Z" fill="#E52C2C"/>
<path d="M73.8934 83.4788L69.8516 83.5068L69.8829 87.539L73.9247 87.5109L73.8934 83.4788Z" fill="#E52C2C"/>
<path d="M77.9376 83.4529L73.8945 83.481L73.9259 87.5131L77.969 87.485L77.9376 83.4529Z" fill="#CC0909"/>
<path d="M81.9793 83.4251L77.9375 83.4531L77.9688 87.4853L82.0106 87.4572L81.9793 83.4251Z" fill="#CC0909"/>
<path d="M86.0183 83.3948L81.9766 83.4229L82.0079 87.455L86.0497 87.4269L86.0183 83.3948Z" fill="#CC0909"/>
<path d="M90.0626 83.3679L86.0195 83.396L86.0509 87.4282L90.094 87.4001L90.0626 83.3679Z" fill="#CC0909"/>
<path d="M94.1043 83.3391L90.0625 83.3672L90.0938 87.3994L94.1356 87.3713L94.1043 83.3391Z" fill="#CC0909"/>
<path d="M98.1473 83.3113L94.1055 83.3394L94.1368 87.3715L98.1786 87.3435L98.1473 83.3113Z" fill="#CC0909"/>
<path d="M102.188 83.2844L98.1445 83.3125L98.1759 87.3447L102.219 87.3166L102.188 83.2844Z" fill="#E52C2C"/>
<path d="M106.233 83.2551L102.191 83.2832L102.223 87.3153L106.265 87.2873L106.233 83.2551Z" fill="#E52C2C"/>
<path d="M110.272 83.2268L106.23 83.2549L106.262 87.287L110.304 87.259L110.272 83.2268Z" fill="#E52C2C"/>
<path d="M114.315 83.199L110.273 83.2271L110.305 87.2592L114.347 87.2312L114.315 83.199Z" fill="#E52C2C"/>
<path d="M118.356 83.1702L114.312 83.1982L114.344 87.2304L118.387 87.2023L118.356 83.1702Z" fill="#E52C2C"/>
<path d="M122.397 83.1423L118.355 83.1704L118.387 87.2026L122.429 87.1745L122.397 83.1423Z" fill="#E52C2C"/>
<path d="M126.44 83.1155L122.398 83.1436L122.43 87.1757L126.472 87.1476L126.44 83.1155Z" fill="#E52C2C"/>
<path d="M130.484 83.0862L126.441 83.1143L126.473 87.1464L130.516 87.1183L130.484 83.0862Z" fill="#E52C2C"/>
<path d="M134.526 83.0584L130.484 83.0864L130.516 87.1186L134.557 87.0905L134.526 83.0584Z" fill="#E52C2C"/>
<path d="M138.569 83.0305L134.527 83.0586L134.559 87.0908L138.6 87.0627L138.569 83.0305Z" fill="#CC0909"/>
<path d="M142.609 83.0037L138.566 83.0317L138.598 87.0639L142.641 87.0358L142.609 83.0037Z" fill="black"/>
<path d="M29.4598 87.8206L25.418 87.8486L25.4493 91.882L29.4911 91.854L29.4598 87.8206Z" fill="black"/>
<path d="M33.5027 87.7927L29.4609 87.8208L29.4923 91.8543L33.5341 91.8262L33.5027 87.7927Z" fill="#B6D2F2"/>
<path d="M37.547 87.7644L33.5039 87.7925L33.5353 91.8259L37.5783 91.7978L37.547 87.7644Z" fill="#CC0909"/>
<path d="M41.5886 87.7366L37.5469 87.7646L37.5782 91.7981L41.62 91.77L41.5886 87.7366Z" fill="#CC0909"/>
<path d="M45.6316 87.7107L41.5898 87.7388L41.6212 91.7722L45.663 91.7442L45.6316 87.7107Z" fill="#CC0909"/>
<path d="M49.672 87.6809L45.6289 87.709L45.6603 91.7424L49.7034 91.7143L49.672 87.6809Z" fill="#CC0909"/>
<path d="M53.7137 87.6526L49.6719 87.6807L49.7032 91.7141L53.745 91.686L53.7137 87.6526Z" fill="#CC0909"/>
<path d="M57.7566 87.6257L53.7148 87.6538L53.7462 91.6873L57.788 91.6592L57.7566 87.6257Z" fill="#CC0909"/>
<path d="M61.8009 87.5955L57.7578 87.6235L57.7892 91.657L61.8322 91.6289L61.8009 87.5955Z" fill="#CC0909"/>
<path d="M65.8425 87.5676L61.8008 87.5957L61.8321 91.6292L65.8739 91.6011L65.8425 87.5676Z" fill="#CC0909"/>
<path d="M69.8816 87.5418L65.8398 87.5698L65.8712 91.6032L69.913 91.5752L69.8816 87.5418Z" fill="#CC0909"/>
<path d="M73.9246 87.5115L69.8828 87.5396L69.9142 91.573L73.956 91.5449L73.9246 87.5115Z" fill="#CC0909"/>
<path d="M77.9676 87.4846L73.9258 87.5127L73.9571 91.5462L77.999 91.5181L77.9676 87.4846Z" fill="#CC0909"/>
<path d="M82.0105 87.4558L77.9688 87.4839L78.0001 91.5173L82.0419 91.4893L82.0105 87.4558Z" fill="#CC0909"/>
<path d="M86.0496 87.4265L82.0078 87.4546L82.0392 91.488L86.0809 91.46L86.0496 87.4265Z" fill="#CC0909"/>
<path d="M90.0938 87.3997L86.0508 87.4277L86.0821 91.4599L90.1252 91.4318L90.0938 87.3997Z" fill="#CC0909"/>
<path d="M94.1356 87.3728L90.0938 87.4009L90.1251 91.433L94.1669 91.405L94.1356 87.3728Z" fill="#CC0909"/>
<path d="M98.1785 87.3425L94.1367 87.3706L94.1681 91.4028L98.2099 91.3747L98.1785 87.3425Z" fill="#CC0909"/>
<path d="M102.219 87.3152L98.1758 87.3433L98.2071 91.3754L102.25 91.3473L102.219 87.3152Z" fill="#CC0909"/>
<path d="M106.261 87.2883L102.219 87.3164L102.25 91.3486L106.292 91.3205L106.261 87.2883Z" fill="#CC0909"/>
<path d="M110.303 87.26L106.262 87.2881L106.293 91.3202L110.335 91.2922L110.303 87.26Z" fill="#CC0909"/>
<path d="M114.346 87.2307L110.305 87.2588L110.336 91.2909L114.378 91.2629L114.346 87.2307Z" fill="#CC0909"/>
<path d="M118.389 87.2039L114.348 87.2319L114.379 91.2641L118.421 91.236L118.389 87.2039Z" fill="#CC0909"/>
<path d="M122.429 87.1751L118.387 87.2031L118.418 91.2353L122.46 91.2072L122.429 87.1751Z" fill="#CC0909"/>
<path d="M126.471 87.1462L122.43 87.1743L122.461 91.2065L126.503 91.1784L126.471 87.1462Z" fill="#CC0909"/>
<path d="M130.516 87.1194L126.473 87.1475L126.504 91.1796L130.547 91.1515L130.516 87.1194Z" fill="#CC0909"/>
<path d="M134.557 87.092L130.516 87.1201L130.547 91.1523L134.589 91.1242L134.557 87.092Z" fill="#CC0909"/>
<path d="M138.6 87.0623L134.559 87.0903L134.59 91.1225L138.632 91.0944L138.6 87.0623Z" fill="#CC0909"/>
<path d="M142.641 87.0344L138.598 87.0625L138.629 91.0946L142.672 91.0666L142.641 87.0344Z" fill="black"/>
<path d="M138.628 91.094L134.586 91.1221L134.617 95.1555L138.659 95.1274L138.628 91.094Z" fill="black"/>
<path d="M134.589 91.1233L130.547 91.1514L130.578 95.1848L134.62 95.1567L134.589 91.1233Z" fill="#CC0909"/>
<path d="M130.547 91.1531L126.504 91.1812L126.535 95.2146L130.578 95.1865L130.547 91.1531Z" fill="#CC0909"/>
<path d="M126.503 91.179L122.461 91.207L122.492 95.2405L126.534 95.2124L126.503 91.179Z" fill="#CC0909"/>
<path d="M122.464 91.2068L118.422 91.2349L118.453 95.2683L122.495 95.2402L122.464 91.2068Z" fill="#CC0909"/>
<path d="M118.421 91.2361L114.379 91.2642L114.41 95.2976L118.452 95.2695L118.421 91.2361Z" fill="#CC0909"/>
<path d="M114.379 91.2629L110.336 91.291L110.367 95.3244L114.41 95.2964L114.379 91.2629Z" fill="#CC0909"/>
<path d="M110.335 91.2918L106.293 91.3198L106.324 95.3532L110.366 95.3252L110.335 91.2918Z" fill="#CC0909"/>
<path d="M106.292 91.3196L102.25 91.3477L102.281 95.3811L106.323 95.353L106.292 91.3196Z" fill="#CC0909"/>
<path d="M102.254 91.3479L98.2109 91.376L98.2423 95.4094L102.285 95.3813L102.254 91.3479Z" fill="#CC0909"/>
<path d="M98.2059 91.3757L94.1641 91.4038L94.1954 95.4373L98.2372 95.4092L98.2059 91.3757Z" fill="#CC0909"/>
<path d="M94.1668 91.4026L90.125 91.4307L90.1564 95.4641L94.1982 95.436L94.1668 91.4026Z" fill="#CC0909"/>
<path d="M90.1173 91.4483L86.0742 91.4771L86.1063 95.5092L90.1494 95.4804L90.1173 91.4483Z" fill="#CC0909"/>
<path d="M86.0808 91.4607L82.0391 91.4888L82.0704 95.5209L86.1121 95.4929L86.0808 91.4607Z" fill="#CC0909"/>
<path d="M82.0418 91.489L78 91.5171L78.0313 95.5492L82.0731 95.5211L82.0418 91.489Z" fill="#CC0909"/>
<path d="M77.9988 91.5178L73.957 91.5459L73.9884 95.5781L78.0301 95.55L77.9988 91.5178Z" fill="#CC0909"/>
<path d="M73.9572 91.5456L69.9141 91.5737L69.9454 95.6059L73.9885 95.5779L73.9572 91.5456Z" fill="#CC0909"/>
<path d="M69.9129 91.5725L65.8711 91.6006L65.9024 95.6327L69.9442 95.6047L69.9129 91.5725Z" fill="#CC0909"/>
<path d="M65.8738 91.6008L61.832 91.6289L61.8634 95.6611L65.9051 95.633L65.8738 91.6008Z" fill="#CC0909"/>
<path d="M61.8321 91.6296L57.7891 91.6577L57.8204 95.6899L61.8635 95.6618L61.8321 91.6296Z" fill="#CC0909"/>
<path d="M57.7879 91.658L53.7461 91.686L53.7774 95.7182L57.8192 95.6901L57.7879 91.658Z" fill="#CC0909"/>
<path d="M53.7449 91.6848L49.7031 91.7129L49.7345 95.745L53.7763 95.717L53.7449 91.6848Z" fill="#CC0909"/>
<path d="M49.7032 91.7126L45.6602 91.7407L45.6915 95.7729L49.7346 95.7448L49.7032 91.7126Z" fill="#CC0909"/>
<path d="M45.6629 91.742L41.6211 91.77L41.6524 95.8022L45.6942 95.7741L45.6629 91.742Z" fill="#CC0909"/>
<path d="M41.6199 91.7698L37.5781 91.7979L37.6095 95.83L41.6512 95.8019L41.6199 91.7698Z" fill="#CC0909"/>
<path d="M37.5782 91.7986L33.5352 91.8267L33.5665 95.8588L37.6096 95.8307L37.5782 91.7986Z" fill="#B6D2F2"/>
<path d="M33.534 91.8264L29.4922 91.8545L29.5235 95.8866L33.5653 95.8586L33.534 91.8264Z" fill="black"/>
<path d="M33.5691 95.8587L29.5273 95.8867L29.5587 99.9189L33.6005 99.8908L33.5691 95.8587Z" fill="black"/>
<path d="M37.6095 95.8303L33.5664 95.8584L33.5978 99.8906L37.6408 99.8625L37.6095 95.8303Z" fill="#B6D2F2"/>
<path d="M41.6511 95.8025L37.6094 95.8306L37.6407 99.8627L41.6825 99.8347L41.6511 95.8025Z" fill="#CC0909"/>
<path d="M45.6941 95.7747L41.6523 95.8027L41.6837 99.8349L45.7255 99.8068L45.6941 95.7747Z" fill="#CC0909"/>
<path d="M49.7345 95.7454L45.6914 95.7734L45.7228 99.8056L49.7658 99.7775L49.7345 95.7454Z" fill="#CC0909"/>
<path d="M53.7762 95.7185L49.7344 95.7466L49.7657 99.7787L53.8075 99.7507L53.7762 95.7185Z" fill="#CC0909"/>
<path d="M57.8191 95.6897L53.7773 95.7178L53.8087 99.7499L57.8505 99.7219L57.8191 95.6897Z" fill="#CC0909"/>
<path d="M61.8634 95.6604L57.8203 95.6885L57.8517 99.7206L61.8947 99.6925L61.8634 95.6604Z" fill="#CC0909"/>
<path d="M65.9051 95.6336L61.8633 95.6616L61.8946 99.6937L65.9364 99.6657L65.9051 95.6336Z" fill="#CC0909"/>
<path d="M69.9441 95.6067L65.9023 95.6348L65.9337 99.667L69.9755 99.6389L69.9441 95.6067Z" fill="#CC0909"/>
<path d="M73.9884 95.5764L69.9453 95.6045L69.9767 99.6367L74.0198 99.6086L73.9884 95.5764Z" fill="#CC0909"/>
<path d="M78.0301 95.5496L73.9883 95.5776L74.0196 99.6098L78.0614 99.5817L78.0301 95.5496Z" fill="#CC0909"/>
<path d="M82.0691 95.5217L78.0273 95.5498L78.0587 99.582L82.1005 99.5539L82.0691 95.5217Z" fill="#CC0909"/>
<path d="M86.1121 95.4949L82.0703 95.5229L82.1017 99.5551L86.1434 99.527L86.1121 95.4949Z" fill="#CC0909"/>
<path d="M90.1563 95.4646L86.1133 95.4927L86.1446 99.5249L90.1877 99.4968L90.1563 95.4646Z" fill="#CC0909"/>
<path d="M94.198 95.4377L90.1562 95.4658L90.1876 99.4979L94.2294 99.4699L94.198 95.4377Z" fill="#CC0909"/>
<path d="M98.241 95.4089L94.1992 95.437L94.2306 99.4692L98.2723 99.4411L98.241 95.4089Z" fill="#CC0909"/>
<path d="M102.281 95.3806L98.2383 95.4087L98.2696 99.4409L102.313 99.4128L102.281 95.3806Z" fill="#CC0909"/>
<path d="M106.323 95.3538L102.281 95.3818L102.313 99.4139L106.354 99.3859L106.323 95.3538Z" fill="#CC0909"/>
<path d="M110.366 95.3259L106.324 95.354L106.356 99.3861L110.397 99.3581L110.366 95.3259Z" fill="#CC0909"/>
<path d="M114.41 95.2961L110.367 95.3242L110.399 99.3564L114.442 99.3283L114.41 95.2961Z" fill="#CC0909"/>
<path d="M118.452 95.2688L114.41 95.2969L114.441 99.329L118.483 99.301L118.452 95.2688Z" fill="#CC0909"/>
<path d="M122.491 95.239L118.449 95.2671L118.481 99.2992L122.522 99.2712L122.491 95.239Z" fill="#CC0909"/>
<path d="M126.534 95.2117L122.492 95.2397L122.524 99.2719L126.565 99.2438L126.534 95.2117Z" fill="#CC0909"/>
<path d="M130.578 95.1853L126.535 95.2134L126.567 99.2455L130.61 99.2175L130.578 95.1853Z" fill="#CC0909"/>
<path d="M134.62 95.157L130.578 95.1851L130.609 99.2172L134.651 99.1891L134.62 95.157Z" fill="#CC0909"/>
<path d="M138.659 95.1292L134.617 95.1572L134.649 99.1894L138.69 99.1613L138.659 95.1292Z" fill="black"/>
<path d="M37.6407 99.8625L33.5977 99.8906L33.629 103.923L37.6721 103.895L37.6407 99.8625Z" fill="black"/>
<path d="M41.6824 99.8347L37.6406 99.8628L37.672 103.895L41.7137 103.867L41.6824 99.8347Z" fill="#B6D2F2"/>
<path d="M45.7254 99.8054L41.6836 99.8335L41.7149 103.866L45.7568 103.838L45.7254 99.8054Z" fill="#CC0909"/>
<path d="M49.7697 99.7786L45.7266 99.8066L45.7579 103.839L49.801 103.811L49.7697 99.7786Z" fill="#CC0909"/>
<path d="M53.8074 99.7507L49.7656 99.7788L49.797 103.811L53.8387 103.783L53.8074 99.7507Z" fill="#CC0909"/>
<path d="M57.8504 99.7224L53.8086 99.7505L53.8399 103.783L57.8817 103.755L57.8504 99.7224Z" fill="#CC0909"/>
<path d="M61.8946 99.6936L57.8516 99.7217L57.8829 103.754L61.926 103.726L61.8946 99.6936Z" fill="#CC0909"/>
<path d="M65.9363 99.6653L61.8945 99.6934L61.9259 103.726L65.9677 103.697L65.9363 99.6653Z" fill="#CC0909"/>
<path d="M69.9793 99.6365L65.9375 99.6646L65.9688 103.697L70.0106 103.669L69.9793 99.6365Z" fill="#CC0909"/>
<path d="M74.0197 99.6096L69.9766 99.6377L70.0079 103.67L74.051 103.642L74.0197 99.6096Z" fill="#CC0909"/>
<path d="M78.0613 99.5808L74.0195 99.6089L74.0509 103.641L78.0927 103.613L78.0613 99.5808Z" fill="#CC0909"/>
<path d="M82.1043 99.5535L78.0625 99.5815L78.0938 103.614L82.1356 103.586L82.1043 99.5535Z" fill="#CC0909"/>
<path d="M86.1472 99.5247L82.1055 99.5527L82.1368 103.585L86.1786 103.557L86.1472 99.5247Z" fill="#CC0909"/>
<path d="M90.1876 99.4968L86.1445 99.5249L86.1759 103.557L90.219 103.529L90.1876 99.4968Z" fill="#CC0909"/>
<path d="M94.2293 99.47L90.1875 99.498L90.2188 103.53L94.2606 103.502L94.2293 99.47Z" fill="#CC0909"/>
<path d="M98.2722 99.4417L94.2305 99.4697L94.2618 103.502L98.3036 103.474L98.2722 99.4417Z" fill="#CC0909"/>
<path d="M102.313 99.4128L98.2695 99.4409L98.3009 103.473L102.344 103.445L102.313 99.4128Z" fill="#CC0909"/>
<path d="M106.354 99.385L102.312 99.4131L102.344 103.445L106.386 103.417L106.354 99.385Z" fill="#CC0909"/>
<path d="M110.397 99.3567L106.355 99.3848L106.387 103.417L110.429 103.389L110.397 99.3567Z" fill="#CC0909"/>
<path d="M114.442 99.3298L110.398 99.3579L110.43 103.39L114.473 103.362L114.442 99.3298Z" fill="#CC0909"/>
<path d="M118.483 99.302L114.441 99.3301L114.473 103.362L118.515 103.334L118.483 99.302Z" fill="#CC0909"/>
<path d="M122.522 99.2732L118.48 99.3013L118.512 103.333L122.554 103.305L122.522 99.2732Z" fill="#CC0909"/>
<path d="M126.565 99.2449L122.523 99.2729L122.555 103.305L126.597 103.277L126.565 99.2449Z" fill="#CC0909"/>
<path d="M130.609 99.217L126.566 99.2451L126.598 103.277L130.641 103.249L130.609 99.217Z" fill="#CC0909"/>
<path d="M134.651 99.1878L130.609 99.2158L130.641 103.248L134.683 103.22L134.651 99.1878Z" fill="black"/>
<path d="M37.672 103.893L33.6289 103.921L33.6603 107.954L37.7033 107.926L37.672 103.893Z" fill="black"/>
<path d="M41.7136 103.866L37.6719 103.894L37.7032 107.927L41.745 107.899L41.7136 103.866Z" fill="#B6D2F2"/>
<path d="M45.7567 103.839L41.7148 103.867L41.7462 107.9L45.788 107.872L45.7567 103.839Z" fill="#CC0909"/>
<path d="M49.797 103.811L45.7539 103.839L45.7853 107.873L49.8284 107.845L49.797 103.811Z" fill="#CC0909"/>
<path d="M53.8387 103.781L49.7969 103.809L49.8282 107.843L53.87 107.814L53.8387 103.781Z" fill="#CC0909"/>
<path d="M57.8816 103.754L53.8398 103.782L53.8712 107.816L57.913 107.788L57.8816 103.754Z" fill="#CC0909"/>
<path d="M61.9259 103.726L57.8828 103.754L57.9142 107.788L61.9572 107.76L61.9259 103.726Z" fill="#CC0909"/>
<path d="M65.9676 103.697L61.9258 103.725L61.9571 107.759L65.9989 107.73L65.9676 103.697Z" fill="#CC0909"/>
<path d="M70.0066 103.669L65.9648 103.697L65.9962 107.731L70.038 107.703L70.0066 103.669Z" fill="#CC0909"/>
<path d="M74.0509 103.642L70.0078 103.67L70.0392 107.704L74.0822 107.676L74.0509 103.642Z" fill="#CC0909"/>
<path d="M78.0925 103.613L74.0508 103.641L74.0821 107.674L78.1239 107.646L78.0925 103.613Z" fill="#CC0909"/>
<path d="M82.1355 103.584L78.0938 103.612L78.1251 107.646L82.1669 107.618L82.1355 103.584Z" fill="#CC0909"/>
<path d="M86.1746 103.557L82.1328 103.585L82.1642 107.619L86.206 107.591L86.1746 103.557Z" fill="#CC0909"/>
<path d="M90.2189 103.529L86.1758 103.557L86.2071 107.59L90.2502 107.562L90.2189 103.529Z" fill="#CC0909"/>
<path d="M94.2606 103.503L90.2188 103.531L90.2501 107.564L94.2919 107.536L94.2606 103.503Z" fill="#CC0909"/>
<path d="M98.2996 103.474L94.2578 103.502L94.2892 107.535L98.3309 107.507L98.2996 103.474Z" fill="#CC0909"/>
<path d="M102.348 103.444L98.3047 103.472L98.336 107.505L102.379 107.477L102.348 103.444Z" fill="#CC0909"/>
<path d="M106.386 103.417L102.344 103.445L102.375 107.478L106.417 107.45L106.386 103.417Z" fill="#CC0909"/>
<path d="M110.429 103.39L106.387 103.418L106.418 107.451L110.46 107.423L110.429 103.39Z" fill="#CC0909"/>
<path d="M114.473 103.361L110.43 103.389L110.461 107.422L114.504 107.394L114.473 103.361Z" fill="#CC0909"/>
<path d="M118.514 103.332L114.473 103.36L114.504 107.393L118.546 107.365L118.514 103.332Z" fill="#CC0909"/>
<path d="M122.554 103.305L118.512 103.333L118.543 107.366L122.585 107.338L122.554 103.305Z" fill="#CC0909"/>
<path d="M126.596 103.276L122.555 103.304L122.586 107.337L126.628 107.309L126.596 103.276Z" fill="#CC0909"/>
<path d="M130.641 103.249L126.598 103.277L126.629 107.31L130.672 107.282L130.641 103.249Z" fill="#CC0909"/>
<path d="M134.682 103.222L130.641 103.25L130.672 107.283L134.714 107.255L134.682 103.222Z" fill="black"/>
<path d="M41.7449 107.899L37.7031 107.927L37.7345 111.959L41.7763 111.931L41.7449 107.899Z" fill="black"/>
<path d="M45.7879 107.87L41.7461 107.898L41.7774 111.931L45.8192 111.903L45.7879 107.87Z" fill="#B6D2F2"/>
<path d="M49.8282 107.844L45.7852 107.873L45.8165 111.905L49.8596 111.877L49.8282 107.844Z" fill="#CC0909"/>
<path d="M53.8699 107.816L49.8281 107.844L49.8595 111.876L53.9012 111.848L53.8699 107.816Z" fill="#CC0909"/>
<path d="M57.9129 107.787L53.8711 107.815L53.9024 111.848L57.9442 111.82L57.9129 107.787Z" fill="#CC0909"/>
<path d="M61.9532 107.76L57.9102 107.789L57.9415 111.821L61.9846 111.793L61.9532 107.76Z" fill="#CC0909"/>
<path d="M65.9949 107.731L61.9531 107.759L61.9845 111.791L66.0263 111.763L65.9949 107.731Z" fill="#CC0909"/>
<path d="M70.0418 107.702L66 107.73L66.0313 111.763L70.0731 111.735L70.0418 107.702Z" fill="#CC0909"/>
<path d="M74.0821 107.677L70.0391 107.705L70.0704 111.737L74.1135 111.709L74.0821 107.677Z" fill="#CC0909"/>
<path d="M78.1238 107.647L74.082 107.675L74.1134 111.707L78.1552 111.679L78.1238 107.647Z" fill="#CC0909"/>
<path d="M82.1668 107.62L78.125 107.648L78.1563 111.68L82.1981 111.652L82.1668 107.62Z" fill="#CC0909"/>
<path d="M86.2098 107.592L82.168 107.62L82.1993 111.652L86.2411 111.624L86.2098 107.592Z" fill="#CC0909"/>
<path d="M90.2501 107.562L86.207 107.59L86.2384 111.622L90.2814 111.594L90.2501 107.562Z" fill="#CC0909"/>
<path d="M94.2918 107.535L90.25 107.563L90.2813 111.595L94.3231 111.567L94.2918 107.535Z" fill="#CC0909"/>
<path d="M98.3347 107.507L94.293 107.535L94.3243 111.567L98.3661 111.539L98.3347 107.507Z" fill="#CC0909"/>
<path d="M102.375 107.479L98.332 107.507L98.3634 111.539L102.406 111.511L102.375 107.479Z" fill="#CC0909"/>
<path d="M106.421 107.45L102.379 107.479L102.41 111.511L106.452 111.483L106.421 107.45Z" fill="#CC0909"/>
<path d="M110.46 107.423L106.418 107.451L106.449 111.483L110.491 111.455L110.46 107.423Z" fill="#CC0909"/>
<path d="M114.504 107.393L110.461 107.421L110.492 111.453L114.535 111.425L114.504 107.393Z" fill="#CC0909"/>
<path d="M118.546 107.366L114.504 107.394L114.535 111.426L118.577 111.398L118.546 107.366Z" fill="#CC0909"/>
<path d="M122.589 107.336L118.547 107.364L118.578 111.396L122.62 111.368L122.589 107.336Z" fill="#CC0909"/>
<path d="M126.628 107.309L122.586 107.337L122.617 111.369L126.659 111.341L126.628 107.309Z" fill="#CC0909"/>
<path d="M130.672 107.282L126.629 107.31L126.66 111.342L130.703 111.314L130.672 107.282Z" fill="black"/>
<path d="M45.8152 111.905L41.7734 111.933L41.8048 115.965L45.8466 115.937L45.8152 111.905Z" fill="black"/>
<path d="M49.8634 111.877L45.8203 111.905L45.8517 115.937L49.8947 115.909L49.8634 111.877Z" fill="#B6D2F2"/>
<path d="M53.9051 111.847L49.8633 111.875L49.8946 115.907L53.9364 115.879L53.9051 111.847Z" fill="#CC0909"/>
<path d="M57.9441 111.819L53.9023 111.847L53.9337 115.879L57.9755 115.851L57.9441 111.819Z" fill="#CC0909"/>
<path d="M61.9884 111.792L57.9453 111.82L57.9766 115.853L62.0197 115.824L61.9884 111.792Z" fill="#CC0909"/>
<path d="M66.0301 111.762L61.9883 111.791L62.0196 115.823L66.0614 115.795L66.0301 111.762Z" fill="#CC0909"/>
<path d="M70.0731 111.735L66.0312 111.763L66.0626 115.795L70.1044 115.767L70.0731 111.735Z" fill="#CC0909"/>
<path d="M74.1134 111.708L70.0703 111.736L70.1017 115.768L74.1447 115.74L74.1134 111.708Z" fill="#CC0909"/>
<path d="M78.155 111.677L74.1133 111.706L74.1446 115.738L78.1864 115.71L78.155 111.677Z" fill="#CC0909"/>
<path d="M82.198 111.651L78.1562 111.679L78.1876 115.711L82.2294 115.683L82.198 111.651Z" fill="#CC0909"/>
<path d="M86.2371 111.623L82.1953 111.651L82.2267 115.684L86.2685 115.655L86.2371 111.623Z" fill="#CC0909"/>
<path d="M90.2814 111.593L86.2383 111.621L86.2696 115.653L90.3127 115.625L90.2814 111.593Z" fill="#CC0909"/>
<path d="M94.323 111.566L90.2812 111.594L90.3126 115.626L94.3544 115.598L94.323 111.566Z" fill="#CC0909"/>
<path d="M98.366 111.539L94.3242 111.567L94.3556 115.599L98.3973 115.571L98.366 111.539Z" fill="#CC0909"/>
<path d="M102.406 111.511L98.3633 111.54L98.3946 115.572L102.438 115.544L102.406 111.511Z" fill="#CC0909"/>
<path d="M106.452 111.483L102.41 111.511L102.441 115.543L106.483 115.515L106.452 111.483Z" fill="#CC0909"/>
<path d="M110.491 111.454L106.449 111.482L106.481 115.515L110.522 115.486L110.491 111.454Z" fill="#CC0909"/>
<path d="M114.535 111.427L110.492 111.455L110.524 115.487L114.567 115.459L114.535 111.427Z" fill="#CC0909"/>
<path d="M118.577 111.398L114.535 111.426L114.567 115.458L118.608 115.43L118.577 111.398Z" fill="#CC0909"/>
<path d="M122.616 111.372L118.574 111.4L118.606 115.432L122.647 115.404L122.616 111.372Z" fill="#CC0909"/>
<path d="M126.659 111.342L122.617 111.37L122.649 115.402L126.69 115.374L126.659 111.342Z" fill="black"/>
<path d="M49.8907 115.908L45.8477 115.936L45.879 119.969L49.9221 119.941L49.8907 115.908Z" fill="black"/>
<path d="M53.9324 115.881L49.8906 115.909L49.922 119.943L53.9638 119.915L53.9324 115.881Z" fill="#B6D2F2"/>
<path d="M57.9754 115.853L53.9336 115.881L53.9649 119.915L58.0067 119.887L57.9754 115.853Z" fill="#CC0909"/>
<path d="M62.0197 115.823L57.9766 115.852L58.0079 119.885L62.051 119.857L62.0197 115.823Z" fill="#910303"/>
<path d="M66.0613 115.796L62.0195 115.824L62.0509 119.858L66.0927 119.83L66.0613 115.796Z" fill="#CC0909"/>
<path d="M70.1004 115.768L66.0586 115.796L66.09 119.83L70.1317 119.802L70.1004 115.768Z" fill="#910303"/>
<path d="M74.1446 115.739L70.1016 115.768L70.1329 119.801L74.176 119.773L74.1446 115.739Z" fill="#CC0909"/>
<path d="M78.1863 115.71L74.1445 115.738L74.1759 119.772L78.2177 119.744L78.1863 115.71Z" fill="#910303"/>
<path d="M82.2293 115.683L78.1875 115.711L78.2189 119.745L82.2606 119.717L82.2293 115.683Z" fill="#CC0909"/>
<path d="M86.2684 115.655L82.2266 115.683L82.2579 119.716L86.2997 119.688L86.2684 115.655Z" fill="#CC0909"/>
<path d="M90.3126 115.628L86.2695 115.656L86.3009 119.689L90.344 119.661L90.3126 115.628Z" fill="#910303"/>
<path d="M94.3543 115.599L90.3125 115.627L90.3439 119.661L94.3856 119.633L94.3543 115.599Z" fill="#CC0909"/>
<path d="M98.3972 115.571L94.3555 115.599L94.3868 119.632L98.4286 119.604L98.3972 115.571Z" fill="#CC0909"/>
<path d="M102.441 115.543L98.3984 115.571L98.4298 119.604L102.473 119.576L102.441 115.543Z" fill="#910303"/>
<path d="M106.479 115.515L102.438 115.543L102.469 119.577L106.511 119.549L106.479 115.515Z" fill="#CC0909"/>
<path d="M110.526 115.487L106.484 115.515L106.516 119.548L110.558 119.52L110.526 115.487Z" fill="#CC0909"/>
<path d="M114.566 115.458L110.523 115.486L110.555 119.52L114.598 119.492L114.566 115.458Z" fill="#910303"/>
<path d="M118.608 115.431L114.566 115.459L114.598 119.492L118.64 119.464L118.608 115.431Z" fill="#CC0909"/>
<path d="M122.647 115.403L118.605 115.431L118.637 119.464L122.679 119.436L122.647 115.403Z" fill="black"/>
<path d="M53.9636 119.912L49.9219 119.94L49.9532 123.972L53.995 123.944L53.9636 119.912Z" fill="black"/>
<path d="M58.0066 119.884L53.9648 119.912L53.9962 123.944L58.038 123.916L58.0066 119.884Z" fill="#B6D2F2"/>
<path d="M62.0509 119.857L58.0078 119.885L58.0392 123.917L62.0822 123.889L62.0509 119.857Z" fill="#B6D2F2"/>
<path d="M66.0926 119.827L62.0508 119.855L62.0821 123.888L66.1239 123.86L66.0926 119.827Z" fill="#910303"/>
<path d="M70.1316 119.8L66.0898 119.828L66.1212 123.86L70.163 123.832L70.1316 119.8Z" fill="#CC0909"/>
<path d="M74.1759 119.773L70.1328 119.801L70.1642 123.833L74.2072 123.805L74.1759 119.773Z" fill="#910303"/>
<path d="M78.2175 119.743L74.1758 119.771L74.2071 123.804L78.2489 123.776L78.2175 119.743Z" fill="#CC0909"/>
<path d="M82.2606 119.717L78.2188 119.745L78.2501 123.777L82.2919 123.749L82.2606 119.717Z" fill="#910303"/>
<path d="M86.3035 119.689L82.2617 119.717L82.2931 123.749L86.3349 123.721L86.3035 119.689Z" fill="#910303"/>
<path d="M90.3438 119.659L86.3008 119.688L86.3321 123.72L90.3752 123.692L90.3438 119.659Z" fill="#CC0909"/>
<path d="M94.3855 119.631L90.3438 119.659L90.3751 123.691L94.4169 123.663L94.3855 119.631Z" fill="#910303"/>
<path d="M98.4285 119.605L94.3867 119.633L94.4181 123.665L98.4598 123.637L98.4285 119.605Z" fill="#CC0909"/>
<path d="M102.473 119.574L98.4297 119.603L98.461 123.635L102.504 123.607L102.473 119.574Z" fill="#CC0909"/>
<path d="M106.511 119.549L102.469 119.577L102.5 123.609L106.542 123.581L106.511 119.549Z" fill="#910303"/>
<path d="M110.553 119.519L106.512 119.547L106.543 123.58L110.585 123.551L110.553 119.519Z" fill="#910303"/>
<path d="M114.598 119.491L110.555 119.52L110.586 123.552L114.629 123.524L114.598 119.491Z" fill="#CC0909"/>
<path d="M118.639 119.463L114.598 119.491L114.629 123.523L118.671 123.495L118.639 119.463Z" fill="black"/>
<path d="M58.0379 123.917L53.9961 123.945L54.0274 127.977L58.0692 127.949L58.0379 123.917Z" fill="black"/>
<path d="M62.0822 123.889L58.0391 123.917L58.0704 127.949L62.1135 127.921L62.0822 123.889Z" fill="black"/>
<path d="M66.1238 123.861L62.082 123.889L62.1134 127.921L66.1552 127.893L66.1238 123.861Z" fill="#B6D2F2"/>
<path d="M70.1668 123.833L66.125 123.861L66.1563 127.893L70.1981 127.865L70.1668 123.833Z" fill="#910303"/>
<path d="M74.2071 123.804L70.1641 123.832L70.1954 127.864L74.2385 127.836L74.2071 123.804Z" fill="#910303"/>
<path d="M78.2488 123.776L74.207 123.804L74.2384 127.836L78.2801 127.808L78.2488 123.776Z" fill="#910303"/>
<path d="M82.2918 123.748L78.25 123.776L78.2813 127.809L82.3231 127.78L82.2918 123.748Z" fill="#910303"/>
<path d="M86.3348 123.719L82.293 123.747L82.3243 127.779L86.3661 127.751L86.3348 123.719Z" fill="#910303"/>
<path d="M90.3751 123.692L86.332 123.72L86.3634 127.752L90.4064 127.724L90.3751 123.692Z" fill="#910303"/>
<path d="M94.4168 123.664L90.375 123.692L90.4063 127.725L94.4481 127.696L94.4168 123.664Z" fill="#910303"/>
<path d="M98.4597 123.637L94.418 123.666L94.4493 127.698L98.4911 127.67L98.4597 123.637Z" fill="#910303"/>
<path d="M102.5 123.607L98.457 123.635L98.4884 127.667L102.531 127.639L102.5 123.607Z" fill="#910303"/>
<path d="M106.546 123.58L102.504 123.608L102.535 127.641L106.577 127.613L106.546 123.58Z" fill="#910303"/>
<path d="M110.585 123.553L106.543 123.582L106.574 127.614L110.616 127.586L110.585 123.553Z" fill="black"/>
<path d="M114.629 123.523L110.586 123.551L110.617 127.583L114.66 127.555L114.629 123.523Z" fill="black"/>
<path d="M66.155 127.893L62.1133 127.921L62.1446 131.955L66.1864 131.927L66.155 127.893Z" fill="black"/>
<path d="M70.1941 127.864L66.1523 127.892L66.1837 131.926L70.2255 131.897L70.1941 127.864Z" fill="#B6D2F2"/>
<path d="M74.2384 127.836L70.1953 127.864L70.2267 131.898L74.2697 131.87L74.2384 127.836Z" fill="#910303"/>
<path d="M78.2801 127.808L74.2383 127.836L74.2696 131.87L78.3114 131.842L78.2801 127.808Z" fill="#910303"/>
<path d="M82.323 127.781L78.2812 127.809L78.3126 131.842L82.3544 131.814L82.323 127.781Z" fill="#910303"/>
<path d="M86.366 127.752L82.3242 127.78L82.3556 131.814L86.3973 131.786L86.366 127.752Z" fill="#910303"/>
<path d="M90.4102 127.726L86.3672 127.754L86.3985 131.788L90.4416 131.76L90.4102 127.726Z" fill="#910303"/>
<path d="M94.448 127.696L90.4062 127.724L90.4376 131.758L94.4794 131.729L94.448 127.696Z" fill="#910303"/>
<path d="M98.491 127.667L94.4492 127.695L94.4806 131.729L98.5224 131.701L98.491 127.667Z" fill="#910303"/>
<path d="M102.535 127.642L98.4922 127.67L98.5235 131.704L102.567 131.676L102.535 127.642Z" fill="#910303"/>
<path d="M106.573 127.613L102.531 127.641L102.563 131.674L106.604 131.646L106.573 127.613Z" fill="black"/>
<path d="M70.2254 131.897L66.1836 131.925L66.2149 135.957L70.2567 135.929L70.2254 131.897Z" fill="black"/>
<path d="M74.2735 131.87L70.2305 131.898L70.2618 135.931L74.3049 135.903L74.2735 131.87Z" fill="#B6D2F2"/>
<path d="M78.3113 131.84L74.2695 131.868L74.3009 135.9L78.3427 135.872L78.3113 131.84Z" fill="#B6D2F2"/>
<path d="M82.3543 131.813L78.3125 131.841L78.3438 135.873L82.3856 135.845L82.3543 131.813Z" fill="#910303"/>
<path d="M86.3972 131.786L82.3555 131.814L82.3868 135.847L86.4286 135.819L86.3972 131.786Z" fill="#910303"/>
<path d="M90.4376 131.757L86.3945 131.785L86.4259 135.817L90.4689 135.789L90.4376 131.757Z" fill="#910303"/>
<path d="M94.4793 131.73L90.4375 131.758L90.4689 135.79L94.5106 135.762L94.4793 131.73Z" fill="#910303"/>
<path d="M98.5223 131.702L94.4805 131.73L94.5118 135.763L98.5536 135.735L98.5223 131.702Z" fill="black"/>
<path d="M102.567 131.673L98.5234 131.701L98.5548 135.733L102.598 135.705L102.567 131.673Z" fill="black"/>
<path d="M74.3009 135.901L70.2578 135.929L70.2892 139.961L74.3322 139.933L74.3009 135.901Z" fill="black"/>
<path d="M78.3426 135.875L74.3008 135.903L74.3321 139.936L78.3739 139.907L78.3426 135.875Z" fill="black"/>
<path d="M82.3856 135.845L78.3438 135.873L78.3751 139.905L82.4169 139.877L82.3856 135.845Z" fill="#B6D2F2"/>
<path d="M86.4285 135.819L82.3867 135.847L82.4181 139.879L86.4598 139.851L86.4285 135.819Z" fill="#910303"/>
<path d="M90.4688 135.79L86.4258 135.818L86.4571 139.85L90.5002 139.822L90.4688 135.79Z" fill="#910303"/>
<path d="M94.5105 135.762L90.4688 135.79L90.5001 139.822L94.5419 139.794L94.5105 135.762Z" fill="black"/>
<path d="M82.4168 139.878L78.375 139.906L78.4063 143.938L82.4481 143.91L82.4168 139.878Z" fill="black"/>
<path d="M86.4559 139.85L82.4141 139.878L82.4454 143.91L86.4872 143.882L86.4559 139.85Z" fill="black"/>
<path d="M90.5001 139.823L86.457 139.851L86.4884 143.883L90.5314 143.855L90.5001 139.823Z" fill="black"/>
</svg>
