<svg width="166" height="166" viewBox="0 0 166 166" fill="none" xmlns="http://www.w3.org/2000/svg">
<path d="M165.644 82.8746C165.644 128.375 128.758 165.261 83.2574 165.261C37.7567 165.261 0.871094 128.375 0.871094 82.8746C0.871094 37.3739 37.7567 0.488281 83.2574 0.488281C128.758 0.488281 165.644 37.3739 165.644 82.8746Z" fill="#B1A5FF" fill-opacity="0.25"/>
<g clip-path="url(#clip0_1312_13545)">
<path d="M45.3442 28.2583L42.1055 28.8047L42.6533 32.0352L45.892 31.4888L45.3442 28.2583Z" fill="black"/>
<path d="M48.5814 27.713L45.3438 28.2593L45.8915 31.4898L49.1292 30.9436L48.5814 27.713Z" fill="black"/>
<path d="M51.8197 27.1657L48.582 27.7119L49.1298 30.9425L52.3675 30.3962L51.8197 27.1657Z" fill="black"/>
<path d="M55.059 26.6196L51.8203 27.166L52.3681 30.3966L55.6068 29.8502L55.059 26.6196Z" fill="black"/>
<path d="M58.2924 26.0734L55.0547 26.6196L55.6025 29.8502L58.8401 29.304L58.2924 26.0734Z" fill="black"/>
<path d="M42.6517 32.0358L39.4141 32.582L39.9617 35.8115L43.1993 35.2653L42.6517 32.0358Z" fill="black"/>
<path d="M45.8911 31.4892L42.6523 32.0356L43.2 35.2652L46.4387 34.7188L45.8911 31.4892Z" fill="#B6D2F2"/>
<path d="M62.0775 28.758L58.8398 29.3042L59.3875 32.5337L62.6251 31.9875L62.0775 28.758Z" fill="black"/>
<path d="M43.1986 35.2658L39.9609 35.812L40.5085 39.0415L43.7462 38.4953L43.1986 35.2658Z" fill="black"/>
<path d="M46.4379 34.7178L43.1992 35.2642L43.7468 38.4937L46.9855 37.9473L46.4379 34.7178Z" fill="#B6D2F2"/>
<path d="M62.6283 31.9884L59.3906 32.5347L59.9382 35.7642L63.1759 35.2179L62.6283 31.9884Z" fill="black"/>
<path d="M46.9848 37.9492L43.7461 38.4956L44.2939 41.7261L47.5326 41.1797L46.9848 37.9492Z" fill="black"/>
<path d="M50.222 37.403L46.9844 37.9492L47.5322 41.1798L50.7698 40.6335L50.222 37.403Z" fill="#B6D2F2"/>
<path d="M53.4603 36.8556L50.2227 37.4019L50.7704 40.6324L54.0081 40.0862L53.4603 36.8556Z" fill="#B6D2F2"/>
<path d="M59.9369 35.7633L56.6992 36.3096L57.247 39.5401L60.4847 38.9939L59.9369 35.7633Z" fill="black"/>
<path d="M47.5316 41.1782L44.293 41.7246L44.8406 44.9541L48.0793 44.4077L47.5316 41.1782Z" fill="black"/>
<path d="M60.4838 38.9933L57.2461 39.5396L57.7937 42.7691L61.0314 42.2228L60.4838 38.9933Z" fill="black"/>
<path d="M44.8431 44.9547L41.6055 45.501L42.1531 48.7305L45.3907 48.1843L44.8431 44.9547Z" fill="black"/>
<path d="M48.0824 44.4087L44.8438 44.9551L45.3914 48.1846L48.63 47.6382L48.0824 44.4087Z" fill="#ABCFED"/>
<path d="M51.3197 43.862L48.082 44.4082L48.6296 47.6377L51.8673 47.0915L51.3197 43.862Z" fill="#ABCFED"/>
<path d="M54.558 43.3156L51.3203 43.8618L51.8679 47.0913L55.1056 46.5451L54.558 43.3156Z" fill="#ABCFED"/>
<path d="M57.7934 42.7695L54.5547 43.3159L55.1023 46.5454L58.341 45.999L57.7934 42.7695Z" fill="#ABCFED"/>
<path d="M64.2689 41.6769L61.0312 42.2231L61.5789 45.4527L64.8165 44.9064L64.2689 41.6769Z" fill="black"/>
<path d="M22.726 52.0075L19.4883 52.5537L20.0359 55.7832L23.2736 55.237L22.726 52.0075Z" fill="black"/>
<path d="M25.9613 51.4624L22.7227 52.0088L23.2703 55.2383L26.5089 54.6919L25.9613 51.4624Z" fill="black"/>
<path d="M29.2025 50.9152L25.9648 51.4614L26.5125 54.6909L29.7501 54.1447L29.2025 50.9152Z" fill="black"/>
<path d="M32.4369 50.3688L29.1992 50.915L29.7468 54.1446L32.9845 53.5983L32.4369 50.3688Z" fill="black"/>
<path d="M35.6762 49.8232L32.4375 50.3696L32.9851 53.5991L36.2238 53.0527L35.6762 49.8232Z" fill="black"/>
<path d="M38.9135 49.2765L35.6758 49.8228L36.2234 53.0523L39.4611 52.506L38.9135 49.2765Z" fill="black"/>
<path d="M42.1517 48.7296L38.9141 49.2759L39.4617 52.5054L42.6993 51.9592L42.1517 48.7296Z" fill="black"/>
<path d="M45.39 48.1842L42.1523 48.7305L42.7 51.96L45.9376 51.4138L45.39 48.1842Z" fill="#B6D2F2"/>
<path d="M68.0551 44.3608L64.8164 44.9072L65.364 48.1368L68.6027 47.5904L68.0551 44.3608Z" fill="black"/>
<path d="M71.2924 43.8131L68.0547 44.3594L68.6023 47.5889L71.84 47.0427L71.2924 43.8131Z" fill="black"/>
<path d="M74.5307 43.2682L71.293 43.8145L71.8406 47.044L75.0783 46.4977L74.5307 43.2682Z" fill="black"/>
<path d="M77.7689 42.7218L74.5312 43.2681L75.0789 46.4976L78.3165 45.9514L77.7689 42.7218Z" fill="black"/>
<path d="M81.0082 42.1743L77.7695 42.7207L78.3171 45.9502L81.5558 45.4038L81.0082 42.1743Z" fill="black"/>
<path d="M84.2455 41.6291L81.0078 42.1753L81.5554 45.4048L84.7931 44.8586L84.2455 41.6291Z" fill="black"/>
<path d="M87.4838 41.0832L84.2461 41.6294L84.7937 44.8589L88.0314 44.3127L87.4838 41.0832Z" fill="black"/>
<path d="M20.0346 55.7843L16.7969 56.3306L17.3447 59.5611L20.5823 59.0149L20.0346 55.7843Z" fill="black"/>
<path d="M23.2728 55.2375L20.0352 55.7837L20.5829 59.0142L23.8206 58.468L23.2728 55.2375Z" fill="#B6D2F2"/>
<path d="M26.5121 54.6904L23.2734 55.2368L23.8212 58.4674L27.0599 57.921L26.5121 54.6904Z" fill="#B6D2F2"/>
<path d="M29.7494 54.1452L26.5117 54.6914L27.0595 57.922L30.2972 57.3757L29.7494 54.1452Z" fill="#B6D2F2"/>
<path d="M32.9877 53.5998L29.75 54.146L30.2978 57.3765L33.5354 56.8303L32.9877 53.5998Z" fill="#B6D2F2"/>
<path d="M36.227 53.0517L32.9883 53.5981L33.5361 56.8287L36.7748 56.2823L36.227 53.0517Z" fill="#B6D2F2"/>
<path d="M39.4603 52.506L36.2227 53.0522L36.7704 56.2828L40.0081 55.7366L39.4603 52.506Z" fill="#B6D2F2"/>
<path d="M42.6986 51.9596L39.4609 52.5059L40.0087 55.7364L43.2464 55.1902L42.6986 51.9596Z" fill="#B6D2F2"/>
<path d="M91.27 43.7651L88.0312 44.3115L88.579 47.5421L91.8178 46.9957L91.27 43.7651Z" fill="black"/>
<path d="M17.3442 59.5605L14.1055 60.1069L14.6531 63.3364L17.8918 62.79L17.3442 59.5605Z" fill="black"/>
<path d="M20.5853 59.0138L17.3477 59.5601L17.8953 62.7896L21.1329 62.2433L20.5853 59.0138Z" fill="#B6D2F2"/>
<path d="M95.054 46.4499L91.8164 46.9961L92.364 50.2256L95.6016 49.6794L95.054 46.4499Z" fill="black"/>
<path d="M14.6556 63.3376L11.418 63.8838L11.9656 67.1133L15.2032 66.5671L14.6556 63.3376Z" fill="black"/>
<path d="M17.891 62.7895L14.6523 63.3359L15.2 66.5654L18.4387 66.019L17.891 62.7895Z" fill="#B6D2F2"/>
<path d="M79.4134 52.4108L76.1758 52.957L76.7234 56.1865L79.961 55.6403L79.4134 52.4108Z" fill="#B6D2F2"/>
<path d="M82.6528 51.8638L79.4141 52.4102L79.9617 55.6397L83.2004 55.0933L82.6528 51.8638Z" fill="#B6D2F2"/>
<path d="M85.89 51.3185L82.6523 51.8647L83.2 55.0943L86.4376 54.548L85.89 51.3185Z" fill="#B6D2F2"/>
<path d="M98.8392 49.1339L95.6016 49.6802L96.1492 52.9097L99.3868 52.3635L98.8392 49.1339Z" fill="black"/>
<path d="M11.9642 67.112L8.72656 67.6582L9.27435 70.8888L12.512 70.3425L11.9642 67.112Z" fill="black"/>
<path d="M15.2025 66.5661L11.9648 67.1123L12.5126 70.3428L15.7503 69.7966L15.2025 66.5661Z" fill="#B6D2F2"/>
<path d="M86.4369 54.547L83.1992 55.0933L83.747 58.3238L86.9847 57.7776L86.4369 54.547Z" fill="#B6D2F2"/>
<path d="M89.6752 54.0016L86.4375 54.5479L86.9853 57.7784L90.223 57.2321L89.6752 54.0016Z" fill="#B6D2F2"/>
<path d="M102.625 51.8169L99.3867 52.3633L99.9345 55.5938L103.173 55.0474L102.625 51.8169Z" fill="black"/>
<path d="M12.5111 70.3424L9.27344 70.8887L9.82105 74.1182L13.0587 73.572L12.5111 70.3424Z" fill="black"/>
<path d="M15.7494 69.796L12.5117 70.3423L13.0593 73.5718L16.297 73.0256L15.7494 69.796Z" fill="#B6D2F2"/>
<path d="M90.222 57.2326L86.9844 57.7788L87.532 61.0083L90.7696 60.4621L90.222 57.2326Z" fill="#B6D2F2"/>
<path d="M99.9369 55.5934L96.6992 56.1396L97.2468 59.3692L100.484 58.8229L99.9369 55.5934Z" fill="#E52C2C"/>
<path d="M103.172 55.0454L99.9336 55.5918L100.481 58.8213L103.72 58.2749L103.172 55.0454Z" fill="black"/>
<path d="M13.058 73.5724L9.82031 74.1187L10.3679 77.3481L13.6056 76.8019L13.058 73.5724Z" fill="black"/>
<path d="M16.2963 73.0255L13.0586 73.5718L13.6062 76.8013L16.8439 76.2551L16.2963 73.0255Z" fill="#B6D2F2"/>
<path d="M45.4369 68.1095L42.1992 68.6558L42.7468 71.8853L45.9845 71.339L45.4369 68.1095Z" fill="#AA0F0F"/>
<path d="M48.6751 67.5622L45.4375 68.1084L45.9851 71.3379L49.2228 70.7917L48.6751 67.5622Z" fill="#AA0F0F"/>
<path d="M51.9145 67.0171L48.6758 67.5635L49.2234 70.793L52.4621 70.2466L51.9145 67.0171Z" fill="#AA0F0F"/>
<path d="M55.1517 66.4713L51.9141 67.0176L52.4617 70.2471L55.6993 69.7009L55.1517 66.4713Z" fill="#AA0F0F"/>
<path d="M58.39 65.9235L55.1523 66.4697L55.7 69.6992L58.9376 69.153L58.39 65.9235Z" fill="#AA0F0F"/>
<path d="M61.6293 65.3779L58.3906 65.9243L58.9382 69.1538L62.1769 68.6074L61.6293 65.3779Z" fill="#AA0F0F"/>
<path d="M64.8665 64.8322L61.6289 65.3784L62.1765 68.6079L65.4142 68.0617L64.8665 64.8322Z" fill="#AA0F0F"/>
<path d="M68.1049 64.2848L64.8672 64.8311L65.4148 68.0606L68.6525 67.5143L68.1049 64.2848Z" fill="#AA0F0F"/>
<path d="M71.3442 63.7387L68.1055 64.2852L68.6531 67.5147L71.8918 66.9683L71.3442 63.7387Z" fill="#AA0F0F"/>
<path d="M90.7689 60.4616L87.5312 61.0078L88.0789 64.2373L91.3165 63.6911L90.7689 60.4616Z" fill="#B6D2F2"/>
<path d="M94.0082 59.915L90.7695 60.4614L91.3171 63.6909L94.5558 63.1445L94.0082 59.915Z" fill="#B6D2F2"/>
<path d="M97.2454 59.3688L94.0078 59.915L94.5554 63.1446L97.793 62.5983L97.2454 59.3688Z" fill="#E52C2C"/>
<path d="M100.484 58.8224L97.2461 59.3687L97.7937 62.5982L101.031 62.0519L100.484 58.8224Z" fill="#E52C2C"/>
<path d="M103.723 58.2759L100.484 58.8223L101.032 62.0518L104.271 61.5054L103.723 58.2759Z" fill="black"/>
<path d="M13.6048 76.8014L10.3672 77.3477L10.915 80.5782L14.1526 80.032L13.6048 76.8014Z" fill="black"/>
<path d="M16.8431 76.256L13.6055 76.8022L14.1533 80.0328L17.3909 79.4866L16.8431 76.256Z" fill="#B6D2F2"/>
<path d="M20.0825 75.7075L16.8438 76.2539L17.3915 79.4844L20.6302 78.938L20.0825 75.7075Z" fill="#E52C2C"/>
<path d="M23.3197 75.1623L20.082 75.7085L20.6298 78.939L23.8675 78.3928L23.3197 75.1623Z" fill="#E52C2C"/>
<path d="M33.0346 73.5236L29.7969 74.0698L30.3447 77.3004L33.5823 76.7541L33.0346 73.5236Z" fill="#AA0F0F"/>
<path d="M36.2728 72.9777L33.0352 73.5239L33.5829 76.7545L36.8206 76.2082L36.2728 72.9777Z" fill="#AA0F0F"/>
<path d="M39.5121 72.4311L36.2734 72.9775L36.8212 76.2081L40.0599 75.6617L39.5121 72.4311Z" fill="#AA0F0F"/>
<path d="M42.7494 71.8844L39.5117 72.4307L40.0595 75.6612L43.2972 75.115L42.7494 71.8844Z" fill="#AA0F0F"/>
<path d="M45.9876 71.339L42.75 71.8853L43.2978 75.1158L46.5354 74.5695L45.9876 71.339Z" fill="#AA0F0F"/>
<path d="M49.226 70.7926L45.9883 71.3389L46.5361 74.5694L49.7737 74.0232L49.226 70.7926Z" fill="#AA0F0F"/>
<path d="M52.4614 70.2456L49.2227 70.792L49.7704 74.0225L53.0092 73.4761L52.4614 70.2456Z" fill="#AA0F0F"/>
<path d="M55.6986 69.6999L52.4609 70.2461L53.0087 73.4767L56.2464 72.9304L55.6986 69.6999Z" fill="#AA0F0F"/>
<path d="M58.9369 69.1535L55.6992 69.6997L56.247 72.9303L59.4847 72.384L58.9369 69.1535Z" fill="#AA0F0F"/>
<path d="M62.1762 68.6069L58.9375 69.1533L59.4853 72.3839L62.724 71.8375L62.1762 68.6069Z" fill="#AA0F0F"/>
<path d="M65.4134 68.0607L62.1758 68.6069L62.7236 71.8375L65.9612 71.2913L65.4134 68.0607Z" fill="#AA0F0F"/>
<path d="M68.6517 67.5148L65.4141 68.061L65.9618 71.2916L69.1995 70.7453L68.6517 67.5148Z" fill="#AA0F0F"/>
<path d="M71.891 66.9687L68.6523 67.5151L69.2001 70.7457L72.4388 70.1993L71.891 66.9687Z" fill="#AA0F0F"/>
<path d="M75.1283 66.4225L71.8906 66.9688L72.4384 70.1993L75.6761 69.6531L75.1283 66.4225Z" fill="#AA0F0F"/>
<path d="M78.3666 65.8761L75.1289 66.4224L75.6767 69.6529L78.9144 69.1067L78.3666 65.8761Z" fill="#AA0F0F"/>
<path d="M81.6009 65.3302L78.3633 65.8765L78.9111 69.107L82.1487 68.5608L81.6009 65.3302Z" fill="#AA0F0F"/>
<path d="M84.8403 64.7832L81.6016 65.3296L82.1493 68.5601L85.3881 68.0137L84.8403 64.7832Z" fill="#AA0F0F"/>
<path d="M88.0775 64.237L84.8398 64.7832L85.3876 68.0138L88.6253 67.4675L88.0775 64.237Z" fill="#AA0F0F"/>
<path d="M91.3158 63.6916L88.0781 64.2378L88.6259 67.4683L91.8636 66.9221L91.3158 63.6916Z" fill="#AA0F0F"/>
<path d="M94.5551 63.1445L91.3164 63.6909L91.8642 66.9215L95.1029 66.3751L94.5551 63.1445Z" fill="#B6D2F2"/>
<path d="M97.7923 62.5983L94.5547 63.1445L95.1025 66.3751L98.3401 65.8288L97.7923 62.5983Z" fill="#E52C2C"/>
<path d="M101.031 62.0519L97.793 62.5981L98.3408 65.8287L101.578 65.2824L101.031 62.0519Z" fill="#CC0909"/>
<path d="M104.27 61.5054L101.031 62.0518L101.579 65.2823L104.818 64.7359L104.27 61.5054Z" fill="black"/>
<path d="M14.1556 80.0319L10.918 80.5781L11.4656 83.8077L14.7033 83.2614L14.1556 80.0319Z" fill="black"/>
<path d="M17.3939 79.4855L14.1562 80.0317L14.7039 83.2613L17.9415 82.715L17.3939 79.4855Z" fill="#B6D2F2"/>
<path d="M20.6332 78.9385L17.3945 79.4849L17.9421 82.7144L21.1808 82.168L20.6332 78.9385Z" fill="#CC0909"/>
<path d="M23.8666 78.3932L20.6289 78.9395L21.1765 82.169L24.4142 81.6227L23.8666 78.3932Z" fill="#E52C2C"/>
<path d="M27.1048 77.8463L23.8672 78.3926L24.4148 81.6221L27.6524 81.0759L27.1048 77.8463Z" fill="#E52C2C"/>
<path d="M30.3441 77.2998L27.1055 77.8462L27.6531 81.0757L30.8918 80.5293L30.3441 77.2998Z" fill="#E52C2C"/>
<path d="M33.5814 76.7546L30.3438 77.3008L30.8914 80.5303L34.129 79.984L33.5814 76.7546Z" fill="#E52C2C"/>
<path d="M36.8197 76.2077L33.582 76.7539L34.1296 79.9834L37.3673 79.4372L36.8197 76.2077Z" fill="#AA0F0F"/>
<path d="M40.059 75.6606L36.8203 76.207L37.3679 79.4366L40.6066 78.8901L40.059 75.6606Z" fill="#AA0F0F"/>
<path d="M43.2962 75.1154L40.0586 75.6616L40.6062 78.8911L43.8439 78.3449L43.2962 75.1154Z" fill="#AA0F0F"/>
<path d="M46.5345 74.57L43.2969 75.1162L43.8445 78.3457L47.0821 77.7995L46.5345 74.57Z" fill="#E52C2C"/>
<path d="M49.7728 74.0226L46.5352 74.5688L47.0828 77.7984L50.3204 77.2521L49.7728 74.0226Z" fill="#E52C2C"/>
<path d="M53.0083 73.4765L49.7695 74.0229L50.3171 77.2524L53.5559 76.706L53.0083 73.4765Z" fill="#E52C2C"/>
<path d="M56.2455 72.9298L53.0078 73.4761L53.5554 76.7056L56.7931 76.1594L56.2455 72.9298Z" fill="#E52C2C"/>
<path d="M59.4837 72.3835L56.2461 72.9297L56.7937 76.1592L60.0314 75.613L59.4837 72.3835Z" fill="#E52C2C"/>
<path d="M62.7231 71.8379L59.4844 72.3843L60.032 75.6138L63.2707 75.0674L62.7231 71.8379Z" fill="#E52C2C"/>
<path d="M65.9603 71.2907L62.7227 71.8369L63.2703 75.0664L66.5079 74.5202L65.9603 71.2907Z" fill="#E52C2C"/>
<path d="M69.1986 70.7443L65.9609 71.2905L66.5085 74.52L69.7462 73.9738L69.1986 70.7443Z" fill="#E52C2C"/>
<path d="M72.4379 70.1987L69.1992 70.7451L69.7468 73.9746L72.9855 73.4282L72.4379 70.1987Z" fill="#E52C2C"/>
<path d="M75.6751 69.652L72.4375 70.1982L72.9851 73.4278L76.2228 72.8815L75.6751 69.652Z" fill="#AA0F0F"/>
<path d="M78.9134 69.1056L75.6758 69.6519L76.2234 72.8813L79.461 72.3351L78.9134 69.1056Z" fill="#AA0F0F"/>
<path d="M82.1517 68.5602L78.9141 69.1064L79.4617 72.3359L82.6993 71.7897L82.1517 68.5602Z" fill="#AA0F0F"/>
<path d="M85.3911 68.0132L82.1523 68.5596L82.7 71.7891L85.9387 71.2427L85.3911 68.0132Z" fill="#AA0F0F"/>
<path d="M88.6283 67.4679L85.3906 68.0142L85.9382 71.2437L89.1759 70.6974L88.6283 67.4679Z" fill="#AA0F0F"/>
<path d="M91.8665 66.9211L88.6289 67.4673L89.1765 70.6968L92.4141 70.1506L91.8665 66.9211Z" fill="#AA0F0F"/>
<path d="M95.102 66.374L91.8633 66.9204L92.4109 70.1499L95.6496 69.6035L95.102 66.374Z" fill="#B6D2F2"/>
<path d="M98.3392 65.8288L95.1016 66.375L95.6492 69.6045L98.8868 69.0583L98.3392 65.8288Z" fill="#E52C2C"/>
<path d="M101.578 65.2824L98.3398 65.8286L98.8875 69.0581L102.125 68.5119L101.578 65.2824Z" fill="#CC0909"/>
<path d="M104.817 64.7353L101.578 65.2817L102.126 68.5112L105.364 67.9648L104.817 64.7353Z" fill="black"/>
<path d="M14.7025 83.2609L11.4648 83.8071L12.0125 87.0366L15.2501 86.4904L14.7025 83.2609Z" fill="black"/>
<path d="M17.9408 82.7155L14.7031 83.2617L15.2507 86.4913L18.4884 85.945L17.9408 82.7155Z" fill="#B6D2F2"/>
<path d="M21.1801 82.1684L17.9414 82.7148L18.489 85.9444L21.7277 85.398L21.1801 82.1684Z" fill="#CC0909"/>
<path d="M24.4173 81.6217L21.1797 82.168L21.7273 85.3975L24.9649 84.8513L24.4173 81.6217Z" fill="#CC0909"/>
<path d="M27.6517 81.0763L24.4141 81.6226L24.9617 84.8521L28.1993 84.3058L27.6517 81.0763Z" fill="#CC0909"/>
<path d="M30.891 80.5298L27.6523 81.0762L28.2 84.3057L31.4386 83.7593L30.891 80.5298Z" fill="#CC0909"/>
<path d="M34.1283 79.9836L30.8906 80.5298L31.4382 83.7593L34.6759 83.213L34.1283 79.9836Z" fill="#E52C2C"/>
<path d="M37.3666 79.4372L34.1289 79.9834L34.6765 83.213L37.9142 82.6667L37.3666 79.4372Z" fill="#E52C2C"/>
<path d="M40.6059 78.8911L37.3672 79.4375L37.9148 82.667L41.1535 82.1206L40.6059 78.8911Z" fill="#E52C2C"/>
<path d="M43.8431 78.3444L40.6055 78.8906L41.1531 82.1201L44.3907 81.5739L43.8431 78.3444Z" fill="#E52C2C"/>
<path d="M47.0814 77.799L43.8438 78.3452L44.3914 81.5747L47.629 81.0285L47.0814 77.799Z" fill="#E52C2C"/>
<path d="M50.3197 77.2521L47.082 77.7983L47.6296 81.0279L50.8673 80.4816L50.3197 77.2521Z" fill="#E52C2C"/>
<path d="M53.559 76.7055L50.3203 77.252L50.8679 80.4815L54.1067 79.9351L53.559 76.7055Z" fill="#CC0909"/>
<path d="M56.7962 76.1598L53.5586 76.7061L54.1062 79.9356L57.3439 79.3893L56.7962 76.1598Z" fill="#CC0909"/>
<path d="M60.0345 75.613L56.7969 76.1592L57.3445 79.3887L60.5821 78.8425L60.0345 75.613Z" fill="#CC0909"/>
<path d="M63.2699 75.0674L60.0312 75.6138L60.5789 78.8433L63.8176 78.2969L63.2699 75.0674Z" fill="#CC0909"/>
<path d="M66.5111 74.5211L63.2734 75.0674L63.821 78.2969L67.0587 77.7507L66.5111 74.5211Z" fill="#CC0909"/>
<path d="M69.7455 73.9748L66.5078 74.521L67.0554 77.7505L70.2931 77.2043L69.7455 73.9748Z" fill="#CC0909"/>
<path d="M72.9848 73.4282L69.7461 73.9746L70.2937 77.2041L73.5324 76.6577L72.9848 73.4282Z" fill="#E52C2C"/>
<path d="M76.222 72.882L72.9844 73.4282L73.532 76.6577L76.7696 76.1115L76.222 72.882Z" fill="#E52C2C"/>
<path d="M79.4603 72.3351L76.2227 72.8813L76.7703 76.1109L80.0079 75.5646L79.4603 72.3351Z" fill="#E52C2C"/>
<path d="M82.6986 71.7902L79.4609 72.3364L80.0085 75.566L83.2462 75.0197L82.6986 71.7902Z" fill="#E52C2C"/>
<path d="M85.938 71.2431L82.6992 71.7896L83.2468 75.0191L86.4856 74.4727L85.938 71.2431Z" fill="#E52C2C"/>
<path d="M89.1752 70.6964L85.9375 71.2427L86.4851 74.4722L89.7228 73.9259L89.1752 70.6964Z" fill="#E52C2C"/>
<path d="M92.4134 70.1515L89.1758 70.6978L89.7234 73.9273L92.961 73.381L92.4134 70.1515Z" fill="#E52C2C"/>
<path d="M95.6489 69.604L92.4102 70.1504L92.9578 73.3799L96.1965 72.8335L95.6489 69.604Z" fill="#E52C2C"/>
<path d="M98.89 69.0578L95.6523 69.604L96.2 72.8335L99.4376 72.2873L98.89 69.0578Z" fill="#E52C2C"/>
<path d="M102.124 68.5119L98.8867 69.0581L99.4343 72.2876L102.672 71.7414L102.124 68.5119Z" fill="#CC0909"/>
<path d="M105.364 67.9663L102.125 68.5127L102.673 71.7422L105.911 71.1958L105.364 67.9663Z" fill="black"/>
<path d="M15.2494 86.4909L12.0117 87.0371L12.5595 90.2676L15.7972 89.7214L15.2494 86.4909Z" fill="black"/>
<path d="M18.4877 85.944L15.25 86.4902L15.7978 89.7208L19.0355 89.1746L18.4877 85.944Z" fill="#B6D2F2"/>
<path d="M21.727 85.3979L18.4883 85.9443L19.0361 89.1749L22.2747 88.6285L21.727 85.3979Z" fill="#CC0909"/>
<path d="M24.9642 84.8517L21.7266 85.3979L22.2743 88.6285L25.512 88.0822L24.9642 84.8517Z" fill="#CC0909"/>
<path d="M28.2025 84.3063L24.9648 84.8525L25.5126 88.0831L28.7503 87.5369L28.2025 84.3063Z" fill="#CC0909"/>
<path d="M31.4418 83.7597L28.2031 84.3062L28.7509 87.5367L31.9896 86.9903L31.4418 83.7597Z" fill="#CC0909"/>
<path d="M34.6791 83.213L31.4414 83.7593L31.9892 86.9898L35.2269 86.4436L34.6791 83.213Z" fill="#CC0909"/>
<path d="M37.9134 82.6676L34.6758 83.2139L35.2236 86.4444L38.4612 85.8982L37.9134 82.6676Z" fill="#CC0909"/>
<path d="M41.1527 82.1196L37.9141 82.666L38.4618 85.8966L41.7005 85.3502L41.1527 82.1196Z" fill="#CC0909"/>
<path d="M44.39 81.5739L41.1523 82.1201L41.7001 85.3507L44.9378 84.8044L44.39 81.5739Z" fill="#CC0909"/>
<path d="M47.6283 81.0285L44.3906 81.5747L44.9384 84.8052L48.1761 84.259L47.6283 81.0285Z" fill="#CC0909"/>
<path d="M50.8666 80.4806L47.6289 81.0269L48.1767 84.2574L51.4144 83.7111L50.8666 80.4806Z" fill="#CC0909"/>
<path d="M54.1049 79.9352L50.8672 80.4814L51.415 83.712L54.6527 83.1658L54.1049 79.9352Z" fill="#CC0909"/>
<path d="M57.3431 79.3893L54.1055 79.9355L54.6533 83.1661L57.8909 82.6199L57.3431 79.3893Z" fill="#CC0909"/>
<path d="M60.5814 78.842L57.3438 79.3882L57.8915 82.6187L61.1292 82.0725L60.5814 78.842Z" fill="#CC0909"/>
<path d="M63.8207 78.2964L60.582 78.8428L61.1296 82.0723L64.3683 81.5259L63.8207 78.2964Z" fill="#CC0909"/>
<path d="M67.058 77.7506L63.8203 78.2969L64.3679 81.5264L67.6056 80.9802L67.058 77.7506Z" fill="#CC0909"/>
<path d="M70.2924 77.2033L67.0547 77.7495L67.6023 80.979L70.84 80.4328L70.2924 77.2033Z" fill="#CC0909"/>
<path d="M73.5317 76.6572L70.293 77.2036L70.8406 80.4331L74.0793 79.8867L73.5317 76.6572Z" fill="#CC0909"/>
<path d="M76.7689 76.112L73.5312 76.6582L74.0789 79.8877L77.3165 79.3415L76.7689 76.112Z" fill="#CC0909"/>
<path d="M80.0072 75.5651L76.7695 76.1113L77.3171 79.3408L80.5548 78.7946L80.0072 75.5651Z" fill="#CC0909"/>
<path d="M83.2455 75.0187L80.0078 75.5649L80.5554 78.7945L83.7931 78.2482L83.2455 75.0187Z" fill="#CC0909"/>
<path d="M86.4838 74.4733L83.2461 75.0195L83.7937 78.2491L87.0314 77.7028L86.4838 74.4733Z" fill="#CC0909"/>
<path d="M89.722 73.9264L86.4844 74.4727L87.032 77.7022L90.2696 77.1559L89.722 73.9264Z" fill="#CC0909"/>
<path d="M92.9603 73.38L89.7227 73.9263L90.2703 77.1558L93.5079 76.6095L92.9603 73.38Z" fill="#CC0909"/>
<path d="M96.1996 72.834L92.9609 73.3804L93.5085 76.6099L96.7472 76.0635L96.1996 72.834Z" fill="#CC0909"/>
<path d="M99.4369 72.2877L96.1992 72.834L96.7468 76.0635L99.9845 75.5173L99.4369 72.2877Z" fill="#CC0909"/>
<path d="M102.675 71.7409L99.4375 72.2871L99.9851 75.5166L103.223 74.9704L102.675 71.7409Z" fill="#CC0909"/>
<path d="M105.911 71.1948L102.672 71.7412L103.219 74.9707L106.458 74.4243L105.911 71.1948Z" fill="black"/>
<path d="M103.222 74.9709L99.9844 75.5171L100.532 78.7476L103.77 78.2014L103.222 74.9709Z" fill="black"/>
<path d="M99.9838 75.5172L96.7461 76.0635L97.2939 79.294L100.532 78.7478L99.9838 75.5172Z" fill="#CC0909"/>
<path d="M96.7465 76.0639L93.5078 76.6104L94.0556 79.8409L97.2943 79.2945L96.7465 76.0639Z" fill="#CC0909"/>
<path d="M93.5072 76.6095L90.2695 77.1558L90.8173 80.3863L94.055 79.8401L93.5072 76.6095Z" fill="#CC0909"/>
<path d="M90.2689 77.1559L87.0312 77.7021L87.579 80.9327L90.8167 80.3865L90.2689 77.1559Z" fill="#CC0909"/>
<path d="M87.0306 77.7033L83.793 78.2495L84.3407 81.48L87.5784 80.9338L87.0306 77.7033Z" fill="#CC0909"/>
<path d="M83.7934 78.2485L80.5547 78.7949L81.1025 82.0254L84.3412 81.479L83.7934 78.2485Z" fill="#CC0909"/>
<path d="M80.558 78.7951L77.3203 79.3413L77.8681 82.5718L81.1057 82.0256L80.558 78.7951Z" fill="#CC0909"/>
<path d="M77.3158 79.341L74.0781 79.8872L74.6259 83.1177L77.8636 82.5715L77.3158 79.341Z" fill="#CC0909"/>
<path d="M74.0824 79.8872L70.8438 80.4336L71.3915 83.6641L74.6302 83.1177L74.0824 79.8872Z" fill="#CC0909"/>
<path d="M70.8431 80.4342L67.6055 80.9805L68.1533 84.211L71.3909 83.6648L70.8431 80.4342Z" fill="#CC0909"/>
<path d="M67.6049 80.9796L64.3672 81.5259L64.915 84.7564L68.1527 84.2102L67.6049 80.9796Z" fill="#CC0909"/>
<path d="M64.3636 81.5395L61.125 82.0864L61.6732 85.3159L64.9118 84.7689L64.3636 81.5395Z" fill="#CC0909"/>
<path d="M61.1283 82.0729L57.8906 82.6191L58.4382 85.8487L61.6759 85.3024L61.1283 82.0729Z" fill="#CC0909"/>
<path d="M57.89 82.6193L54.6523 83.1655L55.1999 86.395L58.4376 85.8488L57.89 82.6193Z" fill="#CC0909"/>
<path d="M54.6517 83.1662L51.4141 83.7124L51.9617 86.9419L55.1993 86.3957L54.6517 83.1662Z" fill="#CC0909"/>
<path d="M51.4145 83.7119L48.1758 84.2583L48.7234 87.4879L51.9621 86.9414L51.4145 83.7119Z" fill="#CC0909"/>
<path d="M48.1752 84.2585L44.9375 84.8047L45.4851 88.0342L48.7228 87.488L48.1752 84.2585Z" fill="#CC0909"/>
<path d="M44.9408 84.8053L41.7031 85.3516L42.2507 88.5811L45.4884 88.0349L44.9408 84.8053Z" fill="#CC0909"/>
<path d="M41.7035 85.3506L38.4648 85.897L39.0125 89.1265L42.2511 88.5801L41.7035 85.3506Z" fill="#CC0909"/>
<path d="M38.4642 85.8976L35.2266 86.4438L35.7742 89.6734L39.0118 89.1271L38.4642 85.8976Z" fill="#CC0909"/>
<path d="M35.226 86.443L31.9883 86.9893L32.5359 90.2188L35.7736 89.6725L35.226 86.443Z" fill="#CC0909"/>
<path d="M31.9887 86.9892L28.75 87.5356L29.2976 90.7652L32.5363 90.2187L31.9887 86.9892Z" fill="#CC0909"/>
<path d="M28.7494 87.5363L25.5117 88.0825L26.0593 91.312L29.297 90.7658L28.7494 87.5363Z" fill="#CC0909"/>
<path d="M25.5111 88.0817L22.2734 88.6279L22.821 91.8575L26.0587 91.3112L25.5111 88.0817Z" fill="#CC0909"/>
<path d="M22.2738 88.6284L19.0352 89.1748L19.5828 92.4043L22.8215 91.8579L22.2738 88.6284Z" fill="#B6D2F2"/>
<path d="M19.0346 89.175L15.7969 89.7212L16.3445 92.9507L19.5822 92.4045L19.0346 89.175Z" fill="black"/>
<path d="M19.5853 92.4049L16.3477 92.9512L16.8953 96.1807L20.1329 95.6344L19.5853 92.4049Z" fill="black"/>
<path d="M22.8207 91.8584L19.582 92.4048L20.1296 95.6343L23.3683 95.0879L22.8207 91.8584Z" fill="#B6D2F2"/>
<path d="M26.058 91.3112L22.8203 91.8574L23.3679 95.0869L26.6056 94.5407L26.058 91.3112Z" fill="#CC0909"/>
<path d="M29.2963 90.7663L26.0586 91.3125L26.6062 94.542L29.8439 93.9958L29.2963 90.7663Z" fill="#CC0909"/>
<path d="M32.5356 90.2182L29.2969 90.7646L29.8445 93.9942L33.0832 93.4478L32.5356 90.2182Z" fill="#CC0909"/>
<path d="M35.7728 89.673L32.5352 90.2192L33.0828 93.4487L36.3204 92.9025L35.7728 89.673Z" fill="#CC0909"/>
<path d="M39.0111 89.1271L35.7734 89.6733L36.321 92.9029L39.5587 92.3566L39.0111 89.1271Z" fill="#CC0909"/>
<path d="M42.2465 88.5796L39.0078 89.126L39.5554 92.3555L42.7941 91.8091L42.2465 88.5796Z" fill="#CC0909"/>
<path d="M45.4877 88.0339L42.25 88.5801L42.7976 91.8096L46.0353 91.2633L45.4877 88.0339Z" fill="#CC0909"/>
<path d="M48.726 87.4884L45.4883 88.0347L46.0359 91.2642L49.2736 90.718L48.726 87.4884Z" fill="#CC0909"/>
<path d="M51.9653 86.9414L48.7266 87.4878L49.2742 90.7173L52.5129 90.1709L51.9653 86.9414Z" fill="#CC0909"/>
<path d="M55.1986 86.3947L51.9609 86.9409L52.5085 90.1705L55.7462 89.6242L55.1986 86.3947Z" fill="#CC0909"/>
<path d="M58.4369 85.8493L55.1992 86.3955L55.7468 89.6251L58.9845 89.0788L58.4369 85.8493Z" fill="#CC0909"/>
<path d="M61.6751 85.3024L58.4375 85.8486L58.9851 89.0781L62.2227 88.5319L61.6751 85.3024Z" fill="#CC0909"/>
<path d="M64.9145 84.7558L61.6758 85.3022L62.2234 88.5318L65.4621 87.9854L64.9145 84.7558Z" fill="#CC0909"/>
<path d="M68.1517 84.2106L64.9141 84.7568L65.4617 87.9863L68.6993 87.4401L68.1517 84.2106Z" fill="#CC0909"/>
<path d="M71.39 83.6642L68.1523 84.2104L68.7 87.44L71.9376 86.8937L71.39 83.6642Z" fill="#CC0909"/>
<path d="M74.6293 83.1172L71.3906 83.6636L71.9382 86.8931L75.1769 86.3467L74.6293 83.1172Z" fill="#CC0909"/>
<path d="M77.8666 82.5715L74.6289 83.1177L75.1765 86.3472L78.4142 85.8009L77.8666 82.5715Z" fill="#CC0909"/>
<path d="M81.1049 82.0251L77.8672 82.5713L78.4148 85.8008L81.6525 85.2546L81.1049 82.0251Z" fill="#CC0909"/>
<path d="M84.3442 81.478L81.1055 82.0244L81.6531 85.2539L84.8918 84.7075L84.3442 81.478Z" fill="#CC0909"/>
<path d="M87.5814 80.9328L84.3438 81.479L84.8914 84.7085L88.129 84.1623L87.5814 80.9328Z" fill="#CC0909"/>
<path d="M90.8158 80.3859L87.5781 80.9321L88.1257 84.1616L91.3634 83.6154L90.8158 80.3859Z" fill="#CC0909"/>
<path d="M94.054 79.8395L90.8164 80.3857L91.364 83.6152L94.6017 83.069L94.054 79.8395Z" fill="#CC0909"/>
<path d="M97.2934 79.2939L94.0547 79.8403L94.6023 83.0699L97.841 82.5234L97.2934 79.2939Z" fill="#CC0909"/>
<path d="M100.531 78.7472L97.293 79.2935L97.8406 82.5229L101.078 81.9767L100.531 78.7472Z" fill="#CC0909"/>
<path d="M103.769 78.2018L100.531 78.748L101.079 81.9776L104.317 81.4313L103.769 78.2018Z" fill="black"/>
<path d="M23.3676 95.0879L20.1289 95.6343L20.6765 98.8638L23.9152 98.3174L23.3676 95.0879Z" fill="black"/>
<path d="M26.6048 94.5412L23.3672 95.0874L23.9148 98.3169L27.1524 97.7707L26.6048 94.5412Z" fill="#B6D2F2"/>
<path d="M29.8431 93.9948L26.6055 94.541L27.1531 97.7705L30.3908 97.2243L29.8431 93.9948Z" fill="#CC0909"/>
<path d="M33.0825 93.4492L29.8438 93.9956L30.3914 97.2251L33.6301 96.6787L33.0825 93.4492Z" fill="#CC0909"/>
<path d="M36.3197 92.9025L33.082 93.4487L33.6296 96.6783L36.8673 96.132L36.3197 92.9025Z" fill="#CC0909"/>
<path d="M39.558 92.3556L36.3203 92.9019L36.8679 96.1314L40.1056 95.5851L39.558 92.3556Z" fill="#CC0909"/>
<path d="M42.7973 91.8105L39.5586 92.3569L40.1062 95.5865L43.3449 95.0401L42.7973 91.8105Z" fill="#CC0909"/>
<path d="M46.0345 91.2633L42.7969 91.8096L43.3445 95.0391L46.5822 94.4928L46.0345 91.2633Z" fill="#CC0909"/>
<path d="M49.2728 90.7169L46.0352 91.2632L46.5828 94.4927L49.8204 93.9465L49.2728 90.7169Z" fill="#CC0909"/>
<path d="M52.5122 90.1714L49.2734 90.7178L49.821 93.9473L53.0598 93.4009L52.5122 90.1714Z" fill="#CC0909"/>
<path d="M55.7494 89.6247L52.5117 90.1709L53.0593 93.4004L56.297 92.8542L55.7494 89.6247Z" fill="#CC0909"/>
<path d="M58.9876 89.0783L55.75 89.6245L56.2976 92.854L59.5353 92.3078L58.9876 89.0783Z" fill="#CC0909"/>
<path d="M62.222 88.5329L58.9844 89.0791L59.532 92.3086L62.7696 91.7624L62.222 88.5329Z" fill="#CC0909"/>
<path d="M65.4614 87.9858L62.2227 88.5322L62.7703 91.7617L66.009 91.2153L65.4614 87.9858Z" fill="#CC0909"/>
<path d="M68.6986 87.4406L65.4609 87.9868L66.0085 91.2163L69.2462 90.6701L68.6986 87.4406Z" fill="#CC0909"/>
<path d="M71.9369 86.8937L68.6992 87.4399L69.2468 90.6694L72.4845 90.1232L71.9369 86.8937Z" fill="#CC0909"/>
<path d="M75.1762 86.3471L71.9375 86.8936L72.4851 90.1231L75.7238 89.5767L75.1762 86.3471Z" fill="#CC0909"/>
<path d="M78.4134 85.8014L75.1758 86.3477L75.7234 89.5772L78.961 89.0309L78.4134 85.8014Z" fill="#CC0909"/>
<path d="M81.6517 85.255L78.4141 85.8013L78.9617 89.0308L82.1993 88.4846L81.6517 85.255Z" fill="#CC0909"/>
<path d="M84.8911 84.7085L81.6523 85.2549L82.2 88.4844L85.4387 87.938L84.8911 84.7085Z" fill="#CC0909"/>
<path d="M88.1283 84.1628L84.8906 84.709L85.4382 87.9385L88.6759 87.3923L88.1283 84.1628Z" fill="#CC0909"/>
<path d="M91.3626 83.6159L88.125 84.1621L88.6726 87.3916L91.9103 86.8454L91.3626 83.6159Z" fill="#CC0909"/>
<path d="M94.6009 83.0695L91.3633 83.6157L91.9109 86.8452L95.1486 86.299L94.6009 83.0695Z" fill="#CC0909"/>
<path d="M97.8402 82.5234L94.6016 83.0698L95.1492 86.2993L98.3878 85.7529L97.8402 82.5234Z" fill="#CC0909"/>
<path d="M101.078 81.9772L97.8398 82.5234L98.3875 85.753L101.625 85.2067L101.078 81.9772Z" fill="black"/>
<path d="M23.9184 98.3169L20.6797 98.8633L21.2275 102.094L24.4662 101.547L23.9184 98.3169Z" fill="black"/>
<path d="M27.1556 97.7702L23.918 98.3164L24.4658 101.547L27.7034 101.001L27.1556 97.7702Z" fill="#B6D2F2"/>
<path d="M30.3939 97.2252L27.1562 97.7715L27.704 101.002L30.9417 100.456L30.3939 97.2252Z" fill="#CC0909"/>
<path d="M33.6293 96.6777L30.3906 97.2241L30.9384 100.455L34.1771 99.9083L33.6293 96.6777Z" fill="#CC0909"/>
<path d="M36.8666 96.1315L33.6289 96.6777L34.1767 99.9083L37.4144 99.3621L36.8666 96.1315Z" fill="#CC0909"/>
<path d="M40.1048 95.5861L36.8672 96.1323L37.415 99.3628L40.6526 98.8166L40.1048 95.5861Z" fill="#CC0909"/>
<path d="M43.3442 95.04L40.1055 95.5864L40.6533 98.817L43.8919 98.2706L43.3442 95.04Z" fill="#CC0909"/>
<path d="M46.5814 94.4928L43.3438 95.0391L43.8915 98.2696L47.1292 97.7234L46.5814 94.4928Z" fill="#CC0909"/>
<path d="M49.8197 93.9469L46.582 94.4932L47.1298 97.7237L50.3675 97.1775L49.8197 93.9469Z" fill="#CC0909"/>
<path d="M53.059 93.4013L49.8203 93.9478L50.3681 97.1783L53.6068 96.6319L53.059 93.4013Z" fill="#CC0909"/>
<path d="M56.2962 92.8542L53.0586 93.4004L53.6064 96.6309L56.844 96.0847L56.2962 92.8542Z" fill="#CC0909"/>
<path d="M59.5345 92.3083L56.2969 92.8545L56.8447 96.085L60.0823 95.5388L59.5345 92.3083Z" fill="#CC0909"/>
<path d="M62.7689 91.7628L59.5312 92.3091L60.079 95.5396L63.3167 94.9934L62.7689 91.7628Z" fill="#CC0909"/>
<path d="M66.0082 91.2148L62.7695 91.7612L63.3173 94.9918L66.556 94.4454L66.0082 91.2148Z" fill="#CC0909"/>
<path d="M69.2494 90.6691L66.0117 91.2153L66.5595 94.4459L69.7972 93.8996L69.2494 90.6691Z" fill="#CC0909"/>
<path d="M72.4837 90.1237L69.2461 90.6699L69.7939 93.9005L73.0315 93.3542L72.4837 90.1237Z" fill="#CC0909"/>
<path d="M75.7231 89.5757L72.4844 90.1221L73.0322 93.3526L76.2708 92.8062L75.7231 89.5757Z" fill="#CC0909"/>
<path d="M78.9603 89.0304L75.7227 89.5767L76.2704 92.8072L79.5081 92.261L78.9603 89.0304Z" fill="#CC0909"/>
<path d="M82.1986 88.4845L78.9609 89.0308L79.5087 92.2613L82.7464 91.7151L82.1986 88.4845Z" fill="#CC0909"/>
<path d="M85.4379 87.938L82.1992 88.4844L82.747 91.7149L85.9857 91.1685L85.4379 87.938Z" fill="#CC0909"/>
<path d="M88.6751 87.3918L85.4375 87.938L85.9853 91.1685L89.2229 90.6223L88.6751 87.3918Z" fill="#CC0909"/>
<path d="M91.9134 86.8459L88.6758 87.3921L89.2236 90.6226L92.4612 90.0764L91.9134 86.8459Z" fill="#CC0909"/>
<path d="M95.1517 86.299L91.9141 86.8452L92.4618 90.0758L95.6995 89.5295L95.1517 86.299Z" fill="#CC0909"/>
<path d="M98.391 85.7524L95.1523 86.2988L95.7001 89.5294L98.9388 88.983L98.391 85.7524Z" fill="#CC0909"/>
<path d="M101.628 85.2072L98.3906 85.7534L98.9384 88.984L102.176 88.4377L101.628 85.2072Z" fill="black"/>
<path d="M27.7025 101.001L24.4648 101.547L25.0125 104.777L28.2501 104.231L27.7025 101.001Z" fill="black"/>
<path d="M30.9408 100.455L27.7031 101.001L28.2507 104.231L31.4884 103.684L30.9408 100.455Z" fill="#B6D2F2"/>
<path d="M34.1801 99.9092L30.9414 100.456L31.489 103.685L34.7277 103.139L34.1801 99.9092Z" fill="#CC0909"/>
<path d="M37.4134 99.3625L34.1758 99.9087L34.7234 103.138L37.961 102.592L37.4134 99.3625Z" fill="#CC0909"/>
<path d="M40.6517 98.8161L37.4141 99.3623L37.9617 102.592L41.1993 102.046L40.6517 98.8161Z" fill="#CC0909"/>
<path d="M43.891 98.27L40.6523 98.8164L41.2 102.046L44.4386 101.5L43.891 98.27Z" fill="#CC0909"/>
<path d="M47.1283 97.7233L43.8906 98.2695L44.4382 101.499L47.6759 100.953L47.1283 97.7233Z" fill="#CC0909"/>
<path d="M50.3666 97.1769L47.1289 97.7231L47.6765 100.953L50.9142 100.406L50.3666 97.1769Z" fill="#CC0909"/>
<path d="M53.6059 96.6308L50.3672 97.1772L50.9148 100.407L54.1535 99.8604L53.6059 96.6308Z" fill="#CC0909"/>
<path d="M56.8431 96.0846L53.6055 96.6309L54.1531 99.8604L57.3907 99.3142L56.8431 96.0846Z" fill="#CC0909"/>
<path d="M60.0814 95.5392L56.8438 96.0854L57.3914 99.315L60.629 98.7688L60.0814 95.5392Z" fill="#CC0909"/>
<path d="M63.3197 94.9928L60.082 95.5391L60.6296 98.7686L63.8673 98.2223L63.3197 94.9928Z" fill="#CC0909"/>
<path d="M66.559 94.4453L63.3203 94.9917L63.8679 98.2212L67.1066 97.6748L66.559 94.4453Z" fill="#CC0909"/>
<path d="M69.7962 93.9001L66.5586 94.4463L67.1062 97.6758L70.3438 97.1296L69.7962 93.9001Z" fill="#CC0909"/>
<path d="M73.0306 93.3537L69.793 93.8999L70.3406 97.1294L73.5782 96.5832L73.0306 93.3537Z" fill="#CC0909"/>
<path d="M76.2699 92.8066L73.0312 93.353L73.5789 96.5826L76.8175 96.0361L76.2699 92.8066Z" fill="#CC0909"/>
<path d="M79.5111 92.2609L76.2734 92.8071L76.821 96.0367L80.0587 95.4904L79.5111 92.2609Z" fill="#CC0909"/>
<path d="M82.7455 91.7145L79.5078 92.2607L80.0554 95.4903L83.2931 94.944L82.7455 91.7145Z" fill="#CC0909"/>
<path d="M85.9848 91.1679L82.7461 91.7144L83.2937 94.9439L86.5324 94.3975L85.9848 91.1679Z" fill="#CC0909"/>
<path d="M89.222 90.6222L85.9844 91.1685L86.532 94.398L89.7696 93.8518L89.222 90.6222Z" fill="#CC0909"/>
<path d="M92.4603 90.0744L89.2227 90.6206L89.7703 93.8501L93.0079 93.3039L92.4603 90.0744Z" fill="#CC0909"/>
<path d="M95.6986 89.5295L92.4609 90.0757L93.0085 93.3052L96.2462 92.759L95.6986 89.5295Z" fill="#CC0909"/>
<path d="M98.938 88.9834L95.6992 89.5298L96.2468 92.7593L99.4856 92.2129L98.938 88.9834Z" fill="black"/>
<path d="M31.4877 103.685L28.25 104.231L28.7976 107.46L32.0353 106.914L31.4877 103.685Z" fill="black"/>
<path d="M34.727 103.139L31.4883 103.685L32.0359 106.915L35.2746 106.368L34.727 103.139Z" fill="#B6D2F2"/>
<path d="M37.9642 102.591L34.7266 103.138L35.2742 106.367L38.5118 105.821L37.9642 102.591Z" fill="#CC0909"/>
<path d="M41.2025 102.046L37.9648 102.592L38.5125 105.821L41.7501 105.275L41.2025 102.046Z" fill="#CC0909"/>
<path d="M44.4418 101.5L41.2031 102.046L41.7507 105.276L44.9894 104.73L44.4418 101.5Z" fill="#CC0909"/>
<path d="M47.6752 100.952L44.4375 101.499L44.9851 104.728L48.2228 104.182L47.6752 100.952Z" fill="#CC0909"/>
<path d="M50.9135 100.406L47.6758 100.953L48.2234 104.182L51.4611 103.636L50.9135 100.406Z" fill="#CC0909"/>
<path d="M54.1527 99.8608L50.9141 100.407L51.4617 103.637L54.7004 103.09L54.1527 99.8608Z" fill="#CC0909"/>
<path d="M57.39 99.3136L54.1523 99.8599L54.7 103.089L57.9376 102.543L57.39 99.3136Z" fill="#CC0909"/>
<path d="M60.6283 98.7677L57.3906 99.314L57.9382 102.544L61.1759 101.997L60.6283 98.7677Z" fill="#CC0909"/>
<path d="M63.8666 98.2223L60.6289 98.7686L61.1765 101.998L64.4142 101.452L63.8666 98.2223Z" fill="#CC0909"/>
<path d="M67.1059 97.6743L63.8672 98.2207L64.4148 101.45L67.6535 100.904L67.1059 97.6743Z" fill="#CC0909"/>
<path d="M70.3431 97.1291L67.1055 97.6753L67.6531 100.905L70.8907 100.359L70.3431 97.1291Z" fill="#CC0909"/>
<path d="M73.5814 96.5832L70.3438 97.1294L70.8914 100.359L74.129 99.8127L73.5814 96.5832Z" fill="#CC0909"/>
<path d="M76.8168 96.0366L73.5781 96.583L74.1257 99.8125L77.3644 99.2661L76.8168 96.0366Z" fill="#CC0909"/>
<path d="M80.058 95.4899L76.8203 96.0361L77.3679 99.2657L80.6056 98.7194L80.058 95.4899Z" fill="#CC0909"/>
<path d="M83.2924 94.9445L80.0547 95.4907L80.6023 98.7202L83.84 98.174L83.2924 94.9445Z" fill="#CC0909"/>
<path d="M86.5317 94.3979L83.293 94.9443L83.8406 98.1739L87.0793 97.6275L86.5317 94.3979Z" fill="#CC0909"/>
<path d="M89.7689 93.8512L86.5312 94.3975L87.0789 97.627L90.3165 97.0808L89.7689 93.8512Z" fill="#CC0909"/>
<path d="M93.0072 93.3058L89.7695 93.8521L90.3171 97.0816L93.5548 96.5353L93.0072 93.3058Z" fill="#CC0909"/>
<path d="M96.2455 92.7594L93.0078 93.3057L93.5554 96.5352L96.7931 95.989L96.2455 92.7594Z" fill="black"/>
<path d="M35.2738 106.368L32.0352 106.914L32.5829 110.145L35.8216 109.598L35.2738 106.368Z" fill="black"/>
<path d="M38.5111 105.822L35.2734 106.368L35.8212 109.599L39.0589 109.052L38.5111 105.822Z" fill="#B6D2F2"/>
<path d="M41.7494 105.276L38.5117 105.822L39.0595 109.052L42.2972 108.506L41.7494 105.276Z" fill="#CC0909"/>
<path d="M44.9887 104.728L41.75 105.275L42.2978 108.505L45.5365 107.959L44.9887 104.728Z" fill="#910303"/>
<path d="M48.226 104.183L44.9883 104.729L45.5361 107.96L48.7737 107.414L48.226 104.183Z" fill="#CC0909"/>
<path d="M51.4642 103.636L48.2266 104.183L48.7743 107.413L52.012 106.867L51.4642 103.636Z" fill="#910303"/>
<path d="M54.6996 103.09L51.4609 103.636L52.0087 106.867L55.2474 106.32L54.6996 103.09Z" fill="#CC0909"/>
<path d="M57.9369 102.544L54.6992 103.09L55.247 106.32L58.4846 105.774L57.9369 102.544Z" fill="#910303"/>
<path d="M61.1752 101.998L57.9375 102.544L58.4853 105.774L61.7229 105.228L61.1752 101.998Z" fill="#CC0909"/>
<path d="M64.4135 101.451L61.1758 101.998L61.7236 105.228L64.9613 104.682L64.4135 101.451Z" fill="#CC0909"/>
<path d="M67.6527 100.905L64.4141 101.452L64.9618 104.682L68.2005 104.136L67.6527 100.905Z" fill="#910303"/>
<path d="M70.89 100.359L67.6523 100.905L68.2001 104.135L71.4378 103.589L70.89 100.359Z" fill="#CC0909"/>
<path d="M74.1283 99.8122L70.8906 100.358L71.4384 103.589L74.676 103.043L74.1283 99.8122Z" fill="#CC0909"/>
<path d="M77.3676 99.2656L74.1289 99.812L74.6767 103.043L77.9154 102.496L77.3676 99.2656Z" fill="#910303"/>
<path d="M80.6049 98.7204L77.3672 99.2666L77.915 102.497L81.1527 101.951L80.6049 98.7204Z" fill="#CC0909"/>
<path d="M83.8432 98.1735L80.6055 98.7197L81.1533 101.95L84.3909 101.404L83.8432 98.1735Z" fill="#CC0909"/>
<path d="M87.0785 97.6264L83.8398 98.1729L84.3876 101.403L87.6263 100.857L87.0785 97.6264Z" fill="#910303"/>
<path d="M90.3197 97.0812L87.082 97.6274L87.6298 100.858L90.8675 100.312L90.3197 97.0812Z" fill="#CC0909"/>
<path d="M93.554 96.5353L90.3164 97.0815L90.8642 100.312L94.1018 99.7659L93.554 96.5353Z" fill="black"/>
<path d="M39.058 109.051L35.8203 109.598L36.3679 112.827L39.6056 112.281L39.058 109.051Z" fill="black"/>
<path d="M42.2963 108.506L39.0586 109.052L39.6062 112.281L42.8439 111.735L42.2963 108.506Z" fill="#B6D2F2"/>
<path d="M45.5356 107.959L42.2969 108.506L42.8445 111.735L46.0832 111.189L45.5356 107.959Z" fill="#B6D2F2"/>
<path d="M48.7728 107.412L45.5352 107.958L46.0828 111.188L49.3204 110.642L48.7728 107.412Z" fill="#910303"/>
<path d="M52.0111 106.867L48.7734 107.413L49.321 110.643L52.5587 110.096L52.0111 106.867Z" fill="#CC0909"/>
<path d="M55.2504 106.32L52.0117 106.867L52.5593 110.096L55.798 109.55L55.2504 106.32Z" fill="#910303"/>
<path d="M58.4876 105.774L55.25 106.32L55.7976 109.55L59.0353 109.004L58.4876 105.774Z" fill="#CC0909"/>
<path d="M61.726 105.228L58.4883 105.774L59.0359 109.003L62.2736 108.457L61.726 105.228Z" fill="#910303"/>
<path d="M64.9642 104.682L61.7266 105.229L62.2742 108.458L65.5118 107.912L64.9642 104.682Z" fill="#910303"/>
<path d="M68.1996 104.135L64.9609 104.681L65.5085 107.911L68.7472 107.364L68.1996 104.135Z" fill="#CC0909"/>
<path d="M71.4369 103.589L68.1992 104.135L68.7468 107.364L71.9845 106.818L71.4369 103.589Z" fill="#910303"/>
<path d="M74.6751 103.043L71.4375 103.589L71.9851 106.819L75.2228 106.273L74.6751 103.043Z" fill="#CC0909"/>
<path d="M77.9145 102.496L74.6758 103.042L75.2234 106.272L78.4621 105.726L77.9145 102.496Z" fill="#CC0909"/>
<path d="M81.1517 101.949L77.9141 102.496L78.4617 105.725L81.6993 105.179L81.1517 101.949Z" fill="#910303"/>
<path d="M84.39 101.404L81.1523 101.951L81.6999 105.18L84.9376 104.634L84.39 101.404Z" fill="#910303"/>
<path d="M87.6293 100.857L84.3906 101.404L84.9382 104.633L88.177 104.087L87.6293 100.857Z" fill="#CC0909"/>
<path d="M90.8666 100.311L87.6289 100.857L88.1765 104.087L91.4142 103.541L90.8666 100.311Z" fill="black"/>
<path d="M42.8431 111.735L39.6055 112.281L40.1531 115.511L43.3908 114.965L42.8431 111.735Z" fill="black"/>
<path d="M46.0825 111.188L42.8438 111.735L43.3914 114.964L46.6301 114.418L46.0825 111.188Z" fill="black"/>
<path d="M49.3197 110.642L46.082 111.188L46.6296 114.418L49.8673 113.871L49.3197 110.642Z" fill="#B6D2F2"/>
<path d="M52.558 110.096L49.3203 110.643L49.8679 113.872L53.1056 113.326L52.558 110.096Z" fill="#910303"/>
<path d="M55.7973 109.549L52.5586 110.096L53.1062 113.325L56.3449 112.779L55.7973 109.549Z" fill="#910303"/>
<path d="M59.0345 109.003L55.7969 109.549L56.3445 112.779L59.5821 112.233L59.0345 109.003Z" fill="#910303"/>
<path d="M62.2728 108.457L59.0352 109.003L59.5828 112.233L62.8204 111.687L62.2728 108.457Z" fill="#910303"/>
<path d="M65.5111 107.911L62.2734 108.457L62.821 111.687L66.0587 111.14L65.5111 107.911Z" fill="#910303"/>
<path d="M68.7465 107.364L65.5078 107.91L66.0554 111.14L69.2941 110.593L68.7465 107.364Z" fill="#910303"/>
<path d="M71.9837 106.819L68.7461 107.365L69.2937 110.594L72.5314 110.048L71.9837 106.819Z" fill="#910303"/>
<path d="M75.222 106.273L71.9844 106.819L72.532 110.049L75.7696 109.503L75.222 106.273Z" fill="#910303"/>
<path d="M78.4614 105.726L75.2227 106.272L75.7703 109.501L79.009 108.955L78.4614 105.726Z" fill="#910303"/>
<path d="M81.6986 105.18L78.4609 105.726L79.0085 108.956L82.2462 108.409L81.6986 105.18Z" fill="#910303"/>
<path d="M84.9369 104.634L81.6992 105.181L82.2468 108.41L85.4845 107.864L84.9369 104.634Z" fill="black"/>
<path d="M88.1762 104.086L84.9375 104.633L85.4851 107.862L88.7238 107.316L88.1762 104.086Z" fill="black"/>
<path d="M49.8666 113.873L46.6289 114.419L47.1767 117.65L50.4143 117.103L49.8666 113.873Z" fill="black"/>
<path d="M53.1048 113.325L49.8672 113.871L50.415 117.102L53.6526 116.555L53.1048 113.325Z" fill="#B6D2F2"/>
<path d="M56.3442 112.78L53.1055 113.326L53.6533 116.557L56.8919 116.01L56.3442 112.78Z" fill="#910303"/>
<path d="M59.5814 112.234L56.3438 112.78L56.8915 116.011L60.1292 115.465L59.5814 112.234Z" fill="#910303"/>
<path d="M62.8197 111.686L59.582 112.232L60.1298 115.463L63.3675 114.917L62.8197 111.686Z" fill="#910303"/>
<path d="M66.058 111.141L62.8203 111.687L63.3681 114.918L66.6057 114.371L66.058 111.141Z" fill="#910303"/>
<path d="M69.2973 110.595L66.0586 111.142L66.6064 114.372L69.8451 113.826L69.2973 110.595Z" fill="#910303"/>
<path d="M72.5306 110.048L69.293 110.594L69.8408 113.824L73.0784 113.278L72.5306 110.048Z" fill="#910303"/>
<path d="M75.7689 109.502L72.5312 110.048L73.079 113.278L76.3167 112.732L75.7689 109.502Z" fill="#910303"/>
<path d="M79.0121 108.957L75.7734 109.503L76.3212 112.733L79.5599 112.187L79.0121 108.957Z" fill="#910303"/>
<path d="M82.2455 108.41L79.0078 108.956L79.5556 112.187L82.7933 111.64L82.2455 108.41Z" fill="black"/>
<path d="M53.6517 116.556L50.4141 117.103L50.9617 120.332L54.1993 119.786L53.6517 116.556Z" fill="black"/>
<path d="M56.891 116.01L53.6523 116.557L54.2 119.786L57.4387 119.24L56.891 116.01Z" fill="#B6D2F2"/>
<path d="M60.1283 115.463L56.8906 116.009L57.4382 119.238L60.6759 118.692L60.1283 115.463Z" fill="#B6D2F2"/>
<path d="M63.3666 114.917L60.1289 115.463L60.6765 118.693L63.9142 118.147L63.3666 114.917Z" fill="#910303"/>
<path d="M66.6048 114.372L63.3672 114.918L63.9148 118.147L67.1524 117.601L66.6048 114.372Z" fill="#910303"/>
<path d="M69.8441 113.824L66.6055 114.37L67.1531 117.6L70.3917 117.053L69.8441 113.824Z" fill="#910303"/>
<path d="M73.0814 113.278L69.8438 113.825L70.3914 117.054L73.629 116.508L73.0814 113.278Z" fill="#910303"/>
<path d="M76.3197 112.733L73.082 113.279L73.6296 116.508L76.8673 115.962L76.3197 112.733Z" fill="black"/>
<path d="M79.559 112.185L76.3203 112.731L76.8679 115.961L80.1066 115.415L79.559 112.185Z" fill="black"/>
<path d="M57.4379 119.239L54.1992 119.786L54.7468 123.015L57.9855 122.469L57.4379 119.239Z" fill="black"/>
<path d="M60.6791 118.694L57.4414 119.24L57.989 122.469L61.2267 121.923L60.6791 118.694Z" fill="black"/>
<path d="M63.9135 118.146L60.6758 118.692L61.2234 121.922L64.4611 121.376L63.9135 118.146Z" fill="#B6D2F2"/>
<path d="M67.1517 117.601L63.9141 118.147L64.4617 121.376L67.6993 120.83L67.1517 117.601Z" fill="#910303"/>
<path d="M70.391 117.055L67.1523 117.601L67.7 120.831L70.9386 120.284L70.391 117.055Z" fill="#910303"/>
<path d="M73.6283 116.508L70.3906 117.055L70.9382 120.284L74.1759 119.738L73.6283 116.508Z" fill="black"/>
<path d="M64.4642 121.376L61.2266 121.922L61.7742 125.151L65.0118 124.605L64.4642 121.376Z" fill="black"/>
<path d="M67.6986 120.83L64.4609 121.376L65.0086 124.606L68.2462 124.06L67.6986 120.83Z" fill="black"/>
<path d="M70.9379 120.284L67.6992 120.83L68.2468 124.06L71.4855 123.513L70.9379 120.284Z" fill="black"/>
<path d="M153.636 101.318L153.039 105.926L157.659 106.521L158.256 101.913L153.636 101.318Z" fill="black"/>
<path d="M148.417 105.329L147.82 109.937L152.441 110.532L153.038 105.924L148.417 105.329Z" fill="black"/>
<path d="M149.015 100.722L148.418 105.33L153.039 105.925L153.635 101.317L149.015 100.722Z" fill="#3874AF"/>
<path d="M149.612 96.1145L149.016 100.723L153.636 101.318L154.233 96.7098L149.612 96.1145Z" fill="black"/>
<path d="M143.8 104.734L143.203 109.342L147.823 109.937L148.42 105.329L143.8 104.734Z" fill="black"/>
<path d="M144.398 100.126L143.801 104.734L148.421 105.329L149.017 100.721L144.398 100.126Z" fill="#3874AF"/>
<path d="M144.991 95.5177L144.395 100.126L149.014 100.721L149.611 96.113L144.991 95.5177Z" fill="black"/>
<path d="M145.589 90.9098L144.992 95.519L149.612 96.1143L150.209 91.5051L145.589 90.9098Z" fill="black"/>
<path d="M146.187 86.303L145.59 90.9111L150.21 91.5064L150.806 86.8982L146.187 86.303Z" fill="black"/>
<path d="M146.784 81.6951L146.188 86.3032L150.807 86.8984L151.404 82.2903L146.784 81.6951Z" fill="black"/>
<path d="M147.382 77.0861L146.785 81.6953L151.405 82.2905L152.002 77.6814L147.382 77.0861Z" fill="black"/>
<path d="M147.98 72.4782L147.383 77.0864L152.003 77.6817L152.599 73.0734L147.98 72.4782Z" fill="black"/>
<path d="M148.573 67.8703L147.977 72.4785L152.596 73.0737L153.193 68.4655L148.573 67.8703Z" fill="black"/>
<path d="M149.171 63.2623L148.574 67.8716L153.194 68.4668L153.791 63.8576L149.171 63.2623Z" fill="black"/>
<path d="M149.769 58.6545L149.172 63.2627L153.792 63.8579L154.388 59.2498L149.769 58.6545Z" fill="black"/>
<path d="M150.366 54.0466L149.77 58.6548L154.389 59.25L154.986 54.6419L150.366 54.0466Z" fill="black"/>
<path d="M150.964 49.4387L150.367 54.0469L154.987 54.6421L155.584 50.0339L150.964 49.4387Z" fill="black"/>
<path d="M151.562 44.8307L150.965 49.4399L155.585 50.0352L156.182 45.4259L151.562 44.8307Z" fill="black"/>
<path d="M152.155 40.2239L151.559 44.832L156.178 45.4273L156.775 40.8191L152.155 40.2239Z" fill="black"/>
<path d="M152.757 35.616L152.16 40.2241L156.78 40.8194L157.377 36.2112L152.757 35.616Z" fill="black"/>
<path d="M153.351 31.0075L152.754 35.6167L157.374 36.2119L157.971 31.6027L153.351 31.0075Z" fill="black"/>
<path d="M139.179 104.138L138.582 108.747L143.202 109.342L143.799 104.734L139.179 104.138Z" fill="black"/>
<path d="M139.776 99.5305L139.18 104.139L143.8 104.734L144.396 100.126L139.776 99.5305Z" fill="#3874AF"/>
<path d="M140.374 94.9221L139.777 99.5303L144.397 100.126L144.994 95.5173L140.374 94.9221Z" fill="#1A4672"/>
<path d="M140.972 90.3146L140.375 94.9238L144.995 95.5191L145.592 90.9099L140.972 90.3146Z" fill="white"/>
<path d="M141.569 85.7067L140.973 90.3149L145.592 90.9102L146.189 86.3019L141.569 85.7067Z" fill="white"/>
<path d="M142.163 81.0983L141.566 85.7065L146.186 86.3018L146.783 81.6936L142.163 81.0983Z" fill="white"/>
<path d="M142.761 76.4909L142.164 81.1001L146.784 81.6953L147.381 77.0861L142.761 76.4909Z" fill="white"/>
<path d="M143.358 71.8825L142.762 76.4907L147.382 77.086L147.978 72.4777L143.358 71.8825Z" fill="white"/>
<path d="M143.956 67.2761L143.359 71.8843L147.979 72.4795L148.576 67.8713L143.956 67.2761Z" fill="white"/>
<path d="M144.554 62.6656L143.957 67.2749L148.577 67.8701L149.174 63.2609L144.554 62.6656Z" fill="white"/>
<path d="M145.151 58.0587L144.555 62.667L149.174 63.2622L149.771 58.654L145.151 58.0587Z" fill="white"/>
<path d="M145.749 53.4513L145.152 58.0596L149.772 58.6548L150.369 54.0466L145.749 53.4513Z" fill="white"/>
<path d="M146.347 48.8434L145.75 53.4517L150.37 54.0469L150.967 49.4387L146.347 48.8434Z" fill="white"/>
<path d="M146.941 44.2355L146.344 48.8447L150.964 49.44L151.56 44.8307L146.941 44.2355Z" fill="white"/>
<path d="M147.538 39.6286L146.941 44.2368L151.561 44.832L152.158 40.2239L147.538 39.6286Z" fill="white"/>
<path d="M148.136 35.0207L147.539 39.6289L152.159 40.2241L152.756 35.6159L148.136 35.0207Z" fill="white"/>
<path d="M148.734 30.4118L148.137 35.021L152.757 35.6162L153.353 31.007L148.734 30.4118Z" fill="white"/>
<path d="M149.327 25.8039L148.73 30.4121L153.35 31.0073L153.947 26.3991L149.327 25.8039Z" fill="black"/>
<path d="M149.925 21.1955L149.328 25.8037L153.948 26.3989L154.545 21.7907L149.925 21.1955Z" fill="black"/>
<path d="M129.187 145.014L128.59 149.623L133.211 150.218L133.807 145.61L129.187 145.014Z" fill="#232323"/>
<path d="M131.573 126.583L130.977 131.191L135.597 131.786L136.194 127.178L131.573 126.583Z" fill="black"/>
<path d="M132.171 121.974L131.574 126.583L136.195 127.178L136.792 122.569L132.171 121.974Z" fill="black"/>
<path d="M132.769 117.367L132.172 121.975L136.793 122.57L137.389 117.962L132.769 117.367Z" fill="black"/>
<path d="M133.366 112.759L132.77 117.367L137.39 117.963L137.987 113.354L133.366 112.759Z" fill="black"/>
<path d="M133.964 108.15L133.367 112.759L137.988 113.355L138.585 108.745L133.964 108.15Z" fill="black"/>
<path d="M134.562 103.543L133.965 108.151L138.586 108.747L139.182 104.139L134.562 103.543Z" fill="black"/>
<path d="M135.155 98.9353L134.559 103.543L139.179 104.139L139.776 99.5306L135.155 98.9353Z" fill="#3874AF"/>
<path d="M135.753 94.3274L135.156 98.9355L139.777 99.5309L140.374 94.9227L135.753 94.3274Z" fill="#1A4672"/>
<path d="M136.351 89.7194L135.754 94.3286L140.375 94.924L140.972 90.3147L136.351 89.7194Z" fill="#6889A0"/>
<path d="M136.948 85.1115L136.352 89.7197L140.972 90.3151L141.569 85.7069L136.948 85.1115Z" fill="#6889A0"/>
<path d="M137.546 80.5041L136.949 85.1123L141.57 85.7077L142.167 81.0995L137.546 80.5041Z" fill="#6889A0"/>
<path d="M138.14 75.8942L137.543 80.5034L142.164 81.0988L142.761 76.4895L138.14 75.8942Z" fill="#6889A0"/>
<path d="M138.741 71.2878L138.145 75.896L142.765 76.4914L143.362 71.8831L138.741 71.2878Z" fill="#6889A0"/>
<path d="M139.335 66.6794L138.738 71.2876L143.359 71.883L143.956 67.2747L139.335 66.6794Z" fill="#6889A0"/>
<path d="M139.933 62.0719L139.336 66.6812L143.957 67.2765L144.554 62.6673L139.933 62.0719Z" fill="#6889A0"/>
<path d="M140.53 57.4626L139.934 62.0708L144.554 62.6662L145.151 58.058L140.53 57.4626Z" fill="#6889A0"/>
<path d="M141.128 52.8561L140.531 57.4644L145.152 58.0597L145.749 53.4515L141.128 52.8561Z" fill="#6889A0"/>
<path d="M141.722 48.2477L141.125 52.856L145.746 53.4513L146.343 48.8431L141.722 48.2477Z" fill="#6889A0"/>
<path d="M142.32 43.6398L141.723 48.249L146.344 48.8444L146.94 44.2351L142.32 43.6398Z" fill="#6889A0"/>
<path d="M142.917 39.0319L142.32 43.6401L146.941 44.2355L147.538 39.6273L142.917 39.0319Z" fill="#6889A0"/>
<path d="M143.515 34.424L142.918 39.0322L147.539 39.6276L148.136 35.0194L143.515 34.424Z" fill="#6889A0"/>
<path d="M144.112 29.8151L143.516 34.4243L148.136 35.0197L148.733 30.4104L144.112 29.8151Z" fill="#6889A0"/>
<path d="M144.71 25.2082L144.113 29.8164L148.734 30.4118L149.331 25.8035L144.71 25.2082Z" fill="white"/>
<path d="M145.308 20.6003L144.711 25.2085L149.332 25.8039L149.929 21.1956L145.308 20.6003Z" fill="white"/>
<path d="M145.902 15.9923L145.305 20.6016L149.926 21.1969L150.522 16.5877L145.902 15.9923Z" fill="black"/>
<path d="M146.499 11.3835L145.902 15.9917L150.523 16.5871L151.12 11.9788L146.499 11.3835Z" fill="black"/>
<path d="M124.565 144.419L123.969 149.027L128.589 149.623L129.185 145.014L124.565 144.419Z" fill="#232323"/>
<path d="M126.358 130.595L125.762 135.203L130.382 135.798L130.978 131.19L126.358 130.595Z" fill="black"/>
<path d="M126.956 125.988L126.359 130.596L130.979 131.191L131.576 126.583L126.956 125.988Z" fill="#3F3F3F"/>
<path d="M127.55 121.379L126.953 125.988L131.573 126.583L132.17 121.974L127.55 121.379Z" fill="#494949"/>
<path d="M128.148 116.771L127.551 121.379L132.171 121.975L132.767 117.366L128.148 116.771Z" fill="#3F3F3F"/>
<path d="M128.745 112.164L128.148 116.772L132.768 117.367L133.365 112.759L128.745 112.164Z" fill="#494949"/>
<path d="M129.343 107.555L128.746 112.164L133.366 112.759L133.963 108.15L129.343 107.555Z" fill="#3F3F3F"/>
<path d="M129.94 102.947L129.344 107.555L133.964 108.15L134.56 103.542L129.94 102.947Z" fill="black"/>
<path d="M130.538 98.3386L129.941 102.947L134.561 103.542L135.158 98.9338L130.538 98.3386Z" fill="#5A95DB"/>
<path d="M131.136 93.7321L130.539 98.3403L135.159 98.9356L135.756 94.3273L131.136 93.7321Z" fill="#1A4672"/>
<path d="M131.73 89.1232L131.133 93.7324L135.753 94.3276L136.349 89.7184L131.73 89.1232Z" fill="#5D7B93"/>
<path d="M132.327 84.5163L131.73 89.1245L136.35 89.7197L136.947 85.1115L132.327 84.5163Z" fill="#5D7B93"/>
<path d="M132.925 79.9084L132.328 84.5166L136.948 85.1118L137.545 80.5036L132.925 79.9084Z" fill="#5D7B93"/>
<path d="M133.523 75.299L132.926 79.9082L137.546 80.5034L138.142 75.8942L133.523 75.299Z" fill="#5D7B93"/>
<path d="M134.12 70.6921L133.523 75.3003L138.143 75.8955L138.74 71.2873L134.12 70.6921Z" fill="#5D7B93"/>
<path d="M134.718 66.0842L134.121 70.6924L138.741 71.2876L139.338 66.6794L134.718 66.0842Z" fill="#5D7B93"/>
<path d="M135.316 61.4752L134.719 66.0845L139.339 66.6797L139.935 62.0705L135.316 61.4752Z" fill="#5D7B93"/>
<path d="M135.909 56.8683L135.312 61.4766L139.932 62.0718L140.529 57.4636L135.909 56.8683Z" fill="#5D7B93"/>
<path d="M136.507 52.2604L135.91 56.8687L140.53 57.4639L141.127 52.8556L136.507 52.2604Z" fill="#5D7B93"/>
<path d="M137.105 47.6526L136.508 52.2607L141.128 52.856L141.724 48.2478L137.105 47.6526Z" fill="#5D7B93"/>
<path d="M137.702 43.0441L137.105 47.6533L141.725 48.2485L142.322 43.6393L137.702 43.0441Z" fill="#5D7B93"/>
<path d="M138.3 38.4367L137.703 43.0449L142.323 43.6402L142.92 39.0319L138.3 38.4367Z" fill="#5D7B93"/>
<path d="M138.898 33.8288L138.301 38.437L142.921 39.0322L143.517 34.424L138.898 33.8288Z" fill="#5D7B93"/>
<path d="M139.491 29.2208L138.895 33.8301L143.514 34.4253L144.111 29.8161L139.491 29.2208Z" fill="#5D7B93"/>
<path d="M140.089 24.612L139.492 29.2202L144.112 29.8154L144.709 25.2072L140.089 24.612Z" fill="#5D7B93"/>
<path d="M140.687 20.0051L140.09 24.6133L144.71 25.2085L145.306 20.6003L140.687 20.0051Z" fill="#5D7B93"/>
<path d="M141.284 15.3961L140.688 20.0054L145.307 20.6006L145.904 15.9914L141.284 15.3961Z" fill="white"/>
<path d="M141.882 10.7887L141.285 15.397L145.905 15.9922L146.502 11.384L141.882 10.7887Z" fill="white"/>
<path d="M142.48 6.18132L141.883 10.7896L146.503 11.3848L147.099 6.77655L142.48 6.18132Z" fill="black"/>
<path d="M119.948 143.824L119.352 148.432L123.971 149.027L124.568 144.419L119.948 143.824Z" fill="#232323"/>
<path d="M122.335 125.391L121.738 129.999L126.358 130.594L126.955 125.986L122.335 125.391Z" fill="black"/>
<path d="M122.933 120.783L122.336 125.393L126.956 125.988L127.553 121.379L122.933 120.783Z" fill="black"/>
<path d="M123.53 116.176L122.934 120.784L127.553 121.379L128.15 116.771L123.53 116.176Z" fill="black"/>
<path d="M124.128 111.569L123.531 116.177L128.151 116.772L128.748 112.164L124.128 111.569Z" fill="black"/>
<path d="M124.722 106.959L124.125 111.568L128.745 112.164L129.342 107.554L124.722 106.959Z" fill="black"/>
<path d="M125.319 102.352L124.723 106.96L129.342 107.555L129.939 102.947L125.319 102.352Z" fill="black"/>
<path d="M125.917 97.7443L125.32 102.353L129.94 102.948L130.537 98.3395L125.917 97.7443Z" fill="#5A95DB"/>
<path d="M126.515 93.1364L125.918 97.7446L130.538 98.3399L131.135 93.7317L126.515 93.1364Z" fill="#1A4672"/>
<path d="M127.112 88.528L126.516 93.1372L131.135 93.7324L131.732 89.1232L127.112 88.528Z" fill="#6889A0"/>
<path d="M127.71 83.9196L127.113 88.5278L131.733 89.1231L132.33 84.5149L127.71 83.9196Z" fill="#6889A0"/>
<path d="M128.308 79.3118L127.711 83.9199L132.331 84.5151L132.927 79.907L128.308 79.3118Z" fill="#6889A0"/>
<path d="M128.902 74.7042L128.305 79.3135L132.924 79.9087L133.521 75.2995L128.902 74.7042Z" fill="#6889A0"/>
<path d="M129.499 70.0969L128.902 74.7051L133.522 75.3003L134.119 70.6921L129.499 70.0969Z" fill="#6889A0"/>
<path d="M130.097 65.4895L129.5 70.0977L134.12 70.6929L134.717 66.0847L130.097 65.4895Z" fill="#6889A0"/>
<path d="M130.695 60.88L130.098 65.4893L134.717 66.0845L135.314 61.4753L130.695 60.88Z" fill="#6889A0"/>
<path d="M131.292 56.2717L130.695 60.8799L135.315 61.4751L135.912 56.8669L131.292 56.2717Z" fill="#6889A0"/>
<path d="M131.89 51.6643L131.293 56.2725L135.913 56.8677L136.51 52.2595L131.89 51.6643Z" fill="#6889A0"/>
<path d="M132.483 47.0578L131.887 51.666L136.507 52.2612L137.103 47.653L132.483 47.0578Z" fill="#6889A0"/>
<path d="M133.081 42.4484L132.484 47.0576L137.104 47.6528L137.701 43.0436L133.081 42.4484Z" fill="#6889A0"/>
<path d="M133.679 37.8415L133.082 42.4497L137.702 43.0449L138.299 38.4368L133.679 37.8415Z" fill="#6889A0"/>
<path d="M134.276 33.2336L133.68 37.8418L138.3 38.437L138.896 33.8289L134.276 33.2336Z" fill="#6889A0"/>
<path d="M134.874 28.6247L134.277 33.2339L138.897 33.8291L139.494 29.2199L134.874 28.6247Z" fill="#6889A0"/>
<path d="M135.472 24.0168L134.875 28.625L139.495 29.2202L140.092 24.6121L135.472 24.0168Z" fill="white"/>
<path d="M136.069 19.4098L135.473 24.0181L140.092 24.6133L140.689 20.0051L136.069 19.4098Z" fill="white"/>
<path d="M136.663 14.8004L136.066 19.4097L140.686 20.0049L141.283 15.3957L136.663 14.8004Z" fill="black"/>
<path d="M137.261 10.1926L136.664 14.8008L141.284 15.396L141.881 10.7878L137.261 10.1926Z" fill="black"/>
<path d="M120.702 101.756L120.105 106.364L124.726 106.96L125.323 102.351L120.702 101.756Z" fill="black"/>
<path d="M121.296 97.1482L120.699 101.756L125.32 102.352L125.917 97.7436L121.296 97.1482Z" fill="#5A95DB"/>
<path d="M121.898 92.5407L121.301 97.1489L125.922 97.7443L126.518 93.1361L121.898 92.5407Z" fill="#1A4672"/>
<path d="M122.491 87.9323L121.895 92.5415L126.515 93.1369L127.112 88.5276L122.491 87.9323Z" fill="white"/>
<path d="M123.089 83.3254L122.492 87.9336L127.113 88.529L127.71 83.9208L123.089 83.3254Z" fill="white"/>
<path d="M123.687 78.7175L123.09 83.3257L127.711 83.921L128.307 79.3129L123.687 78.7175Z" fill="white"/>
<path d="M124.284 74.1081L123.688 78.7173L128.308 79.3126L128.905 74.7034L124.284 74.1081Z" fill="white"/>
<path d="M124.878 69.5007L124.281 74.1089L128.902 74.7042L129.499 70.0961L124.878 69.5007Z" fill="white"/>
<path d="M125.476 64.8928L124.879 69.501L129.5 70.0963L130.097 65.4882L125.476 64.8928Z" fill="white"/>
<path d="M126.073 60.2848L125.477 64.894L130.097 65.4894L130.694 60.8802L126.073 60.2848Z" fill="white"/>
<path d="M126.671 55.6765L126.074 60.2847L130.695 60.88L131.292 56.2719L126.671 55.6765Z" fill="white"/>
<path d="M127.269 51.0691L126.672 55.6772L131.293 56.2726L131.889 51.6644L127.269 51.0691Z" fill="white"/>
<path d="M127.866 46.4607L127.27 51.0688L131.89 51.6642L132.487 47.056L127.866 46.4607Z" fill="white"/>
<path d="M128.46 41.8532L127.863 46.4624L132.484 47.0578L133.081 42.4485L128.46 41.8532Z" fill="white"/>
<path d="M129.058 37.2463L128.461 41.8545L133.082 42.4499L133.679 37.8416L129.058 37.2463Z" fill="white"/>
<path d="M129.655 32.6384L129.059 37.2466L133.679 37.8419L134.276 33.2337L129.655 32.6384Z" fill="white"/>
<path d="M130.253 28.0285L129.656 32.6377L134.277 33.2331L134.874 28.6239L130.253 28.0285Z" fill="white"/>
<path d="M130.851 23.4216L130.254 28.0298L134.875 28.6251L135.471 24.017L130.851 23.4216Z" fill="black"/>
<path d="M131.448 18.8132L130.852 23.4214L135.472 24.0168L136.069 19.4086L131.448 18.8132Z" fill="black"/>
<path d="M116.081 101.16L115.484 105.768L120.104 106.363L120.701 101.755L116.081 101.16Z" fill="black"/>
<path d="M116.679 96.5529L116.082 101.161L120.702 101.756L121.299 97.1482L116.679 96.5529Z" fill="#5A95DB"/>
<path d="M117.276 91.945L116.68 96.5532L121.3 97.1485L121.896 92.5402L117.276 91.945Z" fill="black"/>
<path d="M117.874 87.3371L117.277 91.9463L121.897 92.5415L122.494 87.9323L117.874 87.3371Z" fill="black"/>
<path d="M118.468 82.7292L117.871 87.3374L122.491 87.9326L123.088 83.3244L118.468 82.7292Z" fill="black"/>
<path d="M119.065 78.1213L118.469 82.7295L123.089 83.3247L123.685 78.7165L119.065 78.1213Z" fill="black"/>
<path d="M119.663 73.5128L119.066 78.1221L123.686 78.7173L124.283 74.1081L119.663 73.5128Z" fill="black"/>
<path d="M120.261 68.9055L119.664 73.5137L124.284 74.1089L124.881 69.5007L120.261 68.9055Z" fill="black"/>
<path d="M120.858 64.2971L120.262 68.9053L124.882 69.5005L125.478 64.8923L120.858 64.2971Z" fill="black"/>
<path d="M121.456 59.6896L120.859 64.2988L125.479 64.8941L126.076 60.2848L121.456 59.6896Z" fill="black"/>
<path d="M122.054 55.0818L121.457 59.6899L126.077 60.2852L126.674 55.677L122.054 55.0818Z" fill="black"/>
<path d="M122.648 50.4748L122.051 55.083L126.671 55.6782L127.267 51.07L122.648 50.4748Z" fill="black"/>
<path d="M123.245 45.8669L122.648 50.4751L127.268 51.0703L127.865 46.4621L123.245 45.8669Z" fill="black"/>
<path d="M123.843 41.257L123.246 45.8662L127.866 46.4614L128.463 41.8522L123.843 41.257Z" fill="black"/>
<path d="M124.44 36.6501L123.844 41.2583L128.464 41.8535L129.06 37.2454L124.44 36.6501Z" fill="black"/>
<path d="M125.038 32.0422L124.441 36.6504L129.061 37.2456L129.658 32.6374L125.038 32.0422Z" fill="black"/>
<path d="M125.636 27.4342L125.039 32.0435L129.659 32.6387L130.256 28.0295L125.636 27.4342Z" fill="black"/>
<path d="M111.464 100.566L110.867 105.174L115.487 105.769L116.084 101.161L111.464 100.566Z" fill="black"/>
<path d="M112.062 95.9577L111.465 100.566L116.085 101.161L116.681 96.5529L112.062 95.9577Z" fill="#5A95DB"/>
<path d="M112.655 91.3498L112.059 95.958L116.678 96.5532L117.275 91.945L112.655 91.3498Z" fill="black"/>
<path d="M107.44 95.3625L106.844 99.9707L111.464 100.566L112.06 95.9577L107.44 95.3625Z" fill="black"/>
<path d="M138.221 100.811H133.875V105.146H138.221V100.811Z" fill="black"/>
<path d="M138.221 96.4751H133.875V100.811H138.221V96.4751Z" fill="black"/>
<path d="M138.221 92.1396H133.875V96.4752H138.221V92.1396Z" fill="black"/>
<path d="M138.221 87.8032H133.875V92.1398H138.221V87.8032Z" fill="black"/>
<path d="M138.221 83.4678H133.875V87.8033H138.221V83.4678Z" fill="black"/>
<path d="M138.221 79.1309H133.875V83.4664H138.221V79.1309Z" fill="black"/>
<path d="M138.221 74.7944H133.875V79.131H138.221V74.7944Z" fill="black"/>
<path d="M138.221 70.459H133.875V74.7945H138.221V70.459Z" fill="black"/>
<path d="M138.221 66.123H133.875V70.4586H138.221V66.123Z" fill="black"/>
<path d="M133.874 126.827H129.527V131.163H133.874V126.827Z" fill="black"/>
<path d="M133.874 122.49H129.527V126.826H133.874V122.49Z" fill="black"/>
<path d="M133.874 118.154H129.527V122.49H133.874V118.154Z" fill="black"/>
<path d="M133.874 113.818H129.527V118.154H133.874V113.818Z" fill="black"/>
<path d="M133.874 109.482H129.527V113.818H133.874V109.482Z" fill="black"/>
<path d="M133.874 105.146H129.527V109.483H133.874V105.146Z" fill="black"/>
<path d="M133.874 100.811H129.527V105.146H133.874V100.811Z" fill="#C4C9CE"/>
<path d="M133.874 96.4751H129.527V100.811H133.874V96.4751Z" fill="#C4C9CE"/>
<path d="M133.874 92.1396H129.527V96.4752H133.874V92.1396Z" fill="#C4C9CE"/>
<path d="M133.874 87.8032H129.527V92.1398H133.874V87.8032Z" fill="#C4C9CE"/>
<path d="M133.874 83.4678H129.527V87.8033H133.874V83.4678Z" fill="#C4C9CE"/>
<path d="M133.874 79.1309H129.527V83.4664H133.874V79.1309Z" fill="#C4C9CE"/>
<path d="M133.874 74.7944H129.527V79.131H133.874V74.7944Z" fill="#C4C9CE"/>
<path d="M133.874 70.459H129.527V74.7945H133.874V70.459Z" fill="#C4C9CE"/>
<path d="M133.874 66.123H129.527V70.4586H133.874V66.123Z" fill="#C4C9CE"/>
<path d="M133.874 61.7866H129.527V66.1232H133.874V61.7866Z" fill="black"/>
<path d="M129.527 131.163H125.18V135.499H129.527V131.163Z" fill="black"/>
<path d="M129.527 126.827H125.18V131.163H129.527V126.827Z" fill="#C4C9CE"/>
<path d="M129.527 122.49H125.18V126.826H129.527V122.49Z" fill="#C4C9CE"/>
<path d="M129.527 118.154H125.18V122.49H129.527V118.154Z" fill="#C4C9CE"/>
<path d="M129.527 113.818H125.18V118.154H129.527V113.818Z" fill="#C4C9CE"/>
<path d="M129.527 109.482H125.18V113.818H129.527V109.482Z" fill="#C4C9CE"/>
<path d="M129.527 105.146H125.18V109.483H129.527V105.146Z" fill="#C4C9CE"/>
<path d="M129.527 100.811H125.18V105.146H129.527V100.811Z" fill="#C4C9CE"/>
<path d="M129.527 96.4751H125.18V100.811H129.527V96.4751Z" fill="#363D44"/>
<path d="M129.527 92.1396H125.18V96.4752H129.527V92.1396Z" fill="#363D44"/>
<path d="M129.527 87.8032H125.18V92.1398H129.527V87.8032Z" fill="#363D44"/>
<path d="M129.527 83.4678H125.18V87.8033H129.527V83.4678Z" fill="#363D44"/>
<path d="M129.527 79.1309H125.18V83.4664H129.527V79.1309Z" fill="#363D44"/>
<path d="M129.527 74.7944H125.18V79.131H129.527V74.7944Z" fill="#363D44"/>
<path d="M129.527 70.459H125.18V74.7945H129.527V70.459Z" fill="#6883AA"/>
<path d="M129.527 66.123H125.18V70.4586H129.527V66.123Z" fill="#C4C9CE"/>
<path d="M129.527 61.7866H125.18V66.1232H129.527V61.7866Z" fill="black"/>
<path d="M125.178 135.499H120.832V139.835H125.178V135.499Z" fill="black"/>
<path d="M125.178 131.163H120.832V135.499H125.178V131.163Z" fill="#C4C9CE"/>
<path d="M125.178 126.827H120.832V131.163H125.178V126.827Z" fill="#C4C9CE"/>
<path d="M125.178 122.49H120.832V126.826H125.178V122.49Z" fill="#363D44"/>
<path d="M125.178 118.154H120.832V122.49H125.178V118.154Z" fill="#363D44"/>
<path d="M125.178 113.818H120.832V118.154H125.178V113.818Z" fill="#363D44"/>
<path d="M125.178 109.482H120.832V113.818H125.178V109.482Z" fill="#363D44"/>
<path d="M125.178 105.146H120.832V109.483H125.178V105.146Z" fill="#363D44"/>
<path d="M125.178 100.811H120.832V105.146H125.178V100.811Z" fill="#363D44"/>
<path d="M125.178 96.4751H120.832V100.811H125.178V96.4751Z" fill="#C4C9CE"/>
<path d="M125.178 92.1396H120.832V96.4752H125.178V92.1396Z" fill="#C4C9CE"/>
<path d="M125.178 87.8032H120.832V92.1398H125.178V87.8032Z" fill="#C4C9CE"/>
<path d="M125.178 83.4678H120.832V87.8033H125.178V83.4678Z" fill="#C4C9CE"/>
<path d="M125.178 79.1309H120.832V83.4664H125.178V79.1309Z" fill="#C4C9CE"/>
<path d="M125.178 74.7944H120.832V79.131H125.178V74.7944Z" fill="#C4C9CE"/>
<path d="M125.178 70.459H120.832V74.7945H125.178V70.459Z" fill="#363D44"/>
<path d="M125.178 66.123H120.832V70.4586H125.178V66.123Z" fill="#6883AA"/>
<path d="M125.178 61.7866H120.832V66.1232H125.178V61.7866Z" fill="black"/>
<path d="M120.831 139.835H116.484V144.171H120.831V139.835Z" fill="black"/>
<path d="M120.831 135.499H116.484V139.835H120.831V135.499Z" fill="#C4C9CE"/>
<path d="M120.831 131.163H116.484V135.499H120.831V131.163Z" fill="#6883AA"/>
<path d="M120.831 126.827H116.484V131.163H120.831V126.827Z" fill="#363D44"/>
<path d="M120.831 122.49H116.484V126.826H120.831V122.49Z" fill="#C4C9CE"/>
<path d="M120.831 118.154H116.484V122.49H120.831V118.154Z" fill="#C4C9CE"/>
<path d="M120.831 113.818H116.484V118.154H120.831V113.818Z" fill="#C4C9CE"/>
<path d="M120.831 109.482H116.484V113.818H120.831V109.482Z" fill="#C4C9CE"/>
<path d="M120.831 105.146H116.484V109.483H120.831V105.146Z" fill="#C4C9CE"/>
<path d="M120.831 100.811H116.484V105.146H120.831V100.811Z" fill="#C4C9CE"/>
<path d="M120.831 96.4751H116.484V100.811H120.831V96.4751Z" fill="#6883AA"/>
<path d="M120.831 92.1396H116.484V96.4752H120.831V92.1396Z" fill="#6883AA"/>
<path d="M120.831 87.8032H116.484V92.1398H120.831V87.8032Z" fill="#6883AA"/>
<path d="M120.831 83.4678H116.484V87.8033H120.831V83.4678Z" fill="#6883AA"/>
<path d="M120.831 79.1309H116.484V83.4664H120.831V79.1309Z" fill="#6883AA"/>
<path d="M120.831 74.7944H116.484V79.131H120.831V74.7944Z" fill="#C4C9CE"/>
<path d="M120.831 70.459H116.484V74.7945H120.831V70.459Z" fill="#363D44"/>
<path d="M120.831 66.123H116.484V70.4586H120.831V66.123Z" fill="#6883AA"/>
<path d="M120.831 61.7866H116.484V66.1232H120.831V61.7866Z" fill="black"/>
<path d="M116.487 139.835H112.141V144.171H116.487V139.835Z" fill="black"/>
<path d="M116.487 135.499H112.141V139.835H116.487V135.499Z" fill="#6883AA"/>
<path d="M116.487 131.163H112.141V135.499H116.487V131.163Z" fill="#363D44"/>
<path d="M116.487 126.827H112.141V131.163H116.487V126.827Z" fill="#6883AA"/>
<path d="M116.487 122.49H112.141V126.826H116.487V122.49Z" fill="#6883AA"/>
<path d="M116.487 118.154H112.141V122.49H116.487V118.154Z" fill="#6883AA"/>
<path d="M116.487 113.818H112.141V118.154H116.487V113.818Z" fill="#6883AA"/>
<path d="M116.487 109.482H112.141V113.818H116.487V109.482Z" fill="#6883AA"/>
<path d="M116.487 105.146H112.141V109.483H116.487V105.146Z" fill="#6883AA"/>
<path d="M116.487 100.811H112.141V105.146H116.487V100.811Z" fill="#6883AA"/>
<path d="M116.487 96.4751H112.141V100.811H116.487V96.4751Z" fill="#6883AA"/>
<path d="M116.487 92.1396H112.141V96.4752H116.487V92.1396Z" fill="#6883AA"/>
<path d="M116.487 87.8032H112.141V92.1398H116.487V87.8032Z" fill="#6883AA"/>
<path d="M116.487 83.4678H112.141V87.8033H116.487V83.4678Z" fill="#6883AA"/>
<path d="M116.487 79.1309H112.141V83.4664H116.487V79.1309Z" fill="#6883AA"/>
<path d="M116.487 74.7944H112.141V79.131H116.487V74.7944Z" fill="#C4C9CE"/>
<path d="M116.487 70.459H112.141V74.7945H116.487V70.459Z" fill="#363D44"/>
<path d="M116.487 66.123H112.141V70.4586H116.487V66.123Z" fill="#6883AA"/>
<path d="M116.487 61.7866H112.141V66.1232H116.487V61.7866Z" fill="black"/>
<path d="M112.141 144.17H107.793V148.506H112.141V144.17Z" fill="black"/>
<path d="M112.141 139.835H107.793V144.171H112.141V139.835Z" fill="#6883AA"/>
<path d="M112.141 135.499H107.793V139.835H112.141V135.499Z" fill="#6883AA"/>
<path d="M112.141 131.163H107.793V135.499H112.141V131.163Z" fill="#363D44"/>
<path d="M112.141 126.827H107.793V131.163H112.141V126.827Z" fill="#6883AA"/>
<path d="M112.141 122.49H107.793V126.826H112.141V122.49Z" fill="#6883AA"/>
<path d="M112.141 118.154H107.793V122.49H112.141V118.154Z" fill="#6883AA"/>
<path d="M112.141 113.818H107.793V118.154H112.141V113.818Z" fill="#6883AA"/>
<path d="M112.141 109.482H107.793V113.818H112.141V109.482Z" fill="#6883AA"/>
<path d="M112.141 105.146H107.793V109.483H112.141V105.146Z" fill="#6883AA"/>
<path d="M112.141 100.811H107.793V105.146H112.141V100.811Z" fill="#6883AA"/>
<path d="M112.141 96.4751H107.793V100.811H112.141V96.4751Z" fill="#6883AA"/>
<path d="M112.141 92.1396H107.793V96.4752H112.141V92.1396Z" fill="#6883AA"/>
<path d="M112.141 87.8032H107.793V92.1398H112.141V87.8032Z" fill="#6883AA"/>
<path d="M112.141 83.4678H107.793V87.8033H112.141V83.4678Z" fill="#6883AA"/>
<path d="M112.141 79.1309H107.793V83.4664H112.141V79.1309Z" fill="#6883AA"/>
<path d="M112.141 74.7944H107.793V79.131H112.141V74.7944Z" fill="#6883AA"/>
<path d="M112.141 70.459H107.793V74.7945H112.141V70.459Z" fill="#363D44"/>
<path d="M112.141 66.123H107.793V70.4586H112.141V66.123Z" fill="#6883AA"/>
<path d="M112.141 61.7866H107.793V66.1232H112.141V61.7866Z" fill="black"/>
<path d="M107.792 148.506H103.445V152.842H107.792V148.506Z" fill="black"/>
<path d="M107.792 144.17H103.445V148.506H107.792V144.17Z" fill="#506987"/>
<path d="M107.792 139.835H103.445V144.171H107.792V139.835Z" fill="#506987"/>
<path d="M107.792 135.499H103.445V139.835H107.792V135.499Z" fill="#363D44"/>
<path d="M107.792 131.163H103.445V135.499H107.792V131.163Z" fill="#6883AA"/>
<path d="M107.792 126.827H103.445V131.163H107.792V126.827Z" fill="#6883AA"/>
<path d="M107.792 122.49H103.445V126.826H107.792V122.49Z" fill="#6883AA"/>
<path d="M107.792 118.154H103.445V122.49H107.792V118.154Z" fill="#6883AA"/>
<path d="M107.792 113.818H103.445V118.154H107.792V113.818Z" fill="#6883AA"/>
<path d="M107.792 109.482H103.445V113.818H107.792V109.482Z" fill="#6883AA"/>
<path d="M107.792 105.146H103.445V109.483H107.792V105.146Z" fill="#6883AA"/>
<path d="M107.792 100.811H103.445V105.146H107.792V100.811Z" fill="#6883AA"/>
<path d="M107.792 96.4751H103.445V100.811H107.792V96.4751Z" fill="#6883AA"/>
<path d="M107.792 92.1396H103.445V96.4752H107.792V92.1396Z" fill="#6883AA"/>
<path d="M107.792 87.8032H103.445V92.1398H107.792V87.8032Z" fill="#6883AA"/>
<path d="M107.792 83.4678H103.445V87.8033H107.792V83.4678Z" fill="#6883AA"/>
<path d="M107.792 79.1309H103.445V83.4664H107.792V79.1309Z" fill="#6883AA"/>
<path d="M107.792 74.7944H103.445V79.131H107.792V74.7944Z" fill="#6883AA"/>
<path d="M107.792 70.459H103.445V74.7945H107.792V70.459Z" fill="#363D44"/>
<path d="M107.792 66.123H103.445V70.4586H107.792V66.123Z" fill="#6883AA"/>
<path d="M107.792 61.7866H103.445V66.1232H107.792V61.7866Z" fill="#6883AA"/>
<path d="M107.792 57.4512H103.445V61.7867H107.792V57.4512Z" fill="black"/>
<path d="M103.444 148.506H99.0977V152.842H103.444V148.506Z" fill="black"/>
<path d="M103.444 144.17H99.0977V148.506H103.444V144.17Z" fill="#506987"/>
<path d="M103.444 139.835H99.0977V144.171H103.444V139.835Z" fill="#506987"/>
<path d="M103.444 135.499H99.0977V139.835H103.444V135.499Z" fill="#363D44"/>
<path d="M103.444 131.163H99.0977V135.499H103.444V131.163Z" fill="#506987"/>
<path d="M103.444 126.827H99.0977V131.163H103.444V126.827Z" fill="#6883AA"/>
<path d="M103.444 122.49H99.0977V126.826H103.444V122.49Z" fill="#6883AA"/>
<path d="M103.444 118.154H99.0977V122.49H103.444V118.154Z" fill="#6883AA"/>
<path d="M103.444 113.818H99.0977V118.154H103.444V113.818Z" fill="#6883AA"/>
<path d="M103.444 109.482H99.0977V113.818H103.444V109.482Z" fill="#6883AA"/>
<path d="M103.444 105.146H99.0977V109.483H103.444V105.146Z" fill="#6883AA"/>
<path d="M103.444 100.811H99.0977V105.146H103.444V100.811Z" fill="#6883AA"/>
<path d="M103.444 96.4751H99.0977V100.811H103.444V96.4751Z" fill="#6883AA"/>
<path d="M103.444 92.1396H99.0977V96.4752H103.444V92.1396Z" fill="#6883AA"/>
<path d="M103.444 87.8032H99.0977V92.1398H103.444V87.8032Z" fill="#6883AA"/>
<path d="M103.444 83.4678H99.0977V87.8033H103.444V83.4678Z" fill="#6883AA"/>
<path d="M103.444 79.1309H99.0977V83.4664H103.444V79.1309Z" fill="#6883AA"/>
<path d="M103.444 74.7944H99.0977V79.131H103.444V74.7944Z" fill="#6883AA"/>
<path d="M103.444 70.459H99.0977V74.7945H103.444V70.459Z" fill="#6883AA"/>
<path d="M103.444 66.123H99.0977V70.4586H103.444V66.123Z" fill="#363D44"/>
<path d="M103.444 61.7866H99.0977V66.1232H103.444V61.7866Z" fill="#6883AA"/>
<path d="M103.444 57.4512H99.0977V61.7867H103.444V57.4512Z" fill="black"/>
<path d="M99.0975 148.506H94.75V152.842H99.0975V148.506Z" fill="black"/>
<path d="M99.0975 144.17H94.75V148.506H99.0975V144.17Z" fill="#506987"/>
<path d="M99.0975 139.835H94.75V144.171H99.0975V139.835Z" fill="#506987"/>
<path d="M99.0975 135.499H94.75V139.835H99.0975V135.499Z" fill="#363D44"/>
<path d="M99.0975 131.163H94.75V135.499H99.0975V131.163Z" fill="#506987"/>
<path d="M99.0975 126.827H94.75V131.163H99.0975V126.827Z" fill="#6883AA"/>
<path d="M99.0975 122.49H94.75V126.826H99.0975V122.49Z" fill="#6883AA"/>
<path d="M99.0975 118.154H94.75V122.49H99.0975V118.154Z" fill="#6883AA"/>
<path d="M99.0975 113.818H94.75V118.154H99.0975V113.818Z" fill="#6883AA"/>
<path d="M99.0975 109.482H94.75V113.818H99.0975V109.482Z" fill="#6883AA"/>
<path d="M99.0975 105.146H94.75V109.483H99.0975V105.146Z" fill="#6883AA"/>
<path d="M99.0975 100.811H94.75V105.146H99.0975V100.811Z" fill="#6883AA"/>
<path d="M99.0975 96.4751H94.75V100.811H99.0975V96.4751Z" fill="#6883AA"/>
<path d="M99.0975 92.1396H94.75V96.4752H99.0975V92.1396Z" fill="#6883AA"/>
<path d="M99.0975 87.8032H94.75V92.1398H99.0975V87.8032Z" fill="#6883AA"/>
<path d="M99.0975 83.4678H94.75V87.8033H99.0975V83.4678Z" fill="#6883AA"/>
<path d="M99.0975 79.1309H94.75V83.4664H99.0975V79.1309Z" fill="#6883AA"/>
<path d="M99.0975 74.7944H94.75V79.131H99.0975V74.7944Z" fill="#6883AA"/>
<path d="M99.0975 70.459H94.75V74.7945H99.0975V70.459Z" fill="#6883AA"/>
<path d="M99.0975 66.123H94.75V70.4586H99.0975V66.123Z" fill="#363D44"/>
<path d="M99.0975 61.7866H94.75V66.1232H99.0975V61.7866Z" fill="#6883AA"/>
<path d="M99.0975 57.4512H94.75V61.7867H99.0975V57.4512Z" fill="black"/>
<path d="M94.7527 148.506H90.4062V152.842H94.7527V148.506Z" fill="black"/>
<path d="M94.7527 144.17H90.4062V148.506H94.7527V144.17Z" fill="#506987"/>
<path d="M94.7527 139.835H90.4062V144.171H94.7527V139.835Z" fill="#506987"/>
<path d="M94.7527 135.499H90.4062V139.835H94.7527V135.499Z" fill="#363D44"/>
<path d="M94.7527 131.163H90.4062V135.499H94.7527V131.163Z" fill="#506987"/>
<path d="M94.7527 126.827H90.4062V131.163H94.7527V126.827Z" fill="#506987"/>
<path d="M94.7527 122.49H90.4062V126.826H94.7527V122.49Z" fill="#6883AA"/>
<path d="M94.7527 118.154H90.4062V122.49H94.7527V118.154Z" fill="#6883AA"/>
<path d="M94.7527 113.818H90.4062V118.154H94.7527V113.818Z" fill="#6883AA"/>
<path d="M94.7527 109.482H90.4062V113.818H94.7527V109.482Z" fill="#6883AA"/>
<path d="M94.7527 105.146H90.4062V109.483H94.7527V105.146Z" fill="#6883AA"/>
<path d="M94.7527 100.811H90.4062V105.146H94.7527V100.811Z" fill="#6883AA"/>
<path d="M94.7527 96.4751H90.4062V100.811H94.7527V96.4751Z" fill="#6883AA"/>
<path d="M94.7527 92.1396H90.4062V96.4752H94.7527V92.1396Z" fill="#6883AA"/>
<path d="M94.7527 87.8032H90.4062V92.1398H94.7527V87.8032Z" fill="#6883AA"/>
<path d="M94.7527 83.4678H90.4062V87.8033H94.7527V83.4678Z" fill="#6883AA"/>
<path d="M94.7527 79.1309H90.4062V83.4664H94.7527V79.1309Z" fill="#6883AA"/>
<path d="M94.7527 74.7944H90.4062V79.131H94.7527V74.7944Z" fill="#6883AA"/>
<path d="M94.7527 70.459H90.4062V74.7945H94.7527V70.459Z" fill="#363D44"/>
<path d="M94.7527 66.123H90.4062V70.4586H94.7527V66.123Z" fill="#6883AA"/>
<path d="M94.7527 61.7866H90.4062V66.1232H94.7527V61.7866Z" fill="#6883AA"/>
<path d="M94.7527 57.4512H90.4062V61.7867H94.7527V57.4512Z" fill="black"/>
<path d="M90.405 144.17H86.0586V148.506H90.405V144.17Z" fill="black"/>
<path d="M90.405 139.835H86.0586V144.171H90.405V139.835Z" fill="#506987"/>
<path d="M90.405 135.499H86.0586V139.835H90.405V135.499Z" fill="#506987"/>
<path d="M90.405 131.163H86.0586V135.499H90.405V131.163Z" fill="#363D44"/>
<path d="M90.405 126.827H86.0586V131.163H90.405V126.827Z" fill="#506987"/>
<path d="M90.405 122.49H86.0586V126.826H90.405V122.49Z" fill="#6883AA"/>
<path d="M90.405 118.154H86.0586V122.49H90.405V118.154Z" fill="#6883AA"/>
<path d="M90.405 113.818H86.0586V118.154H90.405V113.818Z" fill="#6883AA"/>
<path d="M90.405 109.482H86.0586V113.818H90.405V109.482Z" fill="#6883AA"/>
<path d="M90.405 105.146H86.0586V109.483H90.405V105.146Z" fill="#6883AA"/>
<path d="M90.405 100.811H86.0586V105.146H90.405V100.811Z" fill="#6883AA"/>
<path d="M90.405 96.4751H86.0586V100.811H90.405V96.4751Z" fill="#6883AA"/>
<path d="M90.405 92.1396H86.0586V96.4752H90.405V92.1396Z" fill="#6883AA"/>
<path d="M90.405 87.8032H86.0586V92.1398H90.405V87.8032Z" fill="#6883AA"/>
<path d="M90.405 83.4678H86.0586V87.8033H90.405V83.4678Z" fill="#6883AA"/>
<path d="M90.405 79.1309H86.0586V83.4664H90.405V79.1309Z" fill="#6883AA"/>
<path d="M90.405 74.7944H86.0586V79.131H90.405V74.7944Z" fill="#6883AA"/>
<path d="M90.405 70.459H86.0586V74.7945H90.405V70.459Z" fill="#363D44"/>
<path d="M90.405 66.123H86.0586V70.4586H90.405V66.123Z" fill="#6883AA"/>
<path d="M90.405 61.7866H86.0586V66.1232H90.405V61.7866Z" fill="black"/>
<path d="M86.0584 139.835H81.7109V144.171H86.0584V139.835Z" fill="black"/>
<path d="M86.0584 135.499H81.7109V139.835H86.0584V135.499Z" fill="#506987"/>
<path d="M86.0584 131.163H81.7109V135.499H86.0584V131.163Z" fill="#363D44"/>
<path d="M86.0584 126.827H81.7109V131.163H86.0584V126.827Z" fill="#506987"/>
<path d="M86.0584 122.49H81.7109V126.826H86.0584V122.49Z" fill="#506987"/>
<path d="M86.0584 118.154H81.7109V122.49H86.0584V118.154Z" fill="#6883AA"/>
<path d="M86.0584 113.818H81.7109V118.154H86.0584V113.818Z" fill="#6883AA"/>
<path d="M86.0584 109.482H81.7109V113.818H86.0584V109.482Z" fill="#6883AA"/>
<path d="M86.0584 105.146H81.7109V109.483H86.0584V105.146Z" fill="#6883AA"/>
<path d="M86.0584 100.811H81.7109V105.146H86.0584V100.811Z" fill="#6883AA"/>
<path d="M86.0584 96.4751H81.7109V100.811H86.0584V96.4751Z" fill="#6883AA"/>
<path d="M86.0584 92.1396H81.7109V96.4752H86.0584V92.1396Z" fill="#6883AA"/>
<path d="M86.0584 87.8032H81.7109V92.1398H86.0584V87.8032Z" fill="#6883AA"/>
<path d="M86.0584 83.4678H81.7109V87.8033H86.0584V83.4678Z" fill="#6883AA"/>
<path d="M86.0584 79.1309H81.7109V83.4664H86.0584V79.1309Z" fill="#6883AA"/>
<path d="M86.0584 74.7944H81.7109V79.131H86.0584V74.7944Z" fill="#6883AA"/>
<path d="M86.0584 70.459H81.7109V74.7945H86.0584V70.459Z" fill="#363D44"/>
<path d="M86.0584 66.123H81.7109V70.4586H86.0584V66.123Z" fill="#6883AA"/>
<path d="M86.0584 61.7866H81.7109V66.1232H86.0584V61.7866Z" fill="black"/>
<path d="M81.7097 139.835H77.3633V144.171H81.7097V139.835Z" fill="black"/>
<path d="M81.7097 135.499H77.3633V139.835H81.7097V135.499Z" fill="#506987"/>
<path d="M81.7097 131.163H77.3633V135.499H81.7097V131.163Z" fill="#506987"/>
<path d="M81.7097 126.827H77.3633V131.163H81.7097V126.827Z" fill="#363D44"/>
<path d="M81.7097 122.49H77.3633V126.826H81.7097V122.49Z" fill="#506987"/>
<path d="M81.7097 118.154H77.3633V122.49H81.7097V118.154Z" fill="#506987"/>
<path d="M81.7097 113.818H77.3633V118.154H81.7097V113.818Z" fill="#506987"/>
<path d="M81.7097 109.482H77.3633V113.818H81.7097V109.482Z" fill="#506987"/>
<path d="M81.7097 105.146H77.3633V109.483H81.7097V105.146Z" fill="#506987"/>
<path d="M81.7097 100.811H77.3633V105.146H81.7097V100.811Z" fill="#6883AA"/>
<path d="M81.7097 96.4751H77.3633V100.811H81.7097V96.4751Z" fill="#6883AA"/>
<path d="M81.7097 92.1396H77.3633V96.4752H81.7097V92.1396Z" fill="#6883AA"/>
<path d="M81.7097 87.8032H77.3633V92.1398H81.7097V87.8032Z" fill="#6883AA"/>
<path d="M81.7097 83.4678H77.3633V87.8033H81.7097V83.4678Z" fill="#6883AA"/>
<path d="M81.7097 79.1309H77.3633V83.4664H81.7097V79.1309Z" fill="#6883AA"/>
<path d="M81.7097 74.7944H77.3633V79.131H81.7097V74.7944Z" fill="#6883AA"/>
<path d="M81.7097 70.459H77.3633V74.7945H81.7097V70.459Z" fill="#363D44"/>
<path d="M81.7097 66.123H77.3633V70.4586H81.7097V66.123Z" fill="#6883AA"/>
<path d="M81.7097 61.7866H77.3633V66.1232H81.7097V61.7866Z" fill="black"/>
<path d="M77.3621 135.499H73.0156V139.835H77.3621V135.499Z" fill="black"/>
<path d="M77.3621 131.163H73.0156V135.499H77.3621V131.163Z" fill="#506987"/>
<path d="M77.3621 126.827H73.0156V131.163H77.3621V126.827Z" fill="#506987"/>
<path d="M77.3621 122.49H73.0156V126.826H77.3621V122.49Z" fill="#363D44"/>
<path d="M77.3621 118.154H73.0156V122.49H77.3621V118.154Z" fill="#363D44"/>
<path d="M77.3621 113.818H73.0156V118.154H77.3621V113.818Z" fill="#363D44"/>
<path d="M77.3621 109.482H73.0156V113.818H77.3621V109.482Z" fill="#363D44"/>
<path d="M77.3621 105.146H73.0156V109.483H77.3621V105.146Z" fill="#363D44"/>
<path d="M77.3621 100.811H73.0156V105.146H77.3621V100.811Z" fill="#506987"/>
<path d="M77.3621 96.4751H73.0156V100.811H77.3621V96.4751Z" fill="#506987"/>
<path d="M77.3621 92.1396H73.0156V96.4752H77.3621V92.1396Z" fill="#6883AA"/>
<path d="M77.3621 87.8032H73.0156V92.1398H77.3621V87.8032Z" fill="#6883AA"/>
<path d="M77.3621 83.4678H73.0156V87.8033H77.3621V83.4678Z" fill="#6883AA"/>
<path d="M77.3621 79.1309H73.0156V83.4664H77.3621V79.1309Z" fill="#6883AA"/>
<path d="M77.3621 74.7944H73.0156V79.131H77.3621V74.7944Z" fill="#6883AA"/>
<path d="M77.3621 70.459H73.0156V74.7945H77.3621V70.459Z" fill="#363D44"/>
<path d="M77.3621 66.123H73.0156V70.4586H77.3621V66.123Z" fill="#6883AA"/>
<path d="M77.3621 61.7866H73.0156V66.1232H77.3621V61.7866Z" fill="black"/>
<path d="M73.0183 131.163H68.6719V135.499H73.0183V131.163Z" fill="black"/>
<path d="M73.0183 126.827H68.6719V131.163H73.0183V126.827Z" fill="#506987"/>
<path d="M73.0183 122.49H68.6719V126.826H73.0183V122.49Z" fill="#506987"/>
<path d="M73.0183 118.154H68.6719V122.49H73.0183V118.154Z" fill="#506987"/>
<path d="M73.0183 113.818H68.6719V118.154H73.0183V113.818Z" fill="#506987"/>
<path d="M73.0183 109.482H68.6719V113.818H73.0183V109.482Z" fill="#506987"/>
<path d="M73.0183 105.146H68.6719V109.483H73.0183V105.146Z" fill="#506987"/>
<path d="M73.0183 100.811H68.6719V105.146H73.0183V100.811Z" fill="#363D44"/>
<path d="M73.0183 96.4751H68.6719V100.811H73.0183V96.4751Z" fill="#363D44"/>
<path d="M73.0183 92.1396H68.6719V96.4752H73.0183V92.1396Z" fill="#363D44"/>
<path d="M73.0183 87.8032H68.6719V92.1398H73.0183V87.8032Z" fill="#363D44"/>
<path d="M73.0183 83.4678H68.6719V87.8033H73.0183V83.4678Z" fill="#363D44"/>
<path d="M73.0183 79.1309H68.6719V83.4664H73.0183V79.1309Z" fill="#363D44"/>
<path d="M73.0183 74.7944H68.6719V79.131H73.0183V74.7944Z" fill="#363D44"/>
<path d="M73.0183 70.459H68.6719V74.7945H73.0183V70.459Z" fill="#506987"/>
<path d="M73.0183 66.123H68.6719V70.4586H73.0183V66.123Z" fill="#506987"/>
<path d="M73.0183 61.7866H68.6719V66.1232H73.0183V61.7866Z" fill="black"/>
<path d="M68.6717 126.827H64.3242V131.163H68.6717V126.827Z" fill="black"/>
<path d="M68.6717 122.49H64.3242V126.826H68.6717V122.49Z" fill="black"/>
<path d="M68.6717 118.154H64.3242V122.49H68.6717V118.154Z" fill="black"/>
<path d="M68.6717 113.818H64.3242V118.154H68.6717V113.818Z" fill="black"/>
<path d="M68.6717 109.482H64.3242V113.818H68.6717V109.482Z" fill="black"/>
<path d="M68.6717 105.146H64.3242V109.483H68.6717V105.146Z" fill="#506987"/>
<path d="M68.6717 100.811H64.3242V105.146H68.6717V100.811Z" fill="#506987"/>
<path d="M68.6717 96.4751H64.3242V100.811H68.6717V96.4751Z" fill="#506987"/>
<path d="M68.6717 92.1396H64.3242V96.4752H68.6717V92.1396Z" fill="#506987"/>
<path d="M68.6717 87.8032H64.3242V92.1398H68.6717V87.8032Z" fill="#506987"/>
<path d="M68.6717 83.4678H64.3242V87.8033H68.6717V83.4678Z" fill="#506987"/>
<path d="M68.6717 79.1309H64.3242V83.4664H68.6717V79.1309Z" fill="#506987"/>
<path d="M68.6717 74.7944H64.3242V79.131H68.6717V74.7944Z" fill="#506987"/>
<path d="M68.6717 70.459H64.3242V74.7945H68.6717V70.459Z" fill="#506987"/>
<path d="M68.6717 66.123H64.3242V70.4586H68.6717V66.123Z" fill="#506987"/>
<path d="M68.6717 61.7866H64.3242V66.1232H68.6717V61.7866Z" fill="black"/>
<path d="M64.323 105.146H59.9766V109.483H64.323V105.146Z" fill="black"/>
<path d="M64.323 100.811H59.9766V105.146H64.323V100.811Z" fill="black"/>
<path d="M64.323 96.4751H59.9766V100.811H64.323V96.4751Z" fill="black"/>
<path d="M64.323 92.1396H59.9766V96.4752H64.323V92.1396Z" fill="black"/>
<path d="M64.323 87.8032H59.9766V92.1398H64.323V87.8032Z" fill="black"/>
<path d="M64.323 83.4678H59.9766V87.8033H64.323V83.4678Z" fill="black"/>
<path d="M64.323 79.1309H59.9766V83.4664H64.323V79.1309Z" fill="black"/>
<path d="M64.323 74.7944H59.9766V79.131H64.323V74.7944Z" fill="black"/>
<path d="M64.323 70.459H59.9766V74.7945H64.323V70.459Z" fill="black"/>
<path d="M64.323 66.123H59.9766V70.4586H64.323V66.123Z" fill="black"/>
</g>
<defs>
<clipPath id="clip0_1312_13545">
<rect width="149.571" height="146.647" fill="white" transform="translate(8.71875 6.19482)"/>
</clipPath>
</defs>
</svg>
