<svg width="41" height="41" viewBox="0 0 41 41" fill="none" xmlns="http://www.w3.org/2000/svg">
<rect width="41" height="41" rx="20.5" fill="url(#paint0_linear_112_44)"/>
<path d="M24.9697 32.5109C25.0815 32.5106 25.1889 32.4675 25.27 32.3905L29.9519 27.9792C29.9948 27.9387 30.029 27.8898 30.0522 27.8356C30.0755 27.7814 30.0874 27.723 30.0872 27.664C30.136 27.5851 30.1617 27.4942 30.1616 27.4015V11.052C30.1613 10.5618 29.9663 10.0918 29.6195 9.74525C29.2728 9.39875 28.8026 9.2041 28.3124 9.2041H12.7258C12.2359 9.20482 11.7663 9.39973 11.42 9.74612C11.0736 10.0925 10.8786 10.5621 10.8779 11.052V30.7848C10.8786 31.2747 11.0736 31.7443 11.42 32.0907C11.7663 32.437 12.2359 32.632 12.7258 32.6327H24.6423C24.7625 32.6325 24.8786 32.5893 24.9697 32.5109ZM25.408 31.0621V29.3603C25.4087 29.0241 25.5427 28.702 25.7805 28.4644C26.0184 28.2268 26.3407 28.0931 26.6769 28.0928H28.5518L25.408 31.0621ZM24.1283 31.6032H12.7258C12.5078 31.6029 12.2988 31.5161 12.1446 31.3619C11.9905 31.2078 11.9037 30.9988 11.9033 30.7807V11.052C11.9037 10.834 11.9905 10.625 12.1446 10.4708C12.2988 10.3166 12.5078 10.2299 12.7258 10.2295H28.3124C28.4209 10.2288 28.5284 10.2495 28.6288 10.2905C28.7292 10.3316 28.8205 10.392 28.8975 10.4685C28.9744 10.5449 29.0355 10.6358 29.0772 10.736C29.1188 10.8361 29.1403 10.9435 29.1403 11.052V26.8875H26.7459C26.0541 26.8882 25.3909 27.1631 24.9015 27.652C24.4121 28.1409 24.1365 28.8039 24.135 29.4956L24.1283 31.6032Z" fill="white"/>
<path d="M14.8701 16.0236H26.163C26.299 16.0236 26.4294 15.9695 26.5256 15.8734C26.6217 15.7772 26.6757 15.6468 26.6757 15.5109V14.591C26.6763 14.5233 26.6634 14.4562 26.6379 14.3935C26.6124 14.3309 26.5747 14.2739 26.527 14.2258C26.4793 14.1778 26.4226 14.1396 26.3602 14.1136C26.2977 14.0876 26.2307 14.0742 26.163 14.0742H14.8701C14.7342 14.0742 14.6038 14.1282 14.5076 14.2244C14.4115 14.3205 14.3574 14.4509 14.3574 14.5869V15.5068C14.3569 15.5745 14.3698 15.6416 14.3953 15.7042C14.4208 15.7669 14.4585 15.8239 14.5062 15.872C14.5538 15.92 14.6105 15.9581 14.673 15.9841C14.7355 16.0102 14.8025 16.0236 14.8701 16.0236ZM14.9729 14.6938H26.0656V15.408H14.9729V14.6938Z" fill="white"/>
<path d="M14.8711 19.2392H26.164C26.2314 19.2392 26.2982 19.2259 26.3605 19.2001C26.4228 19.1742 26.4794 19.1363 26.527 19.0886C26.5746 19.0408 26.6124 18.9842 26.6381 18.9218C26.6637 18.8594 26.6769 18.7926 26.6767 18.7252V17.8066C26.6769 17.7393 26.6637 17.6725 26.638 17.6102C26.6123 17.5479 26.5746 17.4914 26.5269 17.4437C26.4793 17.3961 26.4227 17.3583 26.3604 17.3326C26.2981 17.3069 26.2314 17.2938 26.164 17.2939H14.8711C14.8037 17.2938 14.737 17.3069 14.6747 17.3326C14.6124 17.3583 14.5558 17.3961 14.5082 17.4437C14.4605 17.4914 14.4228 17.5479 14.3971 17.6102C14.3714 17.6725 14.3582 17.7393 14.3584 17.8066V18.7252C14.3582 18.7926 14.3714 18.8594 14.397 18.9218C14.4227 18.9842 14.4605 19.0408 14.5081 19.0886C14.5557 19.1363 14.6123 19.1742 14.6746 19.2001C14.7369 19.2259 14.8037 19.2392 14.8711 19.2392ZM14.9739 17.9095H26.0666V18.6224H14.9739V17.9095Z" fill="white"/>
<path d="M26.6794 21.94V21.0215C26.6796 20.9539 26.6664 20.8869 26.6405 20.8245C26.6146 20.762 26.5766 20.7053 26.5287 20.6576C26.4808 20.6099 26.4238 20.5722 26.3612 20.5467C26.2986 20.5211 26.2316 20.5083 26.164 20.5088H14.8711C14.8037 20.5086 14.737 20.5218 14.6747 20.5475C14.6124 20.5732 14.5558 20.6109 14.5082 20.6586C14.4605 20.7062 14.4228 20.7628 14.3971 20.8251C14.3714 20.8874 14.3582 20.9541 14.3584 21.0215V21.94C14.3582 22.0074 14.3714 22.0742 14.3971 22.1364C14.4228 22.1987 14.4605 22.2553 14.5082 22.303C14.5558 22.3506 14.6124 22.3884 14.6747 22.4141C14.737 22.4398 14.8037 22.4529 14.8711 22.4527H26.164C26.2316 22.4533 26.2986 22.4404 26.3612 22.4149C26.4238 22.3893 26.4808 22.3516 26.5287 22.3039C26.5766 22.2562 26.6146 22.1995 26.6405 22.1371C26.6664 22.0746 26.6796 22.0076 26.6794 21.94ZM26.0639 21.8372H14.9712V21.1243H26.0639V21.8372Z" fill="white"/>
<defs>
<linearGradient id="paint0_linear_112_44" x1="65.5373" y1="25.762" x2="25.2654" y2="-14.0056" gradientUnits="userSpaceOnUse">
<stop offset="0.000302188" stop-color="#F9D423"/>
<stop offset="1" stop-color="#F83600"/>
</linearGradient>
</defs>
</svg>
