<svg width="47" height="57" viewBox="0 0 47 57" fill="none" xmlns="http://www.w3.org/2000/svg">
<path d="M34.2843 56.7038C34.5562 56.7029 34.8176 56.5981 35.0149 56.4109L46.4057 45.6783C46.51 45.5798 46.5931 45.4609 46.6497 45.329C46.7063 45.1971 46.7353 45.055 46.7348 44.9115C46.8534 44.7197 46.9161 44.4985 46.9158 44.273V4.49576C46.9149 3.3031 46.4406 2.1596 45.5969 1.31658C44.7533 0.473553 43.6094 -3.19114e-07 42.4168 0L4.49576 0C3.30394 0.00174115 2.16144 0.475959 1.3187 1.3187C0.475959 2.16144 0.00174115 3.30394 0 4.49576L0 52.5042C0.00174115 53.6961 0.475959 54.8386 1.3187 55.6813C2.16144 56.524 3.30394 56.9983 4.49576 57H33.4878C33.7801 56.9995 34.0626 56.8944 34.2843 56.7038ZM35.3506 53.1789V49.0386C35.3523 48.2207 35.6783 47.4368 36.2569 46.8588C36.8356 46.2807 37.6198 45.9557 38.4377 45.9548H42.9993L35.3506 53.1789ZM32.2371 54.4954H4.49576C3.96531 54.4945 3.45685 54.2834 3.08177 53.9084C2.70669 53.5333 2.49559 53.0248 2.49472 52.4944V4.49576C2.49559 3.96531 2.70669 3.45685 3.08177 3.08177C3.45685 2.70669 3.96531 2.49559 4.49576 2.49472H42.4168C42.6807 2.49298 42.9423 2.54346 43.1866 2.64324C43.4309 2.74303 43.653 2.89015 43.8402 3.07613C44.0274 3.26212 44.176 3.4833 44.2774 3.72694C44.3788 3.97058 44.431 4.23186 44.431 4.49576V43.0223H38.6056C36.9226 43.0241 35.309 43.693 34.1183 44.8824C32.9276 46.0718 32.2571 47.6848 32.2536 49.3677L32.2371 54.4954Z" fill="#003049"/>
<path d="M9.71517 16.5912H37.19C37.5208 16.5912 37.8381 16.4598 38.072 16.2259C38.3059 15.992 38.4373 15.6747 38.4373 15.3439V13.1059C38.4386 12.9412 38.4073 12.778 38.3452 12.6255C38.2831 12.473 38.1914 12.3343 38.0755 12.2175C37.9595 12.1006 37.8216 12.0078 37.6696 11.9445C37.5176 11.8812 37.3546 11.8486 37.19 11.8486H9.71517C9.38435 11.8486 9.06708 11.9801 8.83316 12.214C8.59923 12.4479 8.46781 12.7652 8.46781 13.096V15.334C8.46651 15.4986 8.49781 15.6619 8.55991 15.8144C8.62202 15.9668 8.71369 16.1055 8.82965 16.2224C8.9456 16.3393 9.08355 16.432 9.23554 16.4953C9.38752 16.5586 9.55053 16.5912 9.71517 16.5912ZM9.9653 13.356H36.953V15.0937H9.9653V13.356Z" fill="#003049"/>
<path d="M9.71611 24.4144H37.1909C37.355 24.4144 37.5175 24.382 37.669 24.3191C37.8206 24.2562 37.9582 24.164 38.0741 24.0479C38.19 23.9317 38.2818 23.7938 38.3443 23.6421C38.4068 23.4904 38.4387 23.3278 38.4383 23.1637V20.929C38.4387 20.7651 38.4067 20.6027 38.3442 20.4511C38.2817 20.2996 38.1898 20.1619 38.0739 20.046C37.958 19.9301 37.8203 19.8382 37.6688 19.7757C37.5172 19.7132 37.3548 19.6812 37.1909 19.6816H9.71611C9.55219 19.6812 9.38979 19.7132 9.23826 19.7757C9.08672 19.8382 8.94904 19.9301 8.83313 20.046C8.71721 20.1619 8.62535 20.2996 8.56282 20.4511C8.50029 20.6027 8.46832 20.7651 8.46875 20.929V23.1637C8.46832 23.3278 8.50027 23.4904 8.56276 23.6421C8.62525 23.7938 8.71706 23.9317 8.83293 24.0479C8.9488 24.164 9.08646 24.2562 9.23801 24.3191C9.38956 24.382 9.55203 24.4144 9.71611 24.4144ZM9.96624 21.1791H36.9539V22.9136H9.96624V21.1791Z" fill="#003049"/>
<path d="M38.4448 30.986V28.7513C38.4453 28.5868 38.4131 28.4239 38.3502 28.2719C38.2872 28.12 38.1948 27.982 38.0782 27.866C37.9615 27.75 37.8231 27.6582 37.6708 27.5961C37.5185 27.534 37.3554 27.5026 37.1909 27.5039H9.71611C9.55219 27.5035 9.38979 27.5355 9.23826 27.598C9.08672 27.6605 8.94904 27.7524 8.83313 27.8683C8.71721 27.9842 8.62535 28.1219 8.56282 28.2734C8.50029 28.425 8.46832 28.5874 8.46875 28.7513V30.986C8.46832 31.1499 8.50029 31.3123 8.56282 31.4639C8.62535 31.6154 8.71721 31.7531 8.83313 31.869C8.94904 31.9849 9.08672 32.0768 9.23826 32.1393C9.38979 32.2018 9.55219 32.2338 9.71611 32.2334H37.1909C37.3554 32.2347 37.5185 32.2034 37.6708 32.1412C37.8231 32.0791 37.9615 31.9873 38.0782 31.8713C38.1948 31.7553 38.2872 31.6174 38.3502 31.4654C38.4131 31.3134 38.4453 31.1505 38.4448 30.986ZM36.9474 30.7359H9.95966V29.0014H36.9474V30.7359Z" fill="#003049"/>
</svg>
