<svg width="67" height="68" viewBox="0 0 67 68" fill="none" xmlns="http://www.w3.org/2000/svg">
<path d="M67 31.3918C66.9993 29.4849 66.4152 27.6233 65.3253 26.0545C64.2354 24.4856 62.6913 23.2838 60.8982 22.6086C59.1051 21.9334 57.1479 21.8169 55.2867 22.2746C53.4254 22.7322 51.7482 23.7423 50.478 25.1706L40.5757 36.3252C39.6892 37.3249 38.599 38.1255 37.3775 38.674C36.156 39.2224 34.8311 39.506 33.4909 39.506C32.1507 39.506 30.8258 39.2224 29.6043 38.674C28.3828 38.1255 27.2926 37.3249 26.4061 36.3252L16.522 25.1706C15.2518 23.7423 13.5746 22.7322 11.7133 22.2746C9.85207 21.8169 7.89486 21.9334 6.10176 22.6086C4.30867 23.2838 2.76459 24.4856 1.67471 26.0545C0.584808 27.6233 0.000701577 29.4848 -4.10527e-07 31.3918C0.00247904 33.6801 0.838172 35.8901 2.35248 37.6129L26.4061 64.8191C27.2926 65.8188 28.3828 66.6195 29.6043 67.1679C30.8258 67.7164 32.1507 68 33.4909 68C34.8311 68 36.156 67.7164 37.3775 67.1679C38.599 66.6195 39.6892 65.8189 40.5757 64.8191L64.6293 37.6129C66.156 35.8962 66.9992 33.6837 67 31.3918V31.3918Z" fill="#EDEDED"/>
<path d="M67 31.3918C66.9993 29.4849 66.4152 27.6233 65.3253 26.0545C64.2354 24.4856 62.6913 23.2838 60.8982 22.6086C59.1051 21.9334 57.1479 21.8169 55.2867 22.2746C53.4254 22.7322 51.7482 23.7423 50.478 25.1706L40.5757 36.3252C39.6892 37.3249 38.599 38.1255 37.3775 38.674C36.156 39.2224 34.8311 39.506 33.4909 39.506C32.1507 39.506 30.8258 39.2224 29.6043 38.674C28.3828 38.1255 27.2926 37.3249 26.4061 36.3252L16.522 25.1706C15.2518 23.7423 13.5746 22.7322 11.7133 22.2746C9.85207 21.8169 7.89486 21.9334 6.10176 22.6086C4.30867 23.2838 2.76459 24.4856 1.67471 26.0545C0.584808 27.6233 0.000701577 29.4848 -4.10527e-07 31.3918C0.00247904 33.6801 0.838172 35.8901 2.35248 37.6129L26.4061 64.8191C27.2926 65.8188 28.3828 66.6195 29.6043 67.1679C30.8258 67.7164 32.1507 68 33.4909 68C34.8311 68 36.156 67.7164 37.3775 67.1679C38.599 66.6195 39.6892 65.8189 40.5757 64.8191L64.6293 37.6129C66.156 35.8962 66.9992 33.6837 67 31.3918V31.3918Z" fill="#EDEDED"/>
<path d="M67 31.3918C66.9993 29.4849 66.4152 27.6233 65.3253 26.0545C64.2354 24.4856 62.6913 23.2838 60.8982 22.6086C59.1051 21.9334 57.1479 21.8169 55.2867 22.2746C53.4254 22.7322 51.7482 23.7423 50.478 25.1706L40.5757 36.3252C39.6892 37.3249 38.599 38.1255 37.3775 38.674C36.156 39.2224 34.8311 39.506 33.4909 39.506C32.1507 39.506 30.8258 39.2224 29.6043 38.674C28.3828 38.1255 27.2926 37.3249 26.4061 36.3252L16.522 25.1706C15.2518 23.7423 13.5746 22.7322 11.7133 22.2746C9.85207 21.8169 7.89486 21.9334 6.10176 22.6086C4.30867 23.2838 2.76459 24.4856 1.67471 26.0545C0.584808 27.6233 0.000701577 29.4848 -4.10527e-07 31.3918C0.00247904 33.6801 0.838172 35.8901 2.35248 37.6129L26.4061 64.8191C27.2926 65.8188 28.3828 66.6195 29.6043 67.1679C30.8258 67.7164 32.1507 68 33.4909 68C34.8311 68 36.156 67.7164 37.3775 67.1679C38.599 66.6195 39.6892 65.8189 40.5757 64.8191L64.6293 37.6129C66.156 35.8962 66.9992 33.6837 67 31.3918V31.3918Z" fill="#DBDBDB"/>
<path d="M53 5.30838C52.9996 4.23057 52.6683 3.17839 52.0502 2.29165C51.432 1.40492 50.5563 0.725611 49.5393 0.343996C48.5223 -0.0376185 47.4123 -0.103474 46.3566 0.155182C45.301 0.413837 44.3497 0.984756 43.6293 1.79208L38.0131 8.09683C37.5103 8.66188 36.892 9.11443 36.1992 9.42441C35.5064 9.73439 34.7549 9.89471 33.9948 9.89471C33.2347 9.89471 32.4833 9.73439 31.7905 9.42441C31.0977 9.11443 30.4794 8.66188 29.9766 8.09683L24.3707 1.79208C23.6503 0.984755 22.699 0.413836 21.6434 0.15518C20.5877 -0.103475 19.4777 -0.0376198 18.4607 0.343995C17.4437 0.72561 16.568 1.40492 15.9498 2.29165C15.3317 3.17839 15.0004 4.23057 15 5.30838C15.0014 6.60179 15.4754 7.85092 16.3342 8.82469L29.9766 24.2021C30.4794 24.7672 31.0977 25.2197 31.7905 25.5297C32.4833 25.8397 33.2347 26 33.9948 26C34.7549 26 35.5064 25.8397 36.1992 25.5297C36.892 25.2197 37.5103 24.7672 38.0131 24.2021L51.6554 8.82469C52.5213 7.85438 52.9995 6.60381 53 5.30838V5.30838Z" fill="#EDEDED"/>
<path d="M53 5.30838C52.9996 4.23057 52.6683 3.17839 52.0502 2.29165C51.432 1.40492 50.5563 0.725611 49.5393 0.343996C48.5223 -0.0376185 47.4123 -0.103474 46.3566 0.155182C45.301 0.413837 44.3497 0.984756 43.6293 1.79208L38.0131 8.09683C37.5103 8.66188 36.892 9.11443 36.1992 9.42441C35.5064 9.73439 34.7549 9.89471 33.9948 9.89471C33.2347 9.89471 32.4833 9.73439 31.7905 9.42441C31.0977 9.11443 30.4794 8.66188 29.9766 8.09683L24.3707 1.79208C23.6503 0.984755 22.699 0.413836 21.6434 0.15518C20.5877 -0.103475 19.4777 -0.0376198 18.4607 0.343995C17.4437 0.72561 16.568 1.40492 15.9498 2.29165C15.3317 3.17839 15.0004 4.23057 15 5.30838C15.0014 6.60179 15.4754 7.85092 16.3342 8.82469L29.9766 24.2021C30.4794 24.7672 31.0977 25.2197 31.7905 25.5297C32.4833 25.8397 33.2347 26 33.9948 26C34.7549 26 35.5064 25.8397 36.1992 25.5297C36.892 25.2197 37.5103 24.7672 38.0131 24.2021L51.6554 8.82469C52.5213 7.85438 52.9995 6.60381 53 5.30838V5.30838Z" fill="#EDEDED"/>
<path d="M53 5.30838C52.9996 4.23057 52.6683 3.17839 52.0502 2.29165C51.432 1.40492 50.5563 0.725611 49.5393 0.343996C48.5223 -0.0376185 47.4123 -0.103474 46.3566 0.155182C45.301 0.413837 44.3497 0.984756 43.6293 1.79208L38.0131 8.09683C37.5103 8.66188 36.892 9.11443 36.1992 9.42441C35.5064 9.73439 34.7549 9.89471 33.9948 9.89471C33.2347 9.89471 32.4833 9.73439 31.7905 9.42441C31.0977 9.11443 30.4794 8.66188 29.9766 8.09683L24.3707 1.79208C23.6503 0.984755 22.699 0.413836 21.6434 0.15518C20.5877 -0.103475 19.4777 -0.0376198 18.4607 0.343995C17.4437 0.72561 16.568 1.40492 15.9498 2.29165C15.3317 3.17839 15.0004 4.23057 15 5.30838C15.0014 6.60179 15.4754 7.85092 16.3342 8.82469L29.9766 24.2021C30.4794 24.7672 31.0977 25.2197 31.7905 25.5297C32.4833 25.8397 33.2347 26 33.9948 26C34.7549 26 35.5064 25.8397 36.1992 25.5297C36.892 25.2197 37.5103 24.7672 38.0131 24.2021L51.6554 8.82469C52.5213 7.85438 52.9995 6.60381 53 5.30838V5.30838Z" fill="#DBDBDB"/>
</svg>
