<svg width="16" height="11" viewBox="0 0 16 11" fill="none" xmlns="http://www.w3.org/2000/svg">
<path d="M11.8598 3.01818H2.38542L4.32383 1.14971C4.59669 0.886691 4.59669 0.460317 4.32383 0.197295C4.05088 -0.0658024 3.60863 -0.0657276 3.33568 0.197295L0.204651 3.21551C-0.0682169 3.47853 -0.0682169 3.9049 0.204651 4.16792L3.33568 7.18599C3.47215 7.31753 3.65093 7.38323 3.82972 7.38323C4.0085 7.38323 4.18728 7.31746 4.32375 7.18599C4.59662 6.92296 4.59662 6.49659 4.32375 6.23357L2.38534 4.3651H11.8597C13.3722 4.3651 14.6027 5.55121 14.6027 7.00909C14.6027 8.46698 13.3722 9.65309 11.8597 9.65309H6.09634C5.71044 9.65309 5.39768 9.95457 5.39768 10.3265C5.39768 10.6985 5.71044 11 6.09634 11H11.8597C14.1426 11 16 9.20965 16 7.00909C16 4.80853 14.1427 3.01818 11.8598 3.01818Z" fill="#DBDBDB"/>
</svg>
