<svg width="34" height="34" viewBox="0 0 34 34" fill="none" xmlns="http://www.w3.org/2000/svg">
<circle cx="16.585" cy="16.585" r="16.585" fill="#6EDE8A"/>
<path d="M7.05737 16.2321C7.0574 18.1883 7.63811 20.1005 8.72594 21.7264C9.81376 23.3522 11.3597 24.6186 13.168 25.365C14.9762 26.1113 16.9653 26.3042 18.8832 25.919C20.8011 25.5338 22.5615 24.588 23.9414 23.2014C25.3213 21.8147 26.2584 20.0497 26.6342 18.1299C27.01 16.2101 26.8074 14.222 26.0522 12.4175C25.297 10.6129 24.023 9.07316 22.3919 7.99331C20.7607 6.91346 18.8457 6.34212 16.8895 6.35168C14.2801 6.37285 11.7842 7.42214 9.94351 9.27188C8.10281 11.1216 7.06576 13.6226 7.05737 16.2321ZM25.5791 16.2321C25.5823 17.9419 25.0782 19.6142 24.1306 21.0374C23.1831 22.4605 21.8346 23.5706 20.2559 24.2271C18.6771 24.8836 16.9392 25.0571 15.2618 24.7255C13.5845 24.3939 12.0433 23.5721 10.8332 22.3642C9.62303 21.1564 8.79842 19.6167 8.46369 17.94C8.12895 16.2633 8.29914 14.525 8.9527 12.945C9.60627 11.3651 10.7138 10.0145 12.1353 9.0643C13.5567 8.11407 15.228 7.60685 16.9378 7.60685C19.2172 7.62378 21.3979 8.53896 23.0067 10.1538C24.6154 11.7686 25.5225 13.9527 25.5309 16.2321H25.5791Z" fill="white"/>
<path d="M15.4447 9.81565V10.9001C14.8753 11.0853 14.3627 11.3894 13.9489 11.7875C13.3189 12.3935 12.967 13.1919 12.9638 14.0222C12.9573 14.4511 13.0505 14.8765 13.2375 15.271C13.5175 15.8311 13.9662 16.3092 14.5326 16.6513C15.1006 16.9964 15.7132 17.2778 16.3568 17.4893C16.7215 17.6054 17.061 17.7778 17.3601 17.9987C17.4034 18.0436 17.4402 18.0933 17.4696 18.1466C17.4836 18.2006 17.4836 18.2568 17.4696 18.3109C17.4742 18.3648 17.4632 18.419 17.4376 18.4679C17.4121 18.5169 17.3728 18.559 17.3237 18.5902C17.1226 18.7205 16.8777 18.7844 16.6305 18.771C16.0125 18.7741 15.4081 18.6079 14.8975 18.2944L14.4779 18.048C14.3873 17.9947 14.2849 17.9597 14.1778 17.9455C14.0707 17.9313 13.9615 17.9383 13.8577 17.9658C13.7537 17.9965 13.6587 18.0479 13.5798 18.1162C13.5008 18.1845 13.44 18.2678 13.4016 18.3602L12.7449 20.0033C12.6935 20.1324 12.6906 20.2731 12.7367 20.4038C12.7829 20.5345 12.8755 20.6478 13.0003 20.7263L13.2375 20.8907C13.6818 21.1525 14.1677 21.352 14.6786 21.4822L15.3353 21.6958V22.6489C15.3353 22.8188 15.4102 22.9818 15.5437 23.102C15.6771 23.2222 15.858 23.2897 16.0467 23.2897H17.8709C18.0596 23.2897 18.2406 23.2222 18.374 23.102C18.5074 22.9818 18.5824 22.8188 18.5824 22.6489V21.5315C19.2178 21.3157 19.7869 20.9664 20.2424 20.5127C20.8447 19.8885 21.1752 19.0886 21.1727 18.2616C21.1786 17.8479 21.1045 17.4364 20.9538 17.0456C20.7122 16.4751 20.3098 15.9711 19.7863 15.5832C19.232 15.197 18.6173 14.8869 17.9621 14.663C17.5304 14.5281 17.1243 14.3341 16.7582 14.0879H16.6669C16.6619 14.0552 16.6619 14.022 16.6669 13.9893C16.6546 13.9462 16.6546 13.901 16.6669 13.8579C16.8344 13.7594 17.033 13.7132 17.2324 13.7264C17.5543 13.7261 17.8742 13.7705 18.181 13.8579L18.7465 14.0879L19.1479 14.3015C19.2417 14.3423 19.3446 14.3635 19.4488 14.3635C19.5531 14.3635 19.656 14.3423 19.7498 14.3015C19.8453 14.2685 19.9319 14.2178 20.0042 14.1527C20.0765 14.0876 20.1328 14.0095 20.1694 13.9236L20.8626 12.2804C20.9159 12.1391 20.9143 11.9856 20.8579 11.8453C20.8016 11.7049 20.6938 11.586 20.5525 11.5081L20.2606 11.2616C19.7784 10.9969 19.2468 10.8132 18.6918 10.7194V9.81565C18.6872 9.647 18.6107 9.48641 18.4783 9.36712C18.3459 9.24783 18.1676 9.17897 17.9804 9.1748H16.1562C15.9689 9.17897 15.7907 9.24783 15.6582 9.36712C15.5258 9.48641 15.4494 9.647 15.4447 9.81565ZM16.8676 11.3767V10.4565H17.2507V11.2616C17.2668 11.4092 17.3392 11.5473 17.4557 11.6521C17.5721 11.757 17.7253 11.8223 17.8892 11.8368C18.3757 11.8794 18.8506 11.9961 19.2938 12.1818L19.1114 12.609L18.6188 12.4283C18.1655 12.2949 17.6911 12.2283 17.2142 12.2311C16.9323 12.2159 16.6499 12.2517 16.3836 12.3364C16.1173 12.421 15.8725 12.5529 15.6636 12.7241C15.3516 13.0022 15.1745 13.3803 15.1711 13.7757C15.1678 13.9963 15.2176 14.2149 15.317 14.4165C15.4289 14.608 15.5771 14.7804 15.7548 14.9259C16.2568 15.2633 16.8096 15.5344 17.3966 15.7311C17.9203 15.9054 18.4121 16.1491 18.856 16.4541C19.1839 16.6917 19.4358 17.0036 19.5857 17.3578C19.6829 17.6115 19.7323 17.8781 19.7316 18.1466C19.7359 18.6661 19.5281 19.169 19.1479 19.5597C18.7601 19.9418 18.2502 20.2059 17.6885 20.3155C17.5359 20.352 17.4011 20.4331 17.3053 20.5462C17.2096 20.6592 17.1583 20.7978 17.1595 20.94V21.893H16.7582V21.0221C16.7584 20.8621 16.6904 20.708 16.5682 20.5918C16.446 20.4756 16.2789 20.4061 16.1014 20.3977C15.7745 20.3683 15.451 20.3134 15.1346 20.2334C14.859 20.2073 14.5888 20.1465 14.332 20.0526L14.4962 19.609C15.1548 19.9001 15.8786 20.0519 16.6122 20.0526C17.1989 20.0718 17.7742 19.903 18.2358 19.5761C18.4417 19.4216 18.6073 19.2282 18.7208 19.0095C18.8343 18.7908 18.8929 18.5523 18.8925 18.3109C18.8915 18.0853 18.842 17.8621 18.7465 17.6536C18.6489 17.4491 18.5062 17.2646 18.327 17.1114C17.8987 16.7573 17.3964 16.4836 16.8494 16.3062C16.3146 16.1341 15.8059 15.9023 15.3353 15.6161C14.9796 15.4047 14.6956 15.109 14.5144 14.7616C14.4004 14.5289 14.3443 14.2765 14.3502 14.0222C14.3436 13.517 14.5526 13.0288 14.934 12.6583C15.3031 12.3306 15.7629 12.098 16.2656 11.9846C16.4317 11.9684 16.5852 11.8972 16.6964 11.7849C16.8076 11.6726 16.8686 11.5271 16.8676 11.3767Z" fill="white"/>
</svg>
