<svg width="22" height="23" viewBox="0 0 22 23" fill="none" xmlns="http://www.w3.org/2000/svg">
<path d="M2.25958 9.94802C1.69505 10.5122 1.31056 11.2312 1.15476 12.0139C0.998959 12.7967 1.07885 13.6081 1.38432 14.3454C1.6898 15.0828 2.20713 15.7129 2.87085 16.1562C3.53457 16.5994 4.31486 16.8359 5.11298 16.8355C5.92928 16.8355 6.72639 16.5879 7.39904 16.1255C8.07169 15.663 8.58825 15.0074 8.88051 14.2452H12.6472C12.9392 15.0075 13.4554 15.6634 14.1276 16.1266C14.7998 16.5898 15.5966 16.8385 16.413 16.8399C17.0237 16.8402 17.6266 16.7019 18.1761 16.4354C18.7257 16.1689 19.2076 15.7812 19.5855 15.3014C19.9635 14.8216 20.2276 14.2623 20.358 13.6656C20.4884 13.069 20.4816 12.4505 20.3383 11.8568C20.1949 11.2631 19.9187 10.7096 19.5304 10.2382C19.1421 9.76677 18.6519 9.38962 18.0966 9.13516C17.5414 8.8807 16.9357 8.75558 16.325 8.76922C15.7144 8.78286 15.1149 8.93491 14.5716 9.21392C14.3326 8.84155 14.0475 8.50092 13.723 8.20015C13.6285 8.11402 13.5067 8.06378 13.379 8.05819C13.2512 8.0526 13.1255 8.09201 13.0238 8.16957C13.002 8.18617 10.7796 9.8414 8.6594 8.32775L7.54077 6.59736C7.91876 7.0612 8.39521 7.43516 8.93558 7.69212C9.47596 7.94908 10.0667 8.08261 10.6651 8.08305C11.737 8.08293 12.7649 7.65702 13.5227 6.89901C14.2806 6.14099 14.7063 5.11297 14.7062 4.0411C14.706 2.96922 14.2801 1.94129 13.5221 1.18344C12.7641 0.425593 11.7361 -9.70333e-05 10.6642 1.88577e-05C9.97399 -0.00209202 9.29479 0.173045 8.69165 0.508656C8.08851 0.844267 7.58164 1.32911 7.21958 1.91675C6.85752 2.5044 6.6524 3.17516 6.62387 3.86479C6.59533 4.55443 6.74433 5.23984 7.05661 5.85539L5.709 3.7728C5.51106 3.46661 5.19959 3.2516 4.84312 3.17506C4.48665 3.09852 4.11437 3.16673 3.80819 3.36467C3.50201 3.56261 3.28699 3.87408 3.21046 4.23055C3.13392 4.58702 3.20212 4.9593 3.40006 5.26548L5.69239 8.81016C5.5006 8.78097 5.30697 8.76549 5.11298 8.76384C4.58267 8.76263 4.05739 8.86668 3.56759 9.06995C3.07779 9.27322 2.6332 9.57168 2.25958 9.94802ZM8.57726 1.95851C9.05914 1.47713 9.69301 1.17771 10.3709 1.11127C11.0488 1.04483 11.7287 1.21548 12.2949 1.59413C12.8611 1.97279 13.2785 2.53603 13.4759 3.18791C13.6734 3.83978 13.6388 4.53996 13.3779 5.16915C13.117 5.79835 12.6461 6.31764 12.0453 6.63855C11.4445 6.95946 10.751 7.06214 10.083 6.9291C9.415 6.79606 8.81378 6.43552 8.38177 5.90892C7.94977 5.38232 7.71371 4.72222 7.71381 4.0411C7.71324 3.65417 7.78924 3.27095 7.93743 2.91352C8.08562 2.5561 8.30307 2.23153 8.57726 1.95851ZM14.3277 10.7162C14.6705 10.3737 15.0925 10.121 15.5562 9.9804C16.0199 9.83983 16.5112 9.81575 16.9864 9.91029C17.4617 10.0048 17.9063 10.2151 18.281 10.5224C18.6556 10.8298 18.9487 11.2247 19.1343 11.6723C19.3199 12.1199 19.3923 12.6064 19.3451 13.0887C19.2979 13.571 19.1325 14.0341 18.8636 14.4373C18.5947 14.8404 18.2305 15.171 17.8034 15.3998C17.3762 15.6286 16.8993 15.7487 16.4147 15.7492C15.8313 15.7499 15.2607 15.5775 14.7754 15.2537C14.2901 14.9299 13.9118 14.4693 13.6885 13.9303C13.4652 13.3912 13.4069 12.7981 13.521 12.2259C13.6351 11.6537 13.9165 11.1283 14.3295 10.7162H14.3277ZM4.1464 4.78307C4.11137 4.72933 4.08728 4.6692 4.07553 4.60614C4.06377 4.54307 4.06457 4.4783 4.07788 4.41555C4.0912 4.3528 4.11676 4.29328 4.15312 4.24043C4.18947 4.18757 4.23589 4.1424 4.28973 4.10751C4.3991 4.04052 4.53003 4.01813 4.65544 4.04497C4.78086 4.07181 4.89116 4.14583 4.96353 4.25171L7.59757 8.32425L8.27487 9.37297L8.3177 9.4158C8.50059 9.52833 8.6913 9.62763 8.88838 9.71294C9.04931 9.78106 9.2142 9.83943 9.38215 9.88772C11.0653 10.3806 12.6026 9.6841 13.2738 9.29869C13.4214 9.46808 13.5561 9.64833 13.6767 9.83791C13.6373 9.87461 13.5971 9.90695 13.5596 9.94453C13.1834 10.3184 12.8851 10.7632 12.682 11.2531C12.4789 11.7431 12.375 12.2684 12.3763 12.7988C12.3763 12.915 12.385 13.0295 12.3946 13.144H9.1322C9.14182 13.0286 9.14968 12.9115 9.14968 12.7944C9.14877 12.0678 8.95192 11.3549 8.57988 10.7308C8.20783 10.1067 7.67435 9.59441 7.03563 9.248L6.97795 9.16061L4.1464 4.78307ZM8.06338 12.7988C8.06246 13.5809 7.75143 14.3306 7.19851 14.8837C6.6456 15.4368 5.89591 15.7481 5.11385 15.7492C4.53056 15.749 3.96042 15.5759 3.47551 15.2518C2.99059 14.9276 2.61268 14.4669 2.38954 13.928C2.16641 13.3891 2.10807 12.7961 2.22191 12.224C2.33575 11.652 2.61664 11.1265 3.02909 10.714C3.44154 10.3016 3.96701 10.0207 4.53908 9.90686C5.11116 9.79302 5.70414 9.85136 6.24306 10.0745C6.78198 10.2976 7.24264 10.6755 7.5668 11.1605C7.89097 11.6454 8.06408 12.2155 8.06425 12.7988H8.06338Z" fill="#003049"/>
<path d="M0.156485 22.838C0.207176 22.8891 0.267476 22.9297 0.333919 22.9575C0.400362 22.9852 0.471635 22.9996 0.543638 22.9997H9.67801C9.81876 22.9995 9.95397 22.9448 10.0552 22.847C10.1564 22.7492 10.2157 22.616 10.2207 22.4753C10.226 22.332 10.3081 18.928 8.17047 16.9695C8.07624 16.8829 7.95458 16.8323 7.82677 16.8264C7.69896 16.8205 7.57314 16.8597 7.47132 16.9372C7.37432 17.0114 5.07499 18.7165 2.89715 16.9433C2.79797 16.8625 2.67342 16.8193 2.5455 16.8214C2.41758 16.8234 2.2945 16.8706 2.198 16.9546C2.11323 17.0246 0.0516128 18.8572 5.06507e-05 22.4482C-0.000931842 22.5203 0.0123879 22.5918 0.0392393 22.6588C0.0660908 22.7257 0.105941 22.7866 0.156485 22.838ZM2.62186 18.0777C4.54451 19.3475 6.59826 18.7471 7.73525 18.0663C8.8067 19.2846 9.06101 21.0438 9.12044 21.9116H1.11257C1.27774 19.8989 2.14993 18.6265 2.62186 18.0777Z" fill="#003049"/>
<path d="M18.7728 16.9303C18.6758 17.0046 16.3765 18.7097 14.1986 16.9364C14.0994 16.8556 13.9749 16.8124 13.847 16.8145C13.719 16.8166 13.596 16.8638 13.4995 16.9478C13.4121 17.0238 11.3505 18.8565 11.2989 22.4475C11.2977 22.5196 11.3109 22.5911 11.3378 22.6581C11.3646 22.725 11.4044 22.7859 11.455 22.8372C11.5056 22.8885 11.566 22.9293 11.6325 22.9571C11.699 22.9848 11.7704 22.9991 11.8425 22.9989H20.9769C21.1176 22.9988 21.2528 22.9441 21.354 22.8463C21.4553 22.7485 21.5146 22.6152 21.5196 22.4746C21.5248 22.3312 21.6113 18.9273 19.4693 16.9688C19.376 16.882 19.2552 16.8306 19.128 16.8236C19.0008 16.8166 18.8751 16.8543 18.7728 16.9303ZM20.4167 21.9118H12.4088C12.574 19.9017 13.4462 18.6258 13.9155 18.0769C15.8337 19.3468 17.8919 18.7464 19.0289 18.0656C20.0994 19.2838 20.3616 21.0431 20.4167 21.9109V21.9118Z" fill="#003049"/>
</svg>
