<svg width="27" height="19" viewBox="0 0 27 19" fill="none" xmlns="http://www.w3.org/2000/svg">
<path d="M19.5712 6.93342L13.397 1.61797L7.21968 6.93342L1.04553 1.61797L4.22664 18.8528H22.5674L25.7453 1.61797L19.5712 6.93342Z" fill="#FDC33E"/>
<path d="M4.37352e-05 1.61732C0.00193127 1.81452 0.064849 2.00679 0.180871 2.16989C0.296892 2.33298 0.460828 2.45962 0.652026 2.53384C0.843223 2.60806 1.05313 2.62655 1.2553 2.58697C1.45747 2.5474 1.64287 2.45153 1.78813 2.31144C1.93339 2.17135 2.03201 1.99332 2.07159 1.79976C2.11116 1.6062 2.0899 1.40578 2.0105 1.22375C1.93109 1.04171 1.79709 0.886209 1.62538 0.776823C1.45366 0.667437 1.25191 0.609063 1.04554 0.609055C0.907433 0.609049 0.770695 0.635192 0.643223 0.685973C0.515751 0.736754 0.400069 0.811167 0.30286 0.904914C0.205651 0.998661 0.128841 1.10988 0.0768657 1.23216C0.0248906 1.35444 -0.00121942 1.48534 4.37352e-05 1.61732Z" fill="#FDC33E"/>
<path d="M24.699 1.61732C24.7002 1.8154 24.7629 2.00867 24.879 2.17274C24.9951 2.33681 25.1596 2.4643 25.3515 2.53913C25.5434 2.61396 25.7542 2.63276 25.9573 2.59316C26.1604 2.55356 26.3466 2.45733 26.4925 2.31663C26.6384 2.17593 26.7374 1.99707 26.777 1.80264C26.8166 1.6082 26.795 1.40692 26.7149 1.22421C26.6349 1.04149 26.5 0.885546 26.3273 0.77606C26.1545 0.666574 25.9517 0.608461 25.7445 0.609059C25.6063 0.609054 25.4696 0.635196 25.3421 0.685977C25.2147 0.736759 25.099 0.811172 25.0018 0.904919C24.9046 0.998666 24.8278 1.10989 24.7758 1.23217C24.7238 1.35444 24.6977 1.48535 24.699 1.61732Z" fill="#FDC33E"/>
<path d="M12.3504 0.999164C12.3504 1.19716 12.412 1.39069 12.5273 1.55518C12.6426 1.71968 12.8064 1.84773 12.998 1.92307C13.1896 1.99842 13.4003 2.01767 13.6034 1.97837C13.8065 1.93907 13.9927 1.843 14.1386 1.70236C14.2844 1.56171 14.3832 1.38283 14.4225 1.18842C14.4617 0.994012 14.4396 0.792841 14.359 0.610442C14.2784 0.428043 14.1429 0.272642 13.9698 0.163964C13.7966 0.0552856 13.5935 -0.00176912 13.3863 4.18097e-05C13.1107 0.00245103 12.8472 0.108778 12.6532 0.295889C12.4592 0.483001 12.3504 0.735756 12.3504 0.999164Z" fill="#FDC33E"/>
<path d="M13.397 1.61797L7.21968 6.93342L1.04553 1.61797L4.22664 18.8528H13.397V1.61797Z" fill="#FDCF65"/>
<path d="M13.3862 0C13.1089 3.94857e-09 12.843 0.105264 12.6469 0.292636C12.4508 0.480008 12.3407 0.734139 12.3407 0.999122C12.3407 1.26411 12.4508 1.51824 12.6469 1.70561C12.843 1.89298 13.1089 1.99824 13.3862 1.99824V0Z" fill="#FDCF65"/>
<path d="M4.37352e-05 1.61732C0.00193127 1.81452 0.064849 2.00679 0.180871 2.16989C0.296892 2.33298 0.460828 2.45962 0.652026 2.53384C0.843223 2.60806 1.05313 2.62655 1.2553 2.58697C1.45747 2.5474 1.64287 2.45153 1.78813 2.31144C1.93339 2.17135 2.03201 1.99332 2.07159 1.79976C2.11116 1.6062 2.0899 1.40578 2.0105 1.22375C1.93109 1.04171 1.79709 0.886209 1.62538 0.776823C1.45366 0.667437 1.25191 0.609063 1.04554 0.609055C0.907433 0.609049 0.770695 0.635192 0.643223 0.685973C0.515751 0.736754 0.400069 0.811167 0.30286 0.904914C0.205651 0.998661 0.128841 1.10988 0.0768657 1.23216C0.0248906 1.35444 -0.00121942 1.48534 4.37352e-05 1.61732Z" fill="#FDCF65"/>
<path d="M22.933 16.8541H3.85596V18.8524H22.933V16.8541Z" fill="#FCAE28"/>
<path d="M13.3961 16.8541H3.85596V18.8524H13.3961V16.8541Z" fill="#FDBE53"/>
<path d="M15.0771 13.2509L13.3973 14.8562L11.7175 13.2509L13.3973 11.6486L15.0771 13.2509Z" fill="#FD5D81"/>
<path d="M11.7175 13.2509L13.3973 14.8562V11.6486L11.7175 13.2509Z" fill="#FD7D9A"/>
<path d="M8.90061 13.2509L7.22399 14.8562L5.54419 13.2509L7.22399 11.6486L8.90061 13.2509Z" fill="#FD5D81"/>
<path d="M5.54419 13.2509L7.22399 14.8562V11.6486L5.54419 13.2509Z" fill="#FD7D9A"/>
<path d="M21.2513 13.2509L19.5715 14.8562L17.8917 13.2509L19.5715 11.6486L21.2513 13.2509Z" fill="#FD5D81"/>
<path d="M17.8917 13.2509L19.5715 14.8562V11.6486L17.8917 13.2509Z" fill="#FD7D9A"/>
</svg>
