<svg width="31" height="30" viewBox="0 0 31 30" fill="none" xmlns="http://www.w3.org/2000/svg">
<g clip-path="url(#clip0_1311_5147)">
<path fill-rule="evenodd" clip-rule="evenodd" d="M29.7074 7.89188L26.0545 4.23181V4.16088L22.4015 0.500814C22.2092 0.322582 21.9555 0.225986 21.6936 0.231292C21.5466 0.216606 21.3982 0.233003 21.258 0.279434C21.1177 0.325866 20.9888 0.40128 20.8795 0.500814L3.18105 18.333C3.03007 18.4873 2.91627 18.6741 2.84832 18.8792L0.951052 28.1641C0.925447 28.3326 0.936211 28.5046 0.982619 28.6686C1.02903 28.8325 1.11 28.9846 1.22007 29.1146C1.33008 29.213 1.45913 29.2877 1.59918 29.3341C1.73923 29.3805 1.8873 29.3975 2.03419 29.3841H2.2395L11.4427 27.4831C11.6402 27.4356 11.8242 27.3434 11.9807 27.2136L29.7782 9.38145C29.9728 9.18256 30.0818 8.91515 30.0818 8.63665C30.0818 8.35815 29.9728 8.09077 29.7782 7.89188H29.7074Z" fill="white"/>
</g>
<defs>
<clipPath id="clip0_1311_5147">
<rect width="29.1528" height="29.1528" fill="white" transform="translate(0.859375 0.195801)"/>
</clipPath>
</defs>
</svg>
