<svg width="13" height="12" viewBox="0 0 13 12" fill="none" xmlns="http://www.w3.org/2000/svg">
<path d="M6.70429 11.8637L0.97951 6.13893C0.334294 5.44635 -0.0166861 4.53024 0.000610212 3.58384C0.0179065 2.63744 0.402127 1.73476 1.07222 1.06622C1.74231 0.397687 2.64588 0.0155635 3.59231 0.000464986C4.53875 -0.0146335 5.45405 0.338473 6.14512 0.985297L11.8925 6.73404C12.3678 7.2093 12.6348 7.8539 12.6348 8.52603C12.6348 9.19815 12.3678 9.84275 11.8925 10.318C11.4173 10.7933 10.7727 11.0603 10.1005 11.0603C9.42842 11.0603 8.78382 10.7933 8.30856 10.318L2.53186 4.53466C2.25292 4.2549 2.09628 3.87596 2.09628 3.4809C2.09628 3.08584 2.25292 2.7069 2.53186 2.42714C2.81602 2.15666 3.1933 2.0058 3.58561 2.0058C3.97793 2.0058 4.35521 2.15666 4.63937 2.42714L10.0034 7.79246C10.0803 7.86943 10.1236 7.97383 10.1236 8.08269C10.1236 8.19155 10.0803 8.29595 10.0034 8.37292C9.92638 8.4499 9.82198 8.49314 9.71312 8.49314C9.60427 8.49314 9.49987 8.4499 9.42289 8.37292L4.05758 3.00894C3.93042 2.88705 3.76109 2.819 3.58495 2.819C3.40881 2.819 3.23948 2.88705 3.11232 3.00894C3.05013 3.0708 3.00078 3.14434 2.9671 3.22533C2.93342 3.30633 2.91609 3.39318 2.91609 3.4809C2.91609 3.56862 2.93342 3.65547 2.9671 3.73647C3.00078 3.81746 3.05013 3.891 3.11232 3.95286L8.88902 9.72956C9.21288 10.0375 9.6442 10.2067 10.091 10.2011C10.5379 10.1955 10.9648 10.0156 11.2809 9.69969C11.5969 9.3838 11.7771 8.95693 11.7829 8.51011C11.7888 8.06329 11.6198 7.63187 11.3121 7.30785L5.56333 1.55911C5.02563 1.06602 4.31824 0.799707 3.58886 0.815785C2.85948 0.831863 2.16451 1.12909 1.64906 1.64539C1.13362 2.16169 0.837551 2.85716 0.822688 3.58656C0.807824 4.31597 1.07531 5.02292 1.5693 5.55979L7.29407 11.2846C7.33521 11.3221 7.36832 11.3675 7.39138 11.4182C7.41444 11.4689 7.42698 11.5237 7.42823 11.5793C7.42949 11.635 7.41944 11.6903 7.39869 11.742C7.37794 11.7936 7.34692 11.8405 7.30751 11.8798C7.26811 11.9192 7.22113 11.9501 7.16943 11.9707C7.11773 11.9913 7.06237 12.0013 7.00672 11.9999C6.95107 11.9985 6.89629 11.9858 6.84567 11.9626C6.79506 11.9395 6.74968 11.9063 6.71228 11.865L6.70429 11.8637Z" fill="white"/>
</svg>
