<svg width="51" height="62" viewBox="0 0 51 62" fill="none" xmlns="http://www.w3.org/2000/svg">
<path d="M37.2688 61.6778C37.5645 61.6768 37.8486 61.5629 38.0631 61.3592L50.4455 49.6852C50.5589 49.578 50.6492 49.4487 50.7107 49.3052C50.7723 49.1618 50.8037 49.0072 50.8032 48.8511C50.9322 48.6424 51.0003 48.4019 51 48.1566V4.89012C50.9991 3.59285 50.4834 2.34904 49.5663 1.43207C48.6492 0.515093 47.4058 -3.47107e-07 46.1093 0H4.88713C3.59156 0.00189388 2.3496 0.51771 1.4335 1.43437C0.517393 2.35104 0.00189272 3.59376 0 4.89012V57.1099C0.00189272 58.4062 0.517393 59.649 1.4335 60.5656C2.3496 61.4823 3.59156 61.9981 4.88713 62H36.403C36.7208 61.9995 37.0279 61.8852 37.2688 61.6778ZM38.428 57.8438V53.3403C38.4299 52.4506 38.7842 51.598 39.4132 50.9692C40.0423 50.3404 40.8947 49.9869 41.7839 49.9859H46.7425L38.428 57.8438ZM35.0435 59.2757H4.88713C4.31051 59.2748 3.75778 59.0451 3.35005 58.6372C2.94232 58.2292 2.71284 57.6761 2.71189 57.0991V4.89012C2.71284 4.31315 2.94232 3.76008 3.35005 3.3521C3.75778 2.94412 4.31051 2.7145 4.88713 2.71355H46.1093C46.3962 2.71166 46.6805 2.76657 46.9461 2.8751C47.2117 2.98364 47.4532 3.14367 47.6567 3.34597C47.8602 3.54827 48.0217 3.78885 48.1319 4.05386C48.2421 4.31887 48.2988 4.60308 48.2988 4.89012V46.7962H41.9663C40.1368 46.7981 38.3827 47.5257 37.0884 48.8194C35.7941 50.1132 35.0652 51.8676 35.0614 53.6982L35.0435 59.2757Z" fill="#003049"/>
<path d="M25.1979 40.3939H28.1552L19.1988 20.6667H16.4106L7.48239 40.3939H10.3833L12.552 35.4621H23.0292L25.1979 40.3939ZM13.5378 33.2076L17.7906 23.5412L22.0435 33.2076H13.5378Z" fill="#003049"/>
<path d="M42.1486 29.4312H37.0226V24.3585H34.6568V29.4312H29.5308V31.6576H34.6568V36.7021H37.0226V31.6576H42.1486V29.4312Z" fill="#003049"/>
</svg>
