<svg width="76" height="87" viewBox="0 0 76 87" fill="none" xmlns="http://www.w3.org/2000/svg">
<path d="M60.614 87H1.69077C0.760845 87 0 86.2428 0 85.3172V8.83464C0 7.90911 0.760845 7.15186 1.69077 7.15186H17.1613C18.0912 7.15186 18.8521 7.90911 18.8521 8.83464C18.8521 9.76017 18.0912 10.5174 17.1613 10.5174H3.38154V83.6344H58.9232V56.6257C58.9232 55.7002 59.6841 54.943 60.614 54.943C61.5439 54.943 62.3048 55.7002 62.3048 56.6257V85.3172C62.3048 86.2428 61.5439 87 60.614 87Z" fill="#003049"/>
<path d="M60.614 32.3095C59.6841 32.3095 58.9232 31.5522 58.9232 30.6267V10.5174H45.0589C44.129 10.5174 43.3682 9.76017 43.3682 8.83464C43.3682 7.90911 44.129 7.15186 45.0589 7.15186H60.614C61.5439 7.15186 62.3048 7.90911 62.3048 8.83464V30.5426C62.3048 31.5522 61.5439 32.3095 60.614 32.3095Z" fill="#003049"/>
<path d="M45.0591 17.6692H17.1615C16.2315 17.6692 15.4707 16.912 15.4707 15.9865V1.68279C15.4707 0.757253 16.2315 0 17.1615 0H18.9368C21.3884 0 23.4173 2.01934 23.4173 4.45938L23.5018 4.54352H38.6342L38.7188 4.45938C38.7188 2.01934 40.7477 0 43.1993 0H44.9746C45.9045 0 46.6654 0.757253 46.6654 1.68279V15.9865C46.7499 16.912 45.9891 17.6692 45.0591 17.6692ZM18.8522 14.3037H43.3684V3.36557H43.2838C42.6921 3.36557 42.1848 3.87041 42.1848 4.45938C42.1848 6.39458 40.6631 7.90909 38.7188 7.90909H23.5864C21.642 7.90909 20.1203 6.39458 20.1203 4.45938C20.1203 3.78627 19.6131 3.28143 19.0213 3.28143H18.9368V14.3037H18.8522Z" fill="#003049"/>
<path d="M48.6098 39.6292H25.9535C25.0235 39.6292 24.2627 38.872 24.2627 37.9465C24.2627 37.0209 25.0235 36.2637 25.9535 36.2637H48.6098C49.5397 36.2637 50.3005 37.0209 50.3005 37.9465C50.3005 38.872 49.5397 39.6292 48.6098 39.6292Z" fill="#003049"/>
<path d="M45.7354 46.9496H25.9535C25.0235 46.9496 24.2627 46.1923 24.2627 45.2668C24.2627 44.3412 25.0235 43.584 25.9535 43.584H45.7354C46.6654 43.584 47.4262 44.3412 47.4262 45.2668C47.4262 46.1923 46.6654 46.9496 45.7354 46.9496Z" fill="#003049"/>
<path d="M38.2961 54.1854H25.9535C25.0235 54.1854 24.2627 53.4281 24.2627 52.5026C24.2627 51.5771 25.0235 50.8198 25.9535 50.8198H38.3806C39.3105 50.8198 40.0714 51.5771 40.0714 52.5026C40.0714 53.4281 39.226 54.1854 38.2961 54.1854Z" fill="#003049"/>
<path d="M31.6175 61.5057H25.9535C25.0235 61.5057 24.2627 60.7485 24.2627 59.8229C24.2627 58.8974 25.0235 58.1401 25.9535 58.1401H31.6175C32.5475 58.1401 33.3083 58.8974 33.3083 59.8229C33.3083 60.7485 32.5475 61.5057 31.6175 61.5057Z" fill="#003049"/>
<path d="M15.0483 43.4157C14.6256 43.4157 14.2029 43.2474 13.9493 42.995L11.1595 40.5549C10.4832 39.966 10.3987 38.8722 10.9905 38.199C11.5822 37.5259 12.6812 37.4418 13.3575 38.0308L14.8792 39.377L18.6835 34.9176C19.2752 34.2445 20.3742 34.1604 21.0505 34.7493C21.7268 35.3383 21.8114 36.4321 21.2196 37.1052L16.3164 42.8267C16.0628 43.1633 15.6401 43.4157 15.1328 43.4157H15.0483Z" fill="#003049"/>
<path d="M15.0479 53.3444C14.6252 53.3444 14.2025 53.1761 13.9489 52.9237L11.0746 50.4837C10.3983 49.8947 10.3137 48.8009 10.9055 48.1278C11.4973 47.4546 12.5963 47.3705 13.2726 47.9595L14.7943 49.3057L18.5985 44.8463C19.1903 44.1732 20.2893 44.0891 20.9656 44.678C21.6419 45.267 21.7264 46.3608 21.1346 47.0339L16.2314 52.7554C15.9778 53.092 15.5551 53.3444 15.0479 53.3444C15.1324 53.3444 15.0479 53.3444 15.0479 53.3444Z" fill="#003049"/>
<path d="M15.0483 63.1042C14.6256 63.1042 14.2029 62.9359 13.9493 62.6835L11.1595 60.2434C10.4832 59.6544 10.3987 58.5606 10.9905 57.8875C11.5822 57.2144 12.6812 57.1303 13.3575 57.7192L14.8792 59.0655L18.6835 54.6061C19.2752 53.933 20.3742 53.8488 21.0505 54.4378C21.7268 55.0268 21.8114 56.1206 21.2196 56.7937L16.3164 62.5152C16.0628 62.8517 15.6401 63.1042 15.1328 63.1042H15.0483Z" fill="#003049"/>
<path d="M75.4932 34.1603L70.1673 28.9437C69.491 28.2705 68.6456 28.1864 68.1384 28.6912L64.5878 32.2251L34.2385 62.3469C33.8158 62.7676 33.4777 64.1139 33.055 65.0394C32.2941 67.4794 31.2797 70.845 31.1106 71.3498C30.9415 71.7705 30.6879 72.6961 31.0261 73.1168C31.3642 73.4533 32.2941 73.2009 32.8014 73.0326C33.2241 72.8644 36.6056 71.8547 39.0572 71.0974C39.818 70.845 41.0861 70.6767 41.5088 70.1719L72.1117 39.7135L75.6623 36.1796C76.1696 35.6748 76.085 34.8334 75.4932 34.1603ZM36.6901 63.5249L65.4332 34.9175L69.4065 38.8721L40.6634 67.4794L36.6901 63.5249ZM35.5911 65.6284L38.6345 68.6574C36.6901 69.2464 35.3375 69.6671 34.3231 70.0036C34.5767 68.9098 34.9994 67.4794 35.5911 65.6284ZM71.2663 37.1052L67.293 33.1506L69.0683 31.3837L73.0416 35.3382L71.2663 37.1052Z" fill="#003049"/>
</svg>
