<svg width="517" height="517" viewBox="0 0 517 517" fill="none" xmlns="http://www.w3.org/2000/svg">
<path fill-rule="evenodd" clip-rule="evenodd" d="M258.5 72.863C295.216 72.863 331.107 83.7505 361.635 104.149C392.163 124.547 415.956 153.539 430.007 187.46C444.057 221.381 447.733 258.706 440.57 294.716C433.408 330.727 415.727 363.804 389.766 389.766C363.804 415.728 330.726 433.408 294.716 440.571C258.706 447.734 221.381 444.057 187.46 430.007C153.539 415.956 124.546 392.163 104.148 361.635C83.7502 331.107 72.8628 295.216 72.8628 258.5C72.8628 209.266 92.421 162.049 127.235 127.235C162.048 92.4212 209.266 72.863 258.5 72.863Z" fill="url(#paint0_linear_1257_59)"/>
<path fill-rule="evenodd" clip-rule="evenodd" d="M258.5 91.3684C291.555 91.3684 323.868 101.171 351.353 119.535C378.838 137.9 400.259 164.002 412.909 194.542C425.559 225.081 428.869 258.685 422.42 291.106C415.971 323.526 400.053 353.306 376.68 376.68C353.306 400.054 323.526 415.971 291.106 422.42C258.685 428.869 225.081 425.559 194.541 412.91C164.002 400.26 137.9 378.838 119.535 351.353C101.17 323.869 91.3682 291.556 91.3682 258.5C91.3682 214.174 108.977 171.663 140.32 140.32C171.663 108.977 214.174 91.3684 258.5 91.3684Z" fill="url(#paint1_linear_1257_59)"/>
<path fill-rule="evenodd" clip-rule="evenodd" d="M403.065 342.269C389.027 368.394 368.172 390.226 342.716 405.445C317.261 420.664 288.158 428.701 258.5 428.701C228.842 428.701 199.739 420.664 174.284 405.445C148.829 390.226 127.973 368.394 113.935 342.269C128.639 367.579 149.73 388.586 175.1 403.188C200.47 417.789 229.228 425.474 258.5 425.474C287.772 425.474 316.53 417.789 341.9 403.188C367.27 388.586 388.361 367.579 403.065 342.269Z" fill="black"/>
<path fill-rule="evenodd" clip-rule="evenodd" d="M258.5 88.1194C288.13 88.2564 317.179 96.3509 342.61 111.557C368.041 126.762 388.921 148.52 403.065 174.557C388.361 149.246 367.27 128.24 341.9 113.638C316.53 99.0363 287.772 91.3511 258.5 91.3511C229.228 91.3511 200.47 99.0363 175.1 113.638C149.73 128.24 128.639 149.246 113.935 174.557C128.08 148.52 148.959 126.762 174.39 111.557C199.821 96.3509 228.87 88.2564 258.5 88.1194Z" fill="#89EFF4"/>
<path fill-rule="evenodd" clip-rule="evenodd" d="M201.069 292.148C165.333 306.302 150.83 343.604 145.029 381.196C175.908 409.768 216.43 425.64 258.5 425.64C300.57 425.64 341.092 409.768 371.971 381.196C366.17 343.604 351.667 306.302 315.874 292.148C312.51 290.782 309.061 289.638 305.548 288.725C299.758 287.132 293.59 287.646 288.144 290.175C278.94 294.492 268.898 296.73 258.732 296.73C248.566 296.73 238.524 294.492 229.32 290.175C223.873 287.651 217.707 287.137 211.917 288.725C208.387 289.647 204.919 290.79 201.533 292.148H201.069ZM194.397 210.931C196.834 251.539 230.074 278.515 258.5 278.515C286.926 278.515 320.109 251.423 322.313 210.931C323.004 202.2 321.857 193.421 318.946 185.16C316.035 176.899 311.424 169.341 305.411 162.973C299.397 156.604 292.116 151.567 284.036 148.187C275.956 144.807 267.257 143.158 258.5 143.348C249.746 143.121 241.041 144.732 232.948 148.076C224.854 151.421 217.552 156.425 211.512 162.766C205.471 169.107 200.828 176.643 197.88 184.889C194.932 193.136 193.746 201.908 194.397 210.641V210.931Z" fill="url(#paint2_linear_1257_59)"/>
<path fill-rule="evenodd" clip-rule="evenodd" d="M258.5 58.6489C298.027 58.6489 336.666 70.3699 369.531 92.3298C402.396 114.29 428.011 145.502 443.138 182.02C458.264 218.538 462.221 258.721 454.51 297.488C446.799 336.255 427.765 371.865 399.816 399.815C371.866 427.764 336.256 446.798 297.489 454.509C258.722 462.221 218.539 458.263 182.021 443.137C145.503 428.01 114.291 402.395 92.3307 369.53C70.3709 336.665 58.6499 298.026 58.6499 258.499C58.6499 205.496 79.7055 154.663 117.185 117.184C154.664 79.7045 205.497 58.6489 258.5 58.6489ZM258.5 80.9254C293.633 80.868 327.994 91.2337 357.234 110.711C386.474 130.188 409.279 157.901 422.764 190.343C436.248 222.786 439.806 258.499 432.987 292.964C426.168 327.429 409.279 359.097 384.456 383.96C359.634 408.823 327.994 425.764 293.54 432.639C259.086 439.515 223.367 436.015 190.903 422.583C158.439 409.152 130.688 386.392 111.163 357.184C91.6384 327.976 81.2165 293.632 81.2164 258.499C81.2931 211.504 99.9958 166.456 133.226 133.225C166.457 99.9948 211.505 81.2922 258.5 81.2155V80.9254Z" fill="url(#paint3_linear_1257_59)"/>
<path fill-rule="evenodd" clip-rule="evenodd" d="M58.6498 258.5C58.6498 205.496 79.7054 154.664 117.185 117.185C154.664 79.7054 205.496 58.6498 258.5 58.6498V0C245.055 8.08805 232.324 17.3066 220.444 27.5555C214.27 30.3499 207.865 32.6015 201.301 34.2849C194.803 35.9672 194.455 44.495 188.132 46.6994C179.024 49.89 164.173 47.0475 155.645 51.3403C125.869 66.1446 99.6232 87.1755 78.6846 113.008C57.746 138.841 42.6042 168.873 34.2849 201.068C32.6144 207.712 30.3626 214.196 27.5555 220.444C16.8584 231.963 7.60503 244.742 0 258.5H58.6498Z" fill="url(#paint4_linear_1257_59)"/>
<path fill-rule="evenodd" clip-rule="evenodd" d="M220.444 27.5555L258.732 58.6498V0C245.207 8.07696 232.398 17.2957 220.444 27.5555Z" fill="url(#paint5_linear_1257_59)"/>
<path fill-rule="evenodd" clip-rule="evenodd" d="M58.6498 258.5L27.5555 220.444C16.8584 231.963 7.60503 244.742 0 258.5H58.6498Z" fill="url(#paint6_linear_1257_59)"/>
<path fill-rule="evenodd" clip-rule="evenodd" d="M458.293 258.5C458.293 205.506 437.245 154.683 399.778 117.205C362.312 79.7276 311.494 58.6652 258.5 58.6498V0C272.025 8.07696 284.834 17.2957 296.788 27.5555C302.959 30.3588 309.365 32.6107 315.932 34.2849C369.701 48.1765 416.723 80.8548 448.489 126.407C455.578 160.22 469.517 192.223 489.445 220.444C500.158 232.035 509.411 244.893 517 258.732L458.293 258.5Z" fill="url(#paint7_linear_1257_59)"/>
<path fill-rule="evenodd" clip-rule="evenodd" d="M296.788 27.5555L258.5 58.6498V0C272.025 8.07696 284.834 17.2957 296.788 27.5555Z" fill="url(#paint8_linear_1257_59)"/>
<path fill-rule="evenodd" clip-rule="evenodd" d="M458.292 258.5L489.444 220.444C500.157 232.035 509.411 244.893 517 258.732L458.292 258.5Z" fill="url(#paint9_linear_1257_59)"/>
<path fill-rule="evenodd" clip-rule="evenodd" d="M58.6498 258.5C58.6498 284.742 63.8195 310.727 73.8636 334.971C83.9077 359.214 98.6295 381.242 117.188 399.795C135.747 418.348 157.778 433.064 182.025 443.101C206.272 453.138 232.258 458.3 258.5 458.292V517C245.068 508.893 232.339 499.675 220.444 489.445C214.262 486.657 207.858 484.387 201.301 482.657C167.607 474.076 136.304 457.948 109.758 435.494C107.264 433.405 111.672 422.847 110.338 421.745C107.728 419.541 97.5176 424.472 95.1391 422.093C71.2856 398.386 52.8934 369.758 41.2463 338.208C44.3424 330.814 44.662 322.55 42.1462 314.938C39.6303 307.327 34.4486 300.881 27.5555 296.788C16.843 285.197 7.58905 272.339 0 258.5H58.6498Z" fill="url(#paint10_linear_1257_59)"/>
<path fill-rule="evenodd" clip-rule="evenodd" d="M220.444 489.445L258.5 458.292V517C245.068 508.892 232.339 499.675 220.444 489.445Z" fill="url(#paint11_linear_1257_59)"/>
<path fill-rule="evenodd" clip-rule="evenodd" d="M58.6498 258.5L27.5555 296.788C16.843 285.197 7.58905 272.339 0 258.5H58.6498Z" fill="url(#paint12_linear_1257_59)"/>
<path fill-rule="evenodd" clip-rule="evenodd" d="M458.293 258.5C458.277 311.484 437.223 362.293 399.758 399.758C362.293 437.223 311.484 458.277 258.5 458.292V517C272.012 508.904 284.82 499.686 296.788 489.445C302.967 486.648 309.371 484.377 315.932 482.657C356.104 472.338 392.768 451.423 422.095 422.095C451.423 392.767 472.339 356.103 482.658 315.932C484.377 309.371 486.648 302.967 489.445 296.788C500.158 285.197 509.411 272.339 517 258.5H458.293Z" fill="url(#paint13_linear_1257_59)"/>
<path fill-rule="evenodd" clip-rule="evenodd" d="M296.788 489.445L258.5 458.292V517C272.012 508.903 284.82 499.686 296.788 489.445Z" fill="url(#paint14_linear_1257_59)"/>
<path fill-rule="evenodd" clip-rule="evenodd" d="M458.292 258.5L489.444 296.788C500.157 285.197 509.411 272.339 517 258.5H458.292Z" fill="url(#paint15_linear_1257_59)"/>
<g style="mix-blend-mode:multiply" opacity="0.35">
<path fill-rule="evenodd" clip-rule="evenodd" d="M416.988 416.989C399.486 434.531 378.687 448.437 355.787 457.905C332.888 467.374 308.341 472.218 283.562 472.158C280.719 472.158 277.76 472.158 275.092 472.158L296.614 489.562C302.793 486.765 309.197 484.494 315.758 482.774C355.976 472.473 392.686 451.552 422.047 422.201C451.409 392.85 472.342 356.147 482.658 315.933C484.377 309.372 486.648 302.968 489.445 296.789L472.041 275.267C472.041 278.09 472.041 280.932 472.041 283.794C472.091 308.573 467.243 333.116 457.775 356.015C448.307 378.913 434.407 399.714 416.872 417.221L416.988 416.989Z" fill="#4D5E6E"/>
</g>
<g style="mix-blend-mode:multiply" opacity="0.35">
<path fill-rule="evenodd" clip-rule="evenodd" d="M109.642 426.851C108.946 430.216 108.076 434.219 109.642 435.495C136.166 457.917 167.423 474.041 201.068 482.658L206.347 484.167C170.528 471.884 137.613 452.376 109.642 426.851ZM94.9069 422.094C96.3572 423.486 100.418 422.094 104.131 421.63C102.622 420.238 101.114 418.787 99.6638 417.279C75.6992 393.475 56.2763 365.501 42.3483 334.729C42.0002 335.889 41.6522 337.049 41.2461 338.209C52.8252 369.738 71.1371 398.364 94.9069 422.094Z" fill="#4D5E6E"/>
</g>
<g style="mix-blend-mode:multiply" opacity="0.35">
<path fill-rule="evenodd" clip-rule="evenodd" d="M417.278 99.6649C430.174 112.519 441.828 126.563 452.085 141.607C450.693 136.502 449.475 131.397 448.604 126.408C416.81 80.8331 369.744 48.1523 315.932 34.2857C314.133 33.8797 312.335 33.3576 310.595 32.8354C350.828 46.5988 387.338 69.4698 417.278 99.6649Z" fill="#4D5E6E"/>
</g>
<path style="mix-blend-mode:screen" opacity="0.5" fill-rule="evenodd" clip-rule="evenodd" d="M139.866 97.6927C128.96 100.013 115.675 83.3058 121.244 72.2256C111.901 79.1056 103.097 86.6884 94.9071 94.9082C81.5473 108.298 69.8597 123.258 60.1001 139.461C70.7162 133.196 88.5258 143.928 87.0175 155.936C100.662 133.305 118.642 113.591 139.924 97.9247L139.866 97.6927Z" fill="url(#paint16_radial_1257_59)"/>
<path fill-rule="evenodd" clip-rule="evenodd" d="M46.4093 243.648L9.91992 258.731H58.6497C58.6192 232.467 63.766 206.454 73.7958 182.181C83.8255 157.907 98.5415 135.848 117.102 117.266C135.663 98.6833 157.705 83.9417 181.967 73.8838C206.229 63.8259 232.236 58.6489 258.5 58.6489V7.77271L243.939 46.8726C140.968 70.0772 69.904 132.904 46.6993 243.416L46.4093 243.648Z" fill="#89EFF4"/>
<path style="mix-blend-mode:screen" fill-rule="evenodd" clip-rule="evenodd" d="M417.684 337.337C400.635 371.667 372.966 399.58 338.788 416.929C347.954 417.626 348.998 431.026 346.562 437.93C387.902 417.587 420.969 383.619 440.192 341.746C433.985 345.227 416.988 345.865 417.626 337.337H417.684Z" fill="url(#paint17_radial_1257_59)"/>
<path fill-rule="evenodd" clip-rule="evenodd" d="M394.828 394.827C363.352 426.278 322.375 446.459 278.256 452.239C234.138 458.018 189.345 449.073 150.831 426.792C184.514 448.403 223.91 459.404 263.916 458.37C303.923 457.335 342.698 444.314 375.22 420.991C379.332 420.572 383.381 419.676 387.286 418.322C388.385 415.783 388.862 413.019 388.678 410.259C398.249 401.983 407.01 392.814 414.842 382.877C416.756 380.499 439.033 385.662 440.831 382.877C442.629 380.092 423.427 371.275 424.588 369.36C446.098 337.069 457.759 299.221 458.15 260.423C458.541 221.625 447.647 183.549 426.792 150.83C449.102 189.357 458.063 234.174 452.283 278.317C446.503 322.461 426.305 363.46 394.828 394.943V394.827Z" fill="#73BDC9"/>
<defs>
<linearGradient id="paint0_linear_1257_59" x1="72.8628" y1="258.5" x2="444.079" y2="258.5" gradientUnits="userSpaceOnUse">
<stop stop-color="#161C29"/>
<stop offset="1" stop-color="#293C4F"/>
</linearGradient>
<linearGradient id="paint1_linear_1257_59" x1="258.5" y1="425.632" x2="258.5" y2="91.3684" gradientUnits="userSpaceOnUse">
<stop stop-color="#20283B"/>
<stop offset="0.19" stop-color="#293C4F"/>
<stop offset="0.67" stop-color="#384F65"/>
<stop offset="1" stop-color="#3F576E"/>
</linearGradient>
<linearGradient id="paint2_linear_1257_59" x1="353.291" y1="399.875" x2="163.651" y2="210.235" gradientUnits="userSpaceOnUse">
<stop stop-color="#216B73"/>
<stop offset="1" stop-color="#5BB8CF"/>
</linearGradient>
<linearGradient id="paint3_linear_1257_59" x1="258.5" y1="458.349" x2="258.5" y2="58.6489" gradientUnits="userSpaceOnUse">
<stop stop-color="#8292AB"/>
<stop offset="1" stop-color="#5B597D"/>
</linearGradient>
<linearGradient id="paint4_linear_1257_59" x1="0" y1="129.25" x2="258.5" y2="129.25" gradientUnits="userSpaceOnUse">
<stop stop-color="#515D7D"/>
<stop offset="1" stop-color="#99AAC9"/>
</linearGradient>
<linearGradient id="paint5_linear_1257_59" x1="220.212" y1="29.3539" x2="258.5" y2="29.3539" gradientUnits="userSpaceOnUse">
<stop stop-color="#788896"/>
<stop offset="1" stop-color="#BCD1E8"/>
</linearGradient>
<linearGradient id="paint6_linear_1257_59" x1="29.3539" y1="258.5" x2="29.3539" y2="220.212" gradientUnits="userSpaceOnUse">
<stop stop-color="#BCD1E8"/>
<stop offset="1" stop-color="#788896"/>
</linearGradient>
<linearGradient id="paint7_linear_1257_59" x1="258.5" y1="129.25" x2="517" y2="129.25" gradientUnits="userSpaceOnUse">
<stop stop-color="#99AAC9"/>
<stop offset="1" stop-color="#515D7D"/>
</linearGradient>
<linearGradient id="paint8_linear_1257_59" x1="258.5" y1="29.3539" x2="296.788" y2="29.3539" gradientUnits="userSpaceOnUse">
<stop stop-color="#5A5D75"/>
<stop offset="1" stop-color="#5B597D"/>
</linearGradient>
<linearGradient id="paint9_linear_1257_59" x1="5393.27" y1="1926.54" x2="5393.27" y2="1673.85" gradientUnits="userSpaceOnUse">
<stop stop-color="#BCD1E8"/>
<stop offset="1" stop-color="#788896"/>
</linearGradient>
<linearGradient id="paint10_linear_1257_59" x1="0" y1="17536.6" x2="11518.8" y2="17536.6" gradientUnits="userSpaceOnUse">
<stop stop-color="#5A5D75"/>
<stop offset="1" stop-color="#5B597D"/>
</linearGradient>
<linearGradient id="paint11_linear_1257_59" x1="220.212" y1="487.646" x2="258.5" y2="487.646" gradientUnits="userSpaceOnUse">
<stop stop-color="#5B597D"/>
<stop offset="1" stop-color="#707491"/>
</linearGradient>
<linearGradient id="paint12_linear_1257_59" x1="0" y1="277.644" x2="58.6498" y2="277.644" gradientUnits="userSpaceOnUse">
<stop stop-color="#46435E"/>
<stop offset="1" stop-color="#4A4D61"/>
</linearGradient>
<linearGradient id="paint13_linear_1257_59" x1="11777.3" y1="17536.6" x2="23296" y2="17536.6" gradientUnits="userSpaceOnUse">
<stop stop-color="#46435E"/>
<stop offset="1" stop-color="#4A4D61"/>
</linearGradient>
<linearGradient id="paint14_linear_1257_59" x1="258.5" y1="487.646" x2="296.788" y2="487.646" gradientUnits="userSpaceOnUse">
<stop stop-color="#5D617A"/>
<stop offset="1" stop-color="#46435E"/>
</linearGradient>
<linearGradient id="paint15_linear_1257_59" x1="5096.21" y1="2090.95" x2="5690.33" y2="2090.95" gradientUnits="userSpaceOnUse">
<stop stop-color="#46435E"/>
<stop offset="1" stop-color="#4A4D61"/>
</linearGradient>
<radialGradient id="paint16_radial_1257_59" cx="0" cy="0" r="1" gradientUnits="userSpaceOnUse" gradientTransform="translate(168.756 97.8667) scale(197.472)">
<stop stop-color="#DBEAFF"/>
<stop offset="0.06" stop-color="#C5D3E6"/>
<stop offset="0.21" stop-color="#929CAA"/>
<stop offset="0.35" stop-color="#656C76"/>
<stop offset="0.5" stop-color="#41454C"/>
<stop offset="0.64" stop-color="#25272B"/>
<stop offset="0.77" stop-color="#101113"/>
<stop offset="0.89" stop-color="#040405"/>
<stop offset="1"/>
</radialGradient>
<radialGradient id="paint17_radial_1257_59" cx="0" cy="0" r="1" gradientUnits="userSpaceOnUse" gradientTransform="translate(8462.29 7549.8) scale(2870.76 2847.77)">
<stop stop-color="#DBEAFF"/>
<stop offset="0.06" stop-color="#C5D3E6"/>
<stop offset="0.21" stop-color="#929CAA"/>
<stop offset="0.35" stop-color="#656C76"/>
<stop offset="0.5" stop-color="#41454C"/>
<stop offset="0.64" stop-color="#25272B"/>
<stop offset="0.77" stop-color="#101113"/>
<stop offset="0.89" stop-color="#040405"/>
<stop offset="1"/>
</radialGradient>
</defs>
</svg>
