<svg width="20" height="19" viewBox="0 0 20 19" fill="none" xmlns="http://www.w3.org/2000/svg">
<path d="M19.8818 9.5C19.8818 14.7467 15.4311 19 9.94091 19C4.4507 19 0 14.7467 0 9.5C0 4.2533 4.4507 0 9.94091 0C15.4311 0 19.8818 4.2533 19.8818 9.5Z" fill="#003049"/>
<path d="M15.5633 9.84688L13.7253 8.82166L14.9839 8.98785L12.0112 6.39104L10.1895 9.13327L9.91122 10.7391L9.6297 9.13327L7.808 6.39104L4.83523 8.98889L6.0939 8.82166L4.25916 9.84688L6.16129 10.7038H5.27653L7.5004 11.9451L8.12973 14.1192L9.58514 14.9283L9.91122 14.6572H9.77318L9.13515 13.7868L9.25688 13.579H10.5634L10.6851 13.7868L10.0471 14.6572H9.91122L10.2373 14.9283L11.6894 14.1192L12.3188 11.9441L14.5427 10.7038H13.6579L15.5633 9.84688ZM8.57103 9.92374L8.02756 9.98087L7.39496 9.27039C7.39496 9.27039 8.46994 9.47813 8.49929 9.49163C8.52864 9.50514 9.24275 10.5054 9.24275 10.5054L8.57103 9.92374ZM11.7971 9.98087L11.2536 9.92374L10.5797 10.5054C10.5797 10.5054 11.2916 9.50098 11.3242 9.49163C11.3568 9.48229 12.4296 9.27039 12.4296 9.27039L11.7971 9.98087Z" fill="white"/>
<path d="M12.2355 5.5849L13.7322 3.73181L13.8224 7.13052L12.2355 5.5849Z" fill="white"/>
<path d="M7.58412 5.5849L6.08741 3.73181L5.99719 7.13052L7.58412 5.5849Z" fill="white"/>
<path d="M9.13515 13.7868L9.25688 13.579H9.90905V10.7391L9.6297 9.13327L7.808 6.39104L4.83523 8.98889L6.0939 8.82166L4.25916 9.84688L6.16129 10.7038H5.27653L7.5004 11.9451L8.12973 14.1192L9.58514 14.9283L9.91122 14.6572H9.77318L9.13515 13.7868ZM8.02539 9.98087L7.39279 9.27039C7.39279 9.27039 8.46777 9.47813 8.49712 9.49163C8.52646 9.50514 9.24058 10.5054 9.24058 10.5054L8.56777 9.92374L8.02539 9.98087Z" fill="#BFEFEF"/>
<path d="M6.08741 3.73181L5.99719 7.13052L7.58412 5.5849L6.08741 3.73181Z" fill="#BFEFEF"/>
</svg>
