<svg width="97" height="81" viewBox="0 0 97 81" fill="none" xmlns="http://www.w3.org/2000/svg">
<path d="M18.6163 80.2572C16.2665 80.2627 13.9387 79.8045 11.7663 78.9088C9.59394 78.0131 7.61965 76.6975 5.95661 75.0375L5.24573 74.3266C3.58268 72.6644 2.26344 70.6909 1.36336 68.5187C0.463274 66.3465 0 64.0182 0 61.6669C0 59.3157 0.463274 56.9874 1.36336 54.8152C2.26344 52.643 3.58268 50.6695 5.24573 49.0073L32.2108 22.0422C35.5715 18.6907 40.1241 16.8086 44.8704 16.8086C49.6167 16.8086 54.1693 18.6907 57.5301 22.0422L58.241 22.7531C59.9063 24.414 61.2276 26.3871 62.1292 28.5595C63.0307 30.7319 63.4948 33.0608 63.4948 35.4128C63.4948 37.7648 63.0307 40.0937 62.1292 42.2661C61.2276 44.4384 59.9063 46.4116 58.241 48.0724L51.7748 54.5386C51.3874 54.926 50.862 55.1436 50.3141 55.1436C49.7662 55.1436 49.2408 54.926 48.8534 54.5386C48.4659 54.1512 48.2483 53.6257 48.2483 53.0779C48.2483 52.53 48.4659 52.0045 48.8534 51.6171L55.3195 45.151C56.6042 43.8684 57.6233 42.3451 58.3187 40.6683C59.0141 38.9915 59.372 37.194 59.372 35.3787C59.372 33.5634 59.0141 31.7659 58.3187 30.0891C57.6233 28.4122 56.6042 26.889 55.3195 25.6064L54.6086 24.8955C52.0145 22.3081 48.5002 20.8551 44.8363 20.8551C41.1725 20.8551 37.6582 22.3081 35.0641 24.8955L8.13797 51.8898C6.85331 53.1724 5.83413 54.6956 5.13876 56.3725C4.44339 58.0493 4.08546 59.8468 4.08546 61.6621C4.08546 63.4774 4.44339 65.2749 5.13876 66.9517C5.83413 68.6285 6.85331 70.1518 8.13797 71.4344L8.83912 72.1452C11.4332 74.7326 14.9475 76.1857 18.6114 76.1857C22.2753 76.1857 25.7896 74.7326 28.3837 72.1452L35.7068 64.8221C36.0942 64.4347 36.6196 64.2171 37.1675 64.2171C37.7154 64.2171 38.2408 64.4347 38.6283 64.8221C39.0157 65.2095 39.2333 65.735 39.2333 66.2829C39.2333 66.8307 39.0157 67.3562 38.6283 67.7436L31.2662 75.0375C29.6049 76.6973 27.6324 78.0127 25.4616 78.9084C23.2908 79.8041 20.9646 80.2625 18.6163 80.2572Z" fill="#979797"/>
<path d="M51.3364 63.1471C47.7974 63.1492 44.3372 62.1015 41.3937 60.1366C38.4502 58.1717 36.1557 55.3778 34.8004 52.1085C33.4452 48.8392 33.0901 45.2414 33.7801 41.7702C34.4701 38.299 36.1742 35.1105 38.6768 32.6081L45.143 26.142C45.5304 25.7546 46.0558 25.5369 46.6037 25.5369C47.1516 25.5369 47.677 25.7546 48.0644 26.142C48.4518 26.5294 48.6695 27.0548 48.6695 27.6027C48.6695 28.1506 48.4518 28.676 48.0644 29.0634L41.5983 35.5296C39.2675 38.1652 38.0298 41.5906 38.1376 45.1073C38.2455 48.624 39.6906 51.9671 42.1785 54.4549C44.6663 56.9428 48.0095 58.388 51.5262 58.4958C55.0429 58.6036 58.4683 57.3659 61.1039 55.0352L88.4195 27.7098C89.7022 26.4271 90.7196 24.9044 91.4138 23.2285C92.108 21.5526 92.4653 19.7564 92.4653 17.9424C92.4653 16.1284 92.108 14.3322 91.4138 12.6563C90.7196 10.9804 89.7022 9.45767 88.4195 8.17499C87.1368 6.89232 85.6141 5.87485 83.9382 5.18067C82.2623 4.48649 80.4661 4.1292 78.6521 4.1292C76.8381 4.1292 75.0419 4.48649 73.366 5.18067C71.6901 5.87485 70.1674 6.89232 68.8847 8.17499L61.805 15.2449C61.4176 15.6323 60.8922 15.85 60.3443 15.85C59.7964 15.85 59.271 15.6323 58.8835 15.2449C58.4961 14.8575 58.2785 14.3321 58.2785 13.7842C58.2785 13.2363 58.4961 12.7109 58.8835 12.3235L65.9535 5.2438C69.311 1.88625 73.8648 0 78.6131 0C83.3614 0 87.9152 1.88625 91.2728 5.2438C94.6303 8.60135 96.5166 13.1552 96.5166 17.9034C96.5166 22.6517 94.6303 27.2056 91.2728 30.5631L64.0058 57.8787C62.3463 59.5496 60.3724 60.8754 58.1979 61.7796C56.0234 62.6838 53.6914 63.1486 51.3364 63.1471V63.1471Z" fill="#979797"/>
</svg>
