<svg width="76" height="27" viewBox="0 0 76 27" fill="none" xmlns="http://www.w3.org/2000/svg">
<path d="M29.1325 0.5025V26H23.9175V11.335C23.9175 10.9967 23.9233 10.6292 23.935 10.2325C23.9583 9.83583 23.9933 9.43333 24.04 9.025L17.2675 22.1325C17.0575 22.5408 16.7717 22.85 16.41 23.06C16.06 23.27 15.6575 23.375 15.2025 23.375H14.3975C13.9425 23.375 13.5342 23.27 13.1725 23.06C12.8225 22.85 12.5425 22.5408 12.3325 22.1325L5.56 8.99C5.595 9.41 5.62417 9.82417 5.6475 10.2325C5.67083 10.6292 5.6825 10.9967 5.6825 11.335V26H0.4675V0.5025H4.9825C5.23917 0.5025 5.46083 0.508333 5.6475 0.519998C5.84583 0.531666 6.02083 0.566666 6.1725 0.624999C6.32417 0.683332 6.45833 0.776666 6.575 0.905C6.70333 1.02167 6.82583 1.19083 6.9425 1.4125L13.505 14.345C13.7383 14.7883 13.96 15.2492 14.17 15.7275C14.3917 16.2058 14.6017 16.6958 14.8 17.1975C14.9983 16.6842 15.2025 16.1825 15.4125 15.6925C15.6342 15.2025 15.8675 14.7358 16.1125 14.2925L22.6575 1.4125C22.7742 1.19083 22.8908 1.02167 23.0075 0.905C23.1358 0.776666 23.2758 0.683332 23.4275 0.624999C23.5792 0.566666 23.7483 0.531666 23.935 0.519998C24.1333 0.508333 24.3608 0.5025 24.6175 0.5025H29.1325Z" fill="#003049"/>
<path d="M40.0161 5.0525V11.0025H48.0311V15.3775H40.0161V21.45H50.4811V26H34.0661V0.5025H50.4811V5.0525H40.0161Z" fill="#F9C74F"/>
<path d="M66.3796 12.7875H75.4446V23.55C74.1379 24.5067 72.7438 25.2008 71.2621 25.6325C69.7921 26.0642 68.2521 26.28 66.6421 26.28C64.5421 26.28 62.6288 25.9533 60.9021 25.3C59.1871 24.635 57.7171 23.725 56.4921 22.57C55.2671 21.4033 54.3221 20.0267 53.6571 18.44C52.9921 16.8417 52.6596 15.1092 52.6596 13.2425C52.6596 11.3408 52.9746 9.59667 53.6046 8.01C54.2346 6.41167 55.1329 5.035 56.2996 3.88C57.4779 2.725 58.8954 1.82667 60.5521 1.185C62.2204 0.543332 64.0813 0.222499 66.1346 0.222499C67.1963 0.222499 68.1938 0.309999 69.1271 0.484999C70.0604 0.659999 70.9179 0.899165 71.6996 1.2025C72.4929 1.50583 73.2163 1.8675 73.8696 2.2875C74.5229 2.7075 75.1063 3.1625 75.6196 3.6525L73.9046 6.26C73.6363 6.66833 73.2863 6.91917 72.8546 7.0125C72.4346 7.10583 71.9796 7.00083 71.4896 6.6975C71.0229 6.4175 70.5796 6.17833 70.1596 5.98C69.7513 5.77 69.3313 5.60083 68.8996 5.4725C68.4679 5.34417 68.0129 5.25083 67.5346 5.1925C67.0563 5.13417 66.5196 5.105 65.9246 5.105C64.8163 5.105 63.8188 5.30333 62.9321 5.7C62.0454 6.085 61.2871 6.63333 60.6571 7.345C60.0388 8.05667 59.5604 8.91417 59.2221 9.9175C58.8838 10.9092 58.7146 12.0175 58.7146 13.2425C58.7146 14.5958 58.9013 15.7975 59.2746 16.8475C59.6479 17.8975 60.1729 18.7842 60.8496 19.5075C61.5379 20.2308 62.3546 20.785 63.2996 21.17C64.2563 21.5433 65.3121 21.73 66.4671 21.73C67.1788 21.73 67.8204 21.66 68.3921 21.52C68.9754 21.38 69.5413 21.1933 70.0896 20.96V17.0925H67.5696C67.1963 17.0925 66.9046 16.9933 66.6946 16.795C66.4846 16.5967 66.3796 16.3458 66.3796 16.0425V12.7875Z" fill="#F94144"/>
</svg>
