<svg width="25" height="30" viewBox="0 0 25 30" fill="none" xmlns="http://www.w3.org/2000/svg">
<path d="M14.8327 26.3238H9.88634C9.78264 26.3227 9.68018 26.3464 9.58745 26.3928C9.49471 26.4392 9.41435 26.507 9.35303 26.5907C9.2917 26.6743 9.25117 26.7713 9.23477 26.8737C9.21838 26.9761 9.22661 27.081 9.25876 27.1795C9.4774 27.8287 9.89426 28.3928 10.4506 28.7925C11.0069 29.1921 11.6746 29.4071 12.3595 29.4071C13.0445 29.4071 13.7122 29.1921 14.2685 28.7925C14.8248 28.3928 15.2417 27.8287 15.4603 27.1795C15.4925 27.081 15.5007 26.9761 15.4843 26.8737C15.4679 26.7713 15.4274 26.6743 15.3661 26.5907C15.3047 26.507 15.2244 26.4392 15.1316 26.3928C15.0389 26.3464 14.9364 26.3227 14.8327 26.3238Z" fill="#003049"/>
<path d="M24.7036 22.5013L21.3461 19.7542V11.824C21.3391 9.80194 20.6557 7.84035 19.4046 6.25172C18.1536 4.6631 16.4069 3.53882 14.4428 3.05799V2.10237C14.4428 1.54478 14.2213 1.01004 13.827 0.615769C13.4327 0.221499 12.898 0 12.3404 0C11.7828 0 11.2481 0.221499 10.8538 0.615769C10.4595 1.01004 10.238 1.54478 10.238 2.10237V3.04943C8.26618 3.52404 6.51068 4.64677 5.2528 6.23775C3.99491 7.82872 3.30744 9.79587 3.30051 11.824V19.7257H3.28625L0.248231 22.5641C-0.407867 23.4683 0.313841 24.6636 1.50908 24.6636H23.4884C24.7264 24.6636 25.4367 23.3913 24.7036 22.5013Z" fill="#003049"/>
</svg>
