<svg width="97" height="96" viewBox="0 0 97 96" fill="none" xmlns="http://www.w3.org/2000/svg">
<path d="M97 58.8073V37.3874C97 35.2454 95.2292 34.2718 93.0649 34.2718H62.3712V3.89452C62.3712 1.75254 61.3874 0 59.2231 0H37.5801C35.4158 0 34.432 1.75254 34.432 3.89452V34.2718H3.93509C1.77079 34.2718 0 35.2454 0 37.3874V58.8073C0 60.9493 1.77079 61.9229 3.93509 61.9229H34.432V92.1055C34.432 94.2475 35.4158 96 37.5801 96H59.2231C61.3874 96 62.3712 94.2475 62.3712 92.1055V61.9229H93.0649C95.2292 61.9229 97 60.9493 97 58.8073Z" fill="white"/>
</svg>
