<svg width="19" height="18" viewBox="0 0 19 18" fill="none" xmlns="http://www.w3.org/2000/svg">
<path d="M10.0564 17.7956L1.46927 9.20839C0.501441 8.16953 -0.0250292 6.79535 0.000915318 5.37576C0.0268598 3.95616 0.60319 2.60214 1.60833 1.59934C2.61347 0.59653 3.96882 0.0233452 5.38847 0.000697479C6.80812 -0.0219503 8.18107 0.50771 9.21768 1.47794L17.8388 10.1011C18.5517 10.814 18.9522 11.7809 18.9522 12.789C18.9522 13.7972 18.5517 14.7641 17.8388 15.477C17.1259 16.1899 16.159 16.5904 15.1508 16.5904C14.1426 16.5904 13.1757 16.1899 12.4628 15.477L3.79779 6.80199C3.37938 6.38235 3.14443 5.81394 3.14443 5.22135C3.14443 4.62876 3.37938 4.06035 3.79779 3.64071C4.22402 3.23499 4.78996 3.0087 5.37842 3.0087C5.96689 3.0087 6.53282 3.23499 6.95906 3.64071L15.005 11.6887C15.1205 11.8041 15.1854 11.9607 15.1854 12.124C15.1854 12.2873 15.1205 12.4439 15.005 12.5594C14.8896 12.6748 14.733 12.7397 14.5697 12.7397C14.4064 12.7397 14.2498 12.6748 14.1343 12.5594L6.08637 4.51341C5.89563 4.33057 5.64164 4.22849 5.37742 4.22849C5.11321 4.22849 4.85922 4.33057 4.66848 4.51341C4.5752 4.6062 4.50117 4.71651 4.45065 4.838C4.40014 4.95949 4.37413 5.08977 4.37413 5.22135C4.37413 5.35293 4.40014 5.48321 4.45065 5.6047C4.50117 5.72619 4.5752 5.8365 4.66848 5.92929L13.3335 14.5943C13.8193 15.0562 14.4663 15.31 15.1365 15.3016C15.8068 15.2933 16.4472 15.0234 16.9213 14.5495C17.3954 14.0757 17.6657 13.4354 17.6744 12.7652C17.6831 12.0949 17.4297 11.4478 16.9681 10.9618L8.34499 2.33866C7.53845 1.59903 6.47736 1.19956 5.38329 1.22368C4.28922 1.24779 3.24676 1.69363 2.47359 2.46808C1.70043 3.24254 1.25633 4.28574 1.23403 5.37985C1.21174 6.47395 1.61297 7.53438 2.35394 8.33969L10.9411 16.9269C11.0028 16.9831 11.0525 17.0513 11.0871 17.1273C11.1217 17.2033 11.1405 17.2855 11.1424 17.369C11.1442 17.4525 11.1292 17.5355 11.098 17.6129C11.0669 17.6904 11.0204 17.7608 10.9613 17.8198C10.9022 17.8787 10.8317 17.9251 10.7541 17.9561C10.6766 17.987 10.5936 18.0019 10.5101 17.9998C10.4266 17.9977 10.3444 17.9787 10.2685 17.944C10.1926 17.9092 10.1245 17.8594 10.0684 17.7976L10.0564 17.7956Z" fill="#003049"/>
</svg>
