<svg width="347" height="240" viewBox="0 0 347 240" fill="none" xmlns="http://www.w3.org/2000/svg">
<g clip-path="url(#clip0_1547_15)">
<path d="M347 145.635C346.999 133.301 342.305 121.429 333.872 112.433C325.439 103.438 313.9 97.9926 301.6 97.205C302.01 94.354 302.217 91.4772 302.219 88.5967C302.223 77.8827 299.302 67.3712 293.771 58.1978C288.24 49.0243 280.31 41.5376 270.837 36.5466C261.363 31.5556 250.707 29.25 240.02 29.8788C229.332 30.5077 219.02 34.0471 210.196 40.1147C201.819 25.0741 188.726 13.2123 172.941 6.36162C157.155 -0.489057 139.554 -1.94744 122.857 2.21175C106.161 6.37093 91.2968 15.9163 80.5621 29.3733C69.8273 42.8303 63.8189 59.4501 63.465 76.6656C61.9167 76.5451 60.3511 76.459 58.7512 76.459C43.3206 76.5747 28.5545 82.7593 17.6417 93.6774C6.72883 104.596 0.544833 119.371 0.425111 134.813C0.305389 150.255 6.25954 165.125 17.0018 176.211C27.7441 187.297 42.4124 193.711 57.8393 194.066H303.148V193.842C315.133 192.688 326.26 187.114 334.366 178.204C342.471 169.294 346.975 157.685 347 145.635V145.635Z" fill="white"/>
<path d="M208.217 123.34H138.783V240H208.217V123.34Z" fill="black"/>
<path d="M173.5 65.7847L229.016 145.911H173.5H117.983L173.5 65.7847Z" fill="black"/>
</g>
<defs>
<clipPath id="clip0_1547_15">
<rect width="347" height="240" fill="white"/>
</clipPath>
</defs>
</svg>
