<svg width="32" height="23" viewBox="0 0 32 23" fill="none" xmlns="http://www.w3.org/2000/svg">
<path d="M32 13.3437C31.9999 12.2144 31.5665 11.1275 30.7879 10.3039C30.0092 9.48028 28.9438 8.98176 27.8081 8.90965C27.846 8.64862 27.8651 8.38524 27.8653 8.12151C27.8657 7.14059 27.596 6.17821 27.0853 5.33833C26.5746 4.49845 25.8424 3.81301 24.9677 3.35605C24.093 2.8991 23.1091 2.68801 22.1223 2.74558C21.1355 2.80315 20.1833 3.1272 19.3686 3.68272C18.5952 2.30568 17.3863 1.21967 15.9288 0.592454C14.4713 -0.0347619 12.8462 -0.168285 11.3045 0.212511C9.76288 0.593307 8.39049 1.46723 7.39933 2.69929C6.40818 3.93135 5.85341 5.45299 5.82073 7.02916C5.67777 7.01812 5.53323 7.01024 5.3855 7.01024C3.96077 7.02083 2.5974 7.58707 1.5898 8.58668C0.582196 9.58629 0.0112176 10.9391 0.000163529 12.3529C-0.0108906 13.7667 0.538866 15.1281 1.53071 16.1431C2.52256 17.1581 3.87691 17.7453 5.30131 17.7778H27.951V17.7573C29.0576 17.6516 30.085 17.1413 30.8334 16.3255C31.5818 15.5097 31.9976 14.4469 32 13.3437Z" fill="#003049"/>
<path d="M18.963 11.8518H13.0371V22.5185H18.963V11.8518Z" fill="#FEFEFE"/>
<path d="M16.0001 5.92603L21.3334 13.0371H16.0001H10.6667L16.0001 5.92603Z" fill="#FEFEFE"/>
</svg>
