<svg width="400" height="400" viewBox="0 0 400 400" fill="none" xmlns="http://www.w3.org/2000/svg">
<path fill-rule="evenodd" clip-rule="evenodd" d="M199.85 14.2139C236.566 14.2139 272.457 25.1013 302.985 45.4994C333.513 65.8975 357.306 94.8901 371.357 128.811C385.407 162.732 389.083 200.057 381.921 236.067C374.758 272.077 357.077 305.155 331.116 331.117C305.154 357.078 272.076 374.759 236.066 381.922C200.056 389.084 162.731 385.408 128.81 371.358C94.8891 357.307 65.8965 333.514 45.4984 302.986C25.1003 272.458 14.2129 236.567 14.2129 199.851C14.2129 150.617 33.7711 103.4 68.5848 68.5858C103.399 33.772 150.616 14.2139 199.85 14.2139Z" fill="url(#paint0_linear_1472_1073)"/>
<path fill-rule="evenodd" clip-rule="evenodd" d="M199.85 33C232.905 33 265.219 42.8021 292.703 61.1668C320.188 79.5314 341.61 105.634 354.259 136.173C366.909 166.712 370.219 200.317 363.77 232.737C357.321 265.158 341.404 294.938 318.03 318.312C294.656 341.685 264.876 357.603 232.456 364.052C200.035 370.501 166.431 367.191 135.891 354.541C105.352 341.891 79.2497 320.47 60.885 292.985C42.5204 265.5 32.7183 233.187 32.7183 200.132C32.7183 155.806 50.3267 113.295 81.67 81.9517C113.013 50.6085 155.524 33 199.85 33Z" fill="url(#paint1_linear_1472_1073)"/>
<path fill-rule="evenodd" clip-rule="evenodd" d="M344.415 283.62C330.377 309.745 309.522 331.577 284.067 346.796C258.611 362.015 229.508 370.052 199.85 370.052C170.193 370.052 141.089 362.015 115.634 346.796C90.1788 331.577 69.3235 309.745 55.2852 283.62C69.9891 308.93 91.0806 329.937 116.45 344.539C141.82 359.14 170.579 366.826 199.85 366.826C229.122 366.826 257.881 359.14 283.25 344.539C308.62 329.937 329.711 308.93 344.415 283.62Z" fill="black"/>
<path fill-rule="evenodd" clip-rule="evenodd" d="M199.85 29.4705C229.48 29.6075 258.529 37.702 283.96 52.9076C309.392 68.1132 330.271 89.8716 344.415 115.908C329.711 90.5973 308.62 69.5908 283.25 54.9891C257.881 40.3873 229.122 32.7022 199.85 32.7022C170.579 32.7022 141.82 40.3873 116.45 54.9891C91.0806 69.5908 69.9891 90.5973 55.2852 115.908C69.4296 89.8716 90.3089 68.1132 115.74 52.9076C141.171 37.702 170.22 29.6075 199.85 29.4705Z" fill="#89EFF4"/>
<path fill-rule="evenodd" clip-rule="evenodd" d="M199.85 0C239.377 0 278.016 11.721 310.881 33.6808C343.746 55.6407 369.362 86.853 384.488 123.371C399.614 159.889 403.572 200.072 395.86 238.839C388.149 277.606 369.115 313.216 341.166 341.166C313.216 369.115 277.606 388.149 238.839 395.86C200.072 403.572 159.889 399.614 123.371 384.488C86.853 369.362 55.6407 343.746 33.6808 310.881C11.721 278.016 0 239.377 0 199.85C0 146.847 21.0556 96.0139 58.5348 58.5348C96.0139 21.0556 146.847 0 199.85 0ZM199.85 22.2765C234.983 22.2191 269.344 32.5848 298.584 52.0619C327.824 71.5391 350.629 99.2522 364.114 131.694C377.598 164.137 381.156 199.85 374.337 234.315C367.518 268.78 350.629 300.448 325.806 325.311C300.984 350.174 269.344 367.115 234.89 373.99C200.436 380.866 164.717 377.366 132.253 363.934C99.7887 350.503 72.0383 327.743 52.5134 298.535C32.9885 269.327 22.5666 234.983 22.5665 199.85C22.6432 152.855 41.3459 107.807 74.5764 74.5764C107.807 41.3459 152.855 22.6432 199.85 22.5665V22.2765Z" fill="url(#paint2_linear_1472_1073)"/>
<path style="mix-blend-mode:screen" fill-rule="evenodd" clip-rule="evenodd" d="M359.034 278.688C341.985 313.018 314.316 340.931 280.138 358.28C289.304 358.976 290.348 372.377 287.912 379.28C329.252 358.938 362.319 324.97 381.543 283.097C375.335 286.578 358.338 287.216 358.976 278.688H359.034Z" fill="url(#paint3_radial_1472_1073)"/>
<path d="M193.94 83.0004H282.658C283.164 83.0005 283.66 83.1396 284.092 83.4026C284.525 83.6655 284.876 84.0422 285.109 84.4915C285.341 84.9407 285.446 85.4453 285.411 85.9499C285.376 86.4546 285.203 86.94 284.911 87.353L228.581 166.613C228.286 167.025 228.112 167.51 228.075 168.015C228.039 168.52 228.143 169.025 228.375 169.475C228.607 169.925 228.959 170.302 229.391 170.565C229.824 170.828 230.321 170.967 230.827 170.966H284.611C285.146 170.969 285.667 171.128 286.113 171.423C286.558 171.718 286.908 172.136 287.12 172.626C287.332 173.117 287.397 173.658 287.307 174.185C287.216 174.711 286.974 175.2 286.611 175.592L137.969 315.568L195.959 216.365C196.155 215.942 196.241 215.477 196.208 215.012C196.176 214.547 196.026 214.098 195.773 213.707C195.52 213.316 195.173 212.995 194.762 212.774C194.352 212.554 193.892 212.44 193.427 212.445L146.608 213.065C146.158 213.071 145.714 212.966 145.314 212.761C144.914 212.555 144.57 212.255 144.313 211.887C144.055 211.518 143.891 211.092 143.836 210.646C143.781 210.199 143.835 209.746 143.995 209.326L191.32 84.7668C191.523 84.2391 191.883 83.7864 192.351 83.4704C192.82 83.1544 193.375 82.9903 193.94 83.0004V83.0004Z" fill="#D16E1C"/>
<path d="M254.749 182.297H200.959C200.452 182.297 199.956 182.157 199.523 181.893C199.091 181.629 198.74 181.252 198.508 180.802C198.276 180.351 198.172 179.846 198.208 179.341C198.244 178.836 198.419 178.35 198.712 177.938L255.043 98.6845C255.336 98.2718 255.511 97.7864 255.547 97.2813C255.583 96.7762 255.479 96.2709 255.247 95.8207C255.015 95.3706 254.664 94.9929 254.232 94.7291C253.799 94.4654 253.303 94.3256 252.796 94.3252H164.078C163.519 94.3262 162.972 94.4968 162.512 94.8145C162.051 95.1322 161.698 95.5822 161.498 96.1049L114.173 220.671C114.013 221.091 113.958 221.543 114.014 221.989C114.069 222.436 114.233 222.861 114.49 223.229C114.748 223.598 115.092 223.897 115.492 224.102C115.892 224.306 116.337 224.41 116.786 224.403L163.605 223.79C164.071 223.784 164.531 223.896 164.943 224.116C165.354 224.337 165.703 224.657 165.956 225.049C166.21 225.44 166.36 225.89 166.393 226.355C166.426 226.82 166.34 227.286 166.144 227.709L128.404 309.182C125.598 315.235 133.49 320.514 138.009 315.615L256.776 186.97C257.153 186.577 257.406 186.082 257.503 185.546C257.6 185.01 257.536 184.458 257.319 183.958C257.102 183.459 256.743 183.035 256.286 182.739C255.828 182.443 255.294 182.29 254.749 182.297V182.297Z" fill="url(#paint4_linear_1472_1073)"/>
<g opacity="0.4">
<path opacity="0.4" d="M156.373 295.684L159.319 242.447L136.09 292.565L139.216 314.275L156.373 295.684Z" fill="url(#paint5_linear_1472_1073)"/>
<path opacity="0.4" d="M122.579 198.561L126.271 224.283L152.974 223.93L133.983 168.539L122.579 198.561Z" fill="url(#paint6_linear_1472_1073)"/>
</g>
<path opacity="0.4" d="M227.854 182.29H200.958C200.452 182.29 199.955 182.15 199.523 181.886C199.091 181.623 198.74 181.245 198.508 180.795C198.276 180.345 198.172 179.839 198.208 179.334C198.244 178.829 198.419 178.344 198.712 177.931L202.338 172.832L183.388 94.3252H164.058C162.965 94.3252 196.472 252.225 196.472 252.225L205.498 242.447L227.854 182.29Z" fill="url(#paint7_linear_1472_1073)"/>
<path d="M163.045 94.552L193.087 83.1606L282.931 83.0339C283.431 83.0606 283.913 83.2333 284.315 83.5307C284.718 83.828 285.025 84.237 285.198 84.707L255.356 96.0917L163.045 94.552Z" fill="#FCE13C"/>
<path d="M163.045 94.552L193.087 83.1606L282.931 83.0339C283.431 83.0606 283.913 83.2333 284.315 83.5307C284.718 83.828 285.025 84.237 285.198 84.707L255.356 96.0917L163.045 94.552Z" fill="#FCE13C"/>
<path d="M199.499 181.87L229.394 170.539C230.013 170.846 230.704 170.982 231.394 170.932H284.798C285.206 170.949 285.604 171.062 285.96 171.262C286.316 171.463 286.619 171.745 286.844 172.085L256.036 182.604C255.648 182.405 255.219 182.3 254.783 182.297H200.852C200.37 182.284 199.901 182.136 199.499 181.87V181.87Z" fill="url(#paint8_linear_1472_1073)"/>
<path d="M254.749 182.297C250.264 182.71 245.784 182.924 241.298 183.07C236.812 183.217 232.333 183.277 227.854 183.297C223.375 183.317 218.889 183.237 214.403 183.077C209.917 182.917 205.438 182.71 200.958 182.297C205.438 181.877 209.924 181.631 214.403 181.511C218.882 181.391 223.368 181.311 227.854 181.291C232.34 181.271 236.819 181.357 241.298 181.517C245.778 181.677 250.264 181.871 254.749 182.297Z" fill="#FFFFFD"/>
<path d="M129.817 179.491C127.333 187.121 124.727 194.708 121.999 202.254C120.665 206.04 119.259 209.793 117.879 213.585L115.78 219.198L115.253 220.604L115.12 220.957C115.08 221.077 115.073 221.124 115.04 221.211C115.002 221.368 114.984 221.529 114.986 221.691C114.999 222.012 115.097 222.324 115.272 222.594C115.447 222.863 115.691 223.081 115.98 223.224C116.12 223.295 116.271 223.345 116.426 223.37C116.504 223.391 116.585 223.402 116.666 223.404H116.979H118.486L121.492 223.37L127.491 223.324C131.49 223.324 135.49 223.29 139.522 223.324C147.521 223.35 155.544 223.506 163.592 223.79C155.593 224.283 147.576 224.65 139.542 224.89C135.543 225.037 131.544 225.103 127.511 225.217L121.512 225.323L118.506 225.377H116.999H116.566C116.396 225.37 116.227 225.35 116.06 225.317C115.721 225.261 115.392 225.153 115.086 224.997C114.473 224.69 113.955 224.222 113.588 223.643C113.22 223.064 113.017 222.396 113 221.711C112.999 221.369 113.041 221.028 113.127 220.697C113.173 220.544 113.227 220.351 113.273 220.237L113.407 219.884L113.947 218.484L116.113 212.872C117.593 209.139 119.032 205.4 120.545 201.687C123.518 194.253 126.609 186.854 129.817 179.491Z" fill="#FFFFFD"/>
<path d="M252.87 96.0183C245.462 96.2627 238.059 96.3804 230.66 96.3716C223.255 96.3716 215.856 96.2916 208.457 96.1716C201.059 96.0516 193.66 95.8316 186.261 95.505C178.862 95.1784 171.47 94.8385 164.078 94.2986C171.481 94.0542 178.885 93.9364 186.288 93.9453C193.693 93.9453 201.092 94.0253 208.491 94.1453C215.889 94.2652 223.295 94.4919 230.687 94.8118C238.079 95.1318 245.478 95.4917 252.87 96.0183Z" fill="#FFFFFD"/>
<path opacity="0.6" d="M248.164 108.356L255.043 98.6845C255.341 98.3242 255.53 97.8855 255.585 97.4208C255.641 96.9562 255.561 96.4854 255.356 96.0649L164.078 94.3252C163.518 94.3262 162.972 94.4968 162.512 94.8145C162.051 95.1322 161.698 95.5822 161.498 96.1049L135.149 165.533C155.379 133.985 200.472 106.31 248.164 108.356Z" fill="#FCFFAC"/>
<path opacity="0.6" d="M166.151 227.709L128.404 309.182C125.598 315.235 133.49 320.514 138.009 315.615L148.054 304.73C140.762 299.237 146.781 278.874 166.151 227.709Z" fill="#FCFFAC"/>
<path opacity="0.6" d="M175.143 89.9528C192.207 86.0334 219.802 83.3739 283.192 83.0339H282.958L193.113 83.1606L175.143 89.9528Z" fill="#FCFFAC"/>
<defs>
<linearGradient id="paint0_linear_1472_1073" x1="14.2129" y1="199.851" x2="385.43" y2="199.851" gradientUnits="userSpaceOnUse">
<stop stop-color="#161C29"/>
<stop offset="1" stop-color="#293C4F"/>
</linearGradient>
<linearGradient id="paint1_linear_1472_1073" x1="199.85" y1="367.263" x2="199.85" y2="33" gradientUnits="userSpaceOnUse">
<stop stop-color="#20283B"/>
<stop offset="0.19" stop-color="#293C4F"/>
<stop offset="0.67" stop-color="#384F65"/>
<stop offset="1" stop-color="#3F576E"/>
</linearGradient>
<linearGradient id="paint2_linear_1472_1073" x1="199.85" y1="399.7" x2="199.85" y2="0" gradientUnits="userSpaceOnUse">
<stop stop-color="#8292AB"/>
<stop offset="1" stop-color="#5B597D"/>
</linearGradient>
<radialGradient id="paint3_radial_1472_1073" cx="0" cy="0" r="1" gradientUnits="userSpaceOnUse" gradientTransform="translate(8403.64 7491.15) scale(2870.76 2847.77)">
<stop stop-color="#DBEAFF"/>
<stop offset="0.06" stop-color="#C5D3E6"/>
<stop offset="0.21" stop-color="#929CAA"/>
<stop offset="0.35" stop-color="#656C76"/>
<stop offset="0.5" stop-color="#41454C"/>
<stop offset="0.64" stop-color="#25272B"/>
<stop offset="0.77" stop-color="#101113"/>
<stop offset="0.89" stop-color="#040405"/>
<stop offset="1"/>
</radialGradient>
<linearGradient id="paint4_linear_1472_1073" x1="121.985" y1="135.272" x2="220.155" y2="233.442" gradientUnits="userSpaceOnUse">
<stop stop-color="#FCE13C"/>
<stop offset="0.45" stop-color="#FDC822"/>
<stop offset="1" stop-color="#FBAA12"/>
</linearGradient>
<linearGradient id="paint5_linear_1472_1073" x1="136.336" y1="265.43" x2="162.199" y2="291.292" gradientUnits="userSpaceOnUse">
<stop offset="0.08" stop-color="#FFFF93"/>
<stop offset="0.23" stop-color="#FFFC8D"/>
<stop offset="0.44" stop-color="#FEF47B"/>
<stop offset="0.68" stop-color="#FDE65E"/>
<stop offset="0.94" stop-color="#FCD436"/>
<stop offset="1" stop-color="#FCCF2C"/>
</linearGradient>
<linearGradient id="paint6_linear_1472_1073" x1="4239.57" y1="13256.7" x2="6854.27" y2="14682.4" gradientUnits="userSpaceOnUse">
<stop offset="0.08" stop-color="#FFFF93"/>
<stop offset="0.23" stop-color="#FFFC8D"/>
<stop offset="0.44" stop-color="#FEF47B"/>
<stop offset="0.68" stop-color="#FDE65E"/>
<stop offset="0.94" stop-color="#FCD436"/>
<stop offset="1" stop-color="#FCCF2C"/>
</linearGradient>
<linearGradient id="paint7_linear_1472_1073" x1="164.051" y1="173.279" x2="227.854" y2="173.279" gradientUnits="userSpaceOnUse">
<stop offset="0.08" stop-color="#FFF257"/>
<stop offset="1" stop-color="#FCCF2C"/>
</linearGradient>
<linearGradient id="paint8_linear_1472_1073" x1="199.499" y1="176.591" x2="286.858" y2="176.591" gradientUnits="userSpaceOnUse">
<stop stop-color="#FBC01E"/>
<stop offset="0.46" stop-color="#FDC822"/>
<stop offset="1" stop-color="#FCE13C"/>
</linearGradient>
</defs>
</svg>
