<svg width="73" height="49" viewBox="0 0 73 49" fill="none" xmlns="http://www.w3.org/2000/svg">
<path d="M21.1444 47.178C21.14 47.3447 21.1691 47.5105 21.2299 47.6658C21.2908 47.821 21.382 47.9625 21.4984 48.0819C21.6148 48.2014 21.7539 48.2962 21.9076 48.361C22.0612 48.4258 22.2263 48.4591 22.393 48.4591H50.3748C50.7026 48.4586 51.0173 48.3311 51.253 48.1034C51.4886 47.8757 51.6268 47.5654 51.6385 47.2379C51.6563 45.7572 51.5486 44.2777 51.3163 42.8153H71.7464C72.0717 42.8116 72.3831 42.6826 72.6157 42.4551C72.8482 42.2276 72.9841 41.9192 72.995 41.5941C73.01 41.1596 73.2697 30.9108 66.8468 25.0248C66.6275 24.824 66.3445 24.7072 66.0475 24.6948C65.7505 24.6825 65.4587 24.7755 65.2236 24.9573C65.1461 25.0148 57.6743 30.6261 50.7195 24.9573C50.4885 24.7693 50.1986 24.6688 49.9008 24.6733C49.603 24.6779 49.3164 24.7873 49.0912 24.9823C48.9439 25.1122 46.8986 26.9302 45.1256 30.4438C44.9195 30.3536 44.6931 30.32 44.4697 30.3463C44.2463 30.3726 44.0339 30.458 43.8545 30.5937C43.5473 30.8284 36.2703 36.24 29.3479 30.5937C29.1861 30.4611 28.9937 30.3712 28.7882 30.3324C28.5826 30.2936 28.3707 30.307 28.1717 30.3714C27.2576 28.349 25.9532 26.527 24.3334 25.0098C24.1142 24.809 23.8311 24.6922 23.5341 24.6799C23.2371 24.6675 22.9453 24.7605 22.7102 24.9423C22.6352 24.9998 15.1609 30.6111 8.20606 24.9423C7.97508 24.7543 7.6852 24.6538 7.38741 24.6584C7.08961 24.6629 6.80296 24.7723 6.57785 24.9673C6.34061 25.2096 0.15489 30.706 5.96457e-05 41.5317C-0.00320809 41.8702 0.12791 42.1962 0.36466 42.4382C0.482065 42.558 0.6224 42.6529 0.77729 42.7172C0.93218 42.7816 1.09845 42.8141 1.26617 42.8128H21.5689C21.3092 44.2539 21.1672 45.7138 21.1444 47.178ZM50.0777 27.6169C56.6879 32.2269 63.4355 29.0229 65.8554 27.567C69.6137 31.6025 70.3355 37.7009 70.4678 40.283H50.8243C50.1825 37.6984 49.0513 34.7891 47.0785 32.3367C47.8432 30.6259 48.8536 29.0359 50.0777 27.6169ZM28.7036 33.2607C35.3188 37.8732 42.0615 34.6692 44.4838 33.2133C48.2422 37.2489 48.9639 43.3472 49.0962 45.9268L23.7241 45.9318C24.1686 39.1318 27.2851 34.8715 28.7036 33.2607ZM2.57723 40.2855C3.02424 33.488 6.14083 29.2252 7.57176 27.6169C14.1845 32.2269 20.9296 29.0229 23.3495 27.567C24.5931 28.9395 25.5764 30.527 26.2513 32.2518C24.3649 34.6298 22.9717 37.3601 22.1533 40.283L2.57723 40.2855Z" fill="#003049"/>
<path d="M3.29199 11.9765C3.29925 15.1474 4.56262 18.1862 6.80549 20.4277C9.04835 22.6692 12.088 23.9306 15.2589 23.9359C17.052 23.9372 18.8224 23.5336 20.4378 22.7553C22.0533 21.977 23.4721 20.844 24.5886 19.4408C25.0285 22.2602 26.4597 24.8301 28.6249 26.6886C30.7901 28.5471 33.5473 29.5722 36.4007 29.5797C39.2998 29.578 42.0996 28.5229 44.2789 26.611C46.4582 24.699 47.8687 22.0604 48.2477 19.1861C49.3606 20.6587 50.7995 21.8535 52.4516 22.6767C54.1036 23.4999 55.924 23.9292 57.7698 23.9309C60.9429 23.9309 63.9861 22.6704 66.2299 20.4266C68.4736 18.1829 69.7342 15.1397 69.7342 11.9665C69.7342 8.79338 68.4736 5.75019 66.2299 3.50644C63.9861 1.26268 60.9429 0.00214837 57.7698 0.00214837C54.8703 0.00398497 52.0702 1.05937 49.8908 2.97183C47.7114 4.8843 46.3012 7.52354 45.9228 10.3983C44.8951 9.0327 43.5859 7.90391 42.084 7.08832C40.5821 6.27272 38.9225 5.78936 37.2175 5.67096C35.5126 5.55256 33.8021 5.80188 32.2019 6.40205C30.6016 7.00222 29.1491 7.93923 27.9425 9.14962C27.6334 9.46144 27.3416 9.7899 27.0684 10.1335C26.6089 7.1555 25.0419 4.46077 22.681 2.58842C20.32 0.716078 17.3391 -0.1958 14.3347 0.0352113C11.3303 0.266223 8.52388 1.62309 6.4769 3.83436C4.42992 6.04564 3.29332 8.94826 3.29449 11.9615L3.29199 11.9765ZM51.0971 5.30384C51.9637 4.3888 53.0049 3.65672 54.1592 3.15083C55.3135 2.64494 56.5575 2.37551 57.8177 2.35846C59.0778 2.3414 60.3286 2.57705 61.4962 3.05151C62.6638 3.52596 63.7244 4.22959 64.6155 5.12083C65.5066 6.01207 66.21 7.07285 66.6842 8.24051C67.1585 9.40817 67.3939 10.659 67.3766 11.9192C67.3593 13.1794 67.0896 14.4233 66.5835 15.5775C66.0774 16.7317 65.3452 17.7728 64.43 18.6392C63.557 19.519 62.5182 20.2168 61.3737 20.6922C60.2291 21.1676 59.0016 21.4111 57.7623 21.4087C55.8959 21.4099 54.071 20.8574 52.5188 19.8211C50.9665 18.7847 49.7566 17.3112 49.0422 15.5869C48.3278 13.8626 48.1409 11.9652 48.5054 10.1347C48.8699 8.30418 49.7692 6.62297 51.0896 5.30384H51.0971ZM29.718 10.9501C30.815 9.85425 32.1651 9.04568 33.6491 8.59601C35.133 8.14634 36.7049 8.06945 38.2257 8.37213C39.7464 8.67482 41.1691 9.34775 42.3677 10.3314C43.5664 11.315 44.5041 12.5789 45.0978 14.0113C45.6915 15.4437 45.9229 17.0004 45.7715 18.5435C45.6202 20.0867 45.0907 21.5688 44.23 22.8585C43.3693 24.1483 42.2039 25.2059 40.837 25.9379C39.4701 26.6699 37.9438 27.0535 36.3932 27.055C34.5266 27.0567 32.7014 26.5046 31.1487 25.4684C29.5961 24.4323 28.3858 22.9587 27.6711 21.2344C26.9563 19.51 26.7693 17.6123 27.1337 15.7816C27.4981 13.9509 28.3975 12.2694 29.718 10.9501ZM15.2589 2.53437C17.7618 2.53437 20.1621 3.52864 21.9319 5.29845C23.7018 7.06826 24.696 9.46864 24.696 11.9715C24.696 14.4744 23.7018 16.8748 21.9319 18.6446C20.1621 20.4144 17.7618 21.4087 15.2589 21.4087C12.756 21.4087 10.3556 20.4144 8.5858 18.6446C6.81599 16.8748 5.82172 14.4744 5.82172 11.9715C5.82172 9.46864 6.81599 7.06826 8.5858 5.29845C10.3556 3.52864 12.756 2.53437 15.2589 2.53437Z" fill="#003049"/>
</svg>
