<svg width="55" height="55" viewBox="0 0 55 55" fill="none" xmlns="http://www.w3.org/2000/svg">
<rect width="55" height="55" rx="27.5" fill="url(#paint0_linear_1045_2)"/>
<path d="M27.5589 28.8276C30.1669 28.7954 32.6572 27.7368 34.4901 25.8812C36.323 24.0256 37.3508 21.5224 37.3508 18.9142C37.3508 16.3059 36.323 13.8028 34.4901 11.9472C32.6572 10.0915 30.1669 9.03292 27.5589 9.00075C26.2467 8.98457 24.9445 9.22904 23.7275 9.71997C22.5106 10.2109 21.4032 10.9386 20.4696 11.8607C19.536 12.7829 18.7948 13.8812 18.2889 15.092C17.783 16.3028 17.5225 17.6019 17.5225 18.9142C17.5225 20.2264 17.783 21.5256 18.2889 22.7364C18.7948 23.9472 19.536 25.0455 20.4696 25.9676C21.4032 26.8898 22.5106 27.6174 23.7275 28.1084C24.9445 28.5993 26.2467 28.8438 27.5589 28.8276ZM22.4058 13.7634C23.0822 13.0867 23.8853 12.55 24.7691 12.1837C25.653 11.8175 26.6003 11.6289 27.5571 11.6288C28.5138 11.6286 29.4612 11.8169 30.3452 12.1829C31.2291 12.5489 32.0323 13.0854 32.7089 13.7618C33.3856 14.4383 33.9223 15.2413 34.2886 16.1252C34.6548 17.009 34.8434 17.9564 34.8435 18.9131C34.8437 19.8698 34.6554 20.8172 34.2894 21.7012C33.9234 22.5852 33.3869 23.3884 32.7105 24.065C32.0364 24.7443 31.2342 25.2832 30.3505 25.6504C29.4667 26.0176 28.5189 26.2059 27.5619 26.2043C26.1197 26.2063 24.7093 25.7801 23.5095 24.9797C22.3097 24.1794 21.3745 23.0409 20.8223 21.7086C20.2701 20.3762 20.1258 18.91 20.4077 17.4955C20.6896 16.0811 21.385 14.7822 22.4058 13.7634Z" fill="white"/>
<path d="M40.1157 42.7312C40.1263 42.3785 40.3404 34.0066 35.0757 29.1852C34.8484 28.9776 34.5552 28.8566 34.2476 28.8433C33.94 28.8301 33.6375 28.9255 33.3932 29.1128C33.3359 29.1565 27.5134 33.5317 22.1011 29.1219C21.861 28.9273 21.5601 28.8233 21.2511 28.8283C20.9421 28.8333 20.6447 28.9468 20.411 29.149C20.1939 29.3375 15.1268 33.8423 15.0001 42.674C14.9977 42.8478 15.0299 43.0204 15.0947 43.1817C15.1595 43.343 15.2557 43.4898 15.3778 43.6137C15.4998 43.7375 15.6452 43.8359 15.8055 43.9031C15.9658 43.9703 16.1379 44.005 16.3118 44.0052H38.8041C39.1453 44.0046 39.4729 43.8713 39.7176 43.6336C39.9624 43.3959 40.1052 43.0723 40.1157 42.7312ZM17.6852 41.3819C18.0862 36.3781 20.2617 33.2241 21.4181 31.8763C26.149 35.0197 31.2267 33.5347 34.0189 31.8492C36.6874 34.8644 37.31 39.2366 37.4532 41.3774L17.6852 41.3819Z" fill="white"/>
<defs>
<linearGradient id="paint0_linear_1045_2" x1="87.9159" y1="34.5588" x2="33.8926" y2="-18.788" gradientUnits="userSpaceOnUse">
<stop offset="0.000302188" stop-color="#F9D423"/>
<stop offset="1" stop-color="#F83600"/>
</linearGradient>
</defs>
</svg>
