<svg width="401" height="400" viewBox="0 0 401 400" fill="none" xmlns="http://www.w3.org/2000/svg">
<path fill-rule="evenodd" clip-rule="evenodd" d="M200.5 14.2139C237.216 14.2139 273.107 25.1013 303.635 45.4994C334.163 65.8975 357.956 94.8901 372.007 128.811C386.057 162.732 389.733 200.057 382.57 236.067C375.408 272.077 357.727 305.155 331.766 331.117C305.804 357.078 272.726 374.759 236.716 381.922C200.706 389.084 163.381 385.408 129.46 371.358C95.539 357.307 66.5464 333.514 46.1483 302.986C25.7502 272.458 14.8628 236.567 14.8628 199.851C14.8628 150.617 34.421 103.4 69.2347 68.5858C104.048 33.772 151.266 14.2139 200.5 14.2139V14.2139Z" fill="url(#paint0_linear_1472_1074)"/>
<path fill-rule="evenodd" clip-rule="evenodd" d="M200.5 32.7195C233.555 32.7195 265.868 42.5216 293.353 60.8862C320.838 79.2509 342.259 105.353 354.909 135.893C367.559 166.432 370.869 200.037 364.42 232.457C357.971 264.877 342.053 294.657 318.68 318.031C295.306 341.405 265.526 357.323 233.106 363.771C200.685 370.22 167.081 366.91 136.541 354.261C106.002 341.611 79.8996 320.189 61.5349 292.704C43.1703 265.22 33.3682 232.907 33.3682 199.851C33.3682 155.525 50.9766 113.014 82.3199 81.6712C113.663 50.3279 156.174 32.7195 200.5 32.7195V32.7195Z" fill="url(#paint1_linear_1472_1074)"/>
<path fill-rule="evenodd" clip-rule="evenodd" d="M345.065 283.62C331.027 309.745 310.172 331.577 284.716 346.796C259.261 362.015 230.158 370.052 200.5 370.052C170.842 370.052 141.739 362.015 116.284 346.796C90.8288 331.577 69.9734 309.745 55.9351 283.62C70.639 308.93 91.7305 329.937 117.1 344.539C142.47 359.14 171.228 366.826 200.5 366.826C229.772 366.826 258.53 359.14 283.9 344.539C309.27 329.937 330.361 308.93 345.065 283.62Z" fill="black"/>
<path fill-rule="evenodd" clip-rule="evenodd" d="M200.5 29.4705C230.13 29.6075 259.179 37.702 284.61 52.9076C310.041 68.1132 330.921 89.8716 345.065 115.908C330.361 90.5973 309.27 69.5908 283.9 54.9891C258.53 40.3873 229.772 32.7022 200.5 32.7022C171.228 32.7022 142.47 40.3873 117.1 54.9891C91.7305 69.5908 70.639 90.5973 55.9351 115.908C70.0795 89.8716 90.9588 68.1132 116.39 52.9076C141.821 37.702 170.87 29.6075 200.5 29.4705V29.4705Z" fill="#89EFF4"/>
<path fill-rule="evenodd" clip-rule="evenodd" d="M143.069 233.499C107.333 247.654 92.8305 284.955 87.0293 322.547C117.908 351.119 158.43 366.991 200.5 366.991C242.57 366.991 283.092 351.119 313.971 322.547C308.17 284.955 293.667 247.654 257.874 233.499C254.51 232.133 251.061 230.989 247.548 230.076C241.758 228.483 235.59 228.997 230.144 231.526C220.94 235.843 210.898 238.081 200.732 238.081C190.566 238.081 180.524 235.843 171.32 231.526C165.873 229.002 159.707 228.488 153.917 230.076C150.387 230.998 146.919 232.141 143.533 233.499H143.069ZM136.397 152.282C138.834 192.891 172.074 219.866 200.5 219.866C228.926 219.866 262.109 192.775 264.313 152.282C265.004 143.551 263.857 134.772 260.946 126.511C258.035 118.251 253.424 110.692 247.411 104.324C241.397 97.9553 234.116 92.9184 226.036 89.5381C217.956 86.1578 209.257 84.5093 200.5 84.6988C191.746 84.4718 183.041 86.0826 174.948 89.4272C166.854 92.7718 159.552 97.7759 153.512 104.117C147.471 110.458 142.828 117.994 139.88 126.24C136.932 134.487 135.746 143.259 136.397 151.992V152.282Z" fill="url(#paint2_linear_1472_1074)"/>
<path fill-rule="evenodd" clip-rule="evenodd" d="M200.5 0C240.027 0 278.666 11.721 311.531 33.6808C344.396 55.6407 370.011 86.853 385.138 123.371C400.264 159.889 404.222 200.072 396.51 238.839C388.799 277.606 369.765 313.216 341.816 341.166C313.866 369.115 278.256 388.149 239.489 395.86C200.722 403.572 160.539 399.614 124.021 384.488C87.5029 369.362 56.2906 343.746 34.3307 310.881C12.3709 278.016 0.649902 239.377 0.649902 199.85C0.649902 146.847 21.7055 96.0139 59.1847 58.5348C96.6639 21.0556 147.497 0 200.5 0V0ZM200.5 22.2765C235.633 22.2191 269.994 32.5848 299.234 52.0619C328.474 71.5391 351.279 99.2522 364.764 131.694C378.248 164.137 381.806 199.85 374.987 234.315C368.168 268.78 351.279 300.448 326.456 325.311C301.634 350.174 269.994 367.115 235.54 373.99C201.086 380.866 165.367 377.366 132.903 363.934C100.439 350.503 72.6882 327.743 53.1633 298.535C33.6384 269.327 23.2165 234.983 23.2164 199.85C23.2931 152.855 41.9958 107.807 75.2263 74.5764C108.457 41.3459 153.505 22.6432 200.5 22.5665V22.2765Z" fill="url(#paint3_linear_1472_1074)"/>
<path style="mix-blend-mode:screen" fill-rule="evenodd" clip-rule="evenodd" d="M359.684 278.688C342.635 313.018 314.966 340.931 280.788 358.28C289.954 358.976 290.998 372.377 288.562 379.28C329.902 358.938 362.969 324.97 382.192 283.097C375.985 286.578 358.988 287.216 359.626 278.688H359.684Z" fill="url(#paint4_radial_1472_1074)"/>
<defs>
<linearGradient id="paint0_linear_1472_1074" x1="14.8628" y1="199.851" x2="386.079" y2="199.851" gradientUnits="userSpaceOnUse">
<stop stop-color="#161C29"/>
<stop offset="1" stop-color="#293C4F"/>
</linearGradient>
<linearGradient id="paint1_linear_1472_1074" x1="200.5" y1="366.983" x2="200.5" y2="32.7195" gradientUnits="userSpaceOnUse">
<stop stop-color="#20283B"/>
<stop offset="0.19" stop-color="#293C4F"/>
<stop offset="0.67" stop-color="#384F65"/>
<stop offset="1" stop-color="#3F576E"/>
</linearGradient>
<linearGradient id="paint2_linear_1472_1074" x1="295.291" y1="341.226" x2="105.651" y2="151.586" gradientUnits="userSpaceOnUse">
<stop stop-color="#216B73"/>
<stop offset="1" stop-color="#5BB8CF"/>
</linearGradient>
<linearGradient id="paint3_linear_1472_1074" x1="200.5" y1="399.7" x2="200.5" y2="0" gradientUnits="userSpaceOnUse">
<stop stop-color="#8292AB"/>
<stop offset="1" stop-color="#5B597D"/>
</linearGradient>
<radialGradient id="paint4_radial_1472_1074" cx="0" cy="0" r="1" gradientUnits="userSpaceOnUse" gradientTransform="translate(8404.29 7491.15) scale(2870.76 2847.77)">
<stop stop-color="#DBEAFF"/>
<stop offset="0.06" stop-color="#C5D3E6"/>
<stop offset="0.21" stop-color="#929CAA"/>
<stop offset="0.35" stop-color="#656C76"/>
<stop offset="0.5" stop-color="#41454C"/>
<stop offset="0.64" stop-color="#25272B"/>
<stop offset="0.77" stop-color="#101113"/>
<stop offset="0.89" stop-color="#040405"/>
<stop offset="1"/>
</radialGradient>
</defs>
</svg>
