<svg width="21" height="21" viewBox="0 0 21 21" fill="none" xmlns="http://www.w3.org/2000/svg">
<rect width="21" height="21" rx="10.5" fill="#D8D8D8"/>
<path d="M10.5235 11.0071C11.5193 10.9948 12.4701 10.5906 13.17 9.88207C13.8698 9.17355 14.2622 8.2178 14.2622 7.22193C14.2622 6.22607 13.8698 5.27031 13.17 4.5618C12.4701 3.85329 11.5193 3.44909 10.5235 3.43681C10.0225 3.43063 9.52526 3.52397 9.06061 3.71142C8.59596 3.89887 8.17314 4.1767 7.81668 4.52879C7.46022 4.88089 7.1772 5.30024 6.98404 5.76254C6.79087 6.22485 6.69141 6.7209 6.69141 7.22193C6.69141 7.72297 6.79087 8.21902 6.98404 8.68132C7.1772 9.14362 7.46022 9.56298 7.81668 9.91507C8.17314 10.2672 8.59596 10.545 9.06061 10.7324C9.52526 10.9199 10.0225 11.0132 10.5235 11.0071ZM8.55596 5.25526C8.81422 4.99692 9.12085 4.79197 9.45832 4.65213C9.79579 4.51229 10.1575 4.44028 10.5228 4.44023C10.8881 4.44017 11.2498 4.51207 11.5873 4.65182C11.9249 4.79156 12.2315 4.99642 12.4899 5.25468C12.7482 5.51295 12.9532 5.81957 13.093 6.15704C13.2329 6.49452 13.3049 6.85623 13.3049 7.22153C13.305 7.58682 13.2331 7.94856 13.0933 8.28607C12.9536 8.62358 12.7487 8.93026 12.4905 9.18861C12.2331 9.44798 11.9268 9.65373 11.5894 9.79394C11.2519 9.93415 10.89 10.006 10.5246 10.0054C9.97397 10.0062 9.43547 9.84346 8.97737 9.53787C8.51926 9.23229 8.16217 8.7976 7.95133 8.28889C7.7405 7.78017 7.68541 7.22033 7.79305 6.68027C7.90068 6.14022 8.1662 5.64427 8.55596 5.25526Z" fill="white"/>
<path d="M15.3182 16.3153C15.3222 16.1806 15.4039 12.9841 13.3938 11.1432C13.307 11.0639 13.195 11.0177 13.0776 11.0126C12.9602 11.0076 12.8447 11.044 12.7514 11.1155C12.7295 11.1322 10.5064 12.8027 8.43983 11.119C8.34817 11.0447 8.23328 11.005 8.1153 11.0069C7.99732 11.0088 7.88376 11.0521 7.79454 11.1294C7.71164 11.2013 5.77692 12.9213 5.72856 16.2934C5.72765 16.3598 5.73992 16.4257 5.76467 16.4873C5.78942 16.5489 5.82616 16.6049 5.87275 16.6522C5.91934 16.6995 5.97485 16.7371 6.03607 16.7627C6.09729 16.7884 6.16299 16.8016 6.22937 16.8017H14.8173C14.9476 16.8015 15.0727 16.7506 15.1662 16.6598C15.2596 16.5691 15.3141 16.4455 15.3182 16.3153ZM6.75378 15.8001C6.9069 13.8896 7.73755 12.6853 8.17906 12.1707C9.98542 13.3709 11.9242 12.8039 12.9903 12.1603C14.0091 13.3116 14.2469 14.981 14.3016 15.7984L6.75378 15.8001Z" fill="white"/>
</svg>
