<svg width="56" height="56" viewBox="0 0 56 56" fill="none" xmlns="http://www.w3.org/2000/svg">
<circle cx="28.0005" cy="28.0001" r="27.8794" fill="#F94144"/>
<path d="M21.1387 26.5821C19.717 27.4554 18.4679 28.5786 17.1147 29.5542C13.0318 32.4961 7.79445 34.0518 2.86523 33.0381C2.90742 33.6143 3.09212 34.171 3.40274 34.6582C3.71336 35.1453 4.14016 35.5476 4.64479 35.829C5.02722 36.0373 5.44968 36.1723 5.81379 36.4115C6.84632 37.0901 7.18969 38.4226 7.9155 39.4223C8.88678 40.7611 10.5472 41.4642 12.1912 41.6407C13.4485 41.7748 14.7284 41.6407 15.976 41.8418C17.1041 42.0261 18.167 42.4808 19.2511 42.843C20.8387 43.373 22.4848 43.7077 24.1533 43.8399C26.309 44.0106 28.4758 43.8399 30.6316 43.6715L35.8038 43.2645C36.6661 43.197 37.5438 43.1256 38.3439 42.7972C39.144 42.4688 39.8674 41.8365 40.0801 40.9988C40.3347 39.9981 39.8302 38.9777 39.3412 38.0681L37.2506 34.1753L38.3425 33.7292C37.9417 33.8628 37.4903 33.652 37.2173 33.3294C36.9444 33.0068 36.8113 32.592 36.684 32.1893C36.3978 31.2807 36.1115 30.3723 35.8251 29.4641C35.5121 28.472 35.1547 27.4144 34.3238 26.7885C33.6486 26.2787 32.7636 26.1437 31.9182 26.0766C29.9757 25.9223 27.5933 26.6153 25.8181 25.7019C24.2396 24.8898 22.5671 25.7043 21.1387 26.5821Z" fill="#EFCC22"/>
<path d="M3.92621 35.2793C3.9687 35.2149 4.01714 35.1547 4.07089 35.0994C4.46635 34.7001 5.03542 34.54 5.58279 34.4049C8.66059 33.643 11.8353 33.1805 14.766 31.97C15.7606 31.5631 16.7092 31.052 17.596 30.4451C18.3709 29.9173 19.08 29.2988 19.7083 28.6028C20.0348 28.2373 20.9834 27.3007 20.9395 26.6911C19.6003 27.5447 18.4052 28.6076 17.1156 29.5365C13.0323 32.4822 7.79493 34.036 2.86523 33.0223C2.92868 33.8797 3.30651 34.6834 3.92621 35.2793V35.2793Z" fill="#D1AF20"/>
<path d="M7.91596 39.4068C7.98445 39.5033 8.05679 39.5925 8.13202 39.6807C8.20879 39.3413 8.33798 39.0159 8.51494 38.7162C8.96923 37.9446 9.67237 37.3524 10.3905 36.8161C11.247 36.176 12.1438 35.5916 13.0752 35.0664C10.9966 36.1352 8.71869 36.7607 6.38574 36.9034C7.00834 37.622 7.34304 38.6178 7.91596 39.4068Z" fill="#D1AF20"/>
<path d="M33.5679 43.4171C32.8728 42.4615 32.3237 41.4077 31.9388 40.2905C31.553 41.326 31.6977 42.4554 31.7502 43.5699L33.5737 43.4253L33.5679 43.4171Z" fill="#D1AF20"/>
<path d="M16.2639 40.6328C15.9885 41.0075 15.6973 41.3914 15.3838 41.7512C15.582 41.7685 15.7802 41.7917 15.9775 41.8235C16.4919 41.913 16.9986 42.042 17.4932 42.2093C17.482 42.0856 17.4733 41.9618 17.4672 41.838C17.4484 41.4623 17.4397 41.0601 17.2227 40.7529C17.0056 40.4457 16.4867 40.3319 16.2639 40.6328Z" fill="#D1AF20"/>
<path d="M44.2249 19.2254C45.3447 19.5735 46.3295 20.2594 47.0442 21.1891C45.3973 21.2938 43.7918 20.7184 42.2418 20.1518C43.6148 20.9716 44.8108 22.2159 45.2068 23.7649C45.4329 24.6513 45.3876 25.5811 45.3403 26.4945C45.1701 26.2727 44.9372 26.1087 44.7052 25.9529C43.677 25.2643 42.5881 24.6629 41.612 23.9024C40.6359 23.1418 39.761 22.1932 39.3376 21.0305C39.1929 20.6297 39.1066 20.1658 39.3077 19.7896C39.4886 19.452 39.8686 19.276 40.239 19.2524C40.6134 19.2354 40.9857 19.187 41.352 19.1077C42.3039 18.9004 43.2931 18.9409 44.2249 19.2254Z" fill="#455F87"/>
<path d="M17.9015 22.7601C17.5929 22.2474 17.4101 21.6576 17.0378 21.1889C16.9949 21.1348 16.9413 21.0784 16.8724 21.0755C16.7455 21.0702 16.6906 21.2342 16.6833 21.361C16.6565 21.8173 16.7193 22.2744 16.868 22.7065C16.8468 22.4591 16.5546 22.2764 16.3231 22.3656C16.0916 22.4548 15.9975 22.7866 16.1485 22.9843C15.9585 22.9501 15.8042 23.1734 15.8288 23.3648C15.8534 23.5563 15.9927 23.7096 16.1249 23.85L17.4569 25.2649C17.7462 25.5726 18.0486 25.889 18.4397 26.0496C18.8308 26.2102 19.3382 26.1687 19.6039 25.8398C19.791 25.6078 19.8219 25.2789 19.7486 24.9905C19.4872 23.9643 18.4262 23.631 17.9015 22.7601Z" fill="#FCB33D"/>
<path d="M25.9255 33.648C23.2392 33.0804 20.3924 33.5998 17.9155 34.7857C15.4136 35.9817 13.0958 37.8755 10.3252 38.0082C13.1392 40.0047 16.4837 41.1188 19.9329 41.2085C20.6688 41.2258 21.411 41.1954 22.1272 41.0262C23.206 40.7715 24.1869 40.2116 25.1128 39.602C25.9891 39.0233 26.836 38.392 27.5627 37.6349C27.9741 37.2062 28.3527 36.7263 28.5403 36.163C28.7279 35.5997 28.6994 34.9381 28.3474 34.4597C28.0739 34.0878 27.7069 33.9909 27.2782 33.9292C26.809 33.8578 26.4188 33.7522 25.9255 33.648Z" fill="#E09B38"/>
<path d="M38.8503 26.6025C40.027 26.777 41.2795 27.0423 42.1022 27.9012C42.8926 28.7268 43.1241 29.9904 42.8521 31.1001C42.7321 31.6044 42.509 32.0785 42.1967 32.4924C41.5698 33.3122 40.6052 33.7945 39.6586 34.201C39.1623 34.4132 38.5363 34.5936 38.1279 34.2415C37.8134 33.9705 37.7801 33.5041 37.77 33.0894C37.77 33.0103 37.77 32.923 37.8226 32.8651C37.8752 32.8073 37.9615 32.7996 38.0386 32.7914C38.72 32.7152 39.3478 32.3859 39.7979 31.8688C40.0135 31.619 40.1891 31.3002 40.1442 30.9732C40.0902 30.5831 39.7381 30.2981 39.3726 30.15C38.8315 29.9291 38.2277 29.9185 37.6461 29.9749C37.3731 30.0015 37.0867 30.0405 36.833 29.9359C36.6725 29.8614 36.5306 29.752 36.4178 29.6156C35.9812 29.1252 35.7385 28.4923 35.7354 27.8356C35.7354 27.2849 35.9717 26.6695 36.4901 26.4824C37.1846 26.2316 38.1525 26.4988 38.8503 26.6025Z" fill="#FCB33D"/>
<path d="M18.7037 23.7949C18.4544 23.6777 18.1756 23.5538 17.9128 23.6392C17.5786 23.7448 17.4224 24.1566 17.487 24.501C17.5516 24.8453 17.7787 25.1347 18.0049 25.4023C19.8549 27.5942 22.1818 29.4389 24.881 30.4097C25.2355 30.537 25.6011 30.6508 25.9772 30.6614C26.7947 30.6865 27.5967 30.1878 27.9656 29.4582C28.5882 28.2255 27.8209 26.0032 26.1812 26.2386C25.4631 26.3413 25.0344 26.3857 24.3153 26.131C23.4135 25.8113 22.5237 25.453 21.6397 25.0884C20.6514 24.6807 19.6728 24.2496 18.7037 23.7949Z" fill="#FCB33D"/>
<path d="M25.0323 31.0439C24.8544 32.253 24.7353 33.5011 25.068 34.6783C25.4428 36.0031 26.389 37.1605 27.6047 37.9176C28.8205 38.6748 30.44 38.6502 31.8998 38.6613C33.4551 38.6738 34.9139 38.6516 36.0554 37.6519C37.1077 36.7303 37.6677 35.3968 37.8707 34.06C38.0737 32.7232 37.9517 31.3656 37.8292 30.022C37.7215 28.8324 37.6135 27.6443 37.5051 26.4576C37.4087 25.399 37.3122 24.3299 36.9693 23.3181C36.6264 22.3063 36.0188 21.3408 35.0885 20.7466C34.5614 20.4091 33.9504 20.2027 33.3278 20.0715C31.4629 19.6823 29.3964 20.0011 27.8941 21.1141C26.4652 22.1722 25.8001 23.8032 25.9578 25.4762C26.1281 27.2847 25.2981 29.2383 25.0323 31.0439Z" fill="#FCB33D"/>
<path d="M21.2713 36.2439C20.5354 37.4013 20.6386 38.9345 21.1913 40.1874C21.744 41.4403 22.6863 42.4733 23.6142 43.4817C23.7796 43.6621 23.9518 43.8478 24.1804 43.9394C24.3448 44.0055 24.5257 44.017 24.7031 44.0276L27.3681 44.1878C26.4475 42.8229 25.9816 41.6771 24.7596 39.9573C26.0766 39.832 30.6027 39.0893 32.2346 39.1462C33.1061 39.1756 32.4796 38.6509 32.6759 38.2617C32.8775 37.8634 32.7526 37.3753 32.5442 36.9803C32.2168 36.3592 31.7013 35.8562 31.1457 35.4284C30.0629 34.6031 28.8098 34.0293 27.4776 33.7487C26.8343 33.6122 26.093 33.4815 25.4338 33.551C24.7996 33.617 21.8245 35.3758 21.2713 36.2439Z" fill="#637DCE"/>
<path d="M36.1672 41.1006L42.1618 43.8495C42.5645 44.0337 42.9696 44.2194 43.3988 44.3279C44.1882 44.5275 45.0172 44.4586 45.8284 44.3886C43.9476 41.5254 38.3408 35.0327 37.9559 33.2368C37.7298 32.1821 34.7147 33.6891 33.6561 33.8941C32.5975 34.0991 31.6142 34.8514 31.3161 35.8878C31.0543 36.7978 31.2279 38.5436 32.0878 39.0606C33.6653 40.0092 34.8579 40.5006 36.1672 41.1006Z" fill="#637DCE"/>
<path d="M24.903 31.7139C28.8294 32.2812 32.8076 32.3999 36.7609 32.0678C37.1761 32.0331 37.6227 31.9801 37.9314 31.6999C37.989 32.9207 38.2069 34.1287 38.5795 35.2927C37.5923 34.9494 36.5246 35.3651 35.522 35.6626C32.1755 36.6551 28.5976 36.3151 25.1244 35.9665C24.7019 35.924 24.2693 35.8787 23.8878 35.6935C23.7914 35.6453 23.6916 35.5855 23.639 35.49C23.231 34.7584 24.0378 34.3152 24.3701 33.8329C24.4849 33.6656 24.8094 32.2738 24.903 31.7139Z" fill="#637DCE"/>
<path d="M22.8248 43.482C22.603 43.6884 22.3339 43.8374 22.1014 44.0308C22.0021 44.1128 21.9042 44.2126 21.8858 44.3404C21.8632 44.4957 21.9707 44.6466 22.1082 44.7228C22.2456 44.799 22.4062 44.8164 22.5625 44.8299C24.0628 44.9606 25.5723 44.8897 27.076 44.8188C27.2206 44.812 27.3764 44.8 27.4806 44.7011C27.5978 44.5902 27.6074 44.4016 27.5529 44.2497C27.4984 44.0978 27.3923 43.9714 27.2983 43.8408C27.103 43.5678 26.5898 43.0175 26.342 42.7918C25.7994 42.298 25.3379 42.5782 24.6323 42.3771C24.37 42.3028 24.1091 42.1905 23.8371 42.2093C23.1691 42.2556 23.2222 43.113 22.8248 43.482Z" fill="#637DCE"/>
<path d="M44.486 42.5134C44.8675 42.7449 47.857 43.8156 48.0876 44.0123C48.184 44.0962 48.2805 44.1975 48.2988 44.3253C48.3186 44.4811 48.2086 44.6301 48.0702 44.7044C47.9318 44.7786 47.7707 44.7931 47.614 44.8042C46.1122 44.9113 44.6037 44.8163 43.101 44.7217C42.9563 44.7126 42.801 44.6981 42.6987 44.5973C42.583 44.4849 42.5767 44.2959 42.6336 44.1454C42.6906 43.995 42.7986 43.8696 42.8945 43.7403C43.0937 43.4707 43.2505 43.1616 43.5022 42.9417C44.052 42.4575 44.0226 42.2328 44.486 42.5134Z" fill="#637DCE"/>
<path d="M29.2834 29.8535C29.9707 29.4855 31.9518 28.6748 32.6839 28.4067C33.3528 28.1622 37.3479 26.5133 37.9242 26.3957C38.5005 26.278 38.8655 26.3768 39.6121 26.6725C35.2717 28.0894 31.3625 30.0367 27.3664 32.2503C26.9498 32.4809 26.5302 32.7181 26.0696 32.8387C25.6983 32.9351 24.9763 32.8628 25.1562 32.2884C25.259 31.9605 25.8652 31.7661 26.1376 31.6084C27.1758 31.0059 28.2244 30.4209 29.2834 29.8535Z" fill="#637DCE"/>
<path d="M34.4174 30.2696C33.7586 29.8529 31.8407 28.9028 31.1298 28.5816C30.4802 28.2923 26.6134 26.3589 26.0468 26.2002C25.4801 26.0416 25.1454 26.0073 24.3164 26.1293C28.5468 27.8554 32.3311 30.3043 36.1603 32.7981C36.5591 33.058 36.9609 33.3247 37.4113 33.4776C37.7749 33.6015 38.5003 33.5803 38.3618 32.9953C38.2828 32.6606 37.692 32.4234 37.4316 32.2464C36.4381 31.5706 35.4334 30.9116 34.4174 30.2696Z" fill="#637DCE"/>
<path d="M20.2295 11.226C20.3164 13.8899 21.2778 16.451 22.9654 18.514C23.2721 18.8872 23.6266 19.2581 24.091 19.3922C24.4647 19.5002 24.8718 19.4404 25.2335 19.2957C26.2462 18.8935 26.9286 17.8523 27.055 16.7701C27.1996 15.521 27.5469 14.0632 26.5086 13.2211C24.8592 11.8848 22.05 11.2217 20.2295 11.226Z" fill="#FCB33D"/>
<path d="M21.6768 12.7381C22.708 12.7721 23.7185 13.0378 24.633 13.5155C25.0704 13.7446 25.504 14.046 25.7046 14.4969C25.8705 14.8692 25.8546 15.2951 25.8126 15.7026C25.7794 16.0209 25.7258 16.3532 25.5329 16.6088C25.3613 16.8359 25.0989 16.9767 24.8312 17.077C24.458 17.2174 24.0461 17.2926 23.6584 17.1962C22.8679 16.9999 22.5236 16.1984 22.2699 15.5082C21.9417 14.6177 21.742 13.685 21.6768 12.7381V12.7381Z" fill="#F4E9DC"/>
<path d="M43.1267 10.9734C43.0791 13.6381 42.1558 16.2131 40.4993 18.3009C40.1974 18.679 39.8487 19.0547 39.3863 19.196C39.0139 19.3093 38.6064 19.2553 38.2423 19.1169C37.2233 18.7311 36.5264 17.699 36.3842 16.6183C36.2197 15.3716 35.6743 13.9938 36.6894 13.1243C38.5206 11.556 41.3061 10.9961 43.1267 10.9734Z" fill="#FCB33D"/>
<path d="M41.6245 12.5572C41.4662 13.8472 40.987 15.077 40.2308 16.1341C40.1295 16.275 40.0196 16.4163 39.8701 16.5055C39.6487 16.6371 39.3757 16.6352 39.1182 16.6241C38.8317 16.6121 38.5395 16.5918 38.2767 16.4794C37.8465 16.2923 37.56 15.8848 37.2967 15.4966C37.2181 15.3808 37.1376 15.2612 37.1086 15.1248C36.9316 14.2933 38.0495 13.609 38.6379 13.3042C39.5566 12.8229 40.5992 12.6223 41.6245 12.5572Z" fill="#F4E9DC"/>
<path d="M39.9358 15.3838C38.8961 14.184 37.4705 13.3636 35.9673 12.8515C34.614 12.3909 29.0656 12.2482 27.6902 12.6388C26.1633 13.0728 24.6973 13.8189 23.5972 14.9638C22.9023 15.6966 22.3704 16.5681 22.0364 17.5212C21.7025 18.4742 21.574 19.4872 21.6595 20.4934C21.758 21.4984 22.0681 22.4712 22.5695 23.3478C23.0708 24.2244 23.7521 24.9849 24.5685 25.5794C25.7973 26.4619 27.2798 26.9273 28.7642 27.2099C29.6501 27.3782 33.2492 27.4708 34.1424 27.3483C35.6417 27.1424 37.1454 26.7542 38.4181 25.9353C39.2685 25.3886 39.9915 24.6656 40.538 23.8151C41.0845 22.9647 41.4419 22.0067 41.5858 21.006C41.7297 20.0054 41.6569 18.9855 41.3722 18.0155C41.0875 17.0455 40.5977 16.148 39.9358 15.3838V15.3838Z" fill="#F4E9DC"/>
<path d="M39.8183 15.2503C38.7785 14.0504 37.4721 13.3637 35.9689 12.8515C35.4046 12.6586 33.3164 12.5009 31.8431 12.4339L31.8388 12.4262C30.3394 12.4107 28.2483 12.4618 27.6464 12.6331C26.1191 13.0671 24.653 13.8131 23.5535 14.958C22.9188 15.6231 22.4205 16.4061 22.0869 17.2628H22.0913C22.8421 17.3915 23.6649 17.1721 24.4312 17.23C25.3062 17.296 26.1682 17.4808 26.9935 17.7793C27.5693 17.9876 28.135 18.2548 28.6235 18.6565C29.6845 19.5309 30.283 20.9574 30.649 22.3854C30.7189 22.3883 30.8511 22.3921 31.0059 22.397C31.0059 22.397 31.0059 22.3999 31.0059 22.4013C31.0908 22.4013 31.2697 22.4061 31.4694 22.4105L31.9333 22.4249C31.9331 22.4235 31.9331 22.422 31.9333 22.4206L32.2897 22.4278C32.7295 21.0201 33.3989 19.6264 34.5052 18.808C35.0135 18.4318 35.5922 18.194 36.1777 18.0156C37.0172 17.7598 37.8877 17.6194 38.765 17.5984C39.5338 17.5801 41.2656 17.7176 41.267 17.7176C40.9786 16.849 40.4192 15.9438 39.8183 15.2503Z" fill="#FCB33D"/>
<path d="M30.7646 22.0135C30.6754 22.0137 30.5876 22.0359 30.509 22.0781C30.4665 22.1043 30.4313 22.1407 30.4065 22.184C30.3817 22.2273 30.3682 22.2761 30.3672 22.326C30.3672 22.4601 30.4714 22.5608 30.5755 22.6091C30.6797 22.6573 30.795 22.6742 30.89 22.7446C31.0071 22.8309 31.0761 22.9857 31.173 23.1015C31.27 23.2172 31.4315 23.2982 31.5429 23.1979C31.595 23.1497 31.623 23.0764 31.6683 23.0209C31.7865 22.8762 31.9813 22.8951 32.1443 22.843C32.2526 22.81 32.3447 22.738 32.4028 22.6409C32.434 22.5874 32.4525 22.5274 32.457 22.4657C32.4614 22.4039 32.4516 22.3419 32.4284 22.2845C32.3628 22.1398 32.2123 22.0955 32.0778 22.0699C31.6441 21.9967 31.203 21.9777 30.7646 22.0135V22.0135Z" fill="#424747"/>
<path d="M22.9639 39.0534L24.1358 40.4708C25.1881 41.7435 26.2457 43.0219 27.4764 44.1239C26.6083 42.8107 26.1864 41.2052 25.122 40.0449C26.8157 39.9547 27.4513 40.0237 28.7592 39.8829C29.3804 39.8163 31.676 39.2767 32.164 39.0968C31.9253 39.0071 25.3318 39.5559 22.9639 39.0534Z" fill="#5571AA"/>
<path d="M37.6143 34.918C39.7112 37.4499 41.9523 39.8641 44.2401 42.2272C42.5655 40.0691 41.0072 37.8232 39.5718 35.4991C38.8113 34.2674 38.1052 33.1361 37.9321 31.6999C37.8578 31.8576 36.4791 32.1879 34.6045 32.2043C35.1408 32.5371 35.7065 32.8583 36.1772 33.3048C36.7019 33.8045 37.1171 34.3948 37.6143 34.918Z" fill="#5571AA"/>
<path d="M36.6213 33.2739C36.5282 33.3222 36.4284 33.382 36.3869 33.4794C36.3223 33.6303 36.4665 33.8252 36.628 33.8078C36.5578 33.8639 36.5105 33.9437 36.495 34.0322C36.4794 34.1207 36.4967 34.2118 36.5436 34.2885C36.5905 34.3652 36.6638 34.4221 36.7496 34.4485C36.8355 34.475 36.9281 34.4693 37.01 34.4323C36.8364 34.4926 36.8595 34.7738 37.01 34.876C37.1604 34.9783 37.3635 34.9546 37.5443 34.9243C38.0189 34.8437 38.4949 34.742 38.9337 34.5433C39.1681 34.4314 39.3958 34.3062 39.6156 34.1681C39.8635 34.0186 40.1389 33.8281 40.1659 33.5411C40.1886 33.3034 40.0212 33.0796 39.8119 32.9624C39.6026 32.8452 39.3591 32.8148 39.1218 32.7859C38.1713 32.6687 37.4667 32.8018 36.6213 33.2739Z" fill="#FCB33D"/>
<path d="M38.6922 17.5069C39.1964 17.5861 39.6925 17.7102 40.1747 17.8778C40.5412 18.0051 40.9058 18.1613 41.2009 18.4135C41.4961 18.6658 41.7169 19.0275 41.7247 19.4133C41.9137 18.2718 41.3302 17.1466 40.6516 16.2091C39.9856 15.2904 39.2005 14.446 38.2538 13.819C37.4176 13.263 36.2963 12.7634 35.2725 12.8183C37.2497 13.5297 38.7139 15.3333 38.6922 17.5069Z" fill="#E09B38"/>
<path d="M24.8738 30.4221C24.9341 30.44 25.0001 30.4612 25.0305 30.5157C25.05 30.5603 25.0556 30.6097 25.0464 30.6575C25.0143 31.0163 24.9821 31.3751 24.95 31.7339C25.1702 31.2143 25.3909 30.6949 25.6121 30.1757L23.8437 29.4706C23.3715 29.2826 22.8989 29.0945 22.4408 28.8746C21.2563 28.3065 20.1814 27.5358 19.1416 26.7338C19.8356 27.2691 20.4215 27.9395 21.1131 28.481C21.8253 29.0411 22.6025 29.5129 23.428 29.8864C23.8969 30.0982 24.38 30.2773 24.8738 30.4221V30.4221Z" fill="#E09B38"/>
<path d="M37.2812 29.2091C37.7254 29.1388 38.1796 29.1704 38.6097 29.3015C39.0398 29.4326 39.4345 29.6597 39.7639 29.9658C40.0938 30.2773 40.361 30.7195 40.2737 31.1652C40.2163 31.4579 40.0133 31.7034 39.7823 31.8919C39.9424 31.7531 40.0494 31.5632 40.0852 31.3543C40.121 31.1455 40.0833 30.9307 39.9785 30.7466C39.7856 30.4249 39.409 30.2604 39.0439 30.1717C38.6923 30.0859 38.3299 30.0526 37.9685 30.0728C37.9345 30.0706 37.9009 30.0817 37.8749 30.1037C37.8645 30.1187 37.8573 30.1357 37.8537 30.1536C37.8501 30.1715 37.8503 30.19 37.8542 30.2079C37.9067 30.8623 37.8667 30.9264 37.9207 31.5857C37.7944 31.3503 37.3218 29.2033 37.2812 29.2091Z" fill="#E09B38"/>
<path d="M38.819 19.3342C38.7385 19.371 38.6664 19.4241 38.6073 19.4899C38.5481 19.5558 38.5031 19.6331 38.4751 19.7171C37.4387 23.117 35.6269 25.0702 31.7953 25.6851C30.2911 25.9262 26.9466 26.1133 23.5273 24.6675C23.8435 25.0121 24.194 25.3235 24.5734 25.5968C25.8022 26.4794 27.2842 26.9448 28.7691 27.2274C29.6545 27.3952 33.2541 27.4878 34.1473 27.3653C35.6461 27.1599 37.1503 26.7712 38.423 25.9528C39.2693 25.4013 39.9891 24.6769 40.5353 23.8273C41.0814 22.9776 41.4413 22.0219 41.5915 21.0231C41.6412 20.6744 41.6638 20.3224 41.659 19.9703C40.9182 19.5141 40.0362 19.2912 39.1628 19.2826C39.0458 19.2743 38.9284 19.2919 38.819 19.3342V19.3342Z" fill="#E8DED4"/>
<path d="M41.36 17.5411C42.0197 18.0779 42.1403 21.6182 41.2153 23.1889C39.1961 21.2058 36.7785 20.0228 34.0489 19.271C33.0361 18.9918 31.9896 18.78 30.9392 18.8283C30.0943 18.8669 29.2643 19.0737 28.4681 19.3588C26.5259 20.0588 24.7824 21.2193 23.387 22.7409C23.1058 23.0481 22.8348 23.3779 22.694 23.77C22.7258 23.6803 22.2016 22.9502 22.1389 22.819C21.9794 22.4882 21.8451 22.1458 21.7371 21.7947C21.5211 21.0906 21.4097 20.3586 21.4063 19.6221C21.4034 18.8842 21.4926 18.101 21.7439 17.4037C21.8809 17.0217 22.1611 17.0791 22.5396 17.0333C22.9848 16.9798 27.0117 16.7796 31.9168 16.8018C36.4129 16.8201 41.237 17.4413 41.36 17.5411Z" fill="#637DCE"/>
<path d="M24.8372 17.9953C24.3805 18.2181 23.9865 18.627 23.9089 19.1295C23.8312 19.6321 24.1572 20.1997 24.6593 20.2793C25.0128 20.3352 25.3566 20.1577 25.672 19.986L27.5095 18.9791C27.6223 18.9173 27.7385 18.8532 27.8191 18.7529C28.0602 18.4495 27.8446 17.9615 27.4964 17.7884C27.1183 17.6017 26.6284 17.6721 26.2223 17.6741C25.7429 17.6802 25.2704 17.7898 24.8372 17.9953V17.9953Z" fill="#F4E9DC"/>
<path d="M25.1456 18.5907C25.0491 18.8289 25.1017 19.1318 25.3004 19.2952C25.3767 19.3552 25.465 19.3982 25.5593 19.4211C25.8598 19.4997 26.2089 19.4038 26.3975 19.1573C26.5861 18.9109 26.5735 18.5198 26.344 18.3105C26.2547 18.2283 26.1467 18.1692 26.0293 18.1383C25.9119 18.1074 25.7888 18.1057 25.6706 18.1334C25.5524 18.161 25.4428 18.2171 25.3513 18.2968C25.2598 18.3765 25.1891 18.4774 25.1456 18.5907V18.5907Z" fill="#424747"/>
<path d="M25.3677 18.6756C25.3602 18.7183 25.3623 18.7621 25.374 18.8038C25.3857 18.8456 25.4066 18.8841 25.4352 18.9167C25.4654 18.9484 25.5059 18.9683 25.5494 18.973C25.5929 18.9777 25.6367 18.9668 25.6729 18.9423C25.7419 18.8878 25.7506 18.786 25.8022 18.7146C25.8504 18.6515 25.9266 18.6138 25.9613 18.5434C25.9771 18.5087 25.9809 18.4698 25.9722 18.4327C25.9635 18.3956 25.9427 18.3625 25.9131 18.3385C25.7178 18.1875 25.3956 18.4865 25.3677 18.6756Z" fill="white"/>
<path d="M41.3183 17.5657C41.2556 17.5151 39.9757 17.3289 38.1416 17.1563C38.2201 17.2374 38.2886 17.3276 38.3456 17.4249C38.5276 17.7747 38.5951 18.1728 38.5385 18.5631C38.4744 18.9875 38.2689 19.4094 37.9082 19.6424C37.5316 19.8864 37.0512 19.8902 36.6037 19.8546C36.1769 19.819 35.7529 19.7546 35.3348 19.6617C35.2152 19.6351 35.0937 19.6067 34.9736 19.5826C37.3092 20.3397 39.3955 21.4634 41.1736 23.2111C42.0981 21.6423 41.9775 18.102 41.3183 17.5657Z" fill="#5571AA"/>
<path d="M38.9934 18.1308C39.4477 18.3589 39.8369 18.7726 39.9097 19.2761C39.9825 19.7796 39.6483 20.3434 39.1458 20.4167C38.7918 20.4683 38.4499 20.287 38.1384 20.1114C37.5275 19.769 36.9182 19.4263 36.3106 19.0832C36.1987 19.02 36.0834 18.9545 36.0039 18.8532C35.7627 18.5469 35.9875 18.0613 36.3381 17.8935C36.7181 17.7117 37.2061 17.7879 37.6137 17.7946C38.0924 17.8061 38.563 17.9207 38.9934 18.1308V18.1308Z" fill="#F4E9DC"/>
<path d="M38.6784 18.7228C38.7725 18.964 38.7161 19.2639 38.5154 19.425C38.4386 19.4845 38.3498 19.5265 38.255 19.548C37.9536 19.6227 37.6054 19.5229 37.4202 19.2741C37.235 19.0252 37.2514 18.6346 37.4834 18.4282C37.5736 18.3469 37.6824 18.289 37.8001 18.2595C37.9179 18.23 38.0411 18.2297 38.159 18.2588C38.2769 18.2879 38.3859 18.3454 38.4764 18.4263C38.567 18.5071 38.6363 18.609 38.6784 18.7228V18.7228Z" fill="#424747"/>
<path d="M38.456 18.8049C38.4632 18.8478 38.4605 18.8918 38.4484 18.9335C38.4362 18.9753 38.4147 19.0137 38.3856 19.0461C38.355 19.0773 38.3143 19.0968 38.2707 19.101C38.2271 19.1052 38.1835 19.094 38.1474 19.0692C38.0794 19.0133 38.0717 18.912 38.0205 18.8401C37.9757 18.776 37.8976 18.7374 37.8638 18.667C37.8482 18.6324 37.8445 18.5935 37.8532 18.5566C37.862 18.5196 37.8826 18.4866 37.912 18.4625C38.1093 18.3125 38.4276 18.6159 38.456 18.8049Z" fill="white"/>
<path d="M31.6216 24.8176C32.3387 24.822 33.1316 24.5423 33.6143 24.0123C33.3252 24.6254 32.8798 25.1517 32.3228 25.5382C32.0151 25.7508 31.6679 25.9211 31.2961 25.963C30.9243 26.005 30.5245 25.9047 30.2597 25.6409C30.0885 25.4706 29.9829 25.2459 29.899 25.0192C29.8252 24.8186 29.668 24.1073 29.668 24.1073C29.668 24.1073 30.2703 24.8095 31.6216 24.8176Z" fill="#343438"/>
<path d="M16.4818 37.578C16.8056 37.0873 17.195 36.6432 17.6392 36.2581L15.9479 35.8395C14.1495 36.8624 12.3599 37.9098 10.3252 38.0073C12.4415 39.5085 14.8669 40.5173 17.4236 40.9597C17.2379 40.7099 17.0251 40.4815 16.789 40.2787L18.2358 40.258C17.8838 39.7722 17.4418 39.3586 16.9337 39.0398C17.4088 38.9639 17.8815 38.8756 18.3515 38.775C17.8076 38.2639 17.1736 37.8581 16.4818 37.578V37.578Z" fill="#F4E9DC"/>
<path d="M34.1954 34.0139C34.1757 34.7928 33.0091 35.3946 31.5912 35.358C30.1733 35.3213 29.0381 34.6606 29.0579 33.8813C29.0776 33.1019 30.2442 32.5006 31.6621 32.5372C33.0799 32.5739 34.2157 33.235 34.1954 34.0139Z" fill="#EFCC22"/>
<path opacity="0.23" d="M25.2979 14.7069C25.0375 14.9258 24.78 15.166 24.6425 15.4785C24.5051 15.791 24.5162 16.1899 24.7535 16.4334C25.0428 16.7319 25.5574 16.6832 25.9061 16.4551C26.2547 16.227 26.4882 15.8643 26.7452 15.5388C27.3588 14.756 28.1498 14.1303 29.0528 13.7134C29.156 13.6652 29.2655 13.617 29.3345 13.5273C29.4034 13.4376 29.4116 13.289 29.3205 13.221C29.2713 13.1899 29.2143 13.1732 29.156 13.1728C27.7536 13.0653 26.3425 13.8273 25.2979 14.7069Z" fill="white"/>
<path opacity="0.65" d="M30.2611 33.0614C30.0962 33.1685 29.9419 33.3026 29.8584 33.482C29.775 33.6614 29.7745 33.8866 29.8965 34.0409C29.966 34.1233 30.0632 34.1774 30.1698 34.193C30.2764 34.2086 30.3851 34.1847 30.4753 34.1258C30.6373 34.0129 30.6995 33.807 30.8042 33.6392C30.8983 33.4919 31.0282 33.3708 31.1818 33.2874C31.3353 33.2039 31.5076 33.1606 31.6824 33.1617C31.7813 33.1724 31.881 33.1724 31.9799 33.1617C32.0764 33.142 32.1752 33.074 32.1887 32.9751C32.1914 32.9313 32.1815 32.8877 32.1601 32.8494C32.1388 32.8111 32.1068 32.7798 32.0682 32.7591C31.99 32.7189 31.9038 32.6968 31.816 32.6944C31.2618 32.6448 30.7299 32.7571 30.2611 33.0614Z" fill="white"/>
</svg>
