<svg width="16" height="17" viewBox="0 0 16 17" fill="none" xmlns="http://www.w3.org/2000/svg">
<path d="M16 17H12.1481C11.8974 17 11.6923 16.9378 11.5328 16.8133C11.3808 16.6889 11.2593 16.5411 11.1681 16.3699L7.84046 10.4194C7.77968 10.5905 7.7113 10.7383 7.63533 10.8627L4.53561 16.3699C4.42925 16.5255 4.30389 16.6694 4.15954 16.8016C4.01519 16.9339 3.82906 17 3.60114 17H0L5.34473 8.24914L0.205128 0H4.05698C4.30769 0 4.49003 0.0350032 4.60399 0.10501C4.72555 0.167238 4.83191 0.276138 4.92308 0.431708L8.22792 6.1606C8.26591 6.05948 8.30769 5.96225 8.35328 5.86891C8.40646 5.77557 8.46344 5.67833 8.52422 5.57721L11.4188 0.490047C11.5252 0.31892 11.6353 0.194463 11.7493 0.116678C11.8708 0.0388927 12.019 0 12.1937 0H15.886L10.6781 8.08579L16 17Z" fill="#D8D8D8"/>
</svg>
